<?xml version="1.0" encoding="UTF-8" standalone="no"?>
<svg
   xmlns:dc="http://purl.org/dc/elements/1.1/"
   xmlns:cc="http://creativecommons.org/ns#"
   xmlns:rdf="http://www.w3.org/1999/02/22-rdf-syntax-ns#"
   xmlns:svg="http://www.w3.org/2000/svg"
   xmlns="http://www.w3.org/2000/svg"
   xmlns:sodipodi="http://sodipodi.sourceforge.net/DTD/sodipodi-0.dtd"
   xmlns:inkscape="http://www.inkscape.org/namespaces/inkscape"
   version="1.2"
   width="810"
   height="810"
   stroke-linecap="round"
   stroke-linejoin="round"
   id="svg18"
   sodipodi:docname="az.svg"
   inkscape:version="0.92.1 r15371">
  <metadata
     id="metadata24">
    <rdf:RDF>
      <cc:Work
         rdf:about="">
        <dc:format>image/svg+xml</dc:format>
        <dc:type
           rdf:resource="http://purl.org/dc/dcmitype/StillImage" />
      </cc:Work>
    </rdf:RDF>
  </metadata>
  <defs
     id="defs22" />
  <sodipodi:namedview
     pagecolor="#ffffff"
     bordercolor="#666666"
     borderopacity="1"
     objecttolerance="10"
     gridtolerance="10"
     guidetolerance="10"
     inkscape:pageopacity="0"
     inkscape:pageshadow="2"
     inkscape:window-width="1920"
     inkscape:window-height="1017"
     id="namedview20"
     showgrid="false"
     inkscape:zoom="0.58271605"
     inkscape:cx="362.2917"
     inkscape:cy="486.79278"
     inkscape:window-x="-8"
     inkscape:window-y="-8"
     inkscape:window-maximized="1"
     inkscape:current-layer="Arizona" />
  <g
     id="Arizona"
     transform="translate(5,5)">
    <path
       style="color:#000000;font-style:normal;font-variant:normal;font-weight:normal;font-stretch:normal;font-size:medium;line-height:normal;font-family:sans-serif;font-variant-ligatures:normal;font-variant-position:normal;font-variant-caps:normal;font-variant-numeric:normal;font-variant-alternates:normal;font-feature-settings:normal;text-indent:0;text-align:start;text-decoration:none;text-decoration-line:none;text-decoration-style:solid;text-decoration-color:#000000;letter-spacing:normal;word-spacing:normal;text-transform:none;writing-mode:lr-tb;direction:ltr;text-orientation:mixed;dominant-baseline:auto;baseline-shift:baseline;text-anchor:start;white-space:normal;shape-padding:0;clip-rule:nonzero;display:inline;overflow:visible;visibility:visible;opacity:1;isolation:auto;mix-blend-mode:normal;color-interpolation:sRGB;color-interpolation-filters:linearRGB;solid-color:#000000;solid-opacity:1;vector-effect:none;fill:#cccccc;fill-opacity:1;fill-rule:nonzero;stroke:none;stroke-width:1;stroke-linecap:butt;stroke-linejoin:miter;stroke-miterlimit:4;stroke-dasharray:none;stroke-dashoffset:0;stroke-opacity:1;color-rendering:auto;image-rendering:auto;shape-rendering:auto;text-rendering:auto;enable-background:accumulate"
       d="m 160.25781,3.5117188 14.62891,0.3671874 a 0.50005,0.50005 0 0 0 0.004,0.00195 l 32.79883,0.6289062 a 0.50005,0.50005 0 0 0 0.002,0 l 39.31054,0.6210938 a 0.50005,0.50005 0 0 0 0.002,0 l 34.63086,0.4296875 a 0.50005,0.50005 0 0 0 0.002,0 l 47.47656,0.3554687 -0.30078,1.3222656 a 0.50005,0.50005 0 0 0 0.008,0.2539063 l 1.35938,4.5566407 -1.57617,1.701172 a 0.50005,0.50005 0 0 0 -0.13086,0.28125 l -0.41797,3.501953 -2.3125,2.226563 a 0.50005,0.50005 0 0 0 -0.13672,0.238281 l -1.6582,6.599609 -0.79688,0.824219 a 0.50005,0.50005 0 0 0 -0.13281,0.257813 l -0.82227,4.46289 -2.22656,3.466797 a 0.50005,0.50005 0 0 0 -0.0742,0.332031 l 0.78516,6.324219 -2.99219,8.660156 a 0.50005,0.50005 0 0 0 -0.0117,0.291016 l 1.72656,6.587891 0.16407,4.160156 -1.32813,3.386718 -2.20117,1.59375 a 0.50005,0.50005 0 0 0 -0.20117,0.328126 l -0.63086,4.039062 a 0.50005,0.50005 0 0 0 0.0527,0.310547 l 3.83399,7.306641 -2.24805,2.160156 a 0.50005,0.50005 0 0 0 -0.1543,0.36914 l 0.0605,3.230469 a 0.50005,0.50005 0 0 0 0.084,0.267578 l 2.13868,3.228516 -0.52539,2.189453 -2.08399,1.53125 a 0.50005,0.50005 0 0 0 -0.19922,0.341797 l -0.21875,1.746094 -3.01172,2.923828 -1.59179,-1.582031 a 0.50005,0.50005 0 0 0 -0.55664,-0.101563 l -2.86133,1.289063 a 0.50005,0.50005 0 0 0 -0.29102,0.511718 l 0.29102,2.640625 -2.36719,-0.222656 a 0.50005,0.50005 0 0 0 -0.42969,0.175781 l -1.61914,1.921877 -2.68164,1.06445 a 0.50005,0.50005 0 0 0 -0.29492,0.32032 l -0.58398,1.92383 -1.82618,-0.41602 a 0.50005,0.50005 0 0 0 -0.30273,0.0254 l -3.64063,1.50586 -1.95898,-0.70508 a 0.50005,0.50005 0 0 0 -0.50586,0.10156 l -4.16406,3.8086 -2.3125,-0.35352 a 0.50005,0.50005 0 0 0 -0.53321,0.29102 l -0.63867,1.4414 -5.26172,1.60547 -2.68554,-0.95508 a 0.50005,0.50005 0 0 0 -0.36133,0.01 l -3.41016,1.44141 a 0.50005,0.50005 0 0 0 -0.20898,0.16601 l -1.83203,2.51172 -4.74805,2.10547 a 0.50005,0.50005 0 0 0 -0.10547,0.0625 l -4.51172,3.53125 -1.69726,-0.98828 a 0.50005,0.50005 0 0 0 -0.51367,0.006 l -4.81055,2.95898 a 0.50005,0.50005 0 0 0 -0.23438,0.36133 l -0.61328,4.61914 -2.48828,3.57813 -3.29297,0.29687 -2.37109,-1.21484 a 0.50005,0.50005 0 0 0 -0.17383,-0.0508 l -3.87891,-0.42969 a 0.50005,0.50005 0 0 0 -0.50976,0.28711 l -2.02149,4.36914 -2.69336,3.84375 a 0.50005,0.50005 0 0 0 -0.0762,0.40625 l 2.10938,8.56054 a 0.50005,0.50005 0 0 0 0.0879,0.18165 l 1.79297,2.36328 -2.04102,6.37109 a 0.50005,0.50005 0 0 0 0.10547,0.49024 l 2.5332,2.7871 0.0273,3.875 -1.85547,3.00782 a 0.50005,0.50005 0 0 0 -0.0684,0.18554 l -0.87891,5.58008 a 0.50005,0.50005 0 0 0 -0.008,0.0703 l -0.57812,38.17969 a 0.50005,0.50005 0 0 0 0,0.0156 l 0.0684,3.94336 -1.63868,115.21875 -0.38086,16.23828 a 0.50005,0.50005 0 0 0 0,0.01 l -0.0195,11.58789 -0.33789,22.31641 -1.99219,2.33008 -1.91601,0.89258 -3.39453,-1.07227 a 0.50005,0.50005 0 0 0 -0.0957,-0.0195 l -8.66015,-0.92969 a 0.50005,0.50005 0 0 0 -0.0371,-0.004 L 211.02734,381 a 0.50005,0.50005 0 0 0 -0.44726,0.24414 l -1.6836,2.83594 -3.4746,3.80273 a 0.50005,0.50005 0 0 0 -0.0664,0.0899 l -1.8125,3.19531 -2.9082,0.5 a 0.50005,0.50005 0 0 0 -0.14649,0.0488 l -4.32226,2.26953 -4.39454,0.19531 -1.86523,-1.66016 -0.83594,-2.30273 a 0.50005,0.50005 0 0 0 -0.60937,-0.30859 l -4.90821,1.42578 -2.17773,-1.03711 a 0.50005,0.50005 0 0 0 -0.37305,-0.0234 l -4.64843,1.55859 -1.3379,-3.42578 a 0.50005,0.50005 0 0 0 -0.34179,-0.30273 l -2.24024,-0.57031 a 0.50005,0.50005 0 0 0 -0.25976,0.004 l -2.81445,0.79883 -3.72852,-0.14453 -3.89453,-1.28711 a 0.50005,0.50005 0 0 0 -0.20703,-0.0234 l -4.85157,0.5 -2.74023,-0.82422 -4.2207,-4.31836 a 0.50005,0.50005 0 0 0 -0.1543,-0.10742 l -3.34961,-1.49023 a 0.50005,0.50005 0 0 0 -0.375,-0.0117 l -1.70508,0.62109 -2.48242,-1.04687 -2.0293,-1.96289 -2.15234,-4.38281 a 0.50005,0.50005 0 0 0 -0.16797,-0.19336 l -2.5918,-1.75 a 0.50005,0.50005 0 0 0 -0.16796,-0.0742 l -2.91797,-0.66211 -4.21289,-4.94336 a 0.50005,0.50005 0 0 0 -0.26368,-0.16211 l -2.37695,-0.56836 -1.47461,-2.8457 a 0.50005,0.50005 0 0 0 -0.14453,-0.16993 l -4.75,-3.56054 a 0.50005,0.50005 0 0 0 -0.375,-0.0937 l -3.35937,0.5 -1.1211,-1.19727 1.11719,-6.64648 a 0.50005,0.50005 0 0 0 0.006,-0.1211 l -0.24024,-3.14843 a 0.50005,0.50005 0 0 0 -0.0469,-0.17774 l -2.68945,-5.66015 a 0.50005,0.50005 0 0 0 -0.0801,-0.11915 l -3.23047,-3.58984 1.20312,-1.54883 a 0.50005,0.50005 0 0 0 -0.0488,-0.66797 l -1.53711,-1.47265 -1.23828,-5.96875 a 0.50005,0.50005 0 0 0 -0.0176,-0.0645 l -2.45117,-6.93945 a 0.50005,0.50005 0 0 0 -0.18946,-0.24805 l -4.833982,-3.28906 -3.984375,-4.23828 -1.957031,-3.79297 -1.666016,-5.79297 a 0.50005,0.50005 0 0 0 -0.146484,-0.23437 l -4.832031,-4.33399 -0.566407,-2.45898 0.728516,-2.88281 a 0.50005,0.50005 0 0 0 0.01563,-0.0957 l 0.269531,-5.26171 a 0.50005,0.50005 0 0 0 -0.01563,-0.15625 l -0.511719,-1.88477 0.742188,-4.48242 a 0.50005,0.50005 0 0 0 0.002,-0.15039 l -0.689453,-4.91602 3.453125,-4.01953 a 0.50005,0.50005 0 0 0 0.117187,-0.26367 l 0.279297,-2.21875 a 0.50005,0.50005 0 0 0 -0.177734,-0.44727 l -4.345703,-3.60351 1.296875,-1.57422 6.105469,-1.43164 a 0.50005,0.50005 0 0 0 0.371093,-0.36914 l 1.13086,-4.66992 a 0.50005,0.50005 0 0 0 0.01367,-0.13282 l -0.160157,-5.36914 a 0.50005,0.50005 0 0 0 -0.08594,-0.26562 l -0.796875,-1.18164 -0.609375,-7.2793 a 0.50005,0.50005 0 0 0 -0.0098,-0.0644 l -1.042969,-4.80469 0.363282,-3.74219 a 0.50005,0.50005 0 0 0 -0.01563,-0.17969 L 89.242291,224.1175 a 0.50005,0.50005 0 0 0 -0.119141,-0.21094 l -2.816406,-2.96094 -2.648438,-9.38672 0.199219,-1.71289 2.265625,-2.54297 a 0.50005,0.50005 0 0 0 0.123047,-0.39453 l -0.560547,-4.54882 1.285156,-6.2793 a 0.50005,0.50005 0 0 0 -0.08008,-0.38477 l -3.794922,-5.48437 0.837891,-5.14063 a 0.50005,0.50005 0 0 0 -0.0957,-0.38281 l -2.34961,-3.10938 0.935547,-2.79882 a 0.50005,0.50005 0 0 0 0.02539,-0.15625 l 0.04102,-7.91993 a 0.50005,0.50005 0 0 0 -0.07813,-0.27148 l -1.289062,-2.03711 1.882812,-3.33984 a 0.50005,0.50005 0 0 0 0.0098,-0.47266 L 82,162.60156 l 4.666016,-3.07422 a 0.50005,0.50005 0 0 0 0.07422,-0.77343 l -4.017578,-3.96094 -1.24414,-4.13672 a 0.50005,0.50005 0 0 0 -0.0293,-0.0742 l -2.964844,-6.11914 0.148437,-4.94531 1.91211,-1.72656 a 0.50005,0.50005 0 0 0 0.05273,-0.6875 L 78.683594,134.75586 79.25,134 a 0.50005,0.50005 0 0 0 0.05469,-0.50781 l -1.910157,-4.16797 1.869141,-2.29297 5.886719,-0.47266 a 0.50005,0.50005 0 0 0 0.255859,-0.0957 l 5.779297,-4.25586 1.916015,1.35156 a 0.50005,0.50005 0 0 0 0.53711,0.0254 l 4.441406,-2.54687 6.66015,0.36328 0.85938,2.92969 a 0.50005,0.50005 0 0 0 0.69336,0.3125 l 3.21875,-1.50781 2.55469,1.76562 a 0.50005,0.50005 0 0 0 0.5957,-0.0195 l 3.15234,-2.52344 4.65235,0.43555 1.08984,1.88672 a 0.50005,0.50005 0 0 0 0.0879,0.11133 l 3.32813,3.17968 2.22656,3.05469 -0.60742,2.04102 a 0.50005,0.50005 0 0 0 0.13672,0.50976 l 2.40039,2.24024 a 0.50005,0.50005 0 0 0 0.18164,0.10742 l 2.02929,0.68359 0.92969,2.60156 a 0.50005,0.50005 0 0 0 0.2168,0.26172 l 3.14062,1.84961 a 0.50005,0.50005 0 0 0 0.37891,0.0527 l 6.7832,-1.75782 2.36133,0.53321 a 0.50005,0.50005 0 0 0 0.52344,-0.20703 l 1.94922,-2.85938 a 0.50005,0.50005 0 0 0 0.0801,-0.20508 l 0.4668,-2.97265 2.24805,-4.08399 a 0.50005,0.50005 0 0 0 0.0527,-0.33593 l -0.4375,-2.25196 1.88672,-0.63867 a 0.50005,0.50005 0 0 0 0.29883,-0.27344 l 3.39648,-7.78125 2.69727,-2.05078 a 0.50005,0.50005 0 0 0 0.19727,-0.39453 l 0.0801,-11.19141 0.58008,-14.863278 a 0.50005,0.50005 0 0 0 0,-0.01367 l 0.16992,-16.34961 a 0.50005,0.50005 0 0 0 0,-0.0039 l 0.0898,-27.017578 0.34961,-21.615235 z"
       id="Mohave" />
    <path
       style="color:#000000;font-style:normal;font-variant:normal;font-weight:normal;font-stretch:normal;font-size:medium;line-height:normal;font-family:sans-serif;font-variant-ligatures:normal;font-variant-position:normal;font-variant-caps:normal;font-variant-numeric:normal;font-variant-alternates:normal;font-feature-settings:normal;text-indent:0;text-align:start;text-decoration:none;text-decoration-line:none;text-decoration-style:solid;text-decoration-color:#000000;letter-spacing:normal;word-spacing:normal;text-transform:none;writing-mode:lr-tb;direction:ltr;text-orientation:mixed;dominant-baseline:auto;baseline-shift:baseline;text-anchor:start;white-space:normal;shape-padding:0;clip-rule:nonzero;display:inline;overflow:visible;visibility:visible;opacity:1;isolation:auto;mix-blend-mode:normal;color-interpolation:sRGB;color-interpolation-filters:linearRGB;solid-color:#000000;solid-opacity:1;vector-effect:none;fill:#cccccc;fill-opacity:1;fill-rule:nonzero;stroke:none;stroke-width:1;stroke-linecap:butt;stroke-linejoin:miter;stroke-miterlimit:4;stroke-dasharray:none;stroke-dashoffset:0;stroke-opacity:1;color-rendering:auto;image-rendering:auto;shape-rendering:auto;text-rendering:auto;enable-background:accumulate"
       d="m 530.20508,4.9980469 2.70508,224.7988331 1.81836,155.86718 -0.67579,-1.64453 a 0.50005,0.50005 0 0 0 -0.34375,-0.29492 l -3.66015,-0.89063 a 0.50005,0.50005 0 0 0 -0.20117,-0.008 l -3.32032,0.55078 a 0.50005,0.50005 0 0 0 -0.33203,0.21289 l -2.47461,3.66407 -2.89062,-0.99024 -2.21485,-3.55859 a 0.50005,0.50005 0 0 0 -0.32226,-0.22461 l -5.0332,-1.05274 -3.10157,-1.79101 -0.73437,-1.60547 a 0.50005,0.50005 0 0 0 -0.26953,-0.25586 l -2.36914,-0.9375 -1.56446,-2.09766 a 0.50005,0.50005 0 0 0 -0.76562,-0.043 l -2.2793,2.43359 -1.22266,-0.53125 1.02344,-3.25 a 0.50005,0.50005 0 0 0 -0.34961,-0.63281 l -4.07422,-1.07422 -1.21484,-1.7207 a 0.50005,0.50005 0 0 0 -0.62305,-0.16407 l -3.44531,1.64063 -2.20312,-0.20899 -2.31055,-2.49023 a 0.50005,0.50005 0 0 0 -0.29102,-0.1543 l -5.13867,-0.7832 -5.42187,-5.77344 a 0.50005,0.50005 0 0 0 -0.59571,-0.10156 l -6.51367,3.40625 -4.6543,0.46484 -1.88281,-1.92773 a 0.50005,0.50005 0 0 0 -0.66211,-0.0469 l -3.19922,2.44922 a 0.50005,0.50005 0 0 0 -0.1914,0.32813 l -0.72461,5.23633 -1.2168,-1.46485 -0.2832,-7.31055 A 0.50005,0.50005 0 0 0 456.1582,362.656 l -3.83984,3.2207 a 0.50005,0.50005 0 0 0 -0.11914,0.14844 l -0.64063,1.20117 -4.41601,-1.01367 a 0.50005,0.50005 0 0 0 -0.42188,0.0937 l -1.67773,1.31836 -1.6543,-0.69141 6.81445,-4.21875 a 0.50005,0.50005 0 0 0 -0.24218,-0.92382 l -2.78906,-0.12305 -2.14454,-2.06836 a 0.50005,0.50005 0 0 0 -0.32031,-0.13867 l -2.5625,-0.14258 0.21485,-22.58398 a 0.50005,0.50005 0 0 0 0,-0.006 l -0.0899,-23.26954 a 0.50005,0.50005 0 0 0 -0.49609,-0.49804 l -23.89063,-0.16016 a 0.50005,0.50005 0 0 0 -0.0293,0 l -1.7129,0.0918 0.0391,-24.36133 a 0.50005,0.50005 0 0 0 -0.58985,-0.49219 l -3.57422,0.65039 -22.06445,-0.0195 a 0.50005,0.50005 0 0 0 -0.0703,0.004 l -2.40625,0.33594 -35.51563,0.0488 -0.0391,-24.03906 a 0.50005,0.50005 0 0 0 -0.49219,-0.5 l -11.76562,-0.19141 0.0684,-14.90624 a 0.50005,0.50005 0 0 0 -0.82031,-0.38672 l -3.32422,2.76562 -2.84375,-0.58984 a 0.50005,0.50005 0 0 0 -0.1875,-0.004 l -4.74805,0.82227 -3.82617,-0.93555 -2.66406,-3.25 a 0.50005,0.50005 0 0 0 -0.16797,-0.13281 l -1.85352,-0.90039 0.1543,-1.89063 a 0.50005,0.50005 0 0 0 -0.25195,-0.47461 l -2.46875,-1.41015 a 0.50005,0.50005 0 0 0 -0.47657,-0.01 l -1.94922,1 -1.90234,-1.97266 a 0.50005,0.50005 0 0 0 -0.26367,-0.14257 l -2.55078,-0.5 a 0.50005,0.50005 0 0 0 -0.20703,0.002 l -3.71875,0.84375 -5.51758,-1.49414 -1.2832,-0.96094 a 0.50005,0.50005 0 0 0 -0.16407,-0.082 l -10.61914,-2.99023 a 0.50005,0.50005 0 0 0 -0.043,-0.01 l -6.96679,-1.32227 -0.86524,-3.07226 a 0.50005,0.50005 0 0 0 -0.084,-0.16797 l -1.70899,-2.24023 a 0.50005,0.50005 0 0 0 -0.11523,-0.10743 l -12.25,-8.41992 a 0.50005,0.50005 0 0 0 -0.0449,-0.0293 l -7.09766,-3.83008 -2.98633,-3.83594 a 0.50005,0.50005 0 0 0 -0.35547,-0.19141 l -4.92773,-0.39062 -5.42383,-3.08594 a 0.50005,0.50005 0 0 0 -0.26562,-0.0644 l -7.14453,0.25976 0.57226,-37.61718 0.85938,-5.44727 1.87695,-3.04297 a 0.50005,0.50005 0 0 0 0.0742,-0.26758 l -0.0293,-4.20898 a 0.50005,0.50005 0 0 0 -0.13086,-0.33203 l -2.46484,-2.7168 2.03125,-6.3457 a 0.50005,0.50005 0 0 0 -0.0781,-0.45508 l -1.88672,-2.48633 -2.03125,-8.24023 2.58985,-3.69336 a 0.50005,0.50005 0 0 0 0.0449,-0.0781 l 1.88867,-4.08203 3.42969,0.37891 2.41992,1.23828 a 0.50005,0.50005 0 0 0 0.27149,0.0547 l 3.66992,-0.33008 a 0.50005,0.50005 0 0 0 0.36718,-0.21289 l 2.68946,-3.8711 a 0.50005,0.50005 0 0 0 0.084,-0.21875 l 0.59961,-4.5039 4.35156,-2.67969 1.73243,1.00977 a 0.50005,0.50005 0 0 0 0.56054,-0.0391 l 4.73047,-3.70117 4.8125,-2.13476 a 0.50005,0.50005 0 0 0 0.20117,-0.16211 l 1.83008,-2.50782 3.10156,-1.31054 2.65821,0.94336 a 0.50005,0.50005 0 0 0 0.3125,0.008 l 5.64062,-1.71875 a 0.50005,0.50005 0 0 0 0.31055,-0.27734 l 0.57617,-1.29883 2.17188,0.33203 a 0.50005,0.50005 0 0 0 0.41211,-0.12696 l 4.11718,-3.76562 1.85742,0.66797 a 0.50005,0.50005 0 0 0 0.35938,-0.008 l 3.67383,-1.51954 2.125,0.48438 a 0.50005,0.50005 0 0 0 0.58789,-0.3418 l 0.65039,-2.14062 2.57617,-1.01953 a 0.50005,0.50005 0 0 0 0.19922,-0.14453 l 1.53125,-1.81836 2.71875,0.25586 a 0.50005,0.50005 0 0 0 0.54297,-0.55274 l -0.32031,-2.888671 2.21484,-1 1.69726,1.6875 a 0.50005,0.50005 0 0 0 0.70118,0.0039 l 3.48828,-3.390625 a 0.50005,0.50005 0 0 0 0.14844,-0.294922 l 0.21289,-1.707031 2.05664,-1.513672 a 0.50005,0.50005 0 0 0 0.1914,-0.285157 l 0.61914,-2.580078 a 0.50005,0.50005 0 0 0 -0.0684,-0.392578 l -2.17968,-3.289062 -0.0547,-2.865235 2.36328,-2.269531 a 0.50005,0.50005 0 0 0 0.0957,-0.59375 l -3.93359,-7.492187 0.57227,-3.671876 2.15234,-1.558593 a 0.50005,0.50005 0 0 0 0.17187,-0.220703 l 1.41993,-3.621094 a 0.50005,0.50005 0 0 0 0.0351,-0.201172 l -0.16992,-4.320312 a 0.50005,0.50005 0 0 0 -0.0176,-0.107422 l -1.70117,-6.494141 2.98047,-8.626953 a 0.50005,0.50005 0 0 0 0.0234,-0.22461 l -0.77735,-6.259765 2.18164,-3.398438 a 0.50005,0.50005 0 0 0 0.0723,-0.179687 l 0.8125,-4.410156 0.78516,-0.8125 a 0.50005,0.50005 0 0 0 0.125,-0.22461 l 1.65625,-6.591797 2.33593,-2.25 a 0.50005,0.50005 0 0 0 0.15039,-0.300781 l 0.41993,-3.519531 1.66015,-1.791016 a 0.50005,0.50005 0 0 0 0.11133,-0.482422 l -1.40234,-4.7031246 0.32226,-1.4140625 75.26953,0.140625 a 0.50005,0.50005 0 0 0 0.004,0 l 51.6875,-0.1796875 14.29883,0.048828 a 0.50005,0.50005 0 0 0 0.006,0 l 16.25,-0.1601563 a 0.50005,0.50005 0 0 0 0.0156,0 l 7.55274,-0.2890624 z"
       id="Coconino" />
    <path
       style="color:#000000;font-style:normal;font-variant:normal;font-weight:normal;font-stretch:normal;font-size:medium;line-height:normal;font-family:sans-serif;font-variant-ligatures:normal;font-variant-position:normal;font-variant-caps:normal;font-variant-numeric:normal;font-variant-alternates:normal;font-feature-settings:normal;text-indent:0;text-align:start;text-decoration:none;text-decoration-line:none;text-decoration-style:solid;text-decoration-color:#000000;letter-spacing:normal;word-spacing:normal;text-transform:none;writing-mode:lr-tb;direction:ltr;text-orientation:mixed;dominant-baseline:auto;baseline-shift:baseline;text-anchor:start;white-space:normal;shape-padding:0;clip-rule:nonzero;display:inline;overflow:visible;visibility:visible;opacity:1;isolation:auto;mix-blend-mode:normal;color-interpolation:sRGB;color-interpolation-filters:linearRGB;solid-color:#000000;solid-opacity:1;vector-effect:none;fill:#cccccc;fill-opacity:1;fill-rule:nonzero;stroke:none;stroke-width:1;stroke-linecap:butt;stroke-linejoin:miter;stroke-miterlimit:4;stroke-dasharray:none;stroke-dashoffset:0;stroke-opacity:1;color-rendering:auto;image-rendering:auto;shape-rendering:auto;text-rendering:auto;enable-background:accumulate"
       d="m 442.14453,360.31836 2.32227,0.13086 2.14648,2.07031 a 0.50005,0.50005 0 0 0 0.32422,0.14063 l 1.36133,0.0586 -6.26172,3.87695 a 0.50005,0.50005 0 0 0 0.0703,0.88477 l 2.82031,1.18164 a 0.50005,0.50005 0 0 0 0.50196,-0.0684 l 1.7207,-1.35352 4.55859,1.04688 a 0.50005,0.50005 0 0 0 0.55274,-0.25195 l 0.77344,-1.45508 2.98437,-2.50196 0.25,6.46094 a 0.50005,0.50005 0 0 0 0.11524,0.30078 l 2.05078,2.46875 a 0.50005,0.50005 0 0 0 0.8789,-0.25 l 0.85352,-6.15625 2.68359,-2.05664 1.74024,1.78321 A 0.50005,0.50005 0 0 0 465,366.77734 l 4.99023,-0.5 a 0.50005,0.50005 0 0 0 0.18165,-0.0547 l 6.26367,-3.27344 5.27929,5.62305 a 0.50005,0.50005 0 0 0 0.28907,0.15234 l 5.13867,0.7832 2.32031,2.50196 a 0.50005,0.50005 0 0 0 0.32031,0.1582 l 2.5293,0.24023 a 0.50005,0.50005 0 0 0 0.26172,-0.0469 l 3.18945,-1.51953 1.07813,1.52734 a 0.50005,0.50005 0 0 0 0.28125,0.19531 l 3.74218,0.98633 -1.00195,3.17969 a 0.50005,0.50005 0 0 0 0.27734,0.60742 l 1.96094,0.85156 a 0.50005,0.50005 0 0 0 0.5625,-0.11718 l 2.11328,-2.25586 1.29297,1.73242 a 0.50005,0.50005 0 0 0 0.21485,0.16601 l 2.31445,0.91602 0.71484,1.56641 a 0.50005,0.50005 0 0 0 0.20508,0.22656 l 3.31055,1.91015 a 0.50005,0.50005 0 0 0 0.14648,0.0547 l 4.90235,1.02735 2.19726,3.52734 a 0.50005,0.50005 0 0 0 0.26172,0.20898 l 3.41992,1.16993 a 0.50005,0.50005 0 0 0 0.57617,-0.19141 l 2.57032,-3.80274 3.00586,-0.49804 3.31445,0.80469 1.53711,3.73632 0.41797,36.77539 a 0.50005,0.50005 0 0 0 0.50781,0.49414 l 58.11914,-0.81054 a 0.50005,0.50005 0 0 0 0.002,0 l 28.89063,-0.50196 1.0918,58.76172 0.27929,15.04102 -19.35156,0.41992 a 0.50005,0.50005 0 0 0 -0.48828,0.52539 l 0.0762,1.4668 -2.33203,0.35351 a 0.50005,0.50005 0 0 0 -0.21484,0.0859 l -2.33008,1.66211 -1.39453,-0.92187 a 0.50005,0.50005 0 0 0 -0.50977,-0.0234 l -1.91992,1.01953 -2.74219,-0.69336 a 0.50005,0.50005 0 0 0 -0.42578,0.0859 l -2.15039,1.63476 -2.21875,-0.44726 a 0.50005,0.50005 0 0 0 -0.23828,0.0117 l -3.29102,0.95898 a 0.50005,0.50005 0 0 0 -0.28515,0.21875 l -2.31446,3.75977 -3.44531,-0.73633 a 0.50005,0.50005 0 0 0 -0.20508,-0.002 l -2.09961,0.42968 a 0.50005,0.50005 0 0 0 -0.3789,0.34766 l -0.5586,1.87891 -2.39648,0.61914 a 0.50005,0.50005 0 0 0 -0.37305,0.43359 l -0.95703,9.12695 -0.70117,2.92774 a 0.50005,0.50005 0 0 0 0.0137,0.27929 l 2.69922,7.82032 a 0.50005,0.50005 0 0 0 0.0254,0.0586 l 2.84961,5.7793 -3.91211,-0.23047 a 0.50005,0.50005 0 0 0 -0.375,0.13867 l -1.50195,1.4375 -4.65821,-0.32617 a 0.50005,0.50005 0 0 0 -0.34375,0.10742 l -7.46679,5.87305 -2.5625,1.39648 -1.5293,-0.99609 a 0.50005,0.50005 0 0 0 -0.2793,-0.082 l -3.06054,0.041 a 0.50005,0.50005 0 0 0 -0.41407,0.23047 l -2.46679,3.875 -2.25,0.3086 a 0.50005,0.50005 0 0 0 -0.42383,0.40429 l -0.54102,2.94336 -2.24804,0.5625 a 0.50005,0.50005 0 0 0 -0.19922,0.10156 l -2.41016,2.00977 a 0.50005,0.50005 0 0 0 -0.13476,0.5918 l 0.98242,2.14648 -1.30274,3.26563 -3.92383,3.08789 a 0.50005,0.50005 0 0 0 -0.18945,0.37109 l -0.0918,2.16602 -1.39844,0.16796 -19.45313,-36.5957 -3.38476,-12.75586 a 0.50005,0.50005 0 0 0 -0.0273,-0.0762 l -7.83008,-17.33008 a 0.50005,0.50005 0 0 0 -0.002,-0.004 l -13.5,-29.44922 a 0.50005,0.50005 0 0 0 -0.75781,-0.18946 l -3.19922,2.45118 a 0.50005,0.50005 0 0 0 -0.0664,0.0605 l -3.35156,3.70117 a 0.50005,0.50005 0 0 0 -0.125,0.40039 l 0.21289,1.59961 -1.42383,1.79688 -1.25976,-1.60156 a 0.50005,0.50005 0 0 0 -0.31055,-0.1836 l -2.07226,-0.34765 -6.70118,-8.29297 a 0.50005,0.50005 0 0 0 -0.16601,-0.13281 l -1.66406,-0.83399 -0.60352,-4.23047 a 0.50005,0.50005 0 0 0 -0.13086,-0.27148 l -2.66992,-2.84961 a 0.50005,0.50005 0 0 0 -0.18359,-0.125 l -2.92969,-1.13672 -0.29297,-3.29687 1.07226,-2.56641 a 0.50005,0.50005 0 0 0 0.0195,-0.33594 l -1.83008,-6.17383 0.8125,-3.02343 a 0.50005,0.50005 0 0 0 -0.1211,-0.47657 l -2.67773,-2.78906 0.76953,-4.61133 a 0.50005,0.50005 0 0 0 -0.31445,-0.54883 l -2.40039,-0.91992 a 0.50005,0.50005 0 0 0 -0.32227,-0.0137 l -2.20117,0.66016 0.30078,-2.29493 a 0.50005,0.50005 0 0 0 -0.008,-0.17773 l -0.60938,-2.63672 2.16407,-2.93359 a 0.50005,0.50005 0 0 0 0.043,-0.52344 l -0.8496,-1.67969 a 0.50005,0.50005 0 0 0 -0.24805,-0.23437 l -3.00977,-1.29883 a 0.50005,0.50005 0 0 0 -0.31836,-0.0273 l -2.71484,0.66797 0.22461,-4.26563 2.0918,-0.52148 A 0.50005,0.50005 0 0 0 452.06055,420 l 0.86914,-4.24023 a 0.50005,0.50005 0 0 0 -0.0996,-0.41211 l -2.39453,-2.99024 0.60547,-3.11133 a 0.50005,0.50005 0 0 0 0.006,-0.1582 l -0.56055,-4.48047 a 0.50005,0.50005 0 0 0 -0.49805,-0.4375 l -26.26367,0.0703 -0.58984,-0.75976 3.27539,-6.05274 a 0.50005,0.50005 0 0 0 -0.17969,-0.66406 l -1.39649,-0.85156 0.87696,-4.82422 1.61328,-1.45703 a 0.50005,0.50005 0 0 0 0.16406,-0.41992 l -0.24609,-2.51172 1.6582,-0.30664 a 0.50005,0.50005 0 0 0 0.4043,-0.57031 l -0.45117,-2.87696 0.80859,-2.36328 a 0.50005,0.50005 0 0 0 0.0254,-0.20703 l -0.35352,-3.92188 0.61329,-4.32812 5.27929,-2.53516 a 0.50005,0.50005 0 0 0 0.20313,-0.17968 l 1.14453,-1.77735 2.57031,-0.17383 a 0.50005,0.50005 0 0 0 0.32422,-0.15039 l 2.56055,-2.64062 a 0.50005,0.50005 0 0 0 0.14062,-0.35156 z"
       id="Gila" />
    <path
       style="color:#000000;font-style:normal;font-variant:normal;font-weight:normal;font-stretch:normal;font-size:medium;line-height:normal;font-family:sans-serif;font-variant-ligatures:normal;font-variant-position:normal;font-variant-caps:normal;font-variant-numeric:normal;font-variant-alternates:normal;font-feature-settings:normal;text-indent:0;text-align:start;text-decoration:none;text-decoration-line:none;text-decoration-style:solid;text-decoration-color:#000000;letter-spacing:normal;word-spacing:normal;text-transform:none;writing-mode:lr-tb;direction:ltr;text-orientation:mixed;dominant-baseline:auto;baseline-shift:baseline;text-anchor:start;white-space:normal;shape-padding:0;clip-rule:nonzero;display:inline;overflow:visible;visibility:visible;opacity:1;isolation:auto;mix-blend-mode:normal;color-interpolation:sRGB;color-interpolation-filters:linearRGB;solid-color:#000000;solid-opacity:1;vector-effect:none;fill:#cccccc;fill-opacity:1;fill-rule:nonzero;stroke:none;stroke-width:1;stroke-linecap:butt;stroke-linejoin:miter;stroke-miterlimit:4;stroke-dasharray:none;stroke-dashoffset:0;stroke-opacity:1;color-rendering:auto;image-rendering:auto;shape-rendering:auto;text-rendering:auto;enable-background:accumulate"
       d="m 244.83594,210.96484 5.39648,3.07032 a 0.50005,0.50005 0 0 0 0.20899,0.0625 l 4.81836,0.38281 2.91601,3.74609 a 0.50005,0.50005 0 0 0 0.15625,0.13282 l 7.16602,3.86718 12.16211,8.35938 1.60546,2.10156 0.92383,3.27734 a 0.50005,0.50005 0 0 0 0.38672,0.35547 l 7.25,1.37696 10.50781,2.95898 1.28516,0.96289 a 0.50005,0.50005 0 0 0 0.16992,0.084 l 5.73047,1.54883 a 0.50005,0.50005 0 0 0 0.24024,0.006 l 3.73828,-0.84765 2.29101,0.45117 2.05078,2.125 a 0.50005,0.50005 0 0 0 0.58789,0.0976 l 2.03907,-1.04492 1.95898,1.11719 -0.1543,1.91406 a 0.50005,0.50005 0 0 0 0.2793,0.49024 l 2.0625,1.00195 2.69922,3.29492 a 0.50005,0.50005 0 0 0 0.26953,0.16797 l 4.08985,1 a 0.50005,0.50005 0 0 0 0.20312,0.008 l 4.75586,-0.82422 2.98828,0.6211 a 0.50005,0.50005 0 0 0 0.41992,-0.10547 l 2.68555,-2.23438 -0.0644,14.32813 a 0.50005,0.50005 0 0 0 0.49218,0.50195 l 11.76758,0.19141 0.041,24.04883 a 0.50005,0.50005 0 0 0 0.5,0.5 l 36.04883,-0.0508 a 0.50005,0.50005 0 0 0 0.0684,-0.004 l 2.40626,-0.33594 22.07421,0.0195 a 0.50005,0.50005 0 0 0 0.0918,-0.008 l 3.0293,-0.55273 -0.0391,24.29101 a 0.50005,0.50005 0 0 0 0.5254,0.5 l 2.22656,-0.11914 23.3789,0.15625 0.0879,22.77149 -0.21876,23.05664 a 0.50005,0.50005 0 0 0 0,0.008 l 0.0274,4.32617 -2.2832,2.35547 -2.62891,0.17578 a 0.50005,0.50005 0 0 0 -0.38672,0.22852 l -1.20312,1.87109 -5.39258,2.58984 a 0.50005,0.50005 0 0 0 -0.2793,0.38086 l -0.6582,4.64844 a 0.50005,0.50005 0 0 0 -0.004,0.11524 l 0.34961,3.875 -0.81445,2.3789 a 0.50005,0.50005 0 0 0 -0.0215,0.23828 l 0.39453,2.51953 -1.63085,0.30274 a 0.50005,0.50005 0 0 0 -0.40626,0.53906 l 0.26563,2.7207 -1.55273,1.40039 a 0.50005,0.50005 0 0 0 -0.15821,0.28125 l -0.9707,5.33008 a 0.50005,0.50005 0 0 0 0.23242,0.51758 l 1.28516,0.78125 -3.20508,5.92383 a 0.50005,0.50005 0 0 0 0.0449,0.54297 l 0.94141,1.21094 a 0.50005,0.50005 0 0 0 0.39453,0.19335 l 26.06836,-0.0684 0.49609,3.96093 -0.63476,3.26172 a 0.50005,0.50005 0 0 0 0.0996,0.4082 l 2.39257,2.98633 -0.75976,3.70117 L 449,420.02539 a 0.50005,0.50005 0 0 0 -0.37891,0.45899 l -0.25586,4.83593 -26.48242,0.0703 -51.09765,-6.74609 a 0.50005,0.50005 0 0 0 -0.5625,0.54297 l 0.38672,4.02734 -3.60547,3.66407 a 0.50005,0.50005 0 0 0 -0.14258,0.32421 l -0.0762,1.46876 -2.21875,1.37304 a 0.50005,0.50005 0 0 0 -0.1211,0.10547 l -3.08984,3.70899 a 0.50005,0.50005 0 0 0 0.14062,0.75585 l 0.78516,0.44141 -1.12695,3.58398 -1.72852,0.1504 a 0.50005,0.50005 0 0 0 -0.38281,0.24023 l -1.61914,2.67578 -54.12695,-16.63476 a 0.50005,0.50005 0 0 0 -0.14063,-0.0215 l -68.2793,-0.77539 0.60352,-44.01758 0.33984,-22.5 a 0.50005,0.50005 0 0 0 0,-0.008 l 0.0195,-11.58398 0.38086,-16.23438 a 0.50005,0.50005 0 0 0 0,-0.004 l 1.63868,-115.23046 a 0.50005,0.50005 0 0 0 0,-0.0156 l -0.0625,-3.45898 z"
       id="Yavapai" />
    <path
       style="color:#000000;font-style:normal;font-variant:normal;font-weight:normal;font-stretch:normal;font-size:medium;line-height:normal;font-family:sans-serif;font-variant-ligatures:normal;font-variant-position:normal;font-variant-caps:normal;font-variant-numeric:normal;font-variant-alternates:normal;font-feature-settings:normal;text-indent:0;text-align:start;text-decoration:none;text-decoration-line:none;text-decoration-style:solid;text-decoration-color:#000000;letter-spacing:normal;word-spacing:normal;text-transform:none;writing-mode:lr-tb;direction:ltr;text-orientation:mixed;dominant-baseline:auto;baseline-shift:baseline;text-anchor:start;white-space:normal;shape-padding:0;clip-rule:nonzero;display:inline;overflow:visible;visibility:visible;opacity:1;isolation:auto;mix-blend-mode:normal;color-interpolation:sRGB;color-interpolation-filters:linearRGB;solid-color:#000000;solid-opacity:1;vector-effect:none;fill:#cccccc;fill-opacity:1;fill-rule:nonzero;stroke:none;stroke-width:1;stroke-linecap:butt;stroke-linejoin:miter;stroke-miterlimit:4;stroke-dasharray:none;stroke-dashoffset:0;stroke-opacity:1;color-rendering:auto;image-rendering:auto;shape-rendering:auto;text-rendering:auto;enable-background:accumulate"
       d="m 123.98828,498.29102 35.49414,0.74804 -0.16211,11.67383 a 0.50005,0.50005 0 0 0 0.49024,0.50781 l 36.75976,0.69922 a 0.50005,0.50005 0 0 0 0.002,0 l 35.89453,0.52344 -0.12696,23.70117 -0.2207,12.25586 a 0.50005,0.50005 0 0 0 0,0.002 l -1.1582,85.66993 a 0.50005,0.50005 0 0 0 0,0.002 l -0.8418,64.58203 -48.75976,-18.72266 -59.09961,-22.84961 -65.976567,-25.36328 0.130859,-3.70117 1.259766,-1.50976 a 0.50005,0.50005 0 0 0 0.103516,-0.43165 l -0.683594,-2.99218 1.191406,-4.77539 a 0.50005,0.50005 0 0 0 -0.0078,-0.27149 l -0.902344,-2.83594 1.677734,-0.46093 a 0.50005,0.50005 0 0 0 0.195313,-0.10547 l 3.25,-2.83008 a 0.50005,0.50005 0 0 0 0.117187,-0.14844 l 6.142578,-11.9414 2.751954,-0.84375 8.189453,1.51953 a 0.50005,0.50005 0 0 0 0.183593,-0.002 l 4.361329,-0.83007 a 0.50005,0.50005 0 0 0 0.25,-0.12891 l 1.998047,-1.90234 4.339843,-0.91016 a 0.50005,0.50005 0 0 0 0.396485,-0.53711 l -0.441407,-4.5957 2.472657,-3.26367 4.929687,-3.86914 A 0.50005,0.50005 0 0 0 98.378906,584 l 0.759766,-9.50977 a 0.50005,0.50005 0 0 0 -0.06836,-0.29687 l -1.722656,-2.89063 1.488282,-2.6582 a 0.50005,0.50005 0 0 0 0.06445,-0.26758 l -0.101563,-2.25 a 0.50005,0.50005 0 0 0 -0.554687,-0.47461 l -2.048829,0.23047 -0.925781,-4.34765 a 0.50005,0.50005 0 0 0 -0.05469,-0.14258 l -1.503906,-2.63281 16.248038,0.35937 a 0.50005,0.50005 0 0 0 0.01,0 l 12.16016,0.0117 a 0.50005,0.50005 0 0 0 0.5,-0.49024 z"
       id="Yuma" />
    <path
       style="color:#000000;font-style:normal;font-variant:normal;font-weight:normal;font-stretch:normal;font-size:medium;line-height:normal;font-family:sans-serif;font-variant-ligatures:normal;font-variant-position:normal;font-variant-caps:normal;font-variant-numeric:normal;font-variant-alternates:normal;font-feature-settings:normal;text-indent:0;text-align:start;text-decoration:none;text-decoration-line:none;text-decoration-style:solid;text-decoration-color:#000000;letter-spacing:normal;word-spacing:normal;text-transform:none;writing-mode:lr-tb;direction:ltr;text-orientation:mixed;dominant-baseline:auto;baseline-shift:baseline;text-anchor:start;white-space:normal;shape-padding:0;clip-rule:nonzero;display:inline;overflow:visible;visibility:visible;opacity:1;isolation:auto;mix-blend-mode:normal;color-interpolation:sRGB;color-interpolation-filters:linearRGB;solid-color:#000000;solid-opacity:1;vector-effect:none;fill:#cccccc;fill-opacity:1;fill-rule:nonzero;stroke:none;stroke-width:1;stroke-linecap:butt;stroke-linejoin:miter;stroke-miterlimit:4;stroke-dasharray:none;stroke-dashoffset:0;stroke-opacity:1;color-rendering:auto;image-rendering:auto;shape-rendering:auto;text-rendering:auto;enable-background:accumulate"
       d="m 502.23828,500.75195 7.67969,16.9961 3.38867,12.76953 a 0.50005,0.50005 0 0 0 0.041,0.10742 l 19.64062,36.94922 a 0.50005,0.50005 0 0 0 0.50195,0.26172 l 2.16016,-0.25977 a 0.50005,0.50005 0 0 0 0.43945,-0.47461 l 0.0996,-2.36133 3.84961,-3.02734 a 0.50005,0.50005 0 0 0 0.15625,-0.20703 l 1.42969,-3.5918 a 0.50005,0.50005 0 0 0 -0.01,-0.39258 l -0.91211,-1.99218 2.0293,-1.69141 2.44922,-0.61328 a 0.50005,0.50005 0 0 0 0.36914,-0.39453 l 0.53516,-2.9043 2.12109,-0.29101 a 0.50005,0.50005 0 0 0 0.35547,-0.22657 l 2.44336,-3.84179 2.63867,-0.0352 1.65235,1.07813 a 0.50005,0.50005 0 0 0 0.51171,0.0195 l 2.86133,-1.56055 a 0.50005,0.50005 0 0 0 0.0684,-0.0449 l 7.34961,-5.78125 4.6875,0.32617 a 0.50005,0.50005 0 0 0 0.38086,-0.13672 l 0.83008,-0.79492 0.43359,33.43945 a 0.50005,0.50005 0 0 0 0,0.002 l 0.56055,34.3379 0.2832,25.85546 -46.4707,0.57813 a 0.50005,0.50005 0 0 0 -0.49219,0.4707 v -0.0859 l -36.57422,0.29492 a 0.50005,0.50005 0 0 0 -0.49609,0.5 v 0.85351 l -47.86133,0.28321 v -0.25586 a 0.50005,0.50005 0 0 0 -0.5,-0.5 l -26.49023,0.0801 -48.28711,-0.0508 0.1875,-60.39453 0.1914,-12.23633 a 0.50005,0.50005 0 0 0 0,-0.008 l 0.0996,-33.56055 0.23633,0.69922 a 0.50005,0.50005 0 0 0 0.32227,0.31641 l 4.70312,1.49023 4.30274,3.69336 a 0.50005,0.50005 0 0 0 0.41796,0.11133 l 1.71485,-0.32617 1.4668,3.24219 a 0.50005,0.50005 0 0 0 0.45507,0.29297 l 32.43946,0.01 a 0.50005,0.50005 0 0 0 0.004,0 l 26.33985,-0.16015 a 0.50005,0.50005 0 0 0 0.49804,-0.50391 l -0.24023,-24.27149 0.3457,-11.6875 z"
       id="Pinal" />
    <path
       style="color:#000000;font-style:normal;font-variant:normal;font-weight:normal;font-stretch:normal;font-size:medium;line-height:normal;font-family:sans-serif;font-variant-ligatures:normal;font-variant-position:normal;font-variant-caps:normal;font-variant-numeric:normal;font-variant-alternates:normal;font-feature-settings:normal;text-indent:0;text-align:start;text-decoration:none;text-decoration-line:none;text-decoration-style:solid;text-decoration-color:#000000;letter-spacing:normal;word-spacing:normal;text-transform:none;writing-mode:lr-tb;direction:ltr;text-orientation:mixed;dominant-baseline:auto;baseline-shift:baseline;text-anchor:start;white-space:normal;shape-padding:0;clip-rule:nonzero;display:inline;overflow:visible;visibility:visible;opacity:1;isolation:auto;mix-blend-mode:normal;color-interpolation:sRGB;color-interpolation-filters:linearRGB;solid-color:#000000;solid-opacity:1;vector-effect:none;fill:#cccccc;fill-opacity:1;fill-rule:nonzero;stroke:none;stroke-width:1;stroke-linecap:butt;stroke-linejoin:miter;stroke-miterlimit:4;stroke-dasharray:none;stroke-dashoffset:0;stroke-opacity:1;color-rendering:auto;image-rendering:auto;shape-rendering:auto;text-rendering:auto;enable-background:accumulate"
       d="m 682.81836,472.43555 1.8125,79.23633 a 0.50005,0.50005 0 0 0 0.0723,0.25 l 19.95118,32.48046 a 0.50005,0.50005 0 0 0 0.41992,0.23828 l 1.54297,0.0156 8.84375,13.64453 3.86718,8.4082 1.0293,6.07813 -1.41601,4.70898 a 0.50005,0.50005 0 0 0 0.0195,0.3418 l 0.9707,2.24805 -1.55469,5.65234 a 0.50005,0.50005 0 0 0 -0.0176,0.14258 l 0.041,1.94922 a 0.50005,0.50005 0 0 0 0.14063,0.33789 l 12.87304,13.25 -12.36718,0.52148 -24.27149,0.19141 a 0.50005,0.50005 0 0 0 -0.01,0 l -27.45703,0.74023 -81.46289,1.49805 -11.625,0.01 -0.21289,-11.16993 a 0.50005,0.50005 0 0 0 0.26172,-0.44531 l -0.28906,-26.35937 a 0.50005,0.50005 0 0 0 0,-0.002 l -0.56055,-34.33984 -0.4414,-34.05273 4.23242,0.25 a 0.50005,0.50005 0 0 0 0.47656,-0.72071 l -3.21484,-6.52148 -2.64258,-7.65235 0.67578,-2.81835 a 0.50005,0.50005 0 0 0 0.0117,-0.0645 l 0.92383,-8.81445 2.33398,-0.60352 a 0.50005,0.50005 0 0 0 0.35352,-0.34179 l 0.55468,-1.86328 1.70508,-0.34766 3.6875,0.78711 a 0.50005,0.50005 0 0 0 0.5293,-0.22656 l 2.39844,-3.89649 2.98828,-0.87109 2.32031,0.46484 a 0.50005,0.50005 0 0 0 0.40039,-0.0918 l 2.13867,-1.625 2.69532,0.68165 a 0.50005,0.50005 0 0 0 0.35742,-0.043 l 1.82812,-0.97071 1.43164,0.94727 a 0.50005,0.50005 0 0 0 0.56641,-0.0117 l 2.51172,-1.78906 2.66211,-0.40235 a 0.50005,0.50005 0 0 0 0.42578,-0.52148 l -0.0742,-1.4043 19.33594,-0.41992 a 0.50005,0.50005 0 0 0 0.48828,-0.50781 l -0.28125,-15.03125 h 3.21289 l 5.36133,1.06054 a 0.50005,0.50005 0 0 0 0.10351,0.01 l 3.5586,-0.0488 2.5,0.6875 1.78515,2.97852 a 0.50005,0.50005 0 0 0 0.3086,0.22851 l 2.02929,0.50196 1.40039,2.96484 a 0.50005,0.50005 0 0 0 0.0586,0.0977 l 2.58984,3.27929 a 0.50005,0.50005 0 0 0 0.1875,0.14649 l 3.84961,1.73047 a 0.50005,0.50005 0 0 0 0.45898,-0.0254 l 2.45118,-1.43946 a 0.50005,0.50005 0 0 0 0.23632,-0.33593 l 0.66016,-3.34961 2.9043,-2.00586 a 0.50005,0.50005 0 0 0 0.18359,-0.23828 l 0.50391,-1.36915 2.48047,-0.97851 a 0.50005,0.50005 0 0 0 0.26757,-0.24805 l 2.60938,-5.45898 5.44141,-1.35156 a 0.50005,0.50005 0 0 0 0.36132,-0.35743 l 0.625,-2.33789 2.62891,-0.35547 a 0.50005,0.50005 0 0 0 0.23242,-0.0957 l 2.19336,-1.64258 2.69336,0.75391 a 0.50005,0.50005 0 0 0 0.4961,-0.13477 z"
       id="Graham" />
    <path
       style="color:#000000;font-style:normal;font-variant:normal;font-weight:normal;font-stretch:normal;font-size:medium;line-height:normal;font-family:sans-serif;font-variant-ligatures:normal;font-variant-position:normal;font-variant-caps:normal;font-variant-numeric:normal;font-variant-alternates:normal;font-feature-settings:normal;text-indent:0;text-align:start;text-decoration:none;text-decoration-line:none;text-decoration-style:solid;text-decoration-color:#000000;letter-spacing:normal;word-spacing:normal;text-transform:none;writing-mode:lr-tb;direction:ltr;text-orientation:mixed;dominant-baseline:auto;baseline-shift:baseline;text-anchor:start;white-space:normal;shape-padding:0;clip-rule:nonzero;display:inline;overflow:visible;visibility:visible;opacity:1;isolation:auto;mix-blend-mode:normal;color-interpolation:sRGB;color-interpolation-filters:linearRGB;solid-color:#000000;solid-opacity:1;vector-effect:none;fill:#cccccc;fill-opacity:1;fill-rule:nonzero;stroke:none;stroke-width:1;stroke-linecap:butt;stroke-linejoin:miter;stroke-miterlimit:4;stroke-dasharray:none;stroke-dashoffset:0;stroke-opacity:1;color-rendering:auto;image-rendering:auto;shape-rendering:auto;text-rendering:auto;enable-background:accumulate"
       d="m 371.27734,419.7168 50.50782,6.66797 a 0.50005,0.50005 0 0 0 0.0664,0.006 l 26.99024,-0.0703 a 0.50005,0.50005 0 0 0 0.11718,-0.0156 l 3.20704,-0.78907 2.68945,1.16211 0.62891,1.24415 -2.11719,2.87109 a 0.50005,0.50005 0 0 0 -0.084,0.41015 l 0.63868,2.77149 -0.38672,2.9707 a 0.50005,0.50005 0 0 0 0.63867,0.54297 l 2.77539,-0.83008 1.86133,0.71289 -0.74414,4.45703 a 0.50005,0.50005 0 0 0 0.13281,0.42774 l 2.6543,2.76758 -0.7754,2.88672 a 0.50005,0.50005 0 0 0 0.002,0.27148 l 1.82031,6.14063 -1.05078,2.51562 a 0.50005,0.50005 0 0 0 -0.0371,0.23633 l 0.33008,3.73047 a 0.50005,0.50005 0 0 0 0.3164,0.42187 l 3.11329,1.20899 2.48437,2.65039 0.61914,4.33398 a 0.50005,0.50005 0 0 0 0.27149,0.37696 l 1.80273,0.90234 6.75195,8.35547 a 0.50005,0.50005 0 0 0 0.30469,0.17773 l 2.07031,0.34766 1.5293,1.94922 a 0.50005,0.50005 0 0 0 0.78516,0.002 l 1.95117,-2.46094 a 0.50005,0.50005 0 0 0 0.10351,-0.37695 l -0.21093,-1.58008 3.16406,-3.49414 2.66797,-2.04102 12.91601,28.17579 -62.69726,0.39648 a 0.50005,0.50005 0 0 0 -0.4961,0.48438 l -0.35937,12.17968 a 0.50005,0.50005 0 0 0 0,0.0195 l 0.23437,23.7793 -25.83593,0.15625 -32.11719,-0.01 -1.4961,-3.30665 a 0.50005,0.50005 0 0 0 -0.54882,-0.28515 l -1.86328,0.35547 -4.19727,-3.60352 a 0.50005,0.50005 0 0 0 -0.17578,-0.0957 l -4.55859,-1.44336 -1.11719,-3.32031 a 0.50005,0.50005 0 0 0 -0.97461,0.1582 l -0.10938,36.57617 -0.1914,12.23828 a 0.50005,0.50005 0 0 0 0,0.006 l -0.1875,60.39844 -37.11914,-0.1582 a 0.50005,0.50005 0 0 0 -0.004,0 l -24.29687,0.0312 -35.90626,-0.28125 -35.80078,-0.44336 1.1543,-85.16797 0.2207,-12.25977 a 0.50005,0.50005 0 0 0 0,-0.006 l 0.13086,-24.19726 0.5,-36.56641 0.88868,-50.11328 68.21289,0.77344 54.43164,16.72851 a 0.50005,0.50005 0 0 0 0.57421,-0.21875 l 1.6875,-2.79297 1.8086,-0.1582 a 0.50005,0.50005 0 0 0 0.43359,-0.34765 l 1.34961,-4.28907 a 0.50005,0.50005 0 0 0 -0.23242,-0.58593 l -0.61523,-0.34571 2.65234,-3.1875 2.37109,-1.46679 a 0.50005,0.50005 0 0 0 0.23633,-0.39844 l 0.0801,-1.54102 3.63672,-3.69531 a 0.50005,0.50005 0 0 0 0.14062,-0.39844 z"
       id="Maricopa" />
    <path
       style="color:#000000;font-style:normal;font-variant:normal;font-weight:normal;font-stretch:normal;font-size:medium;line-height:normal;font-family:sans-serif;font-variant-ligatures:normal;font-variant-position:normal;font-variant-caps:normal;font-variant-numeric:normal;font-variant-alternates:normal;font-feature-settings:normal;text-indent:0;text-align:start;text-decoration:none;text-decoration-line:none;text-decoration-style:solid;text-decoration-color:#000000;letter-spacing:normal;word-spacing:normal;text-transform:none;writing-mode:lr-tb;direction:ltr;text-orientation:mixed;dominant-baseline:auto;baseline-shift:baseline;text-anchor:start;white-space:normal;shape-padding:0;clip-rule:nonzero;display:inline;overflow:visible;visibility:visible;opacity:1;isolation:auto;mix-blend-mode:normal;color-interpolation:sRGB;color-interpolation-filters:linearRGB;solid-color:#000000;solid-opacity:1;vector-effect:none;fill:#cccccc;fill-opacity:1;fill-rule:nonzero;stroke:none;stroke-width:1;stroke-linecap:butt;stroke-linejoin:miter;stroke-miterlimit:4;stroke-dasharray:none;stroke-dashoffset:0;stroke-opacity:1;color-rendering:auto;image-rendering:auto;shape-rendering:auto;text-rendering:auto;enable-background:accumulate"
       d="m 721.96484,1.5136719 3.61524,123.1113281 2.98047,105.56836 a 0.50005,0.50005 0 0 0 0,0.002 l 1.74023,56.58985 1.70899,61.26953 2.83593,103.86719 -34.79687,0.81835 a 0.50005,0.50005 0 0 0 -0.44922,0.30274 l -1.57031,3.68164 a 0.50005,0.50005 0 0 0 -0.0332,0.12305 l -0.57031,3.90234 -2.94336,1.26172 -5.11328,0.10742 a 0.50005,0.50005 0 0 0 -0.34961,0.1543 l -2.2168,2.31445 -2.14257,0.87891 a 0.50005,0.50005 0 0 0 -0.3086,0.49609 l 0.22266,3.47266 -1.61328,1.4082 a 0.50005,0.50005 0 0 0 -0.0312,0.0312 l -4.27344,4.46289 -2.64063,-0.74023 a 0.50005,0.50005 0 0 0 -0.43554,0.082 l -2.28516,1.71289 -2.83203,0.38281 a 0.50005,0.50005 0 0 0 -0.41601,0.36523 l -0.63477,2.375 -5.38281,1.33985 a 0.50005,0.50005 0 0 0 -0.33008,0.26953 l -2.625,5.49219 -2.50781,0.98828 a 0.50005,0.50005 0 0 0 -0.28516,0.29297 l -0.52539,1.42968 -2.93945,2.03126 a 0.50005,0.50005 0 0 0 -0.20703,0.31445 l -0.65626,3.32812 -2.0332,1.19532 -3.5039,-1.57227 -2.47852,-3.14062 -1.47461,-3.12696 a 0.50005,0.50005 0 0 0 -0.33203,-0.27344 l -2.05859,-0.50976 -1.78321,-2.9707 a 0.50005,0.50005 0 0 0 -0.29687,-0.22461 l -2.40039,-0.66211 -0.57227,-28.51758 3.29883,-0.0586 a 0.50005,0.50005 0 0 0 0.49219,-0.50976 l -0.95117,-48.25781 0.63867,-0.0234 a 0.50005,0.50005 0 0 0 0.48242,-0.50781 l -0.84961,-48.66992 a 0.50005,0.50005 0 0 0 -0.01,-0.082 l -2.20507,-11.97656 1.45117,-12.2539 a 0.50005,0.50005 0 0 0 0.002,-0.0723 l -0.65625,-24.01563 0.3457,-0.0117 a 0.50005,0.50005 0 0 0 0.48047,-0.50586 l -0.22851,-18.17969 a 0.50005,0.50005 0 0 0 -0.002,-0.0195 l -0.32812,-6.66992 -0.34961,-23.86133 a 0.50005,0.50005 0 0 0 0,-0.004 l -1.00977,-48.1543 1.42383,-0.0449 a 0.50005,0.50005 0 0 0 0.48438,-0.51172 l -0.42969,-20.27929 a 0.50005,0.50005 0 0 0 -0.50977,-0.48828 l -19.35937,0.38867 -3.69141,-186.0820338 41.66211,-0.96875 a 0.50005,0.50005 0 0 0 0.006,0 l 14.64844,-0.4785156 z"
       id="Apache" />
    <path
       style="color:#000000;font-style:normal;font-variant:normal;font-weight:normal;font-stretch:normal;font-size:medium;line-height:normal;font-family:sans-serif;font-variant-ligatures:normal;font-variant-position:normal;font-variant-caps:normal;font-variant-numeric:normal;font-variant-alternates:normal;font-feature-settings:normal;text-indent:0;text-align:start;text-decoration:none;text-decoration-line:none;text-decoration-style:solid;text-decoration-color:#000000;letter-spacing:normal;word-spacing:normal;text-transform:none;writing-mode:lr-tb;direction:ltr;text-orientation:mixed;dominant-baseline:auto;baseline-shift:baseline;text-anchor:start;white-space:normal;shape-padding:0;clip-rule:nonzero;display:inline;overflow:visible;visibility:visible;opacity:1;isolation:auto;mix-blend-mode:normal;color-interpolation:sRGB;color-interpolation-filters:linearRGB;solid-color:#000000;solid-opacity:1;vector-effect:none;fill:#cccccc;fill-opacity:1;fill-rule:nonzero;stroke:none;stroke-width:1;stroke-linecap:butt;stroke-linejoin:miter;stroke-miterlimit:4;stroke-dasharray:none;stroke-dashoffset:0;stroke-opacity:1;color-rendering:auto;image-rendering:auto;shape-rendering:auto;text-rendering:auto;enable-background:accumulate"
       d="m 141.97266,381.42578 1.95312,0.82422 a 0.50005,0.50005 0 0 0 0.36524,0.01 l 1.70117,-0.6211 3.07617,1.36914 4.24414,4.3418 a 0.50005,0.50005 0 0 0 0.21289,0.12891 l 2.96094,0.89062 a 0.50005,0.50005 0 0 0 0.19531,0.0176 l 4.84375,-0.49805 3.85742,1.27539 a 0.50005,0.50005 0 0 0 0.13867,0.0254 l 3.87891,0.15039 a 0.50005,0.50005 0 0 0 0.15625,-0.0195 l 2.75977,-0.7832 1.86132,0.47461 1.41602,3.63086 a 0.50005,0.50005 0 0 0 0.625,0.29101 l 4.9082,-1.64453 2.16797,1.03321 a 0.50005,0.50005 0 0 0 0.35547,0.0273 L 188.29102,391 l 0.71875,1.98047 a 0.50005,0.50005 0 0 0 0.13671,0.20312 l 2.11133,1.87891 a 0.50005,0.50005 0 0 0 0.35352,0.12695 l 4.71094,-0.20898 a 0.50005,0.50005 0 0 0 0.21093,-0.0586 l 4.34961,-2.28321 3.0625,-0.52539 a 0.50005,0.50005 0 0 0 0.34961,-0.24609 l 1.90235,-3.35157 3.47265,-3.79882 a 0.50005,0.50005 0 0 0 0.0606,-0.082 l 1.55859,-2.625 7.04492,0.25 8.59375,0.92187 3.53125,1.11524 a 0.50005,0.50005 0 0 0 0.36133,-0.0234 l 2.19141,-1.01953 a 0.50005,0.50005 0 0 0 0.16797,-0.12891 l 1.28125,-1.5 -0.5918,43.13672 -0.89844,50.60937 a 0.50005,0.50005 0 0 0 0,0.002 l -0.49218,36.06836 -35.89063,-0.52149 -36.26172,-0.68945 0.16406,-11.67383 A 0.50005,0.50005 0 0 0 160,498.05078 L 123.50977,497.2793 A 0.50005,0.50005 0 0 0 123,497.76953 l -1.35938,60.35938 -11.66406,-0.01 -17.078122,-0.37891 -6.382813,-1.38867 a 0.50005,0.50005 0 0 0 -0.300781,0.0274 l -3.34961,1.42187 -2.845703,-0.78125 -1.166015,-1.85547 a 0.50005,0.50005 0 0 0 -0.542969,-0.21875 l -3.173828,0.78516 -0.271485,-2.14258 a 0.50005,0.50005 0 0 0 -0.03711,-0.13672 l -1.638672,-3.79883 a 0.50005,0.50005 0 0 0 -0.126952,-0.1756 l -1.931641,-1.72656 1.324219,-4.35156 2.230469,-4.34961 a 0.50005,0.50005 0 0 0 0.05273,-0.1875 l 0.730469,-8.74024 a 0.50005,0.50005 0 0 0 -0.07031,-0.29882 l -1.462891,-2.43946 1.451172,-1.1289 a 0.50005,0.50005 0 0 0 0.189453,-0.45118 l -0.240234,-2.05078 a 0.50005,0.50005 0 0 0 -0.275391,-0.39062 l -5.214844,-2.56836 -0.689453,-1.59961 3.507812,-4.51758 a 0.50005,0.50005 0 0 0 0.103516,-0.25976 l 0.310547,-3.3711 a 0.50005,0.50005 0 0 0 -0.02148,-0.19336 l -1.009766,-3.25 a 0.50005,0.50005 0 0 0 -0.08203,-0.16015 l -1.296875,-1.65821 3.521484,-2.16992 3.259766,0.73438 a 0.50005,0.50005 0 0 0 0.365234,-0.0566 l 3.429688,-2.03125 a 0.50005,0.50005 0 0 0 0.234375,-0.32032 l 0.86914,-3.87304 3.732422,-5.74219 3.56836,-2.27149 a 0.50005,0.50005 0 0 0 0.226559,-0.3555 l 0.259766,-1.88672 3.914062,-2.63672 a 0.50005,0.50005 0 0 0 0.197266,-0.56445 l -1.658203,-5.27149 2.068359,-2.52148 a 0.50005,0.50005 0 0 0 0.113281,-0.33399 l -0.11914,-3.28125 a 0.50005,0.50005 0 0 0 -0.06055,-0.21679 l -0.960938,-1.79493 1.121094,-4.78515 3.025391,-1.36914 a 0.50005,0.50005 0 0 0 0.294921,-0.44336 l 0.07031,-3.11133 a 0.50005,0.50005 0 0 0 -0.115234,-0.33008 l -1.646485,-1.98633 0.695313,-4.48828 a 0.50005,0.50005 0 0 0 -0.02148,-0.23828 l -2.207031,-6.41016 0.845703,-1.22265 a 0.50005,0.50005 0 0 0 0.07227,-0.41407 l -1.003906,-3.73437 1.357422,-0.29687 a 0.50005,0.50005 0 0 0 0.33789,-0.26368 l 1.28125,-2.51953 a 0.50005,0.50005 0 0 0 -0.07813,-0.56445 l -1.945312,-2.1211 1.283203,-2.08984 a 0.50005,0.50005 0 0 0 -0.101563,-0.64062 l -2.277343,-1.94532 1.269531,-3.54101 2.36914,-0.72656 a 0.50005,0.50005 0 0 0 0.228516,-0.14454 l 7.400397,-8.34179 a 0.50005,0.50005 0 0 0 0.125,-0.33008 v -4.9082 l 0.67187,-3.94336 2.01367,-2.55274 5.6211,-1.34961 a 0.50005,0.50005 0 0 0 0.23437,-0.13086 l 2.08203,-2.04492 2.56446,-0.24414 a 0.50005,0.50005 0 0 0 0.3125,-0.15039 l 4.33203,-4.49609 3.68554,-0.35352 a 0.50005,0.50005 0 0 0 0.21485,-0.0703 l 2.8789,-1.77149 a 0.50005,0.50005 0 0 0 0.22461,-0.30859 l 0.46485,-1.92187 6.94922,-6.44727 a 0.50005,0.50005 0 0 0 0.15234,-0.27344 l 0.17969,-0.94922 3.53515,-0.39843 a 0.50005,0.50005 0 0 0 0.43946,-0.55664 z"
       id="La_Paz"
       inkscape:label="#La Paz" />
    <path
       style="color:#000000;font-style:normal;font-variant:normal;font-weight:normal;font-stretch:normal;font-size:medium;line-height:normal;font-family:sans-serif;font-variant-ligatures:normal;font-variant-position:normal;font-variant-caps:normal;font-variant-numeric:normal;font-variant-alternates:normal;font-feature-settings:normal;text-indent:0;text-align:start;text-decoration:none;text-decoration-line:none;text-decoration-style:solid;text-decoration-color:#000000;letter-spacing:normal;word-spacing:normal;text-transform:none;writing-mode:lr-tb;direction:ltr;text-orientation:mixed;dominant-baseline:auto;baseline-shift:baseline;text-anchor:start;white-space:normal;shape-padding:0;clip-rule:nonzero;display:inline;overflow:visible;visibility:visible;opacity:1;isolation:auto;mix-blend-mode:normal;color-interpolation:sRGB;color-interpolation-filters:linearRGB;solid-color:#000000;solid-opacity:1;vector-effect:none;fill:#cccccc;fill-opacity:1;fill-rule:nonzero;stroke:none;stroke-width:1;stroke-linecap:butt;stroke-linejoin:miter;stroke-miterlimit:4;stroke-dasharray:none;stroke-dashoffset:0;stroke-opacity:1;color-rendering:auto;image-rendering:auto;shape-rendering:auto;text-rendering:auto;enable-background:accumulate"
       d="m 612.65062,4.3203125 1.88867,0.03125 3.70117,186.5976575 a 0.50005,0.50005 0 0 0 0.50977,0.49023 l 19.36133,-0.38867 0.4082,19.28516 -1.42578,0.0449 a 0.50005,0.50005 0 0 0 -0.48437,0.50976 l 1.02148,48.64844 0.34961,23.86914 a 0.50005,0.50005 0 0 0 0,0.0156 l 0.33008,6.67187 0.22265,17.68164 -0.35156,0.0137 a 0.50005,0.50005 0 0 0 -0.48242,0.51171 l 0.66992,24.47461 -1.45508,12.29297 a 0.50005,0.50005 0 0 0 0.004,0.15039 l 2.21289,12.00977 0.83984,48.13672 -0.63867,0.0234 a 0.50005,0.50005 0 0 0 -0.48242,0.50977 l 0.95117,48.25 -3.30078,0.0605 a 0.50005,0.50005 0 0 0 -0.49023,0.50976 l 0.58007,28.88672 -3.07422,0.041 -5.35937,-1.0586 a 0.50005,0.50005 0 0 0 -0.0957,-0.01 h -3.2793 l -1.0918,-58.76953 a 0.50005,0.50005 0 0 0 -0.50781,-0.49024 l -29.38867,0.50977 -57.61914,0.80273 -0.41406,-36.36914 -1.84961,-158.48047 -2.70508,-224.8027312 27.54101,-0.5195313 3.37696,0.8144531 a 0.50005,0.50005 0 0 0 0.12695,0.013672 z"
       id="Navajo" />
    <path
       style="color:#000000;font-style:normal;font-variant:normal;font-weight:normal;font-stretch:normal;font-size:medium;line-height:normal;font-family:sans-serif;font-variant-ligatures:normal;font-variant-position:normal;font-variant-caps:normal;font-variant-numeric:normal;font-variant-alternates:normal;font-feature-settings:normal;text-indent:0;text-align:start;text-decoration:none;text-decoration-line:none;text-decoration-style:solid;text-decoration-color:#000000;letter-spacing:normal;word-spacing:normal;text-transform:none;writing-mode:lr-tb;direction:ltr;text-orientation:mixed;dominant-baseline:auto;baseline-shift:baseline;text-anchor:start;white-space:normal;shape-padding:0;clip-rule:nonzero;display:inline;overflow:visible;visibility:visible;opacity:1;isolation:auto;mix-blend-mode:normal;color-interpolation:sRGB;color-interpolation-filters:linearRGB;solid-color:#000000;solid-opacity:1;vector-effect:none;fill:#cccccc;fill-opacity:1;fill-rule:nonzero;stroke:none;stroke-width:1;stroke-linecap:butt;stroke-linejoin:miter;stroke-miterlimit:4;stroke-dasharray:none;stroke-dashoffset:0;stroke-opacity:1;color-rendering:auto;image-rendering:auto;shape-rendering:auto;text-rendering:auto;enable-background:accumulate"
       d="m 734.875,452.92188 0.61523,20.84179 1.34961,52.5293 a 0.50005,0.50005 0 0 0 0,0.002 l 1.84961,66.17774 1.25782,48.70117 -7.19141,0.1914 -13.35938,-13.75195 -0.0352,-1.68164 1.58008,-5.75 a 0.50005,0.50005 0 0 0 -0.0215,-0.33008 l -0.96875,-2.24218 1.39844,-4.64454 a 0.50005,0.50005 0 0 0 0.0137,-0.22851 l -1.06055,-6.25977 a 0.50005,0.50005 0 0 0 -0.0391,-0.125 l -3.91015,-8.5 a 0.50005,0.50005 0 0 0 -0.0332,-0.0644 l -9.01172,-13.89844 a 0.50005,0.50005 0 0 0 -0.41211,-0.22851 l -1.53515,-0.0176 -19.73438,-32.12891 -1.83203,-80.06836 1.62305,-1.41797 a 0.50005,0.50005 0 0 0 0.17187,-0.41015 l -0.21679,-3.36133 1.90625,-0.7832 a 0.50005,0.50005 0 0 0 0.17187,-0.11719 l 2.14649,-2.24024 5.00195,-0.10546 a 0.50005,0.50005 0 0 0 0.1875,-0.041 l 3.28906,-1.4082 a 0.50005,0.50005 0 0 0 0.29883,-0.38867 l 0.59961,-4.11524 1.41992,-3.32422 z"
       id="Greenlee" />
    <path
       style="color:#000000;font-style:normal;font-variant:normal;font-weight:normal;font-stretch:normal;font-size:medium;line-height:normal;font-family:sans-serif;font-variant-ligatures:normal;font-variant-position:normal;font-variant-caps:normal;font-variant-numeric:normal;font-variant-alternates:normal;font-feature-settings:normal;text-indent:0;text-align:start;text-decoration:none;text-decoration-line:none;text-decoration-style:solid;text-decoration-color:#000000;letter-spacing:normal;word-spacing:normal;text-transform:none;writing-mode:lr-tb;direction:ltr;text-orientation:mixed;dominant-baseline:auto;baseline-shift:baseline;text-anchor:start;white-space:normal;shape-padding:0;clip-rule:nonzero;display:inline;overflow:visible;visibility:visible;opacity:1;isolation:auto;mix-blend-mode:normal;color-interpolation:sRGB;color-interpolation-filters:linearRGB;solid-color:#000000;solid-opacity:1;vector-effect:none;fill:#cccccc;fill-opacity:1;fill-rule:nonzero;stroke:none;stroke-width:1;stroke-linecap:butt;stroke-linejoin:miter;stroke-miterlimit:4;stroke-dasharray:none;stroke-dashoffset:0;stroke-opacity:1;color-rendering:auto;image-rendering:auto;shape-rendering:auto;text-rendering:auto;enable-background:accumulate"
       d="m 574.4082,742.86523 0.21485,15.42383 -0.52344,0.0117 a 0.50005,0.50005 0 0 0 -0.49023,0.50586 l 0.24023,20.16992 a 0.50005,0.50005 0 0 0 0,0.004 l 0.39062,18.67383 -39.84375,0.35547 a 0.50005,0.50005 0 0 0 -0.004,0 l -33.48633,0.48828 -34.68945,-12.75782 -0.13086,-12.49414 23.8789,-0.18554 a 0.50005,0.50005 0 0 0 0.4961,-0.50586 l -0.25586,-28.08008 36.41992,-0.41406 a 0.50005,0.50005 0 0 0 0.49414,-0.50782 l -0.002,-0.19921 z"
       id="Santa_Cruz"
       inkscape:label="#Santa Cruz" />
    <path
       style="color:#000000;font-style:normal;font-variant:normal;font-weight:normal;font-stretch:normal;font-size:medium;line-height:normal;font-family:sans-serif;font-variant-ligatures:normal;font-variant-position:normal;font-variant-caps:normal;font-variant-numeric:normal;font-variant-alternates:normal;font-feature-settings:normal;text-indent:0;text-align:start;text-decoration:none;text-decoration-line:none;text-decoration-style:solid;text-decoration-color:#000000;letter-spacing:normal;word-spacing:normal;text-transform:none;writing-mode:lr-tb;direction:ltr;text-orientation:mixed;dominant-baseline:auto;baseline-shift:baseline;text-anchor:start;white-space:normal;shape-padding:0;clip-rule:nonzero;display:inline;overflow:visible;visibility:visible;opacity:1;isolation:auto;mix-blend-mode:normal;color-interpolation:sRGB;color-interpolation-filters:linearRGB;solid-color:#000000;solid-opacity:1;vector-effect:none;fill:#cccccc;fill-opacity:1;fill-rule:nonzero;stroke:none;stroke-width:1;stroke-linecap:butt;stroke-linejoin:miter;stroke-miterlimit:4;stroke-dasharray:none;stroke-dashoffset:0;stroke-opacity:1;color-rendering:auto;image-rendering:auto;shape-rendering:auto;text-rendering:auto;enable-background:accumulate"
       d="m 573.00977,633.27539 0.2207,11.61328 0.33984,24.32813 a 0.50005,0.50005 0 0 0 0.39453,0.48047 l 0.13477,15.75585 -0.26953,8.10938 a 0.50005,0.50005 0 0 0 0,0.0254 l 0.41992,24.4375 0.14648,23.83984 -47.79101,0.49415 a 0.50005,0.50005 0 0 0 -0.49609,0.50781 l 0.002,0.19922 -36.41797,0.41406 a 0.50005,0.50005 0 0 0 -0.49414,0.50391 l 0.25781,28.08007 -23.88086,0.18555 a 0.50005,0.50005 0 0 0 -0.49609,0.50586 l 0.13281,12.61523 -123.15039,-45.30078 -55.7793,-20.49023 a 0.50005,0.50005 0 0 0 -0.004,0 l -30.80469,-11.12891 -24.35938,-9.41211 0.83789,-64.45312 35.80079,0.44336 a 0.50005,0.50005 0 0 0 0.002,0 l 35.91016,0.28125 a 0.50005,0.50005 0 0 0 0.004,0 l 24.29883,-0.0312 37.61914,0.16015 a 0.50005,0.50005 0 0 0 0.002,0 l 48.78907,0.0508 a 0.50005,0.50005 0 0 0 0.002,0 l 25.98828,-0.0781 v 0.25781 a 0.50005,0.50005 0 0 0 0.50391,0.5 l 48.85937,-0.28906 a 0.50005,0.50005 0 0 0 0.49805,-0.5 v -0.85547 l 36.57422,-0.29492 a 0.50005,0.50005 0 0 0 0.49609,-0.5 v 0.11328 z"
       id="Pima" />
    <path
       style="color:#000000;font-style:normal;font-variant:normal;font-weight:normal;font-stretch:normal;font-size:medium;line-height:normal;font-family:sans-serif;font-variant-ligatures:normal;font-variant-position:normal;font-variant-caps:normal;font-variant-numeric:normal;font-variant-alternates:normal;font-feature-settings:normal;text-indent:0;text-align:start;text-decoration:none;text-decoration-line:none;text-decoration-style:solid;text-decoration-color:#000000;letter-spacing:normal;word-spacing:normal;text-transform:none;writing-mode:lr-tb;direction:ltr;text-orientation:mixed;dominant-baseline:auto;baseline-shift:baseline;text-anchor:start;white-space:normal;shape-padding:0;clip-rule:nonzero;display:inline;overflow:visible;visibility:visible;opacity:1;isolation:auto;mix-blend-mode:normal;color-interpolation:sRGB;color-interpolation-filters:linearRGB;solid-color:#000000;solid-opacity:1;vector-effect:none;fill:#cccccc;fill-opacity:1;fill-rule:nonzero;stroke:none;stroke-width:1;stroke-linecap:butt;stroke-linejoin:miter;stroke-miterlimit:4;stroke-dasharray:none;stroke-dashoffset:0;stroke-opacity:1;color-rendering:auto;image-rendering:auto;shape-rendering:auto;text-rendering:auto;enable-background:accumulate"
       d="m 739.97266,642.17383 2.75781,110.11914 0.98828,42.08398 -26.97656,0.47266 a 0.50005,0.50005 0 0 0 -0.002,0 l -66.27148,1.41016 -20.53711,0.5 -16.81641,0.16015 a 0.50005,0.50005 0 0 0 -0.004,0 l -37.8711,0.7207 -0.39062,-18.67968 -0.23438,-19.66992 0.52539,-0.0117 a 0.50005,0.50005 0 0 0 0.49024,-0.50586 L 575.40039,742.35742 575.25,718.01758 a 0.50005,0.50005 0 0 0 0,-0.006 l -0.41992,-24.42774 0.26953,-8.10742 a 0.50005,0.50005 0 0 0 0,-0.0215 l -0.13867,-16.25977 a 0.50005,0.50005 0 0 0 -0.39844,-0.48437 l -0.32422,-23.33008 11.61133,-0.0117 a 0.50005,0.50005 0 0 0 0.01,0 l 81.4707,-1.5 a 0.50005,0.50005 0 0 0 0.004,0 l 27.45508,-0.73828 24.27539,-0.19141 a 0.50005,0.50005 0 0 0 0.0176,0 l 13.48438,-0.57031 z"
       id="Cochise" />
  </g>
</svg>
