<?xml version="1.0" encoding="UTF-8" standalone="no"?>
<svg
   xmlns:dc="http://purl.org/dc/elements/1.1/"
   xmlns:cc="http://creativecommons.org/ns#"
   xmlns:rdf="http://www.w3.org/1999/02/22-rdf-syntax-ns#"
   xmlns:svg="http://www.w3.org/2000/svg"
   xmlns="http://www.w3.org/2000/svg"
   xmlns:sodipodi="http://sodipodi.sourceforge.net/DTD/sodipodi-0.dtd"
   xmlns:inkscape="http://www.inkscape.org/namespaces/inkscape"
   version="1.2"
   width="810"
   height="595"
   stroke-linecap="round"
   stroke-linejoin="round"
   id="svg11"
   sodipodi:docname="ct.svg"
   inkscape:version="0.92.1 r15371">
  <metadata
     id="metadata17">
    <rdf:RDF>
      <cc:Work
         rdf:about="">
        <dc:format>image/svg+xml</dc:format>
        <dc:type
           rdf:resource="http://purl.org/dc/dcmitype/StillImage" />
      </cc:Work>
    </rdf:RDF>
  </metadata>
  <defs
     id="defs15" />
  <sodipodi:namedview
     pagecolor="#ffffff"
     bordercolor="#666666"
     borderopacity="1"
     objecttolerance="10"
     gridtolerance="10"
     guidetolerance="10"
     inkscape:pageopacity="0"
     inkscape:pageshadow="2"
     inkscape:window-width="1920"
     inkscape:window-height="1017"
     id="namedview13"
     showgrid="false"
     inkscape:zoom="0.53076658"
     inkscape:cx="-331.98454"
     inkscape:cy="195.1056"
     inkscape:window-x="-8"
     inkscape:window-y="-8"
     inkscape:window-maximized="1"
     inkscape:current-layer="Connecticut" />
  <g
     id="Connecticut"
     transform="translate(5,5)">
    <path
       style="color:#000000;font-style:normal;font-variant:normal;font-weight:normal;font-stretch:normal;font-size:medium;line-height:normal;font-family:sans-serif;font-variant-ligatures:normal;font-variant-position:normal;font-variant-caps:normal;font-variant-numeric:normal;font-variant-alternates:normal;font-feature-settings:normal;text-indent:0;text-align:start;text-decoration:none;text-decoration-line:none;text-decoration-style:solid;text-decoration-color:#000000;letter-spacing:normal;word-spacing:normal;text-transform:none;writing-mode:lr-tb;direction:ltr;text-orientation:mixed;dominant-baseline:auto;baseline-shift:baseline;text-anchor:start;white-space:normal;shape-padding:0;clip-rule:nonzero;display:inline;overflow:visible;visibility:visible;opacity:1;isolation:auto;mix-blend-mode:normal;color-interpolation:sRGB;color-interpolation-filters:linearRGB;solid-color:#000000;solid-opacity:1;vector-effect:none;fill:#cccccc;fill-opacity:1;fill-rule:nonzero;stroke:none;stroke-width:1;stroke-linecap:butt;stroke-linejoin:miter;stroke-miterlimit:4;stroke-dasharray:none;stroke-dashoffset:0;stroke-opacity:1;color-rendering:auto;image-rendering:auto;shape-rendering:auto;text-rendering:auto;enable-background:accumulate"
       d="m 613.4043,185.625 1.65039,1.66602 a 0.50005,0.50005 0 0 0 0.0137,0.0137 l 7.33008,6.87109 a 0.50005,0.50005 0 0 0 0.0176,0.0156 l 3.66796,3.10937 9.50782,9.17969 a 0.50005,0.50005 0 0 0 0.0391,0.0312 l 2.80078,2.21484 8.53125,7.3418 a 0.50005,0.50005 0 0 0 0.78516,-0.17969 l 2.19922,-5.08008 1.67578,0.13672 10.57617,1.9668 0.043,0.42773 a 0.50005,0.50005 0 0 0 0.40039,0.44141 l 6.64844,1.32617 4.54882,1.11719 a 0.50005,0.50005 0 0 0 0.0176,0.006 l 57.6211,11.98828 a 0.50005,0.50005 0 0 0 0.17382,0.006 l 27.66797,-4.0293 3.9961,-0.53906 a 0.50005,0.50005 0 0 0 0.0215,-0.004 l 6.72461,-1.20117 4.41406,0.20703 11.01172,0.91992 a 0.50005,0.50005 0 0 0 0.0508,0.002 l 1.06641,-0.0195 11.71484,0.89257 -0.42969,22.9961 -2.32226,98.03711 -0.91016,0.38476 -0.70117,-0.75976 a 0.50005,0.50005 0 0 0 -0.52539,-0.13477 l -1.06641,0.35742 -2.32421,-1.35546 a 0.50005,0.50005 0 0 0 -0.25977,-0.0684 l -3.04883,0.0508 a 0.50005,0.50005 0 0 0 -0.3164,0.11914 l -1.44141,1.23047 a 0.50005,0.50005 0 0 0 -0.1582,0.25 l -0.22266,0.83789 -3.55859,1.86718 -2.12696,-0.25195 a 0.50005,0.50005 0 0 0 -0.41992,0.15039 l -1.18945,1.24024 a 0.50005,0.50005 0 0 0 -0.13281,0.26758 l -0.34961,2.19921 a 0.50005,0.50005 0 0 0 0.0488,0.3086 l 0.68946,1.33008 0.24023,2.02539 -0.36719,2.03711 a 0.50005,0.50005 0 0 0 0.0723,0.35742 l 1.66016,2.58008 a 0.50005,0.50005 0 0 0 0.10351,0.11718 l 2.06641,1.68555 -0.29688,2.33398 a 0.50005,0.50005 0 0 0 0.0723,0.32618 l 1.06641,1.71875 -0.70313,1.48437 a 0.50005,0.50005 0 0 0 -0.041,0.30469 l 0.42774,2.33984 -2.30078,2.79102 a 0.50005,0.50005 0 0 0 -0.11524,0.30859 l -0.0586,2.91992 a 0.50005,0.50005 0 0 0 0.0156,0.13672 l 0.92969,3.58008 a 0.50005,0.50005 0 0 0 0.20508,0.28906 l 1.64258,1.09961 0.76562,4.41211 -2.58398,3.30664 -3.375,2.91797 -1.18164,0.51953 a 0.50005,0.50005 0 0 0 -0.22266,0.19336 l -1.66601,2.65625 -1.89649,1.79492 -4.28906,-3.47265 -3.63867,-4.41211 a 0.50005,0.50005 0 0 0 -0.36328,-0.18164 l -3.60938,-0.16992 a 0.50005,0.50005 0 0 0 -0.30078,0.084 l -2.46094,1.64844 -2.01367,-0.11133 a 0.50005,0.50005 0 0 0 -0.41797,0.18555 l -2.5625,3.19531 -6.39062,-0.22461 -2.52539,-2.24023 a 0.50005,0.50005 0 0 0 -0.20118,-0.10938 l -1.88671,-0.50781 -1.40625,-2.32813 a 0.50005,0.50005 0 0 0 -0.44336,-0.24218 l -3.86133,0.13085 a 0.50005,0.50005 0 0 0 -0.4043,0.23243 l -3.41406,5.37695 -3.21875,3.3418 -2.36914,0.2539 -4.06055,-4.64453 a 0.50005,0.50005 0 0 0 -0.40625,-0.16992 l -1.13086,0.0703 a 0.50005,0.50005 0 0 0 -0.41992,0.28516 l -2.41016,5.08984 a 0.50005,0.50005 0 0 0 -0.043,0.13281 l -0.25585,1.57813 -1.17579,-1.25 a 0.50005,0.50005 0 0 0 -0.48828,-0.14063 l -2.84961,0.72852 a 0.50005,0.50005 0 0 0 -0.35742,0.34961 l -1.67969,5.92773 -1.72656,-0.12695 -4.46484,-5.15234 a 0.50005,0.50005 0 0 0 -0.47656,-0.16407 l -2.29883,0.46094 a 0.50005,0.50005 0 0 0 -0.34571,0.25781 l -0.95117,1.81836 -1.41992,-0.24609 -0.38477,-1.35547 a 0.50005,0.50005 0 0 0 -0.20117,-0.2793 l -2.10156,-1.41015 a 0.50005,0.50005 0 0 0 -0.22461,-0.082 l -3.13086,-0.33008 a 0.50005,0.50005 0 0 0 -0.45898,0.20508 l -2.3086,3.21484 -1.81054,0.40234 -1.59375,-1.43945 -0.75586,-1.88281 a 0.50005,0.50005 0 0 0 -0.45899,-0.3125 l -2.9414,-0.0312 a 0.50005,0.50005 0 0 0 -0.15821,0.0254 l -8.34961,2.69922 a 0.50005,0.50005 0 0 0 -0.33398,0.58398 l 0.48242,2.1836 -1.82031,0.82226 a 0.50005,0.50005 0 0 0 -0.23047,0.21094 l -1.07812,1.91992 -2.41211,0.47461 a 0.50005,0.50005 0 0 0 -0.29493,0.17969 l -1.42773,1.79492 -4.31641,-1.3125 a 0.50005,0.50005 0 0 0 -0.2832,-0.002 l -4.41016,1.26758 -3.73046,-1.74024 -2.27149,-4.17578 a 0.50005,0.50005 0 0 0 -0.23242,-0.2168 l -2.75,-1.25 a 0.50005,0.50005 0 0 0 -0.50586,0.0566 l -2.15039,1.60938 a 0.50005,0.50005 0 0 0 -0.19727,0.46094 l 0.19532,1.60546 -0.90039,1.17383 -2.9043,-2.69336 -0.50781,-4.17773 a 0.50005,0.50005 0 0 0 -0.0645,-0.18945 l -1.53906,-2.66016 a 0.50005,0.50005 0 0 0 -0.28906,-0.22852 l -2.67969,-0.81054 a 0.50005,0.50005 0 0 0 -0.22461,-0.0137 l -2.83008,0.45898 a 0.50005,0.50005 0 0 0 -0.26757,0.13476 l -4.25977,4.11915 a 0.50005,0.50005 0 0 0 -0.10352,0.14648 l -0.65039,1.36914 a 0.50005,0.50005 0 0 0 -0.0469,0.19141 L 629,411.40625 a 0.50005,0.50005 0 0 0 0.0176,0.1543 l 0.70312,2.61914 -0.50781,3.47265 -0.57422,0.49414 -1.36133,-0.0293 -1.03515,-2.9336 a 0.50005,0.50005 0 0 0 -0.32422,-0.31054 l -2.53125,-0.78907 -2.16406,-4.11718 a 0.50005,0.50005 0 0 0 -0.875,-0.0176 l -0.79883,1.38086 -1.80469,-0.17969 -0.95312,-0.9375 a 0.50005,0.50005 0 0 0 -0.44336,-0.13477 l -6.64844,1.24024 a 0.50005,0.50005 0 0 0 -0.39453,0.61523 l 0.5664,2.2168 -0.2832,2.11523 -3.83594,3.58008 -2.74218,-0.73828 a 0.50005,0.50005 0 0 0 -0.15821,-0.0156 l -3.78125,0.21875 a 0.50005,0.50005 0 0 0 -0.24414,0.082 l -2.66601,1.74414 -5.68555,1.03711 -7.73438,0.65429 -3.8457,-0.33203 -2.39844,-2.23242 -3.1914,-7.20703 -1.99024,-8.03711 a 0.50005,0.50005 0 0 0 -0.40039,-0.37305 l -0.57226,-0.0957 0.5625,-3.4707 a 0.50005,0.50005 0 0 0 -0.008,-0.19141 l -0.70898,-3.09961 a 0.50005,0.50005 0 0 0 -0.0625,-0.15429 l -3.61133,-5.78907 a 0.50005,0.50005 0 0 0 -0.0801,-0.0996 l -3.40039,-3.21875 a 0.50005,0.50005 0 0 0 -0.11523,-0.082 l -2.47656,-1.26367 -2.13086,-1.53125 -0.61133,-1.54101 0.78516,-7.89454 0.98632,-4.79492 a 0.50005,0.50005 0 0 0 -0.01,-0.23633 L 559,369.57227 a 0.50005,0.50005 0 0 0 -0.12305,-0.21289 l -2.25976,-2.3086 -1.30664,-2.4375 a 0.50005,0.50005 0 0 0 -0.22266,-0.21289 l -0.9707,-0.4707 a 0.50005,0.50005 0 0 0 -0.11133,-0.0391 l -6.10938,-1.33007 a 0.50005,0.50005 0 0 0 -0.043,-0.006 l -4,-0.52149 a 0.50005,0.50005 0 0 0 -0.0937,-0.002 l -1.7461,0.10547 -2.04492,-0.57422 -0.57813,-0.57031 -1.09179,-3.50586 0.40625,-1.60352 a 0.50005,0.50005 0 0 0 0.0156,-0.11719 l 0.0391,-3.5996 a 0.50005,0.50005 0 0 0 -0.008,-0.0899 l -0.41992,-2.45117 a 0.50005,0.50005 0 0 0 -0.0508,-0.14844 l -2.67969,-5.07812 1.52539,0.22656 a 0.50005,0.50005 0 0 0 0.14649,0 l 7.38672,-1.11133 2.58789,0.27344 a 0.50005,0.50005 0 0 0 0.29492,-0.0605 l 1.25195,-0.69531 5.51953,-0.85742 33.08789,-4.85938 a 0.50005,0.50005 0 0 0 0.42383,-0.55859 l -3,-22.9707 A 0.50005,0.50005 0 0 0 584.25,313.35742 l -0.60938,0.0996 -3.18164,-21.29101 -0.23828,-8.76954 a 0.50005,0.50005 0 0 0 -0.56054,-0.48242 l -8.66407,1.03906 -5.74414,0.5586 a 0.50005,0.50005 0 0 0 -0.084,0.0156 l -1.21289,0.33008 -8.75391,1.02539 a 0.50005,0.50005 0 0 0 -0.004,0.002 L 536,288.33789 529.05469,273.26172 a 0.50005,0.50005 0 0 0 -0.0606,-0.0996 l -0.42187,-0.54102 -7.01563,-15.68554 19.6543,-3.61328 a 0.50005,0.50005 0 0 0 0.36914,-0.29688 l 2.625,-6.18359 0.14453,0.0273 0.88672,1.70117 a 0.50005,0.50005 0 0 0 0.11328,0.14453 l 1.96094,1.72071 a 0.50005,0.50005 0 0 0 0.18945,0.10351 l 1.55859,0.45703 1.64258,1.16211 a 0.50005,0.50005 0 0 0 0.0625,0.0371 l 3.09961,1.58008 a 0.50005,0.50005 0 0 0 0.58594,-0.0977 l 1.31055,-1.36132 a 0.50005,0.50005 0 0 0 0.10351,-0.15821 l 0.66602,-1.64453 0.98047,-0.35351 a 0.50005,0.50005 0 0 0 0.30664,-0.31836 l 0.68945,-2.17774 1.12695,0.67578 a 0.50005,0.50005 0 0 0 0.29297,0.0684 l 2.51953,-0.17968 a 0.50005,0.50005 0 0 0 0.13867,-0.0293 l 1.14649,-0.42578 0.89453,1.08398 a 0.50005,0.50005 0 0 0 0.24609,0.16211 l 1.24024,0.36133 a 0.50005,0.50005 0 0 0 0.38086,-0.043 l 1.31836,-0.73437 3.58203,-0.16407 a 0.50005,0.50005 0 0 0 0.21484,-0.0605 L 577.84766,245 a 0.50005,0.50005 0 0 0 0.25195,-0.3418 l 1.43164,-7.16015 a 0.50005,0.50005 0 0 0 -0.0156,-0.25391 l -1.95703,-5.98828 -1.97461,-7.20898 12.11524,-5.55274 a 0.50005,0.50005 0 0 0 0.13867,-0.0957 l 10.00391,-9.70703 3.96679,0.40625 a 0.50005,0.50005 0 0 0 0.54883,-0.4375 l 0.44922,-3.77149 a 0.50005,0.50005 0 0 0 -0.008,-0.16211 l -0.89063,-4.18164 a 0.50005,0.50005 0 0 0 -0.10156,-0.21289 l -1.72656,-2.09961 0.73633,-0.19726 1.62695,0.39062 a 0.50005,0.50005 0 0 0 0.37305,-0.0566 l 1.07031,-0.64062 a 0.50005,0.50005 0 0 0 0.17969,-0.1836 l 1.08007,-1.93164 a 0.50005,0.50005 0 0 0 0.0606,-0.18555 l 0.17383,-1.49804 2.42578,-0.91211 a 0.50005,0.50005 0 0 0 0.22461,-0.16992 l 1.01953,-1.37305 1.94141,-0.20703 a 0.50005,0.50005 0 0 0 0.39258,-0.26953 l 0.79101,-1.53907 a 0.50005,0.50005 0 0 0 -0.36914,-0.72265 l -0.7793,-0.12305 0.44922,-1.54101 1.00196,-1.08789 z"
       id="New_London"
       inkscape:label="#New London" />
    <path
       style="color:#000000;font-style:normal;font-variant:normal;font-weight:normal;font-stretch:normal;font-size:medium;line-height:normal;font-family:sans-serif;font-variant-ligatures:normal;font-variant-position:normal;font-variant-caps:normal;font-variant-numeric:normal;font-variant-alternates:normal;font-feature-settings:normal;text-indent:0;text-align:start;text-decoration:none;text-decoration-line:none;text-decoration-style:solid;text-decoration-color:#000000;letter-spacing:normal;word-spacing:normal;text-transform:none;writing-mode:lr-tb;direction:ltr;text-orientation:mixed;dominant-baseline:auto;baseline-shift:baseline;text-anchor:start;white-space:normal;shape-padding:0;clip-rule:nonzero;display:inline;overflow:visible;visibility:visible;opacity:1;isolation:auto;mix-blend-mode:normal;color-interpolation:sRGB;color-interpolation-filters:linearRGB;solid-color:#000000;solid-opacity:1;vector-effect:none;fill:#cccccc;fill-opacity:1;fill-rule:nonzero;stroke:none;stroke-width:1;stroke-linecap:butt;stroke-linejoin:miter;stroke-miterlimit:4;stroke-dasharray:none;stroke-dashoffset:0;stroke-opacity:1;color-rendering:auto;image-rendering:auto;shape-rendering:auto;text-rendering:auto;enable-background:accumulate"
       d="M 98.298828 215.83398 L 96.228516 216.07617 A 0.50005 0.50005 0 0 1 95.955078 216.03125 L 95.724609 215.92188 L 94.910156 229.10742 L 94.388672 240.79297 A 0.50005 0.50005 0 0 1 94.388672 240.81055 L 90.238281 291.28711 L 86.648438 342.1543 A 0.50005 0.50005 0 0 1 86.646484 342.17188 L 85.078125 357.37305 L 83.998047 373.38281 A 0.50005 0.50005 0 0 1 83.998047 373.40234 L 83.408203 378.97852 L 81.46875 400.81445 L 81.169922 406.44141 L 81.388672 410.95508 A 0.50005 0.50005 0 0 1 81.384766 411.04688 L 80.509766 417.50781 L 93.644531 438.5957 A 0.50005 0.50005 0 0 1 93.648438 438.60156 L 108.13867 462.71289 A 0.50005 0.50005 0 0 1 107.96094 463.40234 L 96.863281 469.82031 L 73.876953 483.59961 A 0.50005 0.50005 0 0 1 73.871094 483.60156 L 42.863281 501.66992 L 6.6679688 523.29297 L 8.5253906 526.73633 L 10.828125 530.01172 A 0.50005 0.50005 0 0 1 10.851562 530.04688 L 20.019531 545.59375 L 32.832031 566.86719 L 34.443359 568.93164 A 0.50005 0.50005 0 0 1 34.492188 569.00781 L 35.882812 571.66797 A 0.50005 0.50005 0 0 1 35.927734 572.00977 L 35.568359 573.60938 A 0.50005 0.50005 0 0 1 35.546875 573.68164 L 33.806641 578.1582 L 34.011719 581.30273 L 34.943359 583.08984 A 0.50005 0.50005 0 0 1 34.921875 583.58789 L 34.0625 584.94922 L 34.359375 585.41797 L 36.578125 580.77344 A 0.50005 0.50005 0 0 1 36.695312 580.61914 L 41.404297 576.35938 A 0.50005 0.50005 0 0 1 41.8125 576.23438 L 46.697266 576.94727 L 47.46875 574.80078 A 0.50005 0.50005 0 0 1 47.800781 574.49023 L 51.953125 573.28516 L 56.359375 569.9707 A 0.50005 0.50005 0 0 1 56.589844 569.875 L 60.009766 569.39453 A 0.50005 0.50005 0 0 1 60.523438 569.66016 L 61.517578 571.57812 L 64.779297 575.35352 A 0.50005 0.50005 0 0 1 64.892578 575.5918 L 65.263672 577.65625 L 70.1875 577.37305 L 71.150391 572.68945 A 0.50005 0.50005 0 0 1 71.240234 572.49023 L 73.628906 569.29102 A 0.50005 0.50005 0 0 1 73.984375 569.0918 L 75.587891 568.94727 L 75.845703 567.35938 A 0.50005 0.50005 0 0 1 76 567.07422 L 78.058594 565.1543 A 0.50005 0.50005 0 0 1 78.619141 565.07031 L 79.898438 565.69141 L 80.746094 564.43945 A 0.50005 0.50005 0 0 1 80.841797 564.33398 L 84.800781 561.05469 A 0.50005 0.50005 0 0 1 85.191406 560.94531 L 86.240234 561.0957 A 0.50005 0.50005 0 0 1 86.585938 561.31055 L 87.644531 562.89062 A 0.50005 0.50005 0 0 1 87.726562 563.23633 L 87.273438 566.625 L 87.482422 568.4082 L 88.181641 567.76172 A 0.50005 0.50005 0 0 1 88.466797 567.63281 L 89.849609 567.48633 L 91.244141 565.47266 L 91.542969 562.19141 L 90.869141 562.03711 A 0.50005 0.50005 0 0 1 90.503906 561.70508 L 89.644531 559.05469 A 0.50005 0.50005 0 0 1 89.833984 558.49023 L 92.333984 556.75 A 0.50005 0.50005 0 0 1 92.720703 556.66992 L 96.146484 557.37305 L 96.839844 555.44141 A 0.50005 0.50005 0 0 1 97.070312 555.17188 L 98.90625 554.16406 L 99.060547 553.39258 A 0.50005 0.50005 0 0 1 99.427734 553.00586 L 102.17773 552.31445 A 0.50005 0.50005 0 0 1 102.7168 552.52344 L 104.08398 554.58398 L 104.85547 555.11523 L 105.05469 553.79492 A 0.50005 0.50005 0 0 1 105.53516 553.37109 L 106.875 553.33008 A 0.50005 0.50005 0 0 1 107.37109 553.69336 L 108.71289 558.40625 L 109.20508 555.03711 A 0.50005 0.50005 0 0 1 109.40234 554.70898 L 111.22266 553.35938 L 110.11133 552.61523 A 0.50005 0.50005 0 0 1 109.89648 552.11523 L 110.04688 551.24414 A 0.50005 0.50005 0 0 1 110.5625 550.83008 L 112.20312 550.90234 L 112.58008 550.57227 L 111.73242 549.97852 A 0.50005 0.50005 0 0 1 111.5293 549.47266 L 112.17969 546.22266 A 0.50005 0.50005 0 0 1 112.57422 545.83008 L 114.36328 545.47852 A 0.50005 0.50005 0 0 1 114.91602 545.76367 L 115.31055 546.63086 L 116.42578 546.13281 A 0.50005 0.50005 0 0 1 117.12695 546.5332 L 117.31641 548.22461 A 0.50005 0.50005 0 0 1 117.17969 548.62695 L 116.39453 549.44141 L 116.69336 549.8418 L 118.30078 549.13086 L 118.50586 547.88867 A 0.50005 0.50005 0 0 1 119.03516 547.4707 L 120.23242 547.55469 L 122.05469 546.91797 A 0.50005 0.50005 0 0 1 122.49023 546.96875 L 124.43164 548.21289 L 127.2207 548.26562 L 135.53125 540.18164 A 0.50005 0.50005 0 0 1 135.88281 540.03906 L 137.33398 540.04688 L 137.74609 538.07617 L 137.52148 535.07812 A 0.50005 0.50005 0 0 1 137.74023 534.625 L 138.57422 534.0625 L 139.83984 532.08984 A 0.50005 0.50005 0 0 1 140.65625 532.05469 L 142.24805 534.11133 L 143.72266 534.05664 L 144.02344 531.44336 A 0.50005 0.50005 0 0 1 144.1543 531.1582 L 146.00391 529.17773 A 0.50005 0.50005 0 0 1 146.59766 529.07422 L 148.94531 530.27344 L 149.11328 529.99609 L 147.97656 527.5293 A 0.50005 0.50005 0 0 1 148.42578 526.82031 L 153.89648 526.78125 L 154.98242 526.11523 L 154.0957 524.16797 A 0.50005 0.50005 0 0 1 154.05078 523.9707 L 153.98047 520.94141 A 0.50005 0.50005 0 0 1 154.66992 520.4668 L 159.25977 522.35742 A 0.50005 0.50005 0 0 1 159.3457 522.40234 L 160.64258 523.25781 L 161.39258 521.25391 A 0.50005 0.50005 0 0 1 161.63672 520.98242 L 167.41602 518.08398 A 0.50005 0.50005 0 0 1 167.83203 518.06836 L 169.94727 518.94336 L 173.77148 516.25195 A 0.50005 0.50005 0 0 1 173.93164 516.17773 L 176.93164 515.37695 A 0.50005 0.50005 0 0 1 177.3125 515.42773 L 178.85742 516.33398 L 179.61523 515.64844 A 0.50005 0.50005 0 0 1 179.69336 515.5918 L 182.75391 513.75586 L 182.63086 511.58789 A 0.50005 0.50005 0 0 1 182.9707 511.08594 L 188.03125 509.38672 A 0.50005 0.50005 0 0 1 188.36523 509.39258 L 191.66602 510.63281 A 0.50005 0.50005 0 0 1 191.91992 510.8457 L 193.30273 513.17969 L 198.09375 514.6582 L 201.93359 511.16016 A 0.50005 0.50005 0 0 1 202.07812 511.06836 L 206.03516 509.43164 L 209.11133 501.02734 A 0.50005 0.50005 0 0 1 209.66992 500.70898 L 212.44531 501.21094 L 214.13477 498.82617 L 213.79492 498.08984 A 0.50005 0.50005 0 0 1 213.89062 497.53125 L 215.57227 495.80078 A 0.50005 0.50005 0 0 1 216.0625 495.66797 L 217.16211 495.9668 A 0.50005 0.50005 0 0 1 217.51367 496.32227 L 217.87695 497.6875 L 219.79883 495.0918 A 0.50005 0.50005 0 0 1 219.92773 494.9707 L 222.71875 493.16016 A 0.50005 0.50005 0 0 1 222.94531 493.08203 L 229.40039 492.50391 L 230.07812 490.03711 A 0.50005 0.50005 0 0 1 230.35352 489.71484 L 233.07422 488.48438 A 0.50005 0.50005 0 0 1 233.4375 488.46484 L 236.34766 489.43555 A 0.50005 0.50005 0 0 1 236.67969 490.00586 L 236.13086 492.79688 L 252.85938 499.36328 L 260.63867 497.25781 A 0.50005 0.50005 0 0 1 260.72266 497.24219 L 263.76758 496.94727 L 264.15234 496.23633 L 262.2793 495.64648 A 0.50005 0.50005 0 0 1 262 495.42578 L 260.64062 493.14648 A 0.50005 0.50005 0 0 1 260.58008 492.79102 L 261.50977 488.1543 L 256.88281 484.5332 A 0.50005 0.50005 0 0 1 256.74219 484.36133 L 255.87109 482.60156 A 0.50005 0.50005 0 0 1 255.82227 482.42188 L 255.64258 480.25195 A 0.50005 0.50005 0 0 1 255.65234 480.0957 L 256.36328 477.04688 A 0.50005 0.50005 0 0 1 256.46484 476.8418 L 258.67383 474.16016 L 260.61133 470.56445 L 261.11133 468.67383 L 260.57812 466.78516 A 0.50005 0.50005 0 0 1 260.56055 466.62305 L 260.74023 463.23438 A 0.50005 0.50005 0 0 1 260.76562 463.09961 L 261.51172 460.89258 L 260.69141 457.20898 A 0.50005 0.50005 0 0 1 260.68164 457.05078 L 260.90234 454.81055 A 0.50005 0.50005 0 0 1 260.95898 454.625 L 263.03906 450.70508 A 0.50005 0.50005 0 0 1 263.07812 450.64258 L 264.47656 448.74414 A 0.50005 0.50005 0 0 1 264.58594 448.63477 L 267.91602 446.21484 L 268.75195 445.31641 L 270.28125 442.51562 L 270.50391 441.14648 L 270.07617 438.22266 A 0.50005 0.50005 0 0 1 270.07031 438.14062 L 270.11914 435.33008 L 269.77344 431.86914 A 0.50005 0.50005 0 0 1 269.78906 431.68555 L 270.53906 429.01562 A 0.50005 0.50005 0 0 1 270.57031 428.93164 L 271.85938 426.26172 A 0.50005 0.50005 0 0 1 271.99609 426.0918 L 274.01562 424.46094 A 0.50005 0.50005 0 0 1 274.11328 424.40039 L 277.16602 422.92578 L 278.08398 422.00781 L 279.45703 419.07422 L 279.53125 417.84961 L 278.50977 416.20312 L 275.49219 413.72656 A 0.50005 0.50005 0 0 1 275.42383 413.65625 L 274.48242 412.50586 A 0.50005 0.50005 0 0 1 274.38477 412.31055 L 273.91016 410.40234 L 271.00391 408.93555 A 0.50005 0.50005 0 0 1 270.81836 408.77344 L 269.06445 406.2207 L 266.70898 404.43555 L 258.95898 399.17383 A 0.50005 0.50005 0 0 1 258.80664 399.00977 L 255.91602 393.97852 A 0.50005 0.50005 0 0 1 255.89844 393.94531 L 254.61133 391.23633 L 250.67578 388.78516 A 0.50005 0.50005 0 0 1 250.50781 388.61133 L 249.64844 387.13086 A 0.50005 0.50005 0 0 1 249.58398 386.94922 L 249.04688 383.11719 L 244.49609 378.31445 A 0.50005 0.50005 0 0 1 244.45117 378.25586 L 241.96094 374.69727 A 0.50005 0.50005 0 0 1 241.91406 374.61523 L 241.18359 372.98438 A 0.50005 0.50005 0 0 1 241.14062 372.75977 L 241.19922 371.26562 L 238.49414 371.33984 A 0.50005 0.50005 0 0 1 238.43945 371.33789 L 235.63867 371.10742 A 0.50005 0.50005 0 0 1 235.32031 370.95703 L 232.13086 367.6582 A 0.50005 0.50005 0 0 1 232.07227 367.58594 L 229.30273 363.38477 A 0.50005 0.50005 0 0 1 229.25586 362.92188 L 230.30859 360.32031 L 230.50781 358.30664 L 229.94727 357.30664 L 228.61719 356.47852 L 226.0293 355.88672 A 0.50005 0.50005 0 0 1 225.82617 355.78906 L 224.5957 354.79883 A 0.50005 0.50005 0 0 1 224.46484 354.63867 L 223.76953 353.2832 L 221.3418 350.75977 L 219.6875 349.56445 A 0.50005 0.50005 0 0 1 219.58203 349.46289 L 217.07422 346.16211 L 214.06445 345.53906 L 210.33984 347.69336 A 0.50005 0.50005 0 0 1 210.06055 347.75977 L 209.04102 347.69922 A 0.50005 0.50005 0 0 1 208.68164 347.51367 L 207.0918 345.54492 A 0.50005 0.50005 0 0 1 206.98047 345.23047 L 206.98047 341.96094 L 206.0918 340.38867 L 204.12891 341.30273 L 201.80273 343.38281 A 0.50005 0.50005 0 0 1 201.61523 343.48828 L 200.69531 343.76758 A 0.50005 0.50005 0 0 1 200.37891 343.75977 L 198.53906 343.08984 A 0.50005 0.50005 0 0 1 198.28711 342.88672 L 197.4082 341.49805 A 0.50005 0.50005 0 0 1 197.33789 341.32031 L 196.69922 337.82227 L 195.625 335.50195 L 194.3418 333.68945 L 192.79492 333.23242 L 189.07227 334.4082 L 186.58594 335.97266 A 0.50005 0.50005 0 0 1 186.10352 336.00195 L 184.28516 335.13086 A 0.50005 0.50005 0 0 1 184.01562 334.80273 L 183.05469 330.99219 A 0.50005 0.50005 0 0 1 183.05078 330.76367 L 184.08008 326.0293 L 183.64258 323.52344 L 181.91992 323.07422 L 179.88477 324.21875 L 178.92188 324.94922 A 0.50005 0.50005 0 0 1 178.51953 325.03906 L 172.81836 323.85938 A 0.50005 0.50005 0 0 1 172.59766 323.75195 L 168.63672 320.41992 L 164.23633 319.10938 A 0.50005 0.50005 0 0 1 164.07617 319.02734 L 162.91406 318.14258 L 159.61328 316.88672 A 0.50005 0.50005 0 0 1 159.47266 316.80664 L 157.37891 315.08594 L 152.875 312.94141 A 0.50005 0.50005 0 0 1 152.59375 312.54297 L 152.02344 307.29492 L 151.25391 305.91992 L 148.06836 304.16797 A 0.50005 0.50005 0 0 1 147.93164 304.05664 L 147.32031 303.3457 A 0.50005 0.50005 0 0 1 147.27344 302.75977 L 148.63477 300.51953 L 148.11719 299.17578 L 142.1582 302.05078 L 135.96875 305.80664 A 0.50005 0.50005 0 0 1 135.89648 305.84375 L 130.54688 307.99609 L 126.23633 311.52734 A 0.50005 0.50005 0 0 1 125.42383 311.20117 L 124.60547 304.46094 L 123.95117 301.30078 A 0.50005 0.50005 0 0 1 123.97852 301.00586 L 124.96875 298.64844 L 123.75586 292.73047 L 120.52734 283.2207 A 0.50005 0.50005 0 0 1 120.50781 283.15039 L 120.06445 280.72461 L 115.23828 266.32227 L 106.72852 242.33789 A 0.50005 0.50005 0 0 1 106.72461 242.32617 L 103.01562 230.98633 A 0.50005 0.50005 0 0 1 103.00781 230.69727 L 103.6582 228.32812 A 0.50005 0.50005 0 0 1 103.82227 228.07422 L 106.40234 225.95312 A 0.50005 0.50005 0 0 1 106.95898 225.90039 L 107.48047 226.18359 L 108.20703 225.68555 L 106.22266 222.88867 A 0.50005 0.50005 0 0 1 106.15625 222.76172 L 104.91602 219.11523 L 103.82617 219.91406 A 0.50005 0.50005 0 0 1 103.25586 219.92773 L 100.81641 218.32812 A 0.50005 0.50005 0 0 1 100.73633 218.26367 L 98.298828 215.83398 z M 155.93555 531.4043 L 154.8418 531.43164 L 156.56445 533.41211 L 157.7793 534.13672 L 159.40039 533.5332 L 159.70117 532.37305 L 158.39648 532.6582 A 0.50005 0.50005 0 0 1 158.04297 532.60352 L 155.93555 531.4043 z M 146.22852 539.92188 L 144.81836 541.01562 L 144.07422 542.74023 L 143.7168 544.03711 L 145.24805 545.62305 L 144.8457 544.44141 A 0.50005 0.50005 0 0 1 145.01172 543.88672 L 146.33203 542.85156 L 147.91602 540.31641 L 146.22852 539.92188 z M 140.91211 545.79492 L 139.41211 545.89648 L 134.55469 550.16602 L 133.45117 551.89258 L 136.95508 549.93359 A 0.50005 0.50005 0 0 1 137.32227 549.88477 L 138.59961 550.20703 L 140.04492 549.65234 L 140.23242 547.83789 A 0.50005 0.50005 0 0 1 140.27148 547.69141 L 140.99414 546.0293 L 140.91211 545.79492 z M 40.351562 580.33008 L 40.115234 580.53125 A 0.50005 0.50005 0 0 1 40.15625 580.60352 L 41.416016 583.38477 L 42.041016 582.66992 L 40.351562 580.33008 z M 48.171875 587.57227 L 47.707031 587.91406 L 48.292969 587.76562 L 48.171875 587.57227 z M 46.279297 588.01953 L 46.197266 588.29883 L 46.748047 588.1582 L 46.279297 588.01953 z "
       transform="translate(-5,-5)"
       id="Fairfield"
       inkscape:label="#path4590" />
    <path
       style="color:#000000;font-style:normal;font-variant:normal;font-weight:normal;font-stretch:normal;font-size:medium;line-height:normal;font-family:sans-serif;font-variant-ligatures:normal;font-variant-position:normal;font-variant-caps:normal;font-variant-numeric:normal;font-variant-alternates:normal;font-feature-settings:normal;text-indent:0;text-align:start;text-decoration:none;text-decoration-line:none;text-decoration-style:solid;text-decoration-color:#000000;letter-spacing:normal;word-spacing:normal;text-transform:none;writing-mode:lr-tb;direction:ltr;text-orientation:mixed;dominant-baseline:auto;baseline-shift:baseline;text-anchor:start;white-space:normal;shape-padding:0;clip-rule:nonzero;display:inline;overflow:visible;visibility:visible;opacity:1;isolation:auto;mix-blend-mode:normal;color-interpolation:sRGB;color-interpolation-filters:linearRGB;solid-color:#000000;solid-opacity:1;vector-effect:none;fill:#cccccc;fill-opacity:1;fill-rule:nonzero;stroke:none;stroke-width:1;stroke-linecap:butt;stroke-linejoin:miter;stroke-miterlimit:4;stroke-dasharray:none;stroke-dashoffset:0;stroke-opacity:1;color-rendering:auto;image-rendering:auto;shape-rendering:auto;text-rendering:auto;enable-background:accumulate"
       d="m 504.51758,222.72852 0.11133,0.38867 a 0.50005,0.50005 0 0 0 0.0273,0.0742 l 9.49805,20.34375 3.08789,7.09375 a 0.50005,0.50005 0 0 0 0.0137,0.0293 l 3.13867,6.12891 7.28906,16.29687 a 0.50005,0.50005 0 0 0 0.0625,0.10352 l 0.42383,0.54492 7.07617,15.35742 a 0.50005,0.50005 0 0 0 0.51758,0.28516 l 19.55664,-2.49805 8.78711,-1.03125 a 0.50005,0.50005 0 0 0 0.0742,-0.0137 l 1.20898,-0.32812 5.70704,-0.55664 a 0.50005,0.50005 0 0 0 0.0117,0 l 8.12695,-0.97657 0.22461,8.25196 a 0.50005,0.50005 0 0 0 0.004,0.0605 l 3.25977,21.82032 a 0.50005,0.50005 0 0 0 0.57617,0.41992 l 0.59961,-0.0977 2.86914,21.9707 -32.60156,4.78907 a 0.50005,0.50005 0 0 0 -0.004,0 l -5.61133,0.87109 a 0.50005,0.50005 0 0 0 -0.16601,0.0566 l -1.19141,0.66211 -2.49219,-0.26172 a 0.50005,0.50005 0 0 0 -0.12695,0.002 l -7.37695,1.10938 -2.42578,-0.35938 a 0.50005,0.50005 0 0 0 -0.51563,0.72852 l 3.10352,5.87891 0.39844,2.32617 -0.0391,3.49609 -0.42578,1.68164 a 0.50005,0.50005 0 0 0 0.008,0.27149 l 1.16993,3.75976 a 0.50005,0.50005 0 0 0 0.12695,0.20703 l 0.75977,0.75 a 0.50005,0.50005 0 0 0 0.21484,0.12696 l 2.25,0.6289 a 0.50005,0.50005 0 0 0 0.16601,0.0176 l 1.78321,-0.10742 3.93164,0.51172 6.03125,1.3125 0.76953,0.37305 1.26367,2.35742 a 0.50005,0.50005 0 0 0 0.084,0.11328 l 2.2207,2.26953 0.39062,1.37109 -0.96484,4.69922 a 0.50005,0.50005 0 0 0 -0.008,0.0508 l -0.79883,8.04102 a 0.50005,0.50005 0 0 0 0.0312,0.23437 l 0.71094,1.78907 a 0.50005,0.50005 0 0 0 0.17187,0.2207 l 2.28125,1.64062 a 0.50005,0.50005 0 0 0 0.0644,0.0391 l 2.44532,1.24804 3.30078,3.12696 3.53125,5.66406 0.66992,2.92187 -0.54297,3.36915 -0.10547,-0.0176 a 0.50005,0.50005 0 0 0 -0.55468,0.32812 l -2.31836,6.62891 a 0.50005,0.50005 0 0 0 -0.0293,0.15625 l -0.0801,4.58008 a 0.50005,0.50005 0 0 0 0.11328,0.32617 l 2.89063,3.52734 2.48242,7.57813 -1.34961,-0.41016 a 0.50005,0.50005 0 0 0 -0.26758,-0.008 l -4.50976,1.12109 a 0.50005,0.50005 0 0 0 -0.16993,0.0781 l -3.35156,2.40625 -4.32617,-0.52539 a 0.50005,0.50005 0 0 0 -0.27148,0.041 l -2.89063,1.33594 -4.77344,-8.51563 a 0.50005,0.50005 0 0 0 -0.5625,-0.23828 l -2.78515,0.73047 -4.83203,-0.84961 a 0.50005,0.50005 0 0 0 -0.46094,0.16016 l -1.5332,1.73047 -1.51954,0.43555 -4.69336,-2.41016 a 0.50005,0.50005 0 0 0 -0.2246,-0.0547 l -5.75,-0.0586 a 0.50005,0.50005 0 0 0 -0.25196,0.0645 l -4.24023,2.41016 a 0.50005,0.50005 0 0 0 -0.14258,0.12304 l -2.18359,2.73047 -1.50196,-0.48437 a 0.50005,0.50005 0 0 0 -0.11718,-0.0234 l -5.41993,-0.41016 a 0.50005,0.50005 0 0 0 -0.2539,0.0488 l -5.69141,2.75 a 0.50005,0.50005 0 0 0 -0.13672,0.0977 l -3.11914,3.1289 a 0.50005,0.50005 0 0 0 -0.14453,0.37305 l 0.0508,1.31445 -0.74023,0.0801 -1.60547,-0.95312 a 0.50005,0.50005 0 0 0 -0.40039,-0.0488 l -0.95899,0.28711 -1.2207,-3.8125 a 0.50005,0.50005 0 0 0 -0.57227,-0.33789 l -3.34179,0.66015 a 0.50005,0.50005 0 0 0 -0.15821,0.0625 l -1.57031,0.93946 a 0.50005,0.50005 0 0 0 -0.20703,0.24218 l -1.14062,2.82032 a 0.50005,0.50005 0 0 0 -0.0352,0.14648 l -0.0469,0.57813 -3.07031,-2.34375 -0.65625,-1.89258 0.47852,-1.52149 a 0.50005,0.50005 0 0 0 0.0195,-0.21093 l -0.25,-2.05274 0.94336,-0.97851 a 0.50005,0.50005 0 0 0 0.0391,-0.65039 l -1.3457,-1.77539 0.69922,-1.30665 a 0.50005,0.50005 0 0 0 -0.15625,-0.64648 l -1.20118,-0.83008 a 0.50005,0.50005 0 0 0 -0.58593,0.0137 l -0.78516,0.59571 -1.16601,-0.006 -2.38282,-3.54102 a 0.50005,0.50005 0 0 0 -0.16797,-0.15625 l -0.98632,-0.55859 -0.63672,-1.83203 a 0.50005,0.50005 0 0 0 -0.21875,-0.26563 l -1.65625,-0.97461 -0.20117,-1.71289 a 0.50005,0.50005 0 0 0 -0.20118,-0.34375 l -2.11914,-1.56054 -2.67773,-2.9336 a 0.50005,0.50005 0 0 0 -0.17969,-0.12695 l -1.00195,-0.41016 -0.36133,-2.76172 a 0.50005,0.50005 0 0 0 -0.13867,-0.28515 l -0.85352,-0.86719 1.3711,-1.55078 a 0.50005,0.50005 0 0 0 0.12304,-0.36914 l -0.21875,-2.88086 a 0.50005,0.50005 0 0 0 -0.61914,-0.44727 l -2.08203,0.51758 -1.42187,-2.52734 a 0.50005,0.50005 0 0 0 -0.6875,-0.1875 l -1.84961,1.07031 -1.58399,-0.83984 a 0.50005,0.50005 0 0 0 -0.0742,-0.0312 l -3.4414,-1.16407 v -3.39062 l 1.26758,-3.3125 a 0.50005,0.50005 0 0 0 0.0332,-0.19531 l -0.0703,-2.11133 a 0.50005,0.50005 0 0 0 -0.0274,-0.14844 l -0.57031,-1.62109 0.22656,-6.36133 0.70508,-0.26367 a 0.50005,0.50005 0 0 0 0.30469,-0.32422 l 0.66015,-2.19922 a 0.50005,0.50005 0 0 0 0.004,-0.27539 l -0.43555,-1.6211 0.15039,-1.53906 a 0.50005,0.50005 0 0 0 -0.0566,-0.28515 l -2.0664,-3.8418 0.0605,-1.69922 0.54688,-0.86523 a 0.50005,0.50005 0 0 0 -0.0859,-0.63868 l -1.46094,-1.32812 -0.76953,-1.50781 A 0.50005,0.50005 0 0 0 459.25,361.16797 l -1.73828,-1.00781 -1.20313,-1.64454 0.27344,-0.80273 a 0.50005,0.50005 0 0 0 -0.18164,-0.57031 l -1.55273,-1.10742 -0.6211,-1.0586 0.0918,-1.67968 a 0.50005,0.50005 0 0 0 -0.1582,-0.39258 l -0.54297,-0.50391 -0.0176,-2.06445 a 0.50005,0.50005 0 0 0 -0.5,-0.4961 h -2.13477 l -1.42578,-0.69531 -3.29492,-2.66211 0.52539,-1.18164 2.61719,-3.96484 a 0.50005,0.50005 0 0 0 -0.18164,-0.7168 l -1.84961,-0.99023 a 0.50005,0.50005 0 0 0 -0.27149,-0.0586 l -0.46093,0.0332 0.35547,-1.60547 a 0.50005,0.50005 0 0 0 -0.52344,-0.60743 l -1.45117,0.0996 -0.19922,-1.30664 a 0.50005,0.50005 0 0 0 -0.60742,-0.41015 l -10.2461,2.36718 -1.55469,0.01 a 0.50005,0.50005 0 0 0 -0.10546,0.0117 l -10.54883,2.36914 -14.65235,3.16992 2.5918,-7.3457 a 0.50005,0.50005 0 0 0 0.0273,-0.12695 l 1.50977,-19.07422 0.62891,-6.59766 a 0.50005,0.50005 0 0 0 -0.64844,-0.52344 l -3.26758,1.03907 -0.55273,-7.58594 -0.92969,-15.875 a 0.50005,0.50005 0 0 0 0,-0.0117 l -0.75,-9.26758 -1.35938,-18.88086 -0.29296,-7.00586 3.7246,-0.93554 4.5586,-0.7461 a 0.50005,0.50005 0 0 0 0.4082,-0.38281 l 0.64649,-2.8457 2.25976,-0.75 3.7168,-0.6836 a 0.50005,0.50005 0 0 0 0.35742,-0.71289 l -0.47266,-0.95117 0.84961,-2.1543 a 0.50005,0.50005 0 0 0 0.0293,-0.11523 l 0.41797,-3.07813 0.41797,-0.43359 a 0.50005,0.50005 0 0 0 0.0645,-0.60937 l -1.62891,-2.6211 0.54102,-2.1543 15.25586,-2.89062 a 0.50005,0.50005 0 0 0 0.006,0 l 10.22851,-2.07617 1.48829,-0.16797 a 0.50005,0.50005 0 0 0 0.0469,-0.008 l 7.09375,-1.48047 -0.86719,2.98242 a 0.50005,0.50005 0 0 0 0.55274,0.63476 l 21.83984,-3.16015 a 0.50005,0.50005 0 0 0 0.002,-0.002 l 18.43946,-2.76954 a 0.50005,0.50005 0 0 0 0.0215,-0.004 l 4.20313,-0.81641 z"
       id="Middlesex" />
    <path
       style="color:#000000;font-style:normal;font-variant:normal;font-weight:normal;font-stretch:normal;font-size:medium;line-height:normal;font-family:sans-serif;font-variant-ligatures:normal;font-variant-position:normal;font-variant-caps:normal;font-variant-numeric:normal;font-variant-alternates:normal;font-feature-settings:normal;text-indent:0;text-align:start;text-decoration:none;text-decoration-line:none;text-decoration-style:solid;text-decoration-color:#000000;letter-spacing:normal;word-spacing:normal;text-transform:none;writing-mode:lr-tb;direction:ltr;text-orientation:mixed;dominant-baseline:auto;baseline-shift:baseline;text-anchor:start;white-space:normal;shape-padding:0;clip-rule:nonzero;display:inline;overflow:visible;visibility:visible;opacity:1;isolation:auto;mix-blend-mode:normal;color-interpolation:sRGB;color-interpolation-filters:linearRGB;solid-color:#000000;solid-opacity:1;vector-effect:none;fill:#cccccc;fill-opacity:1;fill-rule:nonzero;stroke:none;stroke-width:1;stroke-linecap:butt;stroke-linejoin:miter;stroke-miterlimit:4;stroke-dasharray:none;stroke-dashoffset:0;stroke-opacity:1;color-rendering:auto;image-rendering:auto;shape-rendering:auto;text-rendering:auto;enable-background:accumulate"
       d="M 332.08594 229.27148 L 323.73828 230.45312 L 319.26758 231.24219 A 0.50005 0.50005 0 0 1 319.22852 231.24805 L 314.39844 231.7168 L 306.33594 237.34961 A 0.50005 0.50005 0 0 1 306.11914 237.43555 L 299.11328 238.42383 L 300.17383 245.02148 A 0.50005 0.50005 0 0 1 299.63672 245.59766 L 292.60938 244.99023 L 283.46094 249.66602 L 283.57812 251.47656 A 0.50005 0.50005 0 0 1 283.46094 251.83203 L 282.92969 252.46094 L 283.13281 256.16211 L 284.18945 258.35352 A 0.50005 0.50005 0 0 1 283.81836 259.06445 L 281.03906 259.50391 A 0.50005 0.50005 0 0 1 281.00781 259.50781 L 275.60547 260.01953 L 273.63672 260.95508 L 269.8418 268.99414 A 0.50005 0.50005 0 0 1 269.55078 269.25391 L 259.64062 272.60352 A 0.50005 0.50005 0 0 1 259.62305 272.60938 L 247.90234 276.08984 A 0.50005 0.50005 0 0 1 247.7832 276.10938 L 240.2793 276.44336 L 243.85352 299.25195 A 0.50005 0.50005 0 0 1 243.43555 299.82422 L 223.43555 302.875 A 0.50005 0.50005 0 0 1 223.28125 302.87305 L 207.74414 300.38477 L 202.80078 300.87695 L 181.08008 303.97461 A 0.50005 0.50005 0 0 1 181.05664 303.97852 L 176.64062 304.39844 L 175.78516 306.54492 A 0.50005 0.50005 0 0 1 175.75977 306.5957 L 173.53906 310.73633 L 174.22461 312.2207 A 0.50005 0.50005 0 0 1 174.23047 312.62305 L 173.46289 314.45898 L 173.57617 315.33789 L 175.01758 316.90039 A 0.50005 0.50005 0 0 1 175.12305 317.07617 L 175.80273 319.04688 L 179.00391 322.80078 L 179.63086 323.21484 L 181.60547 322.10352 A 0.50005 0.50005 0 0 1 181.97656 322.05664 L 184.20508 322.63672 A 0.50005 0.50005 0 0 1 184.57227 323.0332 L 185.08203 325.95312 A 0.50005 0.50005 0 0 1 185.07812 326.14648 L 184.05273 330.86133 L 184.92773 334.33008 L 186.28711 334.98047 L 188.59375 333.52734 A 0.50005 0.50005 0 0 1 188.70898 333.47266 L 192.63867 332.23242 A 0.50005 0.50005 0 0 1 192.93164 332.23047 L 194.79102 332.78125 A 0.50005 0.50005 0 0 1 195.05859 332.9707 L 196.46875 334.96094 A 0.50005 0.50005 0 0 1 196.51367 335.03906 L 197.63281 337.46094 A 0.50005 0.50005 0 0 1 197.67188 337.58008 L 198.30469 341.04492 L 199.04102 342.20898 L 200.56445 342.76367 L 201.21875 342.56445 L 203.51562 340.50781 A 0.50005 0.50005 0 0 1 203.63867 340.42578 L 206.08984 339.28711 A 0.50005 0.50005 0 0 1 206.73633 339.49414 L 207.91602 341.58398 A 0.50005 0.50005 0 0 1 207.98047 341.83008 L 207.98047 345.05273 L 209.32031 346.71289 L 209.96875 346.75195 L 213.73047 344.57812 A 0.50005 0.50005 0 0 1 214.08203 344.51953 L 217.46094 345.2207 A 0.50005 0.50005 0 0 1 217.75781 345.4082 L 220.33398 348.79883 L 221.96289 349.97461 A 0.50005 0.50005 0 0 1 222.03125 350.0332 L 224.54102 352.64258 A 0.50005 0.50005 0 0 1 224.625 352.76172 L 225.30664 354.08789 L 226.36328 354.9375 L 228.92188 355.52344 A 0.50005 0.50005 0 0 1 229.07422 355.58594 L 230.58398 356.52539 A 0.50005 0.50005 0 0 1 230.75586 356.70508 L 231.45703 357.95508 A 0.50005 0.50005 0 0 1 231.51758 358.24805 L 231.29688 360.48828 A 0.50005 0.50005 0 0 1 231.26367 360.62695 L 230.28125 363.05469 L 232.88086 366.99609 L 235.9082 370.12695 L 238.49414 370.33984 L 241.70703 370.25 A 0.50005 0.50005 0 0 1 242.21875 370.76953 L 242.14453 372.68164 L 242.80664 374.16211 L 245.24805 377.65234 L 249.88281 382.54688 A 0.50005 0.50005 0 0 1 250.01562 382.82031 L 250.5625 386.71289 L 251.31055 388.00195 L 255.26367 390.46484 A 0.50005 0.50005 0 0 1 255.45117 390.67578 L 256.79297 393.49805 L 259.61523 398.41016 L 267.28125 403.61719 A 0.50005 0.50005 0 0 1 267.30273 403.63086 L 269.73242 405.4707 A 0.50005 0.50005 0 0 1 269.8418 405.58594 L 271.57031 408.10156 L 274.56445 409.61328 A 0.50005 0.50005 0 0 1 274.82617 409.93945 L 275.32812 411.96094 L 276.16602 412.98438 L 279.20703 415.48438 A 0.50005 0.50005 0 0 1 279.31445 415.60547 L 280.46484 417.45508 A 0.50005 0.50005 0 0 1 280.53906 417.75 L 280.44922 419.23047 A 0.50005 0.50005 0 0 1 280.40234 419.41211 L 278.95312 422.51172 A 0.50005 0.50005 0 0 1 278.85352 422.6543 L 277.81445 423.69336 A 0.50005 0.50005 0 0 1 277.67773 423.79102 L 274.59961 425.27539 L 272.71094 426.79883 L 271.49023 429.32812 L 270.77734 431.86328 L 271.11719 435.25977 A 0.50005 0.50005 0 0 1 271.11914 435.31836 L 271.07031 438.11719 L 271.50391 441.07812 A 0.50005 0.50005 0 0 1 271.50391 441.23047 L 271.25391 442.75977 A 0.50005 0.50005 0 0 1 271.19922 442.91992 L 269.59961 445.84961 A 0.50005 0.50005 0 0 1 269.52734 445.95117 L 268.61719 446.92969 A 0.50005 0.50005 0 0 1 268.54492 446.99414 L 265.23633 449.39844 L 263.9043 451.20703 L 261.88867 455.00781 L 261.68555 457.07031 L 262.51758 460.81055 A 0.50005 0.50005 0 0 1 262.50391 461.08008 L 261.73633 463.35547 L 261.56445 466.59375 L 262.11133 468.53516 A 0.50005 0.50005 0 0 1 262.11328 468.79688 L 261.5625 470.87695 A 0.50005 0.50005 0 0 1 261.51953 470.98828 L 259.5293 474.67773 A 0.50005 0.50005 0 0 1 259.47656 474.75781 L 257.31055 477.38672 L 256.64453 480.24609 L 256.81055 482.24414 L 257.58789 483.81641 L 261.94727 487.22656 L 263.60547 484.7793 A 0.50005 0.50005 0 0 1 264.11328 484.56836 L 264.53711 484.64844 L 269.60156 477.51953 A 0.50005 0.50005 0 0 1 269.64453 477.46875 L 272.45312 474.44922 A 0.50005 0.50005 0 0 1 272.54102 474.375 L 276.30078 471.83594 A 0.50005 0.50005 0 0 1 276.50977 471.75586 L 279.14648 471.38086 L 281.14844 467.5957 A 0.50005 0.50005 0 0 1 281.27344 467.44336 L 283.50391 465.62305 A 0.50005 0.50005 0 0 1 283.64648 465.54102 L 286.06641 464.64062 A 0.50005 0.50005 0 0 1 286.44141 464.65234 L 288.44141 465.5332 A 0.50005 0.50005 0 0 1 288.65234 465.70703 L 290.9707 469.06836 L 291.85156 467.45898 A 0.50005 0.50005 0 0 1 292.11914 467.23047 L 294.27734 466.43945 A 0.50005 0.50005 0 0 1 294.44336 466.41016 L 297.06445 466.38086 A 0.50005 0.50005 0 0 1 297.25586 466.41602 L 298.50586 466.91602 A 0.50005 0.50005 0 0 1 298.82031 467.37305 L 298.83203 468.13086 L 300.42383 467.98047 L 302.77148 465.27539 L 304.5293 459.24023 A 0.50005 0.50005 0 0 1 304.63086 459.05273 L 305.27148 458.3125 A 0.50005 0.50005 0 0 1 305.66602 458.14062 L 307.85938 458.20703 L 309.62305 457.71094 L 311.38281 453.92969 L 312.18164 451.35156 A 0.50005 0.50005 0 0 1 312.87305 451.04883 L 315.70117 452.38672 L 316.66406 452.18164 L 317.79102 450.57812 L 319.07812 446.96289 A 0.50005 0.50005 0 0 1 319.19727 446.77539 L 321.34375 444.64844 L 321.89844 442.63672 A 0.50005 0.50005 0 0 1 322.3125 442.27539 L 324.14062 442.02734 L 325.70117 440.51172 A 0.50005 0.50005 0 0 1 325.88672 440.39844 L 332.81836 437.99805 L 334.65234 436.80859 L 335.4043 434.88672 L 332.58984 431.5957 A 0.50005 0.50005 0 0 1 332.4707 431.2832 L 332.41406 429.27734 L 331.41211 427.62891 A 0.50005 0.50005 0 0 1 331.38672 427.16016 L 331.82617 426.20898 A 0.50005 0.50005 0 0 1 332.25977 425.91992 L 334.31055 425.83984 A 0.50005 0.50005 0 0 1 334.53516 425.88281 L 335.64062 426.37891 L 337.69336 424.20508 L 338.50781 422.21094 A 0.50005 0.50005 0 0 1 338.59766 422.06445 L 342.22852 418.03516 A 0.50005 0.50005 0 0 1 342.66406 417.875 L 344.91406 418.16406 A 0.50005 0.50005 0 0 1 345.33789 418.55273 L 345.81836 420.75391 A 0.50005 0.50005 0 0 1 345.83008 420.85156 L 345.91797 425.67773 L 347.1543 428.74219 A 0.50005 0.50005 0 0 1 347.17383 429.05273 L 346.3125 432.43555 L 349.30664 434.89258 A 0.50005 0.50005 0 0 1 349.44336 435.06836 L 350.94336 438.26758 A 0.50005 0.50005 0 0 1 350.98047 438.57422 L 350.63086 440.41406 A 0.50005 0.50005 0 0 1 350.31641 440.78711 L 348.85352 441.3418 L 347.27539 442.51953 L 347.06055 444.5957 L 349.54492 445.99414 A 0.50005 0.50005 0 0 1 349.73438 446.18359 L 350.34766 447.26953 L 351.77539 446.37695 A 0.50005 0.50005 0 0 1 352.1582 446.31445 L 355.54688 447.14453 L 360.11523 445.9668 A 0.50005 0.50005 0 0 1 360.20508 445.95117 L 363.84961 445.69727 L 366.375 444.49219 L 367.88672 443.3125 L 368.04102 440.98633 A 0.50005 0.50005 0 0 1 368.19336 440.66016 L 369.27344 439.61914 A 0.50005 0.50005 0 0 1 369.42188 439.52148 L 371.73047 438.52148 A 0.50005 0.50005 0 0 1 372.42383 438.90234 L 372.91406 442.01367 L 374.30273 443.78906 L 374.6875 443.37305 L 375.08008 441.42188 A 0.50005 0.50005 0 0 1 375.11328 441.31445 L 376.14844 439.01953 L 375.96875 438.71289 A 0.50005 0.50005 0 0 1 375.95508 438.23242 L 377.32422 435.54297 A 0.50005 0.50005 0 0 1 378.16602 435.46484 L 379.26562 436.88867 L 380.42969 437.07617 A 0.50005 0.50005 0 0 1 380.83984 437.46875 L 381.11914 438.81836 A 0.50005 0.50005 0 0 1 381.03906 439.20898 L 380.09766 440.54102 L 382.21875 442.39258 A 0.50005 0.50005 0 0 1 382.37695 442.65234 L 382.63086 443.70703 L 384.26562 443.35156 L 385.5625 442.11523 L 385.95703 440.61328 A 0.50005 0.50005 0 0 1 386.24609 440.2793 L 388.9082 439.1543 L 390.68945 437.81055 A 0.50005 0.50005 0 0 1 391.12109 437.72852 L 392.75 438.17188 L 394.42969 435.57812 A 0.50005 0.50005 0 0 1 394.80273 435.35156 L 398.3125 435.01172 A 0.50005 0.50005 0 0 1 398.625 435.08594 L 400.5918 436.31836 L 406.49219 434.22852 A 0.50005 0.50005 0 0 1 406.8125 434.22461 L 409.00195 434.92383 A 0.50005 0.50005 0 0 1 409.34961 435.36523 L 409.57812 438.61133 L 413.33008 436.87695 A 0.50005 0.50005 0 0 1 413.66406 436.8457 L 415.91406 437.42578 A 0.50005 0.50005 0 0 1 416.23438 438.13867 L 415.4375 439.69336 L 416.84766 440.74609 L 421.55078 437.87891 L 422.80469 436.53906 A 0.50005 0.50005 0 0 1 423.48047 436.48828 L 424.55078 437.33789 A 0.50005 0.50005 0 0 1 424.69727 437.93164 L 423.91602 439.71094 L 427.47266 438.08594 A 0.50005 0.50005 0 0 1 428.0957 438.26367 L 429.53711 440.43359 A 0.50005 0.50005 0 0 1 429.42773 441.10352 L 426.05859 443.73828 L 425.30469 444.55273 L 426.26953 446.42773 L 432.36523 446.17578 L 433.95312 445.32812 L 435.79883 443.02344 L 435.98047 439.51367 A 0.50005 0.50005 0 0 1 436.25586 439.09375 L 436.65625 438.89258 A 0.50005 0.50005 0 0 1 437.17383 438.93555 L 439.19336 440.40039 L 439.27734 439.52734 L 438.29297 437.89844 A 0.50005 0.50005 0 0 1 438.32812 437.33008 L 440.9668 433.99023 A 0.50005 0.50005 0 0 1 441.58789 433.85547 L 442.97852 434.56641 L 444.0332 432.67578 A 0.50005 0.50005 0 0 1 444.67969 432.4668 L 446.58984 433.3457 A 0.50005 0.50005 0 0 1 446.81641 433.55469 L 447.70703 435.13867 L 449.22461 434.74609 A 0.50005 0.50005 0 0 1 449.29102 434.73438 L 454.31445 434.13867 L 464.28711 431.4082 A 0.50005 0.50005 0 0 1 464.52734 431.40234 L 468.26562 432.22461 L 469.7832 432.05273 A 0.50005 0.50005 0 0 1 470.04492 432.09375 L 472.37109 433.14062 L 478.24805 431.53711 A 0.50005 0.50005 0 0 1 478.5625 431.55469 L 483.5918 433.51367 A 0.50005 0.50005 0 0 1 483.75195 433.61523 L 494.73828 443.95508 L 497.11523 442.98438 L 497.24023 441.43164 L 493.53711 438.60742 A 0.50005 0.50005 0 0 1 493.36719 438.37305 L 492.60742 436.18359 A 0.50005 0.50005 0 0 1 492.60352 435.86914 L 493.09961 434.29297 L 492.83398 432.11133 A 0.50005 0.50005 0 0 1 492.9707 431.70312 L 493.7832 430.86133 L 492.50195 429.17188 A 0.50005 0.50005 0 0 1 492.45898 428.63477 L 493.09961 427.4375 L 492.56445 427.06836 L 491.93359 427.54883 A 0.50005 0.50005 0 0 1 491.62695 427.65039 L 490.02734 427.64062 A 0.50005 0.50005 0 0 1 489.61523 427.41992 L 487.15039 423.75781 L 486.10352 423.16602 A 0.50005 0.50005 0 0 1 485.87695 422.89453 L 485.23828 421.05859 L 483.52734 420.05078 A 0.50005 0.50005 0 0 1 483.2832 419.67773 L 483.07812 417.93359 L 481.09375 416.47266 A 0.50005 0.50005 0 0 1 481.02148 416.40625 L 478.38672 413.51953 L 477.2207 413.04297 A 0.50005 0.50005 0 0 1 476.91406 412.64453 L 476.53516 409.76172 L 475.47266 408.67969 A 0.50005 0.50005 0 0 1 475.45508 407.99805 L 476.99609 406.25781 L 476.83594 404.17773 L 474.96094 404.64453 A 0.50005 0.50005 0 0 1 474.4043 404.40625 L 473.04297 401.98633 L 471.39062 402.94336 A 0.50005 0.50005 0 0 1 470.90625 402.95117 L 469.11133 402 L 465.36914 400.73438 A 0.50005 0.50005 0 0 1 465.0293 400.25977 L 465.0293 396.41992 A 0.50005 0.50005 0 0 1 465.0625 396.24219 L 466.32617 392.93555 L 466.26367 391.00391 L 465.6875 389.36523 A 0.50005 0.50005 0 0 1 465.66016 389.18164 L 465.90039 382.39258 A 0.50005 0.50005 0 0 1 466.22461 381.94141 L 467.01172 381.64844 L 467.56055 379.82227 L 467.13672 378.25 A 0.50005 0.50005 0 0 1 467.12305 378.07031 L 467.26758 376.5918 L 465.20898 372.76758 A 0.50005 0.50005 0 0 1 465.15039 372.51172 L 465.2207 370.54297 A 0.50005 0.50005 0 0 1 465.29688 370.29297 L 465.69336 369.66797 L 464.47461 368.56055 A 0.50005 0.50005 0 0 1 464.36523 368.41602 L 463.62109 366.95898 L 461.91992 365.97266 A 0.50005 0.50005 0 0 1 461.76562 365.83594 L 460.3457 363.89453 A 0.50005 0.50005 0 0 1 460.27734 363.4375 L 460.51562 362.74023 L 459.17969 361.78711 A 0.50005 0.50005 0 0 1 459.03906 361.63281 L 458.28906 360.35352 A 0.50005 0.50005 0 0 1 458.2207 360.07227 L 458.30859 358.47656 L 457.7793 357.98633 A 0.50005 0.50005 0 0 1 457.61914 357.625 L 457.60352 355.83984 L 455.84961 355.83984 A 0.50005 0.50005 0 0 1 455.63086 355.78906 L 454.05078 355.01953 A 0.50005 0.50005 0 0 1 453.95508 354.95898 L 450.31641 352.01953 A 0.50005 0.50005 0 0 1 450.17383 351.42578 L 450.87305 349.85547 A 0.50005 0.50005 0 0 1 450.91211 349.78516 L 453.25195 346.24219 L 452.01172 345.57812 L 451.02539 345.64844 A 0.50005 0.50005 0 0 1 450.50195 345.04297 L 450.85742 343.43359 L 449.61328 343.51953 A 0.50005 0.50005 0 0 1 449.08594 343.0957 L 448.89844 341.86914 L 439.12305 344.12695 A 0.50005 0.50005 0 0 1 439.01367 344.14062 L 437.45703 344.15039 L 426.95898 346.50781 A 0.50005 0.50005 0 0 1 426.95508 346.50781 L 411.42578 349.86914 A 0.50005 0.50005 0 0 1 410.84766 349.21289 L 413.7168 341.08594 L 415.2207 322.07031 A 0.50005 0.50005 0 0 1 415.22266 322.0625 L 415.7793 316.2168 L 412.63086 317.2168 A 0.50005 0.50005 0 0 1 411.98047 316.77734 L 411.38086 308.55664 A 0.50005 0.50005 0 0 1 411.38086 308.54883 L 410.45117 292.67383 L 409.70117 283.41016 A 0.50005 0.50005 0 0 1 409.70117 283.40625 L 408.38086 265.04688 L 402.4043 265.83398 L 389.07227 268.08984 L 387.54297 271.39062 A 0.50005 0.50005 0 0 1 387.4707 271.50391 L 381.76172 278.21484 A 0.50005 0.50005 0 0 1 381.23242 278.36719 L 378.37305 277.48828 A 0.50005 0.50005 0 0 1 378.01953 276.99219 L 378.14648 273.37305 L 377.35156 273.88867 A 0.50005 0.50005 0 0 1 376.58789 273.38281 L 377.29102 269.4043 L 372.85742 270.29688 L 369.89648 271.13281 L 371.56445 283.03125 A 0.50005 0.50005 0 0 1 370.95312 283.58594 L 361.3125 281.25586 A 0.50005 0.50005 0 0 1 360.94336 280.88281 L 360.31641 278.16992 L 359.6543 278.04102 A 0.50005 0.50005 0 0 1 359.2793 277.71875 L 358.48633 275.50977 L 356.27148 273.69336 L 354.80078 273.18164 L 341.89258 275.00391 L 329.30664 276.94336 A 0.50005 0.50005 0 0 1 328.74023 276.34766 L 329.42969 273.04492 L 332.17773 257.91992 A 0.50005 0.50005 0 0 1 332.17969 257.91406 L 333.99414 248.60742 L 332.19336 230.94141 A 0.50005 0.50005 0 0 1 332.19141 230.92188 L 332.08594 229.27148 z M 413.13867 440.97656 L 410.74414 441.23633 A 0.50005 0.50005 0 0 1 410.68164 441.24023 L 407.9668 441.19336 L 406.54688 442.12695 L 405.69922 447.1543 L 409.47266 445.00586 L 411.22852 443.05469 A 0.50005 0.50005 0 0 1 411.37305 442.94531 L 412.96484 442.13086 L 413.13867 440.97656 z "
       transform="translate(-5,-5)"
       id="New_Haven"
       inkscape:label="#path4537" />
    <path
       style="color:#000000;font-style:normal;font-variant:normal;font-weight:normal;font-stretch:normal;font-size:medium;line-height:normal;font-family:sans-serif;font-variant-ligatures:normal;font-variant-position:normal;font-variant-caps:normal;font-variant-numeric:normal;font-variant-alternates:normal;font-feature-settings:normal;text-indent:0;text-align:start;text-decoration:none;text-decoration-line:none;text-decoration-style:solid;text-decoration-color:#000000;letter-spacing:normal;word-spacing:normal;text-transform:none;writing-mode:lr-tb;direction:ltr;text-orientation:mixed;dominant-baseline:auto;baseline-shift:baseline;text-anchor:start;white-space:normal;shape-padding:0;clip-rule:nonzero;display:inline;overflow:visible;visibility:visible;opacity:1;isolation:auto;mix-blend-mode:normal;color-interpolation:sRGB;color-interpolation-filters:linearRGB;solid-color:#000000;solid-opacity:1;vector-effect:none;fill:#cccccc;fill-opacity:1;fill-rule:nonzero;stroke:none;stroke-width:1;stroke-linecap:butt;stroke-linejoin:miter;stroke-miterlimit:4;stroke-dasharray:none;stroke-dashoffset:0;stroke-opacity:1;color-rendering:auto;image-rendering:auto;shape-rendering:auto;text-rendering:auto;enable-background:accumulate"
       d="m 668.95312,13.464844 15.2129,0.705078 a 0.50005,0.50005 0 0 0 0.0234,0 l 31.00391,-0.0098 39.30469,1.009766 a 0.50005,0.50005 0 0 0 0.0117,0 l 36.22851,0.04883 0.63281,7.976562 0.97852,39.636719 a 0.50005,0.50005 0 0 0 0,0.0078 l 2.87109,70.031241 a 0.50005,0.50005 0 0 0 0,0.002 l 0.91992,20.02734 0.83985,24.83594 a 0.50005,0.50005 0 0 0 0,0.004 l 1.51953,37.48438 -0.16016,8.22656 -11.68164,-0.89062 a 0.50005,0.50005 0 0 0 -0.0469,0 l -1.06445,0.0195 -10.9961,-0.91797 a 0.50005,0.50005 0 0 0 -0.0176,-0.002 l -4.48047,-0.20899 a 0.50005,0.50005 0 0 0 -0.11132,0.006 l -6.76953,1.20899 -3.98829,0.53906 a 0.50005,0.50005 0 0 0 -0.006,0 l -27.58203,4.01758 -57.52539,-11.97071 -4.55078,-1.11718 a 0.50005,0.50005 0 0 0 -0.0215,-0.006 l -6.29688,-1.25586 -0.043,-0.4336 a 0.50005,0.50005 0 0 0 -0.40625,-0.4414 l -10.9707,-2.03907 a 0.50005,0.50005 0 0 0 -0.0508,-0.008 l -2.05859,-0.16992 a 0.50005,0.50005 0 0 0 -0.5,0.30078 l -2.07032,4.78711 -8.02539,-6.9082 a 0.50005,0.50005 0 0 0 -0.0156,-0.0137 l -2.79102,-2.20508 -9.50195,-9.17188 a 0.50005,0.50005 0 0 0 -0.0234,-0.0215 l -3.67187,-3.11133 -7.3125,-6.85547 -1.875,-1.89453 a 0.50005,0.50005 0 0 0 -0.0371,-0.0332 l -1.83399,-1.50391 -0.90429,-2.98633 a 0.50005,0.50005 0 0 0 -0.28711,-0.3164 l -2.29493,-0.95118 0.0742,-0.96679 17.15821,-0.0195 a 0.50005,0.50005 0 0 0 0.0117,0 l 4.66993,-0.0996 a 0.50005,0.50005 0 0 0 0.21289,-0.0547 l 2.46093,-1.24024 a 0.50005,0.50005 0 0 0 0.26172,-0.33593 l 0.32032,-1.41992 a 0.50005,0.50005 0 0 0 -0.10352,-0.42968 l -1.69336,-2.03907 0.01,-1.1211 1.15234,-2.53906 1.49414,-1.62109 a 0.50005,0.50005 0 0 0 0.12305,-0.4375 l -0.21289,-1.06446 1.21093,-1.05078 a 0.50005,0.50005 0 0 0 0.125,-0.5918 l -0.47656,-1.00585 1.14063,-0.32618 1.64258,0.29297 -0.0293,1.05078 a 0.50005,0.50005 0 0 0 0.27344,0.45899 l 1.46875,0.74218 0.94726,1.36719 a 0.50005,0.50005 0 0 0 0.83594,-0.0215 l 0.98047,-1.57813 1.04883,0.85157 a 0.50005,0.50005 0 0 0 0.33984,0.11132 l 1.66016,-0.0801 a 0.50005,0.50005 0 0 0 0.35742,-0.17579 l 1.66015,-1.9707 a 0.50005,0.50005 0 0 0 0.11524,-0.36133 l -3.47852,-44.27929 a 0.50005,0.50005 0 0 0 -0.49804,-0.46094 l -21.22657,-0.01 0.16602,-26.376945 0.20898,-4.550781 a 0.50005,0.50005 0 0 0 0,-0.03125 l -0.23047,-14.09961 a 0.50005,0.50005 0 0 0 0,-0.002 l -0.3496,-16.740234 0.082,-4.347656 8.3457,-0.650391 1.85937,0.08789 a 0.50005,0.50005 0 0 0 0.0293,0 l 15.88672,-0.189454 21.36719,0.0293 a 0.50005,0.50005 0 0 0 0.5,-0.519531 l -1.32031,-31.55664 z"
       id="Windham" />
    <path
       style="color:#000000;font-style:normal;font-variant:normal;font-weight:normal;font-stretch:normal;font-size:medium;line-height:normal;font-family:sans-serif;font-variant-ligatures:normal;font-variant-position:normal;font-variant-caps:normal;font-variant-numeric:normal;font-variant-alternates:normal;font-feature-settings:normal;text-indent:0;text-align:start;text-decoration:none;text-decoration-line:none;text-decoration-style:solid;text-decoration-color:#000000;letter-spacing:normal;word-spacing:normal;text-transform:none;writing-mode:lr-tb;direction:ltr;text-orientation:mixed;dominant-baseline:auto;baseline-shift:baseline;text-anchor:start;white-space:normal;shape-padding:0;clip-rule:nonzero;display:inline;overflow:visible;visibility:visible;opacity:1;isolation:auto;mix-blend-mode:normal;color-interpolation:sRGB;color-interpolation-filters:linearRGB;solid-color:#000000;solid-opacity:1;vector-effect:none;fill:#cccccc;fill-opacity:1;fill-rule:nonzero;stroke:none;stroke-width:1;stroke-linecap:butt;stroke-linejoin:miter;stroke-miterlimit:4;stroke-dasharray:none;stroke-dashoffset:0;stroke-opacity:1;color-rendering:auto;image-rendering:auto;shape-rendering:auto;text-rendering:auto;enable-background:accumulate"
       d="m 503.32617,11.392578 20.79883,0.05664 56.79688,0.90039 a 0.50005,0.50005 0 0 0 0.008,0 h 27.51758 l 46.32812,0.460938 13.17578,0.607422 0.15821,6.134765 a 0.50005,0.50005 0 0 0 0.002,0.0078 l 1.29687,31.039062 -20.84765,-0.0293 a 0.50005,0.50005 0 0 0 -0.006,0 l -15.875,0.189454 -1.875,-0.08984 a 0.50005,0.50005 0 0 0 -0.0645,0.002 l -8.83007,0.689453 a 0.50005,0.50005 0 0 0 -0.46094,0.490234 l -0.0898,4.808594 a 0.50005,0.50005 0 0 0 0,0.01953 l 0.35156,16.75 0.22851,14.082031 -0.20898,4.544922 a 0.50005,0.50005 0 0 0 0,0.01953 l -0.16992,26.890627 a 0.50005,0.50005 0 0 0 0.5,0.5039 l 21.26757,0.01 3.42774,43.61328 -1.38867,1.64648 -1.25,0.0606 -1.3418,-1.08984 a 0.50005,0.50005 0 0 0 -0.74023,0.125 l -0.87891,1.41406 -0.58594,-0.8457 a 0.50005,0.50005 0 0 0 -0.18359,-0.16016 l -1.29883,-0.65625 0.0312,-1.16406 a 0.50005,0.50005 0 0 0 -0.41016,-0.50586 l -2.18164,-0.39063 a 0.50005,0.50005 0 0 0 -0.22461,0.0117 l -1.82031,0.51953 a 0.50005,0.50005 0 0 0 -0.31445,0.69532 l 0.56836,1.19726 -1.14453,0.99024 a 0.50005,0.50005 0 0 0 -0.16211,0.47656 l 0.2207,1.09961 -1.37695,1.49414 a 0.50005,0.50005 0 0 0 -0.0879,0.13086 l -1.23047,2.71094 a 0.50005,0.50005 0 0 0 -0.0449,0.20312 l -0.01,1.41016 a 0.50005,0.50005 0 0 0 0.11523,0.32226 l 1.65235,1.99024 -0.21289,0.95117 -2.14844,1.08203 -4.55273,0.0977 -17.61524,0.0195 a 0.50005,0.50005 0 0 0 -0.49805,0.46093 l -0.13867,1.79102 a 0.50005,0.50005 0 0 0 0.30664,0.5 l 2.41211,1 0.88086,2.9043 a 0.50005,0.50005 0 0 0 0.16211,0.24023 l 1.28906,1.05664 -0.54296,0.21094 a 0.50005,0.50005 0 0 0 -0.1875,0.12695 l -1.16016,1.25977 a 0.50005,0.50005 0 0 0 -0.11133,0.19922 l -0.64062,2.20117 a 0.50005,0.50005 0 0 0 0.40234,0.63281 l 0.65625,0.10352 -0.34961,0.68359 -1.89258,0.20117 a 0.50005,0.50005 0 0 0 -0.34765,0.19922 l -1.0625,1.4336 -2.57227,0.96679 a 0.50005,0.50005 0 0 0 -0.32031,0.41016 l -0.19922,1.70117 -0.96484,1.72656 -0.78125,0.4668 -1.55274,-0.37305 a 0.50005,0.50005 0 0 0 -0.24414,0.004 l -1.61133,0.42969 a 0.50005,0.50005 0 0 0 -0.25586,0.80078 l 2.14258,2.60547 0.8457,3.98047 -0.38085,3.19921 -3.71094,-0.38085 a 0.50005,0.50005 0 0 0 -0.39844,0.13867 l -10.10938,9.81054 -12.42187,5.69532 a 0.50005,0.50005 0 0 0 -0.27344,0.58593 l 2.08985,7.62891 a 0.50005,0.50005 0 0 0 0.008,0.0234 l 1.91797,5.875 -1.35742,6.80273 -5.9336,3.21289 -3.58594,0.16602 a 0.50005,0.50005 0 0 0 -0.21875,0.0625 l -1.23828,0.6875 -0.89257,-0.25781 -1.02149,-1.24219 a 0.50005,0.50005 0 0 0 -0.55859,-0.15039 l -1.41407,0.52539 -2.29101,0.16406 -1.53516,-0.91992 a 0.50005,0.50005 0 0 0 -0.73242,0.2793 l -0.80664,2.54296 -0.95703,0.34766 a 0.50005,0.50005 0 0 0 -0.29297,0.28125 l -0.71484,1.76172 -0.98633,1.02344 -2.73633,-1.39649 -1.68164,-1.1875 a 0.50005,0.50005 0 0 0 -0.14844,-0.0723 l -1.5332,-0.44922 -1.80664,-1.58594 -0.95703,-1.83594 a 0.50005,0.50005 0 0 0 -0.35547,-0.26172 l -0.32031,-0.0586 0.30078,-2.81641 a 0.50005,0.50005 0 0 0 0.002,-0.0547 l -0.0293,-6.19141 0.63672,-2.70117 a 0.50005,0.50005 0 0 0 0.004,-0.20508 l -0.5586,-3.08008 a 0.50005,0.50005 0 0 0 -0.10937,-0.23047 l -1.75977,-2.10937 -0.0332,-0.94922 a 0.50005,0.50005 0 0 0 -0.0488,-0.19531 l -2.87695,-6.05274 -2.75586,-6.34179 a 0.50005,0.50005 0 0 0 -0.0234,-0.0449 l -0.78906,-1.41015 a 0.50005,0.50005 0 0 0 -0.14258,-0.16211 l -3.24023,-2.33984 a 0.50005,0.50005 0 0 0 -0.0215,-0.0137 l -4.25,-2.7539 -1.97851,-10.77149 -4.57032,-29.18359 a 0.50005,0.50005 0 0 0 -0.004,-0.0215 l -0.50586,-2.5039 -2.99805,-22.21289 -1.57031,-12.01758 a 0.50005,0.50005 0 0 0 -0.56641,-0.43164 l -12.19531,1.74609 3.21094,-21.48047 0.98828,-5.64257 a 0.50005,0.50005 0 0 0 -0.63867,-0.56446 l -2.06836,0.63281 -6.02735,1.26954 0.51172,-8.474612 a 0.50005,0.50005 0 0 0 0,-0.0078 L 501,84.453125 a 0.50005,0.50005 0 0 0 0,-0.01172 l 0.40039,-18.054687 0.28125,-6.587891 7.98633,-1.103516 a 0.50005,0.50005 0 0 0 0.42578,-0.572265 L 507.51562,41.558593 507.1875,38.11328 a 0.50005,0.50005 0 0 0 -0.002,-0.02539 l -2.36133,-16 z"
       id="Tolland" />
    <path
       style="color:#000000;font-style:normal;font-variant:normal;font-weight:normal;font-stretch:normal;font-size:medium;line-height:normal;font-family:sans-serif;font-variant-ligatures:normal;font-variant-position:normal;font-variant-caps:normal;font-variant-numeric:normal;font-variant-alternates:normal;font-feature-settings:normal;text-indent:0;text-align:start;text-decoration:none;text-decoration-line:none;text-decoration-style:solid;text-decoration-color:#000000;letter-spacing:normal;word-spacing:normal;text-transform:none;writing-mode:lr-tb;direction:ltr;text-orientation:mixed;dominant-baseline:auto;baseline-shift:baseline;text-anchor:start;white-space:normal;shape-padding:0;clip-rule:nonzero;display:inline;overflow:visible;visibility:visible;opacity:1;isolation:auto;mix-blend-mode:normal;color-interpolation:sRGB;color-interpolation-filters:linearRGB;solid-color:#000000;solid-opacity:1;vector-effect:none;fill:#cccccc;fill-opacity:1;fill-rule:nonzero;stroke:none;stroke-width:1;stroke-linecap:butt;stroke-linejoin:miter;stroke-miterlimit:4;stroke-dasharray:none;stroke-dashoffset:0;stroke-opacity:1;color-rendering:auto;image-rendering:auto;shape-rendering:auto;text-rendering:auto;enable-background:accumulate"
       d="m 126.88281,1.5 56.28516,2.3691406 26.28711,1.3007813 a 0.50005,0.50005 0 0 0 0.004,0 L 251.17773,6.96875 a 0.50005,0.50005 0 0 0 0.002,0 l 30.11914,1.2617188 a 0.50005,0.50005 0 0 0 0.004,0 l 17.49415,0.5898437 -4.72461,20.5468755 a 0.50005,0.50005 0 0 0 -0.002,0.01367 l -3.7207,18.259766 a 0.50005,0.50005 0 0 0 0.53125,0.597656 L 302.3458,47.308593 320.11729,46.169921 348.23252,44.853515 342.21885,66.51953 342,66.775391 a 0.50005,0.50005 0 0 0 -0.10547,0.205078 l -1.50781,6.082031 -3.48438,12.417969 -9.97461,0.832031 a 0.50005,0.50005 0 0 0 -0.44531,0.384766 l -2.2793,9.789062 a 0.50005,0.50005 0 0 0 -0.0137,0.09375 l -0.0664,1.69336 -2.98438,10.914062 a 0.50005,0.50005 0 0 0 -0.0195,0.13086 l -0.01,3.95117 a 0.50005,0.50005 0 0 0 0.0469,0.20899 l 1,2.16992 a 0.50005,0.50005 0 0 0 0.58008,0.27539 l 1.78711,-0.47071 2.75,0.5625 0.77344,0.88868 -5.00196,17.88281 -14.03515,2.28906 a 0.50005,0.50005 0 0 0 -0.006,0.002 l -6.28125,1.10743 -7.10157,0.97851 a 0.50005,0.50005 0 0 0 -0.42578,0.56836 l 1.81055,12.50977 a 0.50005,0.50005 0 0 0 0.002,0.0137 l 3.65821,21.19336 2.99023,20.10351 a 0.50005,0.50005 0 0 0 0.002,0.0156 l 0.92774,5.16211 1.6289,11.20117 a 0.50005,0.50005 0 0 0 0,0.004 l 2.46289,16.0625 -7.8164,5.46289 -7.39063,1.04492 a 0.50005,0.50005 0 0 0 -0.42382,0.57422 l 1.0371,6.4668 -6.53125,-0.56446 a 0.50005,0.50005 0 0 0 -0.26953,0.0527 l -9.57031,4.88867 a 0.50005,0.50005 0 0 0 -0.27148,0.47851 l 0.12695,1.93946 -0.5293,0.625 a 0.50005,0.50005 0 0 0 -0.11914,0.35156 l 0.2207,4 a 0.50005,0.50005 0 0 0 0.0488,0.18945 l 0.80664,1.67383 -2.09961,0.33203 -5.47265,0.51953 a 0.50005,0.50005 0 0 0 -0.16797,0.0449 l -2.21094,1.05079 a 0.50005,0.50005 0 0 0 -0.23633,0.23828 l -3.77929,8.00781 -9.70118,3.2793 -11.65234,3.45898 -7.99805,0.35742 a 0.50005,0.50005 0 0 0 -0.47265,0.57618 l 3.58203,22.86523 -19.42578,2.96094 -15.52149,-2.48633 a 0.50005,0.50005 0 0 0 -0.1289,-0.004 l -5.01953,0.5 a 0.50005,0.50005 0 0 0 -0.0215,0.002 l -21.71875,3.09765 -4.70898,0.44922 a 0.50005,0.50005 0 0 0 -0.41602,0.3125 l -0.96094,2.4043 -2.32617,4.33594 a 0.50005,0.50005 0 0 0 -0.0137,0.44531 l 0.69922,1.50976 -0.73633,1.75782 a 0.50005,0.50005 0 0 0 -0.0352,0.25585 l 0.1504,1.16993 a 0.50005,0.50005 0 0 0 0.1289,0.27539 l 1.47852,1.60351 0.67578,1.96094 a 0.50005,0.50005 0 0 0 0.0937,0.16211 l 3.30859,3.87891 a 0.50005,0.50005 0 0 0 0.10547,0.0937 l 0.34961,0.23046 -0.24414,0.18555 -5.35547,-1.10742 -3.94336,-3.31836 a 0.50005,0.50005 0 0 0 -0.17773,-0.0977 l -4.41211,-1.3125 -1.14844,-0.875 a 0.50005,0.50005 0 0 0 -0.125,-0.0703 l -3.29297,-1.25 -2.07812,-1.70898 a 0.50005,0.50005 0 0 0 -0.10157,-0.0645 l -4.30859,-2.05078 -0.54883,-5.07226 a 0.50005,0.50005 0 0 0 -0.0605,-0.18946 l -0.89063,-1.58984 a 0.50005,0.50005 0 0 0 -0.19531,-0.19531 l -3.23047,-1.77539 -0.31445,-0.36719 1.30078,-2.13867 a 0.50005,0.50005 0 0 0 0.0391,-0.43946 l -0.79883,-2.08007 a 0.50005,0.50005 0 0 0 -0.68554,-0.27149 l -6.46876,3.1211 a 0.50005,0.50005 0 0 0 -0.043,0.0215 l -6.17383,3.75 -5.38281,2.16406 a 0.50005,0.50005 0 0 0 -0.13086,0.0781 l -3.66602,3.0039 -0.71094,-5.85742 a 0.50005,0.50005 0 0 0 -0.006,-0.041 l -0.6289,-3.0293 0.99023,-2.35547 a 0.50005,0.50005 0 0 0 0.0293,-0.29492 l -1.25,-6.09961 a 0.50005,0.50005 0 0 0 -0.0176,-0.0605 l -3.22851,-9.50586 -0.44336,-2.42382 a 0.50005,0.50005 0 0 0 -0.0176,-0.0684 l -4.83985,-14.43946 a 0.50005,0.50005 0 0 0 -0.002,-0.01 l -8.50781,-23.98438 -3.662111,-11.1914 0.568359,-2.07032 2.197262,-1.80664 0.49414,0.26953 a 0.50005,0.50005 0 0 0 0.52149,-0.0273 l 1.40039,-0.95898 a 0.50005,0.50005 0 0 0 0.125,-0.70313 l -2.23828,-3.15039 -1.4375,-4.2207 A 0.50005,0.50005 0 0 0 99.875,212.90625 l -1.361328,0.99609 -2.107422,-1.38281 -2.574219,-2.56445 a 0.50005,0.50005 0 0 0 -0.410156,-0.14258 l -2.166016,0.25391 -0.466797,-0.22266 0.669922,-11.01953 2.25,-29.0957 a 0.50005,0.50005 0 0 0 0,-0.0137 l 0.480469,-9.70312 2.738281,-35.45313 a 0.50005,0.50005 0 0 0 0,-0.002 L 98.328125,105.5 99.988281,87.083984 a 0.50005,0.50005 0 0 0 0.002,-0.01758 l 0.869149,-16.292968 1.61914,-19.703126 a 0.50005,0.50005 0 0 0 0,-0.0059 l 1.56054,-22.669922 a 0.50005,0.50005 0 0 0 0,-0.01367 L 105.1895,1.8319902 Z"
       id="Litchfield" />
    <path
       style="color:#000000;font-style:normal;font-variant:normal;font-weight:normal;font-stretch:normal;font-size:medium;line-height:normal;font-family:sans-serif;font-variant-ligatures:normal;font-variant-position:normal;font-variant-caps:normal;font-variant-numeric:normal;font-variant-alternates:normal;font-feature-settings:normal;text-indent:0;text-align:start;text-decoration:none;text-decoration-line:none;text-decoration-style:solid;text-decoration-color:#000000;letter-spacing:normal;word-spacing:normal;text-transform:none;writing-mode:lr-tb;direction:ltr;text-orientation:mixed;dominant-baseline:auto;baseline-shift:baseline;text-anchor:start;white-space:normal;shape-padding:0;clip-rule:nonzero;display:inline;overflow:visible;visibility:visible;opacity:1;isolation:auto;mix-blend-mode:normal;color-interpolation:sRGB;color-interpolation-filters:linearRGB;solid-color:#000000;solid-opacity:1;vector-effect:none;fill:#cccccc;fill-opacity:1;fill-rule:nonzero;stroke:none;stroke-width:1;stroke-linecap:butt;stroke-linejoin:miter;stroke-miterlimit:4;stroke-dasharray:none;stroke-dashoffset:0;stroke-opacity:1;color-rendering:auto;image-rendering:auto;shape-rendering:auto;text-rendering:auto;enable-background:accumulate"
       d="m 299.81641,8.8535156 3.33789,0.1054688 a 0.50005,0.50005 0 0 0 0.01,0.00195 l 55.30664,0.6289063 6.69532,0.4589843 a 0.50005,0.50005 0 0 0 0.0254,0.002 l 13.15625,0.220703 -1.28711,20.697266 a 0.50005,0.50005 0 0 0 0.57031,0.525391 l 20.36133,-2.929688 a 0.50005,0.50005 0 0 0 0.42578,-0.445312 l 0.23242,-2.384766 1.0332,-0.982422 a 0.50005,0.50005 0 0 0 0.15625,-0.359375 l 0.01,-1.529297 1.3457,-2.169922 a 0.50005,0.50005 0 0 0 -0.0117,-0.544921 l -0.85547,-1.25 0.31641,-0.501954 0.875,0.339844 a 0.50005,0.50005 0 0 0 0.61524,-0.21875 l 1.38867,-2.429687 a 0.50005,0.50005 0 0 0 0.0371,-0.07813 L 404.5,13.388672 a 0.50005,0.50005 0 0 0 -0.0625,-0.457031 l -0.73047,-1.03125 a 0.50005,0.50005 0 0 0 -0.21875,-0.173829 l -1.1543,-0.466796 0.35547,-0.814454 24.03711,-0.324218 21.45899,2.375 a 0.50005,0.50005 0 0 0 0.0254,0.0039 l 13.91601,0.824219 0.35743,2.75 a 0.50005,0.50005 0 0 0 0.48828,0.435547 l 10.00976,0.15039 a 0.50005,0.50005 0 0 0 0.32031,-0.111328 l 3.58985,-2.890625 18.17773,-2.289062 7.24414,0.01953 1.51953,10.839844 a 0.50005,0.50005 0 0 0 0.002,0.0039 l 2.35742,15.988281 0.32812,3.447266 a 0.50005,0.50005 0 0 0 0.004,0.0293 l 2.50195,16.078125 -7.89648,1.089843 a 0.50005,0.50005 0 0 0 -0.42969,0.472657 l -0.30078,7.009765 a 0.50005,0.50005 0 0 0 0,0.01172 L 500,84.412109 l -0.66016,14.091797 -0.54882,9.126954 a 0.50005,0.50005 0 0 0 0.60156,0.51758 l 6.6914,-1.41016 a 0.50005,0.50005 0 0 0 0.043,-0.01 l 1.31055,-0.40235 -0.84961,4.84766 a 0.50005,0.50005 0 0 0 -0.002,0.0117 l -3.31055,22.15039 a 0.50005,0.50005 0 0 0 0.56445,0.56836 l 12.36133,-1.76758 1.50391,11.51758 a 0.50005,0.50005 0 0 0 0,0.002 l 3,22.23047 a 0.50005,0.50005 0 0 0 0.004,0.0332 l 0.50782,2.50781 4.56836,29.17969 a 0.50005,0.50005 0 0 0 0.004,0.0137 l 2.01953,10.99024 a 0.50005,0.50005 0 0 0 0.21875,0.32812 l 4.41993,2.86328 3.14062,2.26758 0.72266,1.29297 2.75,6.32617 a 0.50005,0.50005 0 0 0 0.008,0.0156 l 2.83594,5.9668 0.0351,1.01562 a 0.50005,0.50005 0 0 0 0.11719,0.30273 l 1.78516,2.13868 0.51758,2.84765 -0.62696,2.65821 a 0.50005,0.50005 0 0 0 -0.0117,0.11718 l 0.0293,6.22266 -0.33984,3.17773 -2.64454,6.23438 -19.65039,3.61328 -2.96289,-5.7832 -3.08398,-7.08594 a 0.50005,0.50005 0 0 0 -0.006,-0.0117 l -9.48242,-20.31445 -0.21875,-0.76367 a 0.50005,0.50005 0 0 0 -0.54297,-0.35743 l -6.71094,0.83985 a 0.50005,0.50005 0 0 0 -0.0332,0.006 l -4.20899,0.81836 -18.42773,2.76757 -21.07031,3.04883 0.88281,-3.03515 A 0.50005,0.50005 0 0 0 454.66797,225.5 l -7.88672,1.64648 -1.48633,0.16602 a 0.50005,0.50005 0 0 0 -0.0449,0.008 l -10.24609,2.07813 -15.56641,2.95117 a 0.50005,0.50005 0 0 0 -0.39258,0.36914 l -0.66992,2.66992 a 0.50005,0.50005 0 0 0 0.0605,0.38477 l 1.53515,2.4707 -0.25976,0.26953 a 0.50005,0.50005 0 0 0 -0.13672,0.2793 l -0.43164,3.17969 -0.9082,2.30468 a 0.50005,0.50005 0 0 0 0.0176,0.4043 l 0.27539,0.55664 -3.09765,0.57031 a 0.50005,0.50005 0 0 0 -0.0664,0.0176 l -2.56055,0.84961 a 0.50005,0.50005 0 0 0 -0.33007,0.36328 l -0.63477,2.79102 -4.24805,0.69726 a 0.50005,0.50005 0 0 0 -0.041,0.008 l -4.14063,1.03906 a 0.50005,0.50005 0 0 0 -0.37695,0.50586 l 0.29102,6.96484 -6.0586,0.79883 a 0.50005,0.50005 0 0 0 -0.0176,0.004 l -13.59961,2.29882 a 0.50005,0.50005 0 0 0 -0.37109,0.28321 l -1.61133,3.47851 -5.45117,6.40625 -2.17969,-0.66992 0.14649,-4.19726 a 0.50005,0.50005 0 0 0 -0.77149,-0.43555 l -0.63672,0.41211 0.63086,-3.56641 a 0.50005,0.50005 0 0 0 -0.59179,-0.57812 l -5.16993,1.04101 a 0.50005,0.50005 0 0 0 -0.0371,0.008 l -3.39844,0.96094 a 0.50005,0.50005 0 0 0 -0.35938,0.55078 l 1.62696,11.60157 -8.625,-2.08399 -0.63086,-2.73047 A 0.50005,0.50005 0 0 0 355.82422,272.25 l -0.69922,-0.13672 -0.74414,-2.07226 a 0.50005,0.50005 0 0 0 -0.1543,-0.2168 l -2.38867,-1.96094 a 0.50005,0.50005 0 0 0 -0.1543,-0.0859 l -1.66992,-0.58007 a 0.50005,0.50005 0 0 0 -0.23437,-0.0215 l -13.0293,1.83984 a 0.50005,0.50005 0 0 0 -0.006,0 l -11.87695,1.83008 0.54297,-2.60351 a 0.50005,0.50005 0 0 0 0.002,-0.0137 l 2.75,-15.125 1.82812,-9.37696 a 0.50005,0.50005 0 0 0 0.008,-0.14648 l -1.81055,-17.73047 -0.13867,-2.18164 a 0.50005,0.50005 0 0 0 -0.56836,-0.46289 l -8.89063,1.25976 a 0.50005,0.50005 0 0 0 -0.0176,0.002 l -4.45899,0.78711 -4.4707,0.43359 -2.4375,-15.90039 -1.63086,-11.20899 a 0.50005,0.50005 0 0 0 -0.002,-0.0176 l -0.92969,-5.16211 -2.98828,-20.10156 a 0.50005,0.50005 0 0 0 -0.002,-0.0117 l -3.6582,-21.19336 -1.73633,-12.00391 6.61133,-0.91211 a 0.50005,0.50005 0 0 0 0.0176,-0.004 l 6.28711,-1.10938 14.3457,-2.33984 a 0.50005,0.50005 0 0 0 0.40235,-0.35743 l 5.16015,-18.45117 a 0.50005,0.50005 0 0 0 -0.10547,-0.46289 l -1.05859,-1.21875 a 0.50005,0.50005 0 0 0 -0.27735,-0.16211 l -3.03124,-0.62109 a 0.50005,0.50005 0 0 0 -0.22657,0.008 l -1.49414,0.39258 -0.77929,-1.68945 0.01,-3.77149 2.98242,-10.906248 a 0.50005,0.50005 0 0 0 0.0176,-0.113281 l 0.0684,-1.701172 2.1875,-9.390625 9.95703,-0.828125 a 0.50005,0.50005 0 0 0 0.43945,-0.363281 l 3.58008,-12.761719 a 0.50005,0.50005 0 0 0 0.004,-0.01367 l 1.48242,-5.976563 0.21289,-0.25 a 0.50005,0.50005 0 0 0 0.10156,-0.189453 l 6.22852,-22.441406 a 0.50005,0.50005 0 0 0 -0.50391,-0.632813 l -28.81054,1.34961 a 0.50005,0.50005 0 0 0 -0.008,0.002 l -17.78125,1.138672 a 0.50005,0.50005 0 0 0 -0.008,0.002 l -10.80664,0.875 3.58594,-17.601562 z"
       id="Hartford" />
  </g>
</svg>
