<?xml version="1.0" encoding="UTF-8" standalone="no"?>
<svg
   xmlns:dc="http://purl.org/dc/elements/1.1/"
   xmlns:cc="http://creativecommons.org/ns#"
   xmlns:rdf="http://www.w3.org/1999/02/22-rdf-syntax-ns#"
   xmlns:svg="http://www.w3.org/2000/svg"
   xmlns="http://www.w3.org/2000/svg"
   xmlns:sodipodi="http://sodipodi.sourceforge.net/DTD/sodipodi-0.dtd"
   xmlns:inkscape="http://www.inkscape.org/namespaces/inkscape"
   version="1.2"
   width="400"
   height="810"
   id="svg2192"
   sodipodi:docname="de.svg"
   style="stroke-linecap:round;stroke-linejoin:round"
   inkscape:version="0.92.1 r15371">
  <metadata
     id="metadata2198">
    <rdf:RDF>
      <cc:Work
         rdf:about="">
        <dc:format>image/svg+xml</dc:format>
        <dc:type
           rdf:resource="http://purl.org/dc/dcmitype/StillImage" />
        <dc:title />
      </cc:Work>
    </rdf:RDF>
  </metadata>
  <defs
     id="defs2196" />
  <sodipodi:namedview
     pagecolor="#ffffff"
     bordercolor="#666666"
     borderopacity="1"
     objecttolerance="10"
     gridtolerance="10"
     guidetolerance="10"
     inkscape:pageopacity="0"
     inkscape:pageshadow="2"
     inkscape:window-width="1920"
     inkscape:window-height="1017"
     id="namedview2194"
     showgrid="false"
     inkscape:zoom="0.53649397"
     inkscape:cx="183.92376"
     inkscape:cy="330.03587"
     inkscape:window-x="-8"
     inkscape:window-y="-8"
     inkscape:window-maximized="1"
     inkscape:current-layer="svg2192" />
  <g
     style="fill:#b426be;fill-opacity:1"
     transform="translate(-197,5)"
     id="g2746">
    <path
       inkscape:connector-curvature="0"
       id="Sussex"
       d="m 416.12695,506.00586 3.29688,0.21484 1.61914,0.90821 0.69922,3.0332 a 0.50005,0.50005 0 0 0 0.82031,0.26172 l 1.90234,-1.68945 3.40039,5.04492 a 0.50005,0.50005 0 0 0 0.77539,0.0664 l 2.75782,-2.875 1.06836,0.72461 -0.50977,1.95899 a 0.50005,0.50005 0 0 0 0.47461,0.625 l 3.83008,0.0605 a 0.50005,0.50005 0 0 0 0.43945,-0.24609 l 0.97656,-1.65625 3.17188,0.51562 a 0.50005,0.50005 0 0 0 0.49023,-0.20507 l 1.26172,-1.79883 2.89649,1.43945 0.61914,2.19922 -1.70313,3.38672 a 0.50005,0.50005 0 0 0 -0.0488,0.15234 l -0.52929,3.61133 a 0.50005,0.50005 0 0 0 0.0332,0.26758 l 2.17188,5.08984 a 0.50005,0.50005 0 0 0 0.0234,0.0488 l 3.69922,6.57031 a 0.50005,0.50005 0 0 0 0.0645,0.0899 l 10.70313,11.91992 3.09766,4.83594 a 0.50005,0.50005 0 0 0 0.10547,0.11718 l 4.56054,3.70118 14.00196,18.95898 a 0.50005,0.50005 0 0 0 0.0508,0.0566 l 12.01953,11.93945 6.65429,9.45313 a 0.50005,0.50005 0 0 0 0.13086,0.12891 l 14.22852,9.54882 a 0.50005,0.50005 0 0 0 0.0918,0.0488 l 11.28125,4.54102 a 0.50005,0.50005 0 0 0 0.21093,0.0351 l 9.33008,-0.4707 a 0.50005,0.50005 0 0 0 0.18164,-0.043 l 7.29883,-3.30078 a 0.50005,0.50005 0 0 0 0.26953,-0.29883 l 1.69922,-5.13867 a 0.50005,0.50005 0 0 0 -0.0801,-0.4668 l -2.07031,-2.64648 1.88086,-0.12891 1.03125,3.45313 3.34766,14.33594 1.38867,19.46093 a 0.50005,0.50005 0 0 0 0.002,0.0352 l 6.3457,44.33789 0.19922,16.4375 a 0.50005,0.50005 0 0 0 0.004,0.0508 l 1.54101,13.51953 a 0.50005,0.50005 0 0 0 0.19141,0.33985 l 0.68164,0.52343 4.9043,69.50391 0.4375,19.67773 -61.34961,0.22852 -30.41797,-0.0391 -59.53516,-0.36133 -20.15625,-0.30859 -32.32617,-0.86133 -27.07422,-0.85938 -31.92773,-1.40039 a 0.50005,0.50005 0 0 0 -0.004,0 l -14.65429,-0.5293 -13.50196,-0.77343 -2.18164,-35.16602 -0.58984,-11.90625 a 0.50005,0.50005 0 0 0 0,-0.004 l -9.5625,-164.64258 74.98242,-3.12891 a 0.50005,0.50005 0 0 0 0.34961,-0.16211 l 2.75586,-3.01758 4.00195,-1.42968 a 0.50005,0.50005 0 0 0 0.29297,-0.27539 l 1.43555,-3.41407 6.94726,-3.27929 a 0.50005,0.50005 0 0 0 0.24414,-0.25 l 5.05469,-11.45313 2.46289,-3.14648 2.29297,-0.26563 a 0.50005,0.50005 0 0 0 0.39453,-0.28515 l 1.50196,-3.22852 2.79687,-2.75586 a 0.50005,0.50005 0 0 0 0.14844,-0.36523 l -0.0586,-3.45313 1.00196,-2.35547 3.58593,-1.20898 a 0.50005,0.50005 0 0 0 0.0937,-0.043 l 5.10352,-2.98242 1.9082,0.96679 a 0.50005,0.50005 0 0 0 0.375,0.0312 l 4.88282,-1.52734 3.97265,-0.58203 2.71289,1.26562 a 0.50005,0.50005 0 0 0 0.5293,-0.0664 l 1.66211,-1.36328 5.15039,-0.50586 a 0.50005,0.50005 0 0 0 0.42383,-0.33594 l 0.59961,-1.75586 3.10156,0.60547 a 0.50005,0.50005 0 0 0 0.22266,-0.008 l 3.33984,-0.87891 a 0.50005,0.50005 0 0 0 0.3457,-0.64844 l -0.78906,-2.27734 1.73633,-2.16602 a 0.50005,0.50005 0 0 0 0.10937,-0.2832 l 0.21875,-3.80078 a 0.50005,0.50005 0 0 0 -0.11523,-0.34961 L 406.43359,519.55469 408.04688,518 a 0.50005,0.50005 0 0 0 0.13867,-0.47852 l -0.91016,-3.7246 2.89844,-2.67969 4.89258,-1.72657 a 0.50005,0.50005 0 0 0 0.31836,-0.35156 z"
       style="color:#000000;font-style:normal;font-variant:normal;font-weight:normal;font-stretch:normal;font-size:medium;line-height:normal;font-family:sans-serif;font-variant-ligatures:normal;font-variant-position:normal;font-variant-caps:normal;font-variant-numeric:normal;font-variant-alternates:normal;font-feature-settings:normal;text-indent:0;text-align:start;text-decoration:none;text-decoration-line:none;text-decoration-style:solid;text-decoration-color:#000000;letter-spacing:normal;word-spacing:normal;text-transform:none;writing-mode:lr-tb;direction:ltr;text-orientation:mixed;dominant-baseline:auto;baseline-shift:baseline;text-anchor:start;white-space:normal;shape-padding:0;clip-rule:nonzero;display:inline;overflow:visible;visibility:visible;opacity:1;isolation:auto;mix-blend-mode:normal;color-interpolation:sRGB;color-interpolation-filters:linearRGB;solid-color:#000000;solid-opacity:1;vector-effect:none;fill:#cccccc;fill-opacity:1;fill-rule:nonzero;stroke:none;stroke-width:1;stroke-linecap:butt;stroke-linejoin:miter;stroke-miterlimit:4;stroke-dasharray:none;stroke-dashoffset:0;stroke-opacity:1;color-rendering:auto;image-rendering:auto;shape-rendering:auto;text-rendering:auto;enable-background:accumulate" />
    <path
       inkscape:connector-curvature="0"
       id="Kent"
       d="m 356.72854,273.99805 2.82031,3.32617 a 0.50005,0.50005 0 0 0 0.14844,0.11719 l 4.85546,2.56054 0.84375,1.2793 -0.95898,2.79687 a 0.50005,0.50005 0 0 0 0.0762,0.4668 l 1.66992,2.16992 a 0.50005,0.50005 0 0 0 0.19336,0.15235 l 4.53711,2.02343 -0.16797,1.0293 a 0.50005,0.50005 0 0 0 0.20899,0.49024 l 4.75,3.31054 a 0.50005,0.50005 0 0 0 0.10937,0.0566 l 3.89258,1.45704 2.08789,1.86718 1.09766,3.48828 a 0.50005,0.50005 0 0 0 0.16601,0.24024 l 2.12891,1.70117 a 0.50005,0.50005 0 0 0 0.16992,0.0879 l 3.81055,1.14063 0.80664,1.97656 -0.29492,6.21094 a 0.50005,0.50005 0 0 0 0.0195,0.1582 l 1.25976,4.48047 a 0.50005,0.50005 0 0 0 0.084,0.16797 l 7.56055,9.92578 0.7246,2.0664 a 0.50005,0.50005 0 0 0 0.12305,0.19336 l 3.09766,3.00977 1.16015,3.18359 -1.37109,3.85938 a 0.50005,0.50005 0 0 0 -0.0273,0.19726 l 0.28125,4.64063 a 0.50005,0.50005 0 0 0 0.15429,0.33398 l 1.48047,1.39844 -0.86328,8.13477 a 0.50005,0.50005 0 0 0 0.01,0.16796 l 0.49023,2.06055 a 0.50005,0.50005 0 0 0 0.0996,0.20117 l 2.87695,3.50196 v 3.77148 a 0.50005,0.50005 0 0 0 0.0332,0.17969 l 0.9414,2.45117 -0.30078,5.90625 -1.03515,4.22266 -3.60938,6.74414 a 0.50005,0.50005 0 0 0 -0.0391,0.0977 l -0.90039,3.15039 a 0.50005,0.50005 0 0 0 -0.0195,0.12696 l -0.15625,7.26562 -1.13086,1.57422 a 0.50005,0.50005 0 0 0 -0.0898,0.35352 l 0.41992,3.29101 a 0.50005,0.50005 0 0 0 0.0156,0.0723 l 2.16797,7.67383 -0.26563,6.58007 a 0.50005,0.50005 0 0 0 0.0176,0.1543 l 3.71289,13.37305 -1.47851,11.67969 a 0.50005,0.50005 0 0 0 -0.002,0.0996 l 0.49024,6.74024 a 0.50005,0.50005 0 0 0 0.0508,0.1875 l 2.58984,5.17969 a 0.50005,0.50005 0 0 0 0.0898,0.125 l 3.75976,3.84961 a 0.50005,0.50005 0 0 0 0.18164,0.11914 l 3.52149,1.33593 3.64062,3.26953 5.11914,5.79883 a 0.50005,0.50005 0 0 0 0.0859,0.0762 l 6.39063,4.54688 2.13086,2.72266 10.10156,18.18945 1.5039,4.1875 1.5,7.46484 -0.40625,9.26758 -3.20898,-1.5957 a 0.50005,0.50005 0 0 0 -0.63086,0.16211 l -1.33008,1.89258 -3.20117,-0.51954 a 0.50005,0.50005 0 0 0 -0.50977,0.24024 l -1.0039,1.69922 -2.90235,-0.0469 0.43946,-1.68359 a 0.50005,0.50005 0 0 0 -0.20313,-0.53906 l -1.70898,-1.16016 a 0.50005,0.50005 0 0 0 -0.64258,0.0684 l -2.61914,2.73242 -3.375,-5.00586 a 0.50005,0.50005 0 0 0 -0.74609,-0.0957 l -1.70118,1.51172 -0.56054,-2.42969 a 0.50005,0.50005 0 0 0 -0.24219,-0.32422 l -1.91016,-1.07031 a 0.50005,0.50005 0 0 0 -0.21093,-0.0625 l -3.83008,-0.25 a 0.50005,0.50005 0 0 0 -0.51953,0.38086 l -0.77539,3.17773 -4.73438,1.66992 a 0.50005,0.50005 0 0 0 -0.17383,0.10352 l -3.18945,2.95117 a 0.50005,0.50005 0 0 0 -0.14648,0.48438 l 0.9121,3.73242 -1.74414,1.67969 a 0.50005,0.50005 0 0 0 -0.0351,0.68164 l 1.78125,2.11718 -0.19922,3.44336 -1.8086,2.25391 a 0.50005,0.50005 0 0 0 -0.084,0.47656 l 0.70508,2.03125 -2.70899,0.71289 -3.41601,-0.66797 a 0.50005,0.50005 0 0 0 -0.57031,0.33008 l -0.63477,1.86524 -4.98047,0.48828 a 0.50005,0.50005 0 0 0 -0.26758,0.11133 l -1.53711,1.25976 -2.56445,-1.19726 a 0.50005,0.50005 0 0 0 -0.28515,-0.041 l -4.16016,0.60938 a 0.50005,0.50005 0 0 0 -0.0762,0.0176 l -4.72657,1.48047 -1.96875,-0.99804 a 0.50005,0.50005 0 0 0 -0.47656,0.0137 l -5.29687,3.09375 -3.75196,1.26367 a 0.50005,0.50005 0 0 0 -0.30078,0.2793 l -1.1289,2.66015 a 0.50005,0.50005 0 0 0 -0.041,0.20313 l 0.0566,3.3457 -2.70703,2.66992 a 0.50005,0.50005 0 0 0 -0.10156,0.14453 l -1.42188,3.05664 -2.22265,0.25782 a 0.50005,0.50005 0 0 0 -0.33594,0.18945 l -2.63086,3.35938 a 0.50005,0.50005 0 0 0 -0.0625,0.10546 l -5.00586,11.33985 -6.95117,3.28125 a 0.50005,0.50005 0 0 0 -0.24805,0.25781 l -1.42383,3.38672 -3.91211,1.39648 a 0.50005,0.50005 0 0 0 -0.20117,0.13282 l -2.69922,2.95703 -74.79297,3.12109 -1.3496,-22.18945 -7.63086,-129.63086 a 0.50005,0.50005 0 0 0 0,-0.006 l -0.84961,-11.65625 -1.49024,-28.68359 a 0.50005,0.50005 0 0 0 -0.002,-0.0234 l -0.71875,-7.4375 -2.05859,-39.20899 a 0.50005,0.50005 0 0 0 0,-0.004 l -1.72071,-28.76563 19.69336,-1.35351 13.0918,1.33007 4.34179,3.69922 a 0.50005,0.50005 0 0 0 0.37305,0.11719 l 6.53906,-0.64453 2.64063,0.27344 a 0.50005,0.50005 0 0 0 0.39844,-0.13672 l 5.91211,-5.66797 3.5039,0.0469 a 0.50005,0.50005 0 0 0 0.33399,-0.12109 l 5.66601,-4.89062 5.5918,1.09375 a 0.50005,0.50005 0 0 0 0.23633,-0.0117 l 6.63281,-1.96094 2.93945,1.58203 a 0.50005,0.50005 0 0 0 0.5,-0.0156 l 4.35938,-2.69922 a 0.50005,0.50005 0 0 0 0.1914,-0.2168 l 2.6504,-5.80078 a 0.50005,0.50005 0 0 0 0.0449,-0.23047 l -0.11719,-2.7168 5.50195,-3.62304 a 0.50005,0.50005 0 0 0 0.22071,-0.48828 l -0.50977,-3.55079 a 0.50005,0.50005 0 0 0 -0.084,-0.21289 l -1.22071,-1.77343 1.20117,-1.85743 5.12696,-0.91211 a 0.50005,0.50005 0 0 0 0.30468,-0.18359 l 1.3086,-1.66406 2.16601,1.82617 a 0.50005,0.50005 0 0 0 0.72266,-0.082 l 3.16992,-4.23242 2.91602,-0.15821 a 0.50005,0.50005 0 0 0 0.32812,-0.14453 z"
       style="color:#000000;font-style:normal;font-variant:normal;font-weight:normal;font-stretch:normal;font-size:medium;line-height:normal;font-family:sans-serif;font-variant-ligatures:normal;font-variant-position:normal;font-variant-caps:normal;font-variant-numeric:normal;font-variant-alternates:normal;font-feature-settings:normal;text-indent:0;text-align:start;text-decoration:none;text-decoration-line:none;text-decoration-style:solid;text-decoration-color:#000000;letter-spacing:normal;word-spacing:normal;text-transform:none;writing-mode:lr-tb;direction:ltr;text-orientation:mixed;dominant-baseline:auto;baseline-shift:baseline;text-anchor:start;white-space:normal;shape-padding:0;clip-rule:nonzero;display:inline;overflow:visible;visibility:visible;opacity:1;isolation:auto;mix-blend-mode:normal;color-interpolation:sRGB;color-interpolation-filters:linearRGB;solid-color:#000000;solid-opacity:1;vector-effect:none;fill:#cccccc;fill-opacity:1;fill-rule:nonzero;stroke:none;stroke-width:1;stroke-linecap:butt;stroke-linejoin:miter;stroke-miterlimit:4;stroke-dasharray:none;stroke-dashoffset:0;stroke-opacity:1;color-rendering:auto;image-rendering:auto;shape-rendering:auto;text-rendering:auto;enable-background:accumulate" />
    <path
       inkscape:connector-curvature="0"
       inkscape:label="#path4496"
       id="New_Castle"
       transform="translate(197,-5)"
       d="m 134.27148,6.5 -10.2539,0.8652344 -10.42969,1.9609375 -10.72656,3.1933591 -9.417971,4.109375 -10.265625,5.744141 -6.728515,4.810547 -6.998047,6.052734 -4.460938,4.480469 -7.708984,9.291015 -3.849609,5.824219 -5.794922,11.332031 -3.460938,8.935547 a 0.50005,0.50005 0 0 1 -0.46875,0.320313 l -6.085937,-0.02734 0.03906,12.246094 a 0.50005,0.50005 0 0 1 0,0.0059 l -0.220703,24.037114 0.490235,11.92382 2.759765,50.15625 8.640625,145.28516 19.726563,-1.35547 a 0.50005,0.50005 0 0 1 0.08398,0.002 l 13.289063,1.34961 a 0.50005,0.50005 0 0 1 0.27539,0.11719 l 4.296875,3.66211 6.378906,-0.62891 a 0.50005,0.50005 0 0 1 0.101563,0 l 2.458984,0.25586 5.89257,-5.65039 a 0.50005,0.50005 0 0 1 0.35352,-0.13867 l 3.51953,0.0469 5.70703,-4.92578 a 0.50005,0.50005 0 0 1 0.42188,-0.11133 l 5.70898,1.11524 6.71289,-1.98438 a 0.50005,0.50005 0 0 1 0.37891,0.0391 l 2.86523,1.54297 3.98633,-2.46875 2.53711,-5.55273 -0.125,-2.87891 a 0.50005,0.50005 0 0 1 0.22461,-0.43945 l 5.47461,-3.60547 -0.44727,-3.12109 -1.34375,-1.95313 a 0.50005,0.50005 0 0 1 -0.008,-0.55469 l 1.5,-2.32031 a 0.50005,0.50005 0 0 1 0.33203,-0.2207 l 5.15235,-0.91602 1.51172,-1.91992 a 0.50005,0.50005 0 0 1 0.71484,-0.0742 l 2.15625,1.81836 2.99219,-3.99609 a 0.50005,0.50005 0 0 1 0.37304,-0.19922 l 2.95899,-0.16016 3.72265,-3.72265 -1.42773,-6.85547 -2.30273,-1.78711 a 0.50005,0.50005 0 0 1 -0.18555,-0.30664 l -1.01758,-5.63086 -5.48242,-10.17969 a 0.50005,0.50005 0 0 1 -0.041,-0.10547 l -1.0957,-3.9668 -7.62695,-7.85156 -7.07032,-4.89258 a 0.50005,0.50005 0 0 1 -0.20898,-0.33789 l -0.52539,-3.56445 -3.05078,-3.00195 a 0.50005,0.50005 0 0 1 -0.0566,-0.0664 l -4.11914,-5.76953 a 0.50005,0.50005 0 0 1 -0.0684,-0.13477 l -1.28125,-3.89062 a 0.50005,0.50005 0 0 1 -0.0234,-0.13281 l -0.32031,-6.67969 a 0.50005,0.50005 0 0 1 0.0312,-0.19727 l 2.33008,-6.31836 0.0391,-3.38281 a 0.50005,0.50005 0 0 1 0.0859,-0.27734 l 5.02929,-7.33399 1.7793,-4.4375 0.88672,-5.74023 0.45898,-7.65625 a 0.50005,0.50005 0 0 1 0.006,-0.0508 l 1.67969,-10.3086 a 0.50005,0.50005 0 0 1 0.0527,-0.1582 l 0.96485,-1.7793 -3.49414,-2.89843 a 0.50005,0.50005 0 0 1 -0.0273,-0.0234 l -6.67969,-6.42969 a 0.50005,0.50005 0 0 1 -0.0215,-0.0234 l -5.24414,-5.72851 -1.91602,0.0801 a 0.50005,0.50005 0 0 1 -0.41992,-0.19727 l -3.67968,-4.87109 a 0.50005,0.50005 0 0 1 -0.0957,-0.21875 l -0.84961,-5.04883 a 0.50005,0.50005 0 0 1 0.043,-0.30078 l 0.99609,-2.07227 -1.48632,-3.11523 a 0.50005,0.50005 0 0 1 -0.0156,-0.39453 l 1.32031,-3.44922 a 0.50005,0.50005 0 0 1 0.0488,-0.0977 l 11.08985,-16.67969 a 0.50005,0.50005 0 0 1 0.23632,-0.18945 l 8.07032,-3.14062 a 0.50005,0.50005 0 0 1 0.16015,-0.0332 l 2.76172,-0.10937 23.53516,-36.166013 8.38281,-19.910156 a 0.50005,0.50005 0 0 1 0.0195,-0.03906 l 9.67969,-18.220703 a 0.50005,0.50005 0 0 1 0.19141,-0.199219 l 19.375,-11.183594 -1.41407,-1.03125 -11.35937,-6.351562 -12.16211,-5.048828 -7.77344,-2.4062505 -8.6543,-1.7304687 -9.24023,-1.0957032 z m 2.78516,120.53711 -2.82226,2.17969 1.50781,6.15625 2.36133,4.54687 1.85156,-0.23242 -1.55664,-9.99219 z m -6.41406,18.23242 1.57031,4.67969 2.46094,1.39844 1.25976,-1.67774 z"
       style="color:#000000;font-style:normal;font-variant:normal;font-weight:normal;font-stretch:normal;font-size:medium;line-height:normal;font-family:sans-serif;font-variant-ligatures:normal;font-variant-position:normal;font-variant-caps:normal;font-variant-numeric:normal;font-variant-alternates:normal;font-feature-settings:normal;text-indent:0;text-align:start;text-decoration:none;text-decoration-line:none;text-decoration-style:solid;text-decoration-color:#000000;letter-spacing:normal;word-spacing:normal;text-transform:none;writing-mode:lr-tb;direction:ltr;text-orientation:mixed;dominant-baseline:auto;baseline-shift:baseline;text-anchor:start;white-space:normal;shape-padding:0;clip-rule:nonzero;display:inline;overflow:visible;visibility:visible;opacity:1;isolation:auto;mix-blend-mode:normal;color-interpolation:sRGB;color-interpolation-filters:linearRGB;solid-color:#000000;solid-opacity:1;vector-effect:none;fill:#cccccc;fill-opacity:1;fill-rule:nonzero;stroke:none;stroke-width:1;stroke-linecap:butt;stroke-linejoin:miter;stroke-miterlimit:4;stroke-dasharray:none;stroke-dashoffset:0;stroke-opacity:1;color-rendering:auto;image-rendering:auto;shape-rendering:auto;text-rendering:auto;enable-background:accumulate" />
  </g>
</svg>
