<?xml version="1.0" encoding="UTF-8" standalone="no"?>
<svg
   xmlns:dc="http://purl.org/dc/elements/1.1/"
   xmlns:cc="http://creativecommons.org/ns#"
   xmlns:rdf="http://www.w3.org/1999/02/22-rdf-syntax-ns#"
   xmlns:svg="http://www.w3.org/2000/svg"
   xmlns="http://www.w3.org/2000/svg"
   xmlns:sodipodi="http://sodipodi.sourceforge.net/DTD/sodipodi-0.dtd"
   xmlns:inkscape="http://www.inkscape.org/namespaces/inkscape"
   version="1.1"
   width="1615.63"
   height="1120.23"
   id="svg21"
   sodipodi:docname="hi.svg"
   inkscape:version="0.92.1 r15371">
  <metadata
     id="metadata27">
    <rdf:RDF>
      <cc:Work
         rdf:about="">
        <dc:format>image/svg+xml</dc:format>
        <dc:type
           rdf:resource="http://purl.org/dc/dcmitype/StillImage" />
        <dc:title />
      </cc:Work>
    </rdf:RDF>
  </metadata>
  <defs
     id="defs25" />
  <sodipodi:namedview
     pagecolor="#ffffff"
     bordercolor="#666666"
     borderopacity="1"
     objecttolerance="10"
     gridtolerance="10"
     guidetolerance="10"
     inkscape:pageopacity="0"
     inkscape:pageshadow="2"
     inkscape:window-width="1920"
     inkscape:window-height="1017"
     id="namedview23"
     showgrid="false"
     inkscape:zoom="0.42949076"
     inkscape:cx="85.705445"
     inkscape:cy="379.29411"
     inkscape:window-x="-8"
     inkscape:window-y="-8"
     inkscape:window-maximized="1"
     inkscape:current-layer="g4497" />
  <g
     id="g4497">
    <path
       id="Hawaii"
       d="m 1236.741,637.64733 1.5043,2.1455 2.2441,0.1233 0.8878,1.0111 4.1184,0.46855 v 1.1344 l 0.6165,0.51788 0.3699,0.24661 5.0062,1.87422 0.9864,-0.88779 3.5018,1.99753 2.4908,0.49322 0.3946,2.3921 0.4932,0.24661 0.8631,0.51787 3.0086,0.49322 0.4932,1.38101 -0.3699,3.00862 0.8878,1.01109 2.6141,1.75092 1.6276,1.0111 1.9975,-0.27127 3.8964,3.77311 2.4908,-0.0247 1.8742,1.381 2.8606,1.99753 2.1455,1.0111 0.37,1.2577 2.1208,0.73982 1.1344,2.1455 1.381,0.86313 5.8693,1.10973 0.2466,1.52898 0.9864,0.2466 0.7645,2.24414 1.7509,1.2577 1.6276,1.1344 4.7349,-2.17015 2.3675,-1.2577 4.2416,0.98643 1.9975,1.62761 2.3922,-0.1233 2.3674,1.2577 2.3674,1.75092 0.4932,-0.1233 1.751,-0.27127 1.1344,0.88779 0.9864,-0.64118 1.2577,1.381 2.7374,0.73983 2.5154,1.38101 3.2305,-0.64118 3.3786,1.99752 2.1208,-0.14796 1.7509,1.77558 2.1455,1.23304 2.8607,1.0111 0.7645,0.36991 0.8631,0.24661 0.6412,1.381 1.3563,1.25771 3.7485,0.98643 1.2577,1.50431 0.4932,0.24661 0.6412,0.36991 1.1344,0.88779 4.3649,1.10974 2.1209,-0.1233 1.381,1.23304 0.1233,0.1233 0.8631,0.39458 3.8718,0.98643 1.6522,2.88532 1.8496,-0.14797 4.6362,2.63871 1.751,0.49322 0.6165,0.1233 1.5043,0.12331 3.6251,2.24413 2.1455,3.13193 2.4908,0.86313 2.0222,2.14549 2.7373,0.73983 4.5129,2.36744 1.9976,3.37853 0.8878,0.24661 5.4993,2.61405 5.5241,6.26385 2.3674,1.1344 1.1344,-0.64118 1.381,4.38963 1.0111,0.24661 2.3674,2.2688 1.2577,3.77311 v 0.2466 l 2.2688,0.98644 1.2331,1.62761 2.1455,0.61652 0.3699,2.1455 1.6276,1.62761 0.6412,2.2688 -0.4932,0.98643 0.7645,3.03329 -1.1098,2.3921 0.2466,1.381 v 0.12331 l -1.1097,2.5154 1.6276,1.75092 -0.4686,3.15659 0.6166,2.36744 -1.2331,3.79777 0.6412,3.62515 -0.1233,1.01109 1.1591,6.53512 0.3945,1.1344 2.2442,-0.0247 2.4907,-1.89888 0.3699,-0.98644 0.7399,1.10974 -0.1234,1.38101 1.8743,-2.1455 v -1.13439 l 0.9864,-0.98644 1.0111,0.49322 1.9975,-0.64118 2.2442,0.86313 2.2441,-0.39458 2.1208,0.88779 1.9976,-0.0247 0.1233,-1.01109 2.3921,2.3921 1.0111,2.5154 2.2688,3.37854 1.7509,4.88285 0.1479,3.5265 -1.233,2.88531 1.0111,4.78421 -0.4686,3.13192 0.37,1.1344 1.6276,1.38101 5.376,1.99753 0.148,1.23304 0.3699,2.76201 2.0222,2.02219 3.6251,1.60296 1.5044,2.12083 2.2687,1.62761 1.8743,2.2688 12.5277,6.09123 2.1208,-0.0247 4.143,3.13193 3.5019,1.47965 4.2663,3.87175 -0.8631,1.01109 -2.2442,0.14797 0.2466,2.12083 -0.8631,3.15659 1.0111,0.36991 -2.0962,4.53759 -4.3649,5.05548 -10.4562,7.84214 -1.7263,2.02219 -3.3785,2.3921 -1.7263,1.89889 -1.0111,0.24661 -4.4883,3.42785 -1.9728,3.37854 -1.1344,0.39457 -3.8471,4.29099 -2.4908,2.5154 -4.1183,2.90998 -4.2417,1.77558 -2.614,1.52898 -1.8496,2.14549 -5.1294,2.14549 -7.0037,0.41924 -1.9976,1.01109 -0.7398,1.77558 -1.7262,2.12083 -4.513,1.80024 -1.9728,1.87423 -3.5019,1.65227 -0.9864,1.62762 -3.5018,-0.71516 -3.5019,0.64118 -0.7398,2.12083 -6.7571,1.03576 -1.2577,-0.61653 -1.233,1.25771 -1.1344,0.24661 -0.9865,-0.61653 -2.6387,0.88779 -2.1208,-0.36991 -8.3847,-3.35387 -2.2441,0.14796 -2.0222,-0.36991 -1.3564,0.76449 -0.6165,0.98643 -1.381,-0.36991 -4.6116,0.91245 -2.3921,2.02219 -1.1097,1.381 -3.2306,3.64981 -4.7349,2.90998 -2.7373,4.01971 -3.5018,2.66338 -5.4994,1.89888 -2.2442,2.2688 -5.6226,0.88779 -1.9976,2.14549 -2.4907,2.14549 -3.1073,3.4032 -2.1208,3.5265 -2.2441,1.2577 -2.2442,0.51788 -2.3674,-0.1233 -1.2577,0.76448 -2.3675,0.12331 -4.2663,2.54006 0.3946,2.36744 -2.2441,1.77558 h -1.1344 l -1.8743,1.0111 -1.3563,2.5154 -1.8742,2.76202 -1.6276,0.27127 -1.3564,1.62761 -0.7152,10.30823 -1.2577,2.24414 -4.3649,3.27989 -0.4932,1.50431 v 2.90998 l -2.1209,1.50431 0.2466,1.0111 -2.2194,3.25523 -0.37,2.14549 -1.1344,1.2577 0.2467,0.98644 -1.3564,0.64118 -2.1455,-0.61652 -1.9975,0.39457 0.1233,0.98644 -0.9864,3.89641 -1.1098,0.88779 -1.0111,-0.24661 -0.1233,2.36738 -1.9975,1.0111 -2.2441,1.4057 -2.1209,3.3785 -1.5043,-0.3699 -1.4796,1.6523 -3.3786,1.2577 0.6165,-1.2577 -1.011,-2.2688 0.1233,-3.5019 -3.2553,-3.37845 -3.1319,-0.86313 -3.7731,-3.13193 -3.9951,-1.87422 -3.1319,-0.61652 -2.5154,-1.62762 -1.381,-1.99752 -6.1406,-2.86066 -3.3785,-4.01972 -3.1319,-1.50431 -0.9865,0.64118 -2.8853,-1.10973 -1.1344,0.2466 -2.4907,-1.50431 -2.0222,0.24661 -2.1208,-0.98643 -1.751,0.51787 -0.9864,-1.2577 -3.0086,-1.38101 -0.3946,-4.51293 -1.7509,-3.37853 h -1.1344 l -1.6276,-3.89642 -2.2688,-0.61652 -2.5154,-9.27247 0.6165,-4.5376 -0.3699,-1.1344 0.7398,-1.10973 v -1.25771 l 0.9864,-0.51788 v -1.99752 l -1.1344,0.36991 0.6166,-3.25523 1.7509,-3.4032 -0.4932,-1.2577 0.7398,-2.3921 0.2466,-4.63624 0.9864,-2.02219 -0.2712,-4.51293 0.7645,-2.1455 -0.3946,-2.49074 0.2466,-2.14549 1.6276,-3.25523 0.099,-4.29099 0.4932,-0.98643 v -4.90751 l -0.6412,-3.00862 -0.1233,-1.0111 1.2577,-2.2688 0.1233,-1.381 -0.2713,-2.76202 -3.4032,-7.27494 0.1233,-2.24414 -2.2441,-1.2577 0.1233,-1.25771 -0.8878,-1.87422 -1.6276,-1.77558 1.6276,-2.36744 -0.2466,-1.38101 -1.0111,-0.1233 -0.4932,-1.1344 -0.025,-2.2688 -1.233,-0.49322 -0.5179,-3.6498 -1.6276,-4.88285 1.233,-4.16768 -0.2466,-0.98643 -2.2688,-1.0111 -2.2441,0.14797 -2.2441,-1.2577 0.1233,-2.2688 -1.2577,-2.12083 -0.5179,-2.2688 -1.6276,-2.12083 0.3699,-1.52897 1.1344,-0.98644 v -3.03328 l -0.8878,-1.2577 0.3699,-0.98644 -2.2441,-0.49321 0.1233,-2.1455 1.1097,-0.76448 -0.3699,-1.1344 -1.2577,-0.12331 0.3699,-1.99752 -0.3699,-1.89889 -1.7509,-2.61405 -0.148,-3.03328 -2.614,-3.87175 -0.5179,-2.63871 -1.2577,-3.2799 -1.9976,-0.36991 -6.2638,-2.49074 -0.8631,-3.4032 0.9864,-3.25523 -1.2577,-0.61652 -0.3699,-3.4032 -1.1344,0.36992 -0.7398,-1.50432 -1.0111,0.64119 -0.8878,-1.25771 -1.0111,-5.77063 -2.3675,-2.76202 0.1233,-1.50431 2.2442,-0.76448 -0.2466,-3.00863 0.4932,-2.3921 -1.0111,-4.29098 0.8631,-0.73983 0.1233,-1.62761 2.3675,-1.89889 v -1.50431 l 1.1097,-0.76449 1.7509,0.12331 1.1344,-1.77558 2.2442,-1.50431 0.9864,-2.51541 1.7509,-0.88779 0.3699,-1.38101 2.1209,-0.1233 -0.2467,-2.14549 2.4908,-2.76202 1.8496,-2.5154 1.011,-0.27127 1.2331,-1.1344 2.7373,-1.0111 3.132,-0.1233 0.9864,0.73982 4.3896,-0.64118 -0.3945,-3.13192 0.2466,-2.88532 2.2441,-0.88779 0.3699,-1.38101 1.9975,-1.03575 v -1.38101 l 1.3564,-1.75092 1.5043,-0.12331 -0.3699,-1.89888 0.7398,-1.62762 1.2331,-0.51787 0.1233,-2.76202 1.0111,-0.76448 0.2219,-1.62762 1.7509,-0.1233 -0.1233,-2.2688 2.3675,0.49322 -0.2466,-1.75092 1.6276,-1.65228 0.6165,-1.87422 2.614,-2.66337 2.4908,-0.24661 1.381,1.50431 0.1233,-0.12331 0.3699,-2.5154 0.7398,-2.51541 0.8632,-3.5265 -0.148,-2.3921 -0.1233,-0.88779 0.8631,-2.14549 -0.4932,-2.36744 -0.7645,-1.1344 -2.4907,-4.14302 -1.6276,-2.63871 -2.2688,-1.50431 -0.6166,-2.76202 -2.1208,-1.01109 -1.1344,-2.88532 -2.5154,-4.26633 h -1.1097 l -1.1344,-0.88779 -0.3946,-4.38963 -2.762,-8.28604 0.6165,-2.54006 -1.1344,-5.89394 -1.0111,-0.49322 -0.3699,-1.0111 0.3699,-4.53759 0.9864,-3.27989 0.4686,-6.65843 4.1184,-4.04438 3.1072,-2.63871 2.2442,-1.15906 2.1208,-0.2466 0.9864,0.61652 1.7509,-0.61652 z"
       inkscape:connector-curvature="0"
       style="fill:#cccccc;fill-opacity:1;stroke:none;stroke-width:2.21947551;stroke-linejoin:round" />
    <path
       style="fill:#cccccc;fill-opacity:1;stroke:none;stroke-width:2.21947551;stroke-linejoin:round"
       d="m 684.68254,246.6992 v 1.01147 l -3.22902,0.49322 0.49322,1.01148 -1.99791,0.49321 -0.36991,1.00955 -2.12121,0.24661 -3.10764,2.26956 -1.47965,2.26956 -1.50469,1.50277 -1.50276,1.01147 -2.36782,3.28103 -1.47964,1.25616 -1.87461,0.88817 -0.2466,2.63948 0.98643,0.88817 -2.12121,1.25616 -3.47755,2.78782 -2.4892,2.12121 -2.98434,1.52781 -0.64156,1.38138 1.50469,1.38139 -1.38139,0.88817 -2.24451,1.77442 -0.24661,1.87461 -3.84746,-2.02295 -3.47563,1.13477 -1.9979,-0.27165 -2.24452,0.1233 -1.23303,-0.1233 -2.24452,-0.26973 -3.35425,0.51634 -3.22901,-1.40451 -1.97287,0.73982 -0.76486,1.01148 -3.35425,-0.12331 -2.86103,0.61652 -3.35425,0.24661 -1.99598,0.63964 -5.22885,0.10018 3.23094,3.30416 7.32309,6.31354 1.72625,3.0325 -0.39303,10.60412 0.22156,4.5372 2.73773,-0.0983 1.84956,4.9071 1.74937,-0.49321 1.60295,1.40643 0.49322,1.01148 2.61442,2.02102 -0.24661,1.25809 0.86313,1.62799 0.49322,0.88817 1.35634,3.15581 0.61652,3.79737 0.49321,0.88817 4.24242,1.89965 1.35634,1.13286 0.49322,0.39495 0.98643,2.63947 2.12121,1.89773 3.94572,9.9876 0.2466,3.52765 2.71269,5.30206 1.99598,2.14625 0.98643,0.12331 4.61233,-0.10019 2.73773,-1.37946 4.11719,0.36991 9.07631,-2.12121 4.73371,-0.49321 7.59667,-2.24452 1.10973,-1.77634 -0.1233,-1.13286 -0.86313,-3.15773 -2.09616,-3.0325 -2.24452,-0.39496 -0.98643,-1.25808 -1.38138,-0.61652 -1.72626,0.73982 -2.36781,-0.76486 -1.50277,-2.39094 1.25616,-0.24661 -0.24661,-0.88817 -0.61652,-0.88817 0.24661,-0.64157 1.35634,-1.25808 1.25809,0.14835 0.2466,1.8746 1.35634,0.51826 -0.36991,0.49322 1.8746,2.9092 1.35634,-1.25809 h 0.61653 v 2.02295 l 3.10763,1.01148 1.628,2.14433 0.36991,-0.1233 -0.61652,-1.74938 0.36991,-1.13478 -1.72625,-3.55076 -1.50469,0.36991 -1.10973,-1.13478 -1.47965,-3.52764 1.10973,-0.88625 1.99791,1.40451 0.61652,0.61652 1.47964,0.88817 0.12331,-1.62799 -0.49322,-1.65112 2.11929,-0.24661 1.8746,0.12331 2.09616,0.76294 1.01148,1.77634 1.23304,0.24661 0.49321,1.89965 -1.38139,1.37946 -0.36991,1.01148 1.01148,0.39495 0.1233,1.5047 -1.25808,0.61651 -1.99791,-0.88817 -1.23303,0.12331 -0.86313,1.28312 -1.00955,0.36992 -0.1233,0.49321 0.2466,1.40451 -0.61652,0.49321 -0.14835,2.02296 0.88818,0.76486 0.86312,3.15581 0.73983,1.628 5.47353,0.51826 1.35634,1.25808 3.10764,-0.49322 1.25808,-1.38138 v -1.38139 l 2.36782,-1.77634 2.4892,-1.13478 0.86505,0.27165 -0.12331,0.1233 -0.49514,0.86313 0.74175,1.65304 h 1.25616 l 1.47965,-1.01148 1.62799,2.54122 2.36782,-0.36992 0.0983,2.26764 -1.97287,1.50469 0.12331,2.02295 2.98433,0.49322 1.97286,-0.36991 -0.86312,1.37946 0.98643,0.51826 0.49321,1.01148 1.01148,0.2466 0.98643,-0.73982 0.73982,1.13478 1.99791,1.38139 1.72625,4.29058 2.36589,1.13478 3.47755,-0.1233 1.13478,0.76294 0.98643,-0.36991 1.7513,-2.26763 3.23095,-1.01148 2.11928,-1.25808 9.71788,-1.628 1.10973,-1.00955 0.86313,0.88625 1.37946,1.38139 0.24661,3.92067 h 1.97286 l 3.25599,-0.61652 -1.38139,-2.14433 1.99791,-0.39496 8.33456,-6.04188 1.628,-1.99791 1.01147,-3.0325 -1.01147,-0.76487 -1.99791,0.36991 -0.86313,-2.14625 -2.48919,-1.13286 -1.35635,-1.25808 -2.24451,-0.24661 -3.47755,-2.91112 -2.21947,-4.56224 -0.51826,-2.39094 0.64157,-4.02086 0.49321,-1.01147 -2.21947,-4.43894 -3.99581,-0.73982 -0.49321,-0.14642 -1.47965,-1.5047 -1.50276,-2.26955 v -1.40451 l 1.13285,0.14642 0.36991,-2.26763 0.12331,-3.30416 3.23094,-1.50469 0.27165,-2.14625 -1.01147,-0.88818 -2.98434,2.39287 -5.35023,-1.25809 -1.10973,-0.76487 -2.24452,1.01148 v 0.12331 l -0.61651,2.14625 0.61651,1.25808 3.23095,1.00955 0.61652,1.01148 -3.10764,4.93215 -2.36782,0.73982 -1.23304,-2.26763 -0.36991,-1.38139 -2.98433,0.36991 -2.73581,-2.78782 -0.49321,-1.25616 0.49321,-1.01147 -1.47964,-1.89965 -0.24661,-1.38139 -2.12121,-0.1233 v -1.25616 l -2.12121,-1.15982 -0.98643,0.76486 -0.73982,-1.25808 0.1233,-1.25808 -0.73982,-1.01148 v -3.0325 h -1.13478 l -0.36991,-1.01148 0.51826,-1.01147 -0.88817,-2.02103 0.27165,-1.38139 h 2.21947 l 1.01147,-1.13478 0.49322,-3.67406 -1.47965,-5.54867 -2.21947,-3.27911 -0.36991,-1.38139 -3.37929,-0.51826 -1.84956,1.62799 -0.2466,-0.36991 -0.49322,-0.64156 0.1233,-2.14626 -0.86312,-2.39094 -0.24661,-0.1233 -1.7513,-1.28313 -0.73982,-2.63754 -1.84956,-2.41791 -0.51826,-2.14433 -2.95929,-1.628 -0.61652,-1.77634 -2.11928,-2.41599 0.1233,-0.2466 0.88625,-2.39287 -0.24661,-1.25808 1.23304,-1.50277 -2.11929,-0.27165 -1.35634,-2.51617 -0.36991,-1.01147 -0.98643,-0.39304 -0.61652,-1.38138 -0.1233,-0.39496 1.10973,-0.36991 -2.36781,-1.25808 -0.98644,-0.27166 -1.47964,-3.89563 -2.12121,-1.40643 -1.60295,-1.50277 -1.23303,-0.76486 -2.12121,0.49321 -0.98644,-1.13478 z m 8.1631,92.40461 -1.25809,0.1233 -0.98643,0.36992 -0.76294,0.63964 -0.24661,0.73982 v 0.88817 l 0.73982,0.88817 0.88625,-0.61652 0.36991,-0.88817 0.61652,-0.36991 0.86313,-0.39496 0.39495,-0.73982 z m 17.26252,15.04306 -0.39303,0.24661 -0.1233,0.88817 0.36991,0.76294 0.1233,1.38139 0.88625,-0.49321 0.73982,0.1233 0.73982,-0.1233 0.64157,-0.51827 -0.39496,-0.61651 -1.84955,-1.13286 z"
       id="Honolulu"
       inkscape:label="#6011"
       inkscape:connector-curvature="0" />
    <path
       style="fill:#cccccc;fill-opacity:1;stroke:none;stroke-width:2.21947551;stroke-linejoin:round"
       d="m 871.21802,379.02918 -0.98643,0.12331 -0.51826,1.13478 2.49112,2.41598 0.88817,5.03041 -0.88817,1.13478 v 2.26956 l -1.23304,0.76487 v 2.02103 l -2.12121,1.50469 -0.98643,0.2466 -0.76487,1.38139 -1.97286,0.14835 -2.11928,1.50277 -1.13478,2.26956 0.1233,1.01147 -0.73982,0.36991 -1.23304,1.13478 -0.51826,2.14433 -2.24451,5.54867 -0.98643,0.64157 1.75129,3.27911 0.98643,-0.26973 9.46935,1.2812 1.23304,-0.27165 1.25808,1.01147 7.44832,-1.01147 2.11928,0.14835 4.85894,-1.40451 4.61234,0.51634 1.99597,-0.39304 2.21947,0.26973 8.11494,-0.39303 8.95107,-2.76277 0.73982,-1.13478 1.7513,2.02295 3.35426,0.36991 1.13284,-0.64157 4.46398,0.76487 1.25809,1.25809 2.24451,0.2466 1.10973,0.76295 1.01149,-0.12331 3.23094,2.76278 0.36992,1.52973 h 3.84552 l 8.48485,2.39094 4.4871,2.26956 4.09406,0.24661 10.08587,2.51424 2.98433,1.50469 3.50261,0.88817 2.9824,-2.26955 1.10974,-0.39304 1.01147,1.25616 3.72416,-1.50277 1.99792,-1.38138 0.98642,-0.27165 1.87461,-1.50469 7.47143,-2.02103 2.09617,-2.02295 2.98433,-2.02296 2.24451,-2.26763 0.86313,-1.01148 3.37735,-2.51616 2.8611,-4.93215 h 1.4796 l 3.3542,-5.54867 1.5047,-5.15372 -4.6123,1.01148 h -2.4911 l -1.2331,0.24661 -0.2466,-0.76487 0.4932,-1.7513 -1.6279,-1.77442 -3.10576,0.88817 -3.00939,-0.61652 -2.86102,0.24661 -3.47755,2.02103 -2.6125,-2.39094 -2.12121,0.24661 -2.21946,1.65112 -1.01149,-0.27166 -1.47964,1.01148 -1.628,0.51826 -1.9979,-1.01148 -2.24258,1.13478 -3.23095,0.24661 -0.73982,-1.13478 -1.99792,0.39496 -1.23303,0.73982 -2.12121,-1.62799 -1.13478,-0.12331 -0.86313,2.02295 -3.22901,-0.88817 -1.01147,-1.01147 -1.08469,-0.29478 -1.25808,-0.32174 -1.01149,0.86312 -4.21738,-1.75129 -1.25808,-1.00956 -0.61652,-3.52764 -2.73579,-5.42536 -1.99791,-2.02103 -1.13479,-0.36991 -2.71268,2.51424 v 2.54121 l -0.86313,2.26764 -0.14835,0.98642 -1.84955,1.89965 -1.99791,0.39496 -2.48919,-0.88817 -1.35634,-0.1233 -1.62799,-0.12331 -3.47756,-0.64156 -5.62381,-0.24661 -1.97286,-0.76487 -2.48919,0.1233 -2.12121,-0.73982 -2.12121,-1.40451 -1.10974,-0.1233 -0.49321,0.1233 -2.86103,0.39304 -3.74727,-1.77442 -1.99792,1.01147 -2.21947,-0.49321 -0.76487,1.00955 -2.21946,-0.88625 -1.25809,-0.51826 -3.35424,0.1233 -1.99598,-0.36991 -0.98643,0.36991 -2.24452,-1.25808 -0.49321,-1.7513 -2.24452,-1.89772 h -1.9979 l -0.12331,-1.13478 -0.98643,0.88817 -1.38138,-0.24661 -0.98643,0.86313 z m 167.81638,52.13245 -2.3659,2.66452 -0.9864,0.1233 0.1233,-1.01147 -2.3678,1.13478 -0.7398,-1.25809 -2.3678,0.49322 -1.3814,-0.24661 -0.8632,2.66259 1.1098,0.86313 -1.7263,1.77634 -0.9864,0.49322 -1.9979,0.39495 -0.6165,1.00956 -2.2445,-0.12331 v 1.38139 l -0.8863,1.01147 -0.1002,1.50469 -2.4892,4.29059 -1.8746,4.41389 -0.2466,0.51826 -0.9864,3.89563 -0.1233,3.77425 0.6165,2.14626 -0.3699,2.14433 1.8746,1.62799 0.4932,1.13478 -0.8631,3.79737 1.2562,2.51617 0.3699,1.37946 0.9864,0.24661 1.7513,3.79929 2.2445,1.25616 2.6144,3.5026 0.395,0.51826 2.0962,0.49322 3.8705,7.29996 3.8725,-0.73982 1.6281,0.24661 3.7241,2.24259 1.996,2.78782 4.489,0.86312 1.3814,-0.36991 3.6009,1.50469 1.3794,2.39094 2.1212,1.01148 h 0.9864 l 5.8705,-5.82032 0.9864,-0.61652 2.6125,0.2466 5.3522,2.63947 1.8745,3.13076 1.2581,4.66243 0.1233,0.51633 0.1465,4.39077 1.7512,5.42537 -0.1233,3.64902 1.2581,3.40434 0.1233,0.36991 -0.6165,2.14433 1.1098,3.40434 0.025,7.93961 -0.9864,1.25808 -1.1348,0.36991 3.0094,4.9071 0.1233,2.02296 -0.3699,1.01147 2.4892,3.52572 0.9864,0.49321 1.1348,-0.64156 0.1233,-1.01147 1.9979,1.52973 0.8882,2.39286 v 1.87268 l 1.3563,-0.88624 2.2445,0.88624 2.2426,-0.51633 h 2.1212 l 2.2445,1.50276 0.9865,0.12331 2.1212,-1.25616 3.254,-1.25809 1.9729,0.36992 1.9979,-0.88818 2.1212,-0.24661 4.1191,0.73983 4.6104,-0.64157 1.3563,-2.14433 2.2446,-0.61652 1.0115,0.36992 1.9979,-0.51827 3.5989,-2.76277 1.1097,0.24661 5.1056,-2.9092 1.8746,-1.25808 0.3699,-0.14835 0.7649,-0.36991 0.4932,-1.01148 5.2269,-1.25616 1.9979,0.49321 0.1233,0.12331 1.9979,1.50277 2.2445,0.2466 5.4735,-0.88624 0.1233,1.00955 2.3679,-0.14643 1.0115,-0.36991 0.9864,0.24661 2.861,-2.51617 0.1233,-0.1233 1.1098,-0.0251 1.8746,-2.14433 3.1056,0.24661 4.2425,-4.02086 2.1212,0.98643 3.4776,-1.25808 3.1057,-3.27911 3.9707,-4.93215 4.1191,-0.76487 2.2446,-1.77442 1.7262,-4.66242 h 0.9865 l 0.1233,-2.14433 1.7493,-2.26956 v -1.13478 l -0.8862,-1.00955 1.626,-2.02295 0.4932,-2.26956 -0.6396,-0.98643 0.6165,-1.13286 -1.233,-0.24661 -0.025,-2.02295 0.395,-0.27165 0.9864,-0.73982 -0.1233,-1.01148 -1.0114,0.76487 -0.8632,-1.38139 0.1234,-1.13285 -3.0095,-2.51617 -0.9864,0.36991 -0.1233,-1.50469 -0.8882,-0.24661 -1.9959,-2.02102 -2.3678,-0.61652 -1.998,-1.38139 -3.6008,-0.49321 -1.1348,-1.01148 -3.229,0.27165 -6.1171,-5.15371 -0.9864,0.36991 -1.3814,-0.49321 -1.233,1.37946 -2.1193,-0.12331 -1.0114,0.51827 -0.7399,-0.76487 h -0.8631 l 0.099,-1.99598 -1.1097,-0.27166 -0.6165,-1.13478 0.3699,-1.13478 -0.6416,-2.12121 -0.1233,-0.63964 -1.7513,-1.8746 -2.3658,0.49322 -0.1233,-1.01148 -2.9844,1.28313 -2.4911,-1.01148 -0.1233,-2.26955 -2.1212,-0.73983 -1.5047,-1.13478 -1.8727,-0.61652 -1.1117,-0.88624 -1.1328,0.36991 -0.9864,-0.86313 0.9864,-0.76487 -0.1233,-1.01147 -4.1191,-3.00938 -0.7649,-2.14433 -2.2195,-0.36991 -1.0115,0.88817 -0.4932,-1.13478 0.4932,-3.03443 -0.1233,-1.25616 -2.4891,-0.88817 -2.4912,-0.86313 -1.3814,-0.24661 -0.7398,1.13286 -1.628,-1.65112 -2.1212,0.88817 -3.5989,-2.88607 -6.487,1.40643 -1.7513,-1.77634 -0.9864,0.88817 -1.1097,-0.61652 -1.996,-0.1233 -2.2445,1.62799 -0.3699,1.13286 -0.8631,-0.61652 -2.1212,0.2466 -0.37,1.25809 -1.3814,0.0251 -2.2445,1.38139 -1.4796,2.02295 -1.996,0.36991 -0.9864,0.88625 -3.7492,1.25808 -1.3563,1.15983 -4.4891,0.1233 -5.4735,2.51425 -4.9823,-0.22157 -0.6165,2.14626 h -1.1097 l -1.3814,-2.14626 -0.7629,-3.0325 -0.9865,-0.73982 -1.9979,0.1233 -0.7398,-3.52764 -1.3814,-2.14433 -2.1212,-0.76487 -0.1233,-3.52764 -0.8882,-0.1233 h -0.2466 l -2.8591,-4.14224 -0.3699,-1.25809 0.7399,-1.01147 -1.1348,-2.51424 -1.9979,-0.39496 -1.603,-1.7513 -1.5047,-3.15581 -0.8631,1.25809 -0.6416,0.14642 h -0.3699 l -0.6165,-4.04398 -1.3795,-0.73982 -0.9864,0.86313 -1.3814,-1.7513 -3.4775,-0.63964 -1.1348,-3.25599 -0.9864,-0.76487 z m -99.20939,28.80492 -2.24452,0.1233 -1.99791,0.51826 h -2.86103 l -1.25615,0.76295 -0.98643,-0.26973 -2.24451,1.00955 -4.36574,3.03442 -1.23303,0.24661 -0.88818,3.27911 0.27166,1.01148 -0.51826,2.02295 1.01147,2.51424 2.36782,2.76277 1.35634,1.01148 1.01149,-0.49322 2.24451,0.36992 1.72625,2.02102 3.13075,1.38139 1.99791,3.40242 0.49322,2.02295 1.99791,3.25599 0.1233,1.65111 v 0.36991 l -0.49321,1.65304 0.86312,1.13478 -0.49321,5.40032 -0.49321,1.01148 1.47964,2.26763 v 1.13478 l -0.24661,1.13478 1.50469,2.14433 0.24661,1.13478 1.74937,1.7513 1.8746,3.77233 2.98433,-0.86313 1.99792,0.98643 0.86313,-0.98643 1.9979,-0.39303 1.99597,0.88625 0.86313,-1.00955 1.25808,0.2466 1.99791,-0.49321 1.23304,0.36991 2.98434,-1.25809 0.88817,1.5047 2.36589,-2.63947 2.09616,-0.51827 4.73564,-3.27911 2.12122,-0.49321 1.9979,0.61652 2.61249,-3.28104 1.7513,-3.77232 0.36991,-0.76487 1.8746,-1.7513 1.97286,-4.29058 -0.1233,-3.64903 -2.12121,-4.29058 -4.48709,-6.2885 -4.11913,-3.52764 -1.8746,-2.26763 -2.49112,-0.61652 -1.23304,-2.02295 -2.36588,-1.38139 -1.38139,-2.26764 -2.86104,-2.26955 -4.36572,-1.25809 -3.10571,-1.62799 -2.49112,-0.26973 -3.62591,0.26973 -2.24451,-0.51634 -1.97286,0.12331 z m 105.59809,89.12357 -1.9979,0.36991 -3.7241,2.53929 -0.2717,0.12331 -2.2195,2.14625 -3.9958,1.7513 -0.8631,2.02103 -2.1193,0.2466 -1.0115,2.14626 -2.1212,-0.24661 -5.3521,2.26956 -0.9865,0.51634 -0.4932,1.25808 -1.1328,0.1233 -0.8632,2.39287 -1.9979,1.25808 -1.4796,3.64902 1.6029,2.02295 3.0075,1.3814 -0.3699,1.13284 0.3699,1.01148 1.1097,-0.39496 1.0115,1.01148 0.9864,-0.36991 1.1348,0.73982 4.2424,-2.26762 0.9865,-2.76279 0.3699,1.13478 1.0095,0.12331 -0.1233,2.51424 1.9979,-1.25615 0.9865,0.1233 0.4932,-1.01148 3.3542,-1.13478 2.3929,1.01147 1.233,-2.4179 0.9865,-0.73983 1.1348,2.76278 1.2561,2.39287 1.4796,-2.26957 1.0115,0.36991 0.9865,-0.49321 v -1.01148 l 2.2445,0.36991 2.9843,-0.88817 1.8746,1.38139 3.1057,-4.26554 0.2466,-2.14626 -1.9959,0.1233 -0.9865,-0.76486 -2.2445,0.39495 -0.4932,-1.01147 0.6165,-1.01148 -0.3699,-1.25616 0.7398,-2.26956 0.6165,-2.39286 1.0115,0.12331 0.9864,-0.76295 -0.6415,-3.25599 -1.9729,-2.14625 -0.025,-1.00956 -5.2288,-3.00938 -1.5027,-0.2466 z"
       id="Maui"
       inkscape:label="#Kalawao"
       inkscape:connector-curvature="0" />
    <path
       inkscape:connector-curvature="0"
       id="Kauai"
       d="m 286.78129,100.73066 -1.99791,1.62799 -4.34067,0.34487 -3.00746,1.99791 -2.12121,2.26956 -2.24452,2.26763 -3.35424,0.98643 -4.48903,3.7492 -3.84554,0.0983 -1.13478,1.65304 -1.7513,0.36992 -1.84955,1.38138 -3.13269,1.35634 -0.98643,0.12331 -0.98643,-0.64157 -0.1233,-0.1233 -1.13286,0.73982 -1.97286,0.12331 -2.63947,2.88415 -1.84955,0.24661 -2.51617,3.77425 -1.50277,4.53719 -0.27165,2.54121 -0.64156,1.50277 -0.49322,1.25808 -2.24451,2.02295 -3.87059,2.76085 -1.62799,1.99791 -2.61443,1.38139 -0.76486,2.39286 -0.66469,4.56224 -1.8746,2.88415 1.33129,3.94572 1.47965,1.89965 6.6584,8.63126 1.97286,2.16938 5.82033,1.03652 1.35634,0.51826 2.46607,3.05755 4.09407,0.91129 3.22902,-0.2466 3.10764,0.66661 0.98643,0.61652 1.35634,2.41598 2.09617,0.64156 1.13478,0.27166 0.46817,3.1558 0.49321,0.64157 0.86313,-0.12331 0.24661,0.88818 0.98643,0.36991 v 0.88817 l 1.97286,1.1579 1.84955,3.15773 1.628,0.025 1.97286,2.41598 0.46817,1.01148 1.50469,-0.24661 0.51826,-2.02295 0.61652,-0.64157 0.36991,-0.24661 1.50469,0.39496 -0.14835,1.01148 2.24451,0.76487 0.73982,-0.12331 0.49322,0.88817 2.36782,-0.10018 5.69509,2.68956 1.10974,-0.88817 3.60085,1.2812 1.7513,-1.87267 2.36782,0.1233 1.72625,0.63964 1.47964,1.28313 2.49112,-0.73982 0.98643,0.64156 0.98643,0.88817 3.35233,1.00955 3.10764,1.28313 1.23304,1.52974 0.86312,-0.24661 0.49322,-1.62799 1.01147,-0.64157 h 1.10974 l 0.88817,-1.13478 1.97286,-0.49321 0.76487,-1.628 1.74937,-0.1233 0.61652,-1.50276 1.13478,-0.12331 0.98643,-2.02295 0.88817,-0.1233 1.84956,0.51826 0.86312,-0.24661 -0.73982,-1.77635 0.51826,-0.61651 1.35634,-0.24661 0.27166,-1.77442 2.98241,-0.98643 0.88817,-1.77634 2.71268,-0.73983 -0.0983,-0.88817 0.73983,-0.61652 1.35634,-0.24661 -0.36991,-0.51826 -0.22156,-0.88624 0.86312,-0.73983 -0.61652,-0.76487 -0.73982,0.73983 -1.62799,-0.12331 -0.61652,-0.88817 1.01147,-1.38139 0.49322,-0.1233 0.86312,0.49322 0.24661,-0.36992 0.51826,-1.65111 0.73982,-0.1233 0.61652,1.52781 1.99599,-0.36991 0.84,1.28312 0.63964,-0.39495 0.64157,-3.89563 -0.61652,-3.42939 0.39495,-1.13285 0.88817,-1.7513 -0.27165,-0.27165 -2.49112,1.13478 -0.59147,-1.40644 1.84955,-0.61651 -0.71477,-4.5372 0.54138,-5.69702 -0.61652,-3.52571 v -0.51827 l 1.50469,-0.49321 2.21947,-0.1233 1.01147,-2.63947 -0.36991,-1.00955 3.77233,-7.05337 0.27165,-2.91112 0.12331,-0.61652 2.24451,-2.26763 0.51826,-2.02296 -0.73982,-0.88817 0.98643,-1.7513 -0.71478,-4.31563 -0.73982,-1.13285 -2.24452,0.36991 -0.49321,-0.24661 0.39496,-2.66451 -0.73983,-1.65112 0.26973,-1.01148 -1.47964,-2.14625 1.10973,-0.61652 -2.09616,-3.18085 -2.46608,-1.65304 -1.35634,0.2466 v -1.77441 l -4.19233,-3.30416 -1.99598,-0.91322 -1.47964,0.88817 -0.98643,-0.76486 -0.86313,-0.88818 -3.60087,-0.27165 0.61652,-1.25616 -0.73982,-0.51826 -0.98643,0.49322 -0.61652,-0.76487 h -0.86312 l -0.12331,-1.01148 -1.84955,-1.2812 -1.25809,1.89772 -2.98433,0.0983 -0.86313,-0.1233 -1.13478,1.25808 -0.73982,0.49321 h -0.86313 l -1.72625,-1.4045 -5.35023,0.61652 -1.10973,-0.39496 -1.47965,-1.13478 -3.35425,-0.14835 -2.24451,1.35634 -0.86313,0.24661 -0.51826,2.14625 0.73983,0.27166 v 1.25615 l -1.00956,1.38139 -2.86103,-0.14835 -2.83598,-0.88624 -1.97287,-1.65304 -1.23303,-1.03653 -1.47965,-2.39093 z m -135.56093,53.83558 -0.39496,0.51826 -0.49321,0.36991 -1.10974,-0.64156 -0.36991,1.13478 0.0983,1.01147 0.73982,0.51634 0.64157,-0.12331 0.86312,-1.00955 0.51827,-0.88817 v -0.76487 z m 0.44312,6.33858 -1.7513,0.49322 -1.62606,1.87268 -1.97286,0.1233 -1.13478,1.13478 -0.88818,3.03443 -0.27165,3.0325 -1.89772,2.76277 -5.3772,4.26554 -2.98434,0.98643 -2.6125,0.12331 0.88625,0.64156 -0.14643,0.36991 -0.61651,1.01148 -2.86104,1.10973 -3.35424,0.49322 -5.15372,5.15371 -2.49112,3.64902 -1.8746,0.73982 -0.76487,2.54122 -0.51633,1.25616 -0.27166,2.76277 -1.8746,3.0325 -2.14626,2.26956 -0.49321,1.62799 0.5934,2.29269 -0.76487,2.88607 -0.14835,2.39094 1.97286,1.03652 -0.24661,0.12331 -0.2466,1.25808 2.34277,1.1579 1.97286,3.42938 h 1.47964 l 1.47965,0.76295 0.2466,1.38139 1.35635,0.51826 1.25808,0.025 0.22156,1.25808 1.99791,-1.62799 -1.08469,-2.91112 2.36589,-1.62607 0.64157,-1.28313 -0.83808,-2.76278 0.86312,-2.02102 2.7859,-4.41389 2.12121,-1.628 1.62799,-2.26956 0.025,-2.26763 3.25406,-3.65095 3.10764,-0.36991 1.99791,-0.36991 0.61652,-0.98643 0.98643,0.76487 3.23094,-0.76487 2.12121,0.66661 1.50276,-2.26956 1.10974,0.24661 0.64156,-1.01148 2.98434,-1.10973 1.99791,-2.26763 -0.83808,-2.26956 -0.98643,-0.64157 -0.73983,-2.66259 0.14643,-3.15581 0.64156,-1.65304 -0.1233,-2.63947 0.39496,-1.89773 1.9979,-1.50469 1.1579,-3.79737 0.98643,-0.73982 1.10974,0.51826 1.13477,-0.88818 0.24661,-1.13477 -0.46817,-1.01148 0.24661,-1.13478 -2.34277,-3.30416 -1.10973,-1.13478 -2.49113,1.87461 -1.97286,-0.39496 z"
       style="fill:#cccccc;fill-opacity:1;stroke:none;stroke-width:2.21947551;stroke-linejoin:round"
       inkscape:label="#6008" />
  </g>
</svg>
