<?xml version="1.0" encoding="UTF-8" standalone="no"?>
<svg
   xmlns:dc="http://purl.org/dc/elements/1.1/"
   xmlns:cc="http://creativecommons.org/ns#"
   xmlns:rdf="http://www.w3.org/1999/02/22-rdf-syntax-ns#"
   xmlns:svg="http://www.w3.org/2000/svg"
   xmlns="http://www.w3.org/2000/svg"
   xmlns:sodipodi="http://sodipodi.sourceforge.net/DTD/sodipodi-0.dtd"
   xmlns:inkscape="http://www.inkscape.org/namespaces/inkscape"
   version="1.2"
   width="810"
   height="502"
   stroke-linecap="round"
   stroke-linejoin="round"
   id="svg17"
   sodipodi:docname="ma.svg"
   inkscape:version="0.92.1 r15371">
  <metadata
     id="metadata23">
    <rdf:RDF>
      <cc:Work
         rdf:about="">
        <dc:format>image/svg+xml</dc:format>
        <dc:type
           rdf:resource="http://purl.org/dc/dcmitype/StillImage" />
      </cc:Work>
    </rdf:RDF>
  </metadata>
  <defs
     id="defs21" />
  <sodipodi:namedview
     pagecolor="#ffffff"
     bordercolor="#666666"
     borderopacity="1"
     objecttolerance="10"
     gridtolerance="10"
     guidetolerance="10"
     inkscape:pageopacity="0"
     inkscape:pageshadow="2"
     inkscape:window-width="1920"
     inkscape:window-height="1017"
     id="namedview19"
     showgrid="false"
     inkscape:zoom="0.75061728"
     inkscape:cx="334.53204"
     inkscape:cy="438.88005"
     inkscape:window-x="-8"
     inkscape:window-y="-8"
     inkscape:window-maximized="1"
     inkscape:current-layer="Massachusetts" />
  <g
     id="Massachusetts"
     transform="translate(5,5)">
    <path
       style="color:#000000;font-style:normal;font-variant:normal;font-weight:normal;font-stretch:normal;font-size:medium;line-height:normal;font-family:sans-serif;font-variant-ligatures:normal;font-variant-position:normal;font-variant-caps:normal;font-variant-numeric:normal;font-variant-alternates:normal;font-feature-settings:normal;text-indent:0;text-align:start;text-decoration:none;text-decoration-line:none;text-decoration-style:solid;text-decoration-color:#000000;letter-spacing:normal;word-spacing:normal;text-transform:none;writing-mode:lr-tb;direction:ltr;text-orientation:mixed;dominant-baseline:auto;baseline-shift:baseline;text-anchor:start;white-space:normal;shape-padding:0;clip-rule:nonzero;display:inline;overflow:visible;visibility:visible;opacity:1;isolation:auto;mix-blend-mode:normal;color-interpolation:sRGB;color-interpolation-filters:linearRGB;solid-color:#000000;solid-opacity:1;vector-effect:none;fill:#cccccc;fill-opacity:1;fill-rule:nonzero;stroke:none;stroke-width:1;stroke-linecap:butt;stroke-linejoin:miter;stroke-miterlimit:4;stroke-dasharray:none;stroke-dashoffset:0;stroke-opacity:1;color-rendering:auto;image-rendering:auto;shape-rendering:auto;text-rendering:auto;enable-background:accumulate"
       d="m 501.0625,47.267578 3.53125,18.523438 -0.7793,2.205078 -2.83398,1.470703 a 0.50005,0.50005 0 0 0 -0.043,0.863281 l 18.16992,11.759766 -1.72656,2.015625 a 0.50005,0.50005 0 0 0 0.0566,0.707031 l 3.63867,3.080078 a 0.50005,0.50005 0 0 0 0.80274,-0.236328 l 1.25586,-4.126953 1.50585,-0.04883 1.07227,2.412109 a 0.50005,0.50005 0 0 0 0.13281,0.177734 l 1.72071,1.460938 a 0.50005,0.50005 0 0 0 0.38281,0.115234 l 13.07031,-1.560546 a 0.50005,0.50005 0 0 0 0.0293,-0.0039 l 3.42773,-0.621093 5.37891,5.914062 1.10351,2.964844 -0.97265,0.71289 -1.04492,-0.75 a 0.50005,0.50005 0 0 0 -0.47852,-0.05664 l -1.60547,0.644531 -1.4375,-0.744141 A 0.50005,0.50005 0 0 0 544.73828,94.375 l -1.66992,3.5 -1.30664,1.835938 a 0.50005,0.50005 0 0 0 -0.0879,0.230468 l -0.88086,7.429684 a 0.50005,0.50005 0 0 0 0.12305,0.39063 l 1.67968,1.89062 a 0.50005,0.50005 0 0 0 0.34375,0.16602 l 2.22852,0.14062 a 0.50005,0.50005 0 0 0 0.11914,-0.006 l 3.10937,-0.54687 0.29688,2.96289 a 0.50005,0.50005 0 0 0 0.0391,0.1543 l 0.87891,1.97851 -1.66602,1.42774 a 0.50005,0.50005 0 0 0 -0.11328,0.62109 l 0.72852,1.32227 -0.95508,1.78906 -1.49414,0.72851 a 0.50005,0.50005 0 0 0 -0.27735,0.38868 l -0.33007,2.74023 a 0.50005,0.50005 0 0 0 0.0781,0.33594 l 6.31836,9.57617 1.08203,1.70508 -2.75195,7.19726 -1.58399,3.38086 -1.52343,1.47657 a 0.50005,0.50005 0 0 0 -0.0918,0.11718 l -1.4375,2.6211 -1.81836,0.12695 -1.58203,-1.41016 a 0.50005,0.50005 0 0 0 -0.7832,0.15235 l -1.57813,3.2207 a 0.50005,0.50005 0 0 0 0.33985,0.70899 l 0.83984,0.1875 0.63281,1.97656 a 0.50005,0.50005 0 0 0 0.37695,0.33789 l 0.49219,0.0996 -1.93164,3.17773 -2.69726,1.22461 -2.75977,0.57227 -2.31445,-0.72461 -0.0899,-3.22461 a 0.50005,0.50005 0 0 0 -0.19922,-0.38477 l -2.43945,-1.84961 a 0.50005,0.50005 0 0 0 -0.7207,0.125 l -0.86328,1.32422 -3.35743,2.22266 -3.16601,0.72656 -0.66211,-0.36719 a 0.50005,0.50005 0 0 0 -0.68359,0.20118 l -1.58008,2.93945 a 0.50005,0.50005 0 0 0 0.0117,0.49219 l 1.72656,2.91015 -0.16406,1.8086 a 0.50005,0.50005 0 0 0 0.3164,0.51171 l 1.61328,0.62305 -4.28515,4.27735 a 0.50005,0.50005 0 0 0 0.002,0.70898 l 2.78125,2.75 -2.67578,2.41406 a 0.50005,0.50005 0 0 0 -0.0547,0.0586 l -2.51172,3.13086 -2.57617,-1.62891 -1.74219,-4.79102 a 0.50005,0.50005 0 0 0 -0.36914,-0.31836 l -2.625,-0.53711 -0.30859,-2.80859 a 0.50005,0.50005 0 0 0 -0.31836,-0.41211 l -2.25976,-0.86914 a 0.50005,0.50005 0 0 0 -0.24024,-0.0293 l -1.7207,0.2129 -5.01953,-2.04102 a 0.50005,0.50005 0 0 0 -0.35157,-0.01 l -13.24023,4.54102 a 0.50005,0.50005 0 0 0 -0.31641,0.61328 l 1.35938,4.65039 a 0.50005,0.50005 0 0 0 0.0195,0.0547 l 3.36914,7.91992 1.11719,6.0332 -5.93946,-0.19921 a 0.50005,0.50005 0 0 0 -0.44336,0.75976 l 0.60547,0.99805 -0.0449,3.24219 -2.36719,2.50781 a 0.50005,0.50005 0 0 0 -0.12304,0.45703 l 0.42773,1.82422 -2.09765,0.74023 a 0.50005,0.50005 0 0 0 -0.32032,0.35547 l -0.46875,1.95898 a 0.50005,0.50005 0 0 0 0.11133,0.44922 l 1.28711,1.44532 -3.22851,1.20898 -3.59766,0.68164 a 0.50005,0.50005 0 0 0 -0.0332,0.008 l -5.78125,1.51953 a 0.50005,0.50005 0 0 0 -0.36524,0.56641 l 0.38672,2.31445 -4.08203,0.18164 -1.39649,-0.36132 a 0.50005,0.50005 0 0 0 -0.32617,0.0254 l -3.08984,1.34961 a 0.50005,0.50005 0 0 0 -0.17383,0.12695 l -4.29687,4.84961 -2.38477,0.32031 0.0156,-2.13476 a 0.50005,0.50005 0 0 0 -0.4726,-0.50374 l -3.88672,-0.20703 -1.10547,-7.00195 a 0.50005,0.50005 0 0 0 -0.80273,-0.31641 l -0.80664,0.62891 -7.00782,-0.23243 a 0.50005,0.50005 0 0 0 -0.27148,0.0684 l -2.95898,1.74219 -0.16797,-2.16992 a 0.50005,0.50005 0 0 0 -0.48633,-0.46094 l -3.35938,-0.0781 -2.12304,-0.76563 -4.06836,-6.4082 3.3164,-11.92774 4.66602,-2.07226 1.56445,-0.32813 3.61719,1.5293 a 0.50005,0.50005 0 0 0 0.45312,-0.0332 l 1.53516,-0.93164 3.80274,-0.41016 1.49414,0.90234 a 0.50005,0.50005 0 0 0 0.75781,-0.40234 l 0.12695,-2.50977 4.39063,-11.35546 a 0.50005,0.50005 0 0 0 0.0332,-0.1543 l 0.17969,-3.57031 a 0.50005,0.50005 0 0 0 -0.008,-0.11133 l -0.36914,-2.10156 a 0.50005,0.50005 0 0 0 -0.5625,-0.40625 l -4.62109,0.66015 -1.7168,-0.67187 a 0.50005,0.50005 0 0 0 -0.25781,-0.0293 l -7.66016,1.16992 a 0.50005,0.50005 0 0 0 -0.13086,0.0391 l -3.97851,1.80079 a 0.50005,0.50005 0 0 0 -0.10352,0.0625 l -3.21093,2.51953 -2.34961,-2.62891 -1.6211,-2.54297 0.23633,-1.80078 a 0.50005,0.50005 0 0 0 -0.2539,-0.50195 l -3.05079,-1.68946 -1.27148,-1.62304 3.05273,-1.99024 a 0.50005,0.50005 0 0 0 0.16993,-0.1875 l 1.54101,-2.95117 a 0.50005,0.50005 0 0 0 -0.13281,-0.62305 l -0.55469,-0.4375 5.64258,-4.67578 a 0.50005,0.50005 0 0 0 -0.0605,-0.8125 l -4.65234,-2.79492 3.46875,-2.3125 5.70703,-1.41992 a 0.50005,0.50005 0 0 0 0.36719,-0.38086 l 3.48047,-16.2793 a 0.50005,0.50005 0 0 0 -0.22266,-0.52734 l -3.37109,-2.13086 5.45507,-11.23828 a 0.50005,0.50005 0 0 0 0.0195,-0.0469 l 0.75976,-2.10156 a 0.50005,0.50005 0 0 0 0.0156,-0.28711 l -1.62891,-6.76953 a 0.50005,0.50005 0 0 0 -0.36719,-0.36914 l -9.16015,-2.23047 a 0.50005,0.50005 0 0 0 -0.39649,0.0703 l -2.99609,2.00391 -2.58789,-0.54297 -2.57617,-2.05469 a 0.50005,0.50005 0 0 0 -0.60157,-0.0176 l -1.89062,1.33984 a 0.50005,0.50005 0 0 0 -0.12305,0.125 l -1.63867,2.39062 a 0.50005,0.50005 0 0 0 -0.0703,0.15235 l -0.73047,2.69922 a 0.50005,0.50005 0 0 0 0.01,0.29687 l 0.4375,1.24805 -8.20117,-1.67383 0.23242,-2.2207 2.93946,-21.552737 a 0.50005,0.50005 0 0 0 -0.3086,-0.53125 l -24.48047,-9.810547 a 0.50005,0.50005 0 0 0 -0.68554,0.482422 l 0.0605,1.726563 -14.7871,-0.433594 a 0.50005,0.50005 0 0 0 -0.20313,0.03711 l -2.2832,0.933594 0.46093,-9.316406 a 0.50005,0.50005 0 0 0 -0.004,-0.08984 l -0.28906,-2.191406 a 0.50005,0.50005 0 0 0 -0.14258,-0.28711 l -8.51367,-8.513672 -0.23438,-1.537109 33.06445,1.333985 a 0.50005,0.50005 0 0 0 0.004,0 l 69.01953,2.230468 a 0.50005,0.50005 0 0 0 0.002,0 l 17.71289,0.548828 4.77344,0.279297 a 0.50005,0.50005 0 0 0 0.0254,0.002 l 7.91993,0.03906 a 0.50005,0.50005 0 0 0 0.39648,-0.189453 l 3.35937,-4.271485 a 0.50005,0.50005 0 0 0 0.0449,-0.06641 l 2.38476,-4.333984 z"
       id="Middlesex" />
    <path
       style="color:#000000;font-style:normal;font-variant:normal;font-weight:normal;font-stretch:normal;font-size:medium;line-height:normal;font-family:sans-serif;font-variant-ligatures:normal;font-variant-position:normal;font-variant-caps:normal;font-variant-numeric:normal;font-variant-alternates:normal;font-feature-settings:normal;text-indent:0;text-align:start;text-decoration:none;text-decoration-line:none;text-decoration-style:solid;text-decoration-color:#000000;letter-spacing:normal;word-spacing:normal;text-transform:none;writing-mode:lr-tb;direction:ltr;text-orientation:mixed;dominant-baseline:auto;baseline-shift:baseline;text-anchor:start;white-space:normal;shape-padding:0;clip-rule:nonzero;display:inline;overflow:visible;visibility:visible;opacity:1;isolation:auto;mix-blend-mode:normal;color-interpolation:sRGB;color-interpolation-filters:linearRGB;solid-color:#000000;solid-opacity:1;vector-effect:none;fill:#cccccc;fill-opacity:1;fill-rule:nonzero;stroke:none;stroke-width:1;stroke-linecap:butt;stroke-linejoin:miter;stroke-miterlimit:4;stroke-dasharray:none;stroke-dashoffset:0;stroke-opacity:1;color-rendering:auto;image-rendering:auto;shape-rendering:auto;text-rendering:auto;enable-background:accumulate"
       d="M 545.37891 243.29297 L 499.85352 267.36133 A 0.50005 0.50005 0 0 1 499.84961 267.36328 L 482.92969 276.10352 A 0.50005 0.50005 0 0 1 482.70898 276.16016 L 479.38086 276.2207 L 479.36914 302.5918 L 488.37891 301.11719 A 0.50005 0.50005 0 0 1 488.95703 301.65625 L 488.50586 306.58789 L 490.01367 312.26172 A 0.50005 0.50005 0 0 1 490.00195 312.55469 L 488.25586 317.57031 L 489.70508 320.14453 A 0.50005 0.50005 0 0 1 489.63086 320.73633 L 487.54688 322.9082 L 487.13672 324.08203 L 488.85938 328.11328 A 0.50005 0.50005 0 0 1 488.89453 328.37695 L 488.56641 330.77539 L 489.95898 332.30273 A 0.50005 0.50005 0 0 1 490.06641 332.48633 L 491.35547 336.48047 L 506.06641 344.77539 A 0.50005 0.50005 0 0 1 506.23633 344.93359 L 514.23633 357.03516 A 0.50005 0.50005 0 0 1 514.24414 357.04688 L 520.9082 367.7832 L 525.11914 368.82422 A 0.50005 0.50005 0 0 1 525.5 369.32031 L 525.48828 369.89844 L 534.77734 372.1543 A 0.50005 0.50005 0 0 1 535.1582 372.67188 L 534.56836 382.15039 A 0.50005 0.50005 0 0 1 534.46289 382.42969 L 533.50977 383.64258 L 533.50977 388.95117 L 535.53906 392.65039 A 0.50005 0.50005 0 0 1 535.59766 392.83984 L 537.6875 413.79102 A 0.50005 0.50005 0 0 1 537.68945 413.81055 L 538.08398 420.4375 L 540.48828 419.25195 A 0.50005 0.50005 0 0 1 540.625 419.20703 L 543.56836 418.70312 L 545.10938 417.27344 A 0.50005 0.50005 0 0 1 545.4668 417.14062 L 548.82617 417.25 A 0.50005 0.50005 0 0 1 548.98242 417.28125 L 553.95312 419.11133 A 0.50005 0.50005 0 0 1 554.11133 419.20703 L 555.57031 420.50195 L 559.29492 418.66602 L 559.88086 417.4707 A 0.50005 0.50005 0 0 1 560.20508 417.20508 L 563.80469 416.27539 A 0.50005 0.50005 0 0 1 564.02734 416.26953 L 567.94922 417.05664 L 568.26953 416.19531 L 567.62695 414.35352 A 0.50005 0.50005 0 0 1 567.64648 413.97852 L 568.64648 411.83789 A 0.50005 0.50005 0 0 1 568.91016 411.58789 L 571.94141 410.34766 A 0.50005 0.50005 0 0 1 572.35156 410.36133 L 573.52148 410.94141 A 0.50005 0.50005 0 0 1 573.7832 411.26562 L 574.67773 414.7168 L 574.74609 414.65625 L 574.26953 412.11328 A 0.50005 0.50005 0 0 1 574.55859 411.5625 L 575.85742 410.99219 L 576.16602 408.94531 A 0.50005 0.50005 0 0 1 576.35742 408.62305 L 577.36719 407.85156 A 0.50005 0.50005 0 0 1 577.68359 407.75 L 579.82031 407.80664 L 578.83594 405.88867 A 0.50005 0.50005 0 0 1 578.78516 405.73828 L 578.03711 400.95703 L 575.99023 398.56445 A 0.50005 0.50005 0 0 1 575.88086 398.34375 L 575.54102 396.74414 A 0.50005 0.50005 0 0 1 575.9707 396.14258 L 579.02734 395.78125 L 580.27148 392.09375 L 579.43164 388.41016 A 0.50005 0.50005 0 0 1 579.42188 388.26172 L 579.57227 386.3418 A 0.50005 0.50005 0 0 1 579.98047 385.88867 L 581.79102 385.55859 A 0.50005 0.50005 0 0 1 582.30078 385.7793 L 583.61133 387.82031 A 0.50005 0.50005 0 0 1 583.66016 387.91797 L 584.88281 391.25391 L 586.54297 391.75391 L 585.41992 387.42969 L 583.51758 384.86719 A 0.50005 0.50005 0 0 1 583.51953 384.27148 L 584.49023 382.9707 A 0.50005 0.50005 0 0 1 584.86133 382.77148 L 587.74805 382.60742 L 588.81445 380.24414 A 0.50005 0.50005 0 0 1 589.45703 379.98633 L 593.16797 381.48633 A 0.50005 0.50005 0 0 1 593.40039 381.67969 L 594.38086 383.21094 A 0.50005 0.50005 0 0 1 594.45898 383.50391 L 594.35547 385.7793 L 595.66992 388.89453 A 0.50005 0.50005 0 0 1 595.69531 388.97266 L 596.8125 393.62891 L 597.64062 391.93164 A 0.50005 0.50005 0 0 1 597.83594 391.71875 L 598.97266 391.04883 L 598.13477 389.57617 A 0.50005 0.50005 0 0 1 598.07812 389.41797 L 597.71094 387.37695 L 596.88281 386.36719 A 0.50005 0.50005 0 0 1 596.77539 386.12305 L 596.42578 383.7832 A 0.50005 0.50005 0 0 1 596.45312 383.5332 L 597.0332 382.00195 A 0.50005 0.50005 0 0 1 597.38672 381.69336 L 599.03711 381.3125 L 598.58789 376.96289 L 589.24805 342.99023 L 585.67383 343.60352 A 0.50005 0.50005 0 0 1 585.125 343.29492 L 581.33398 333.76953 L 558.41211 337.54297 A 0.50005 0.50005 0 0 1 557.86719 336.85938 L 560.3125 330.96484 L 555.61328 326.16992 A 0.50005 0.50005 0 0 1 555.61328 325.46875 L 564.63281 316.30859 A 0.50005 0.50005 0 0 1 564.66797 316.27734 L 569.375 312.29492 L 568.64062 308.33594 L 566.3418 299.22852 L 565.36914 296.58398 L 564.4668 296.33203 A 0.50005 0.50005 0 0 1 564.10547 295.7832 L 564.41602 293.48633 L 561.20117 289.23242 L 552.54102 282.44336 A 0.50005 0.50005 0 0 1 552.35742 282.13867 L 545.37891 243.29297 z M 601.58008 390.11719 L 601.25977 391.19531 L 602.84766 393.94336 L 604.0918 393.51953 L 603.57227 390.95898 L 601.58008 390.11719 z "
       transform="translate(-5,-5)"
       id="Bristol"
       inkscape:label="#path4627" />
    <path
       style="color:#000000;font-style:normal;font-variant:normal;font-weight:normal;font-stretch:normal;font-size:medium;line-height:normal;font-family:sans-serif;font-variant-ligatures:normal;font-variant-position:normal;font-variant-caps:normal;font-variant-numeric:normal;font-variant-alternates:normal;font-feature-settings:normal;text-indent:0;text-align:start;text-decoration:none;text-decoration-line:none;text-decoration-style:solid;text-decoration-color:#000000;letter-spacing:normal;word-spacing:normal;text-transform:none;writing-mode:lr-tb;direction:ltr;text-orientation:mixed;dominant-baseline:auto;baseline-shift:baseline;text-anchor:start;white-space:normal;shape-padding:0;clip-rule:nonzero;display:inline;overflow:visible;visibility:visible;opacity:1;isolation:auto;mix-blend-mode:normal;color-interpolation:sRGB;color-interpolation-filters:linearRGB;solid-color:#000000;solid-opacity:1;vector-effect:none;fill:#cccccc;fill-opacity:1;fill-rule:nonzero;stroke:none;stroke-width:1;stroke-linecap:butt;stroke-linejoin:miter;stroke-miterlimit:4;stroke-dasharray:none;stroke-dashoffset:0;stroke-opacity:1;color-rendering:auto;image-rendering:auto;shape-rendering:auto;text-rendering:auto;enable-background:accumulate"
       d="m 122.24805,97.978516 20.8125,4.597654 0.21093,4.19922 a 0.50005,0.50005 0 0 0 0.39454,0.46289 l 0.64062,0.13672 -1.04492,4.83984 a 0.50005,0.50005 0 0 0 -0.008,0.16016 l 0.76953,6.94922 a 0.50005,0.50005 0 0 0 0.37304,0.42969 l 21.47852,5.47461 2.97852,1.63086 0.0566,4.19726 a 0.50005,0.50005 0 0 0 0.57422,0.48828 l 11.98437,-1.82617 -0.9375,13.51758 a 0.50005,0.50005 0 0 0 0.57031,0.52929 l 18.19922,-2.61132 a 0.50005,0.50005 0 0 0 0.0644,-0.0137 l 8.03907,-2.25781 0.87695,0.15821 a 0.50005,0.50005 0 0 0 0.16406,0.004 l 19.72071,-3.03515 1.20117,7.39062 a 0.50005,0.50005 0 0 0 0.56836,0.41406 l 23.58007,-3.64257 0.23829,1.71679 a 0.50005,0.50005 0 0 0 0.0508,0.15821 l 1.37695,2.70898 -0.46875,0.70703 a 0.50005,0.50005 0 0 0 -0.0723,0.37891 l 0.70508,3.38086 -0.17382,2.32031 a 0.50005,0.50005 0 0 0 0.0156,0.16601 l 0.57031,2.13086 a 0.50005,0.50005 0 0 0 0.0586,0.13672 l 1.21289,1.91992 -0.22852,2.85352 a 0.50005,0.50005 0 0 0 0.0195,0.18164 l 0.48828,1.64453 -0.58593,1.33203 a 0.50005,0.50005 0 0 0 0.12109,0.57227 l 0.85352,0.77148 0.76171,2.28711 -0.0273,2.65821 -0.86523,1.88476 a 0.50005,0.50005 0 0 0 -0.043,0.14649 l -0.49024,3.9707 a 0.50005,0.50005 0 0 0 0.75,0.49219 l 2.53125,-1.49024 a 0.50005,0.50005 0 0 0 0.16211,-0.15625 l 0.72852,-1.10351 1.29883,-0.19727 a 0.50005,0.50005 0 0 0 0.2539,-0.11719 l 1.80078,-1.57031 a 0.50005,0.50005 0 0 0 0.15821,-0.25976 l 0.9082,-3.80469 1.85547,-2.78516 2.14453,-0.55273 a 0.50005,0.50005 0 0 0 0.14453,-0.0625 l 2.64453,-1.6875 0.99024,-0.0371 1.91992,14.50781 a 0.50005,0.50005 0 0 0 0.56055,0.43164 l 2.91015,-0.38086 a 0.50005,0.50005 0 0 0 0.0352,-0.006 l 10.5625,-2.16601 -0.35547,2.23828 a 0.50005,0.50005 0 0 0 0.002,0.17578 l 0.41992,2.09961 a 0.50005,0.50005 0 0 0 0.23243,0.33008 l 1.17968,0.71093 -1.61718,2.08594 a 0.50005,0.50005 0 0 0 -0.10352,0.2793 l -0.17187,3.31055 -0.55274,-0.0605 a 0.50005,0.50005 0 0 0 -0.55469,0.5332 l 0.31055,4.17969 a 0.50005,0.50005 0 0 0 0.42774,0.45898 l 0.70117,0.0996 0.0684,1.44141 -1.02539,-0.26172 a 0.50005,0.50005 0 0 0 -0.53125,0.19531 l -0.58789,0.82813 -5.52149,0.85742 a 0.50005,0.50005 0 0 0 -0.3418,0.2207 l -2.24218,3.41992 -1.67774,0.10743 -0.40234,-1.91602 a 0.50005,0.50005 0 0 0 -0.61328,-0.38281 l -2.38867,0.61133 a 0.50005,0.50005 0 0 0 -0.0449,0.0117 l -12.17968,4.32032 a 0.50005,0.50005 0 0 0 -0.0703,0.0312 l -2.27929,1.23047 a 0.50005,0.50005 0 0 0 -0.26172,0.41015 l -0.0781,1.33985 -0.86719,0.74609 -0.80859,-0.43555 a 0.50005,0.50005 0 0 0 -0.60156,0.0957 l -1.62891,1.73047 a 0.50005,0.50005 0 0 0 -0.084,0.56835 l 0.97265,1.9336 -0.0566,1.30078 -6.94726,1.0957 -1.66602,-13.27734 a 0.50005,0.50005 0 0 0 -0.5625,-0.43359 l -26.73828,3.60937 -15.26953,1.93555 -2.05469,-0.64453 -1.36328,-1.50782 -0.91797,-2.14453 a 0.50005,0.50005 0 0 0 -0.1875,-0.22265 l -1.43554,-0.92774 -0.25782,-1.19726 1.32422,-3.6836 2.23633,-3.50586 1.64063,-1.36133 a 0.50005,0.50005 0 0 0 0.16601,-0.26562 l 0.33008,-1.34961 a 0.50005,0.50005 0 0 0 0.01,-0.18945 l -0.49023,-3.40039 a 0.50005,0.50005 0 0 0 -0.24219,-0.36133 l -2.62109,-1.5293 a 0.50005,0.50005 0 0 0 -0.55274,0.0312 l -4.81054,3.62109 a 0.50005,0.50005 0 0 0 -0.16797,0.22657 l -4.95899,13.49414 -2.24609,0.57422 a 0.50005,0.50005 0 0 0 -0.36523,0.38476 l -0.47461,2.34766 -4.23828,0.89258 a 0.50005,0.50005 0 0 0 -0.39454,0.54687 l 0.84375,7.20703 -0.0976,0.99024 L 163.63867,204.0957 163.5,199.23633 A 0.50005,0.50005 0 0 0 163.00977,198.75 l -1.72852,-0.0312 -0.20117,-5.36719 a 0.50005,0.50005 0 0 0 -0.5586,-0.47851 l -3.72656,0.4375 -0.11523,-2.47461 a 0.50005,0.50005 0 0 0 -0.56055,-0.47266 l -9.83008,1.20117 a 0.50005,0.50005 0 0 0 -0.36328,0.23243 l -1.50976,2.42968 a 0.50005,0.50005 0 0 0 -0.041,0.082 l -1.58594,4.07227 -7.83398,-6.16992 6.79101,-7.33203 a 0.50005,0.50005 0 0 0 0.13282,-0.35547 l -0.69922,-20.0918 a 0.50005,0.50005 0 0 0 -0.57031,-0.47656 l -1.5879,0.22461 -0.11132,-2.21485 a 0.50005,0.50005 0 0 0 -0.45508,-0.47265 l -12.8711,-1.16016 a 0.50005,0.50005 0 0 0 -0.37304,0.12109 l -10.45117,9.16016 a 0.50005,0.50005 0 0 0 -0.0937,0.11133 L 113.5332,171.54102 111.73633,170 a 0.50005,0.50005 0 0 0 -0.52149,-0.0801 l -1.88867,0.80274 -0.84375,-0.30664 -4.58203,-4.48243 a 0.50005,0.50005 0 0 0 -0.082,-0.0645 l -2.02539,-1.29297 -0.93945,-15.1582 0.5039,-1.93164 11.43946,2.9082 a 0.50005,0.50005 0 0 0 0.60742,-0.35937 l 0.61914,-2.38868 a 0.50005,0.50005 0 0 0 0.006,-0.0215 l 4.94726,-23.10742 a 0.50005,0.50005 0 0 0 0.46485,-0.4043 l 1.75,-9.27734 2.57812,-12.54492 a 0.50005,0.50005 0 0 0 -0.37891,-0.5879 l -1.82226,-0.4121 z"
       id="Hampshire" />
    <path
       style="color:#000000;font-style:normal;font-variant:normal;font-weight:normal;font-stretch:normal;font-size:medium;line-height:normal;font-family:sans-serif;font-variant-ligatures:normal;font-variant-position:normal;font-variant-caps:normal;font-variant-numeric:normal;font-variant-alternates:normal;font-feature-settings:normal;text-indent:0;text-align:start;text-decoration:none;text-decoration-line:none;text-decoration-style:solid;text-decoration-color:#000000;letter-spacing:normal;word-spacing:normal;text-transform:none;writing-mode:lr-tb;direction:ltr;text-orientation:mixed;dominant-baseline:auto;baseline-shift:baseline;text-anchor:start;white-space:normal;shape-padding:0;clip-rule:nonzero;display:inline;overflow:visible;visibility:visible;opacity:1;isolation:auto;mix-blend-mode:normal;color-interpolation:sRGB;color-interpolation-filters:linearRGB;solid-color:#000000;solid-opacity:1;vector-effect:none;fill:#cccccc;fill-opacity:1;fill-rule:nonzero;stroke:none;stroke-width:1;stroke-linecap:butt;stroke-linejoin:miter;stroke-miterlimit:4;stroke-dasharray:none;stroke-dashoffset:0;stroke-opacity:1;color-rendering:auto;image-rendering:auto;shape-rendering:auto;text-rendering:auto;enable-background:accumulate"
       d="M 558.80273 137.3418 L 557.95312 138.22461 L 558.96289 139.8125 A 0.50005 0.50005 0 0 1 559.00781 140.25781 L 556.15625 147.70898 A 0.50005 0.50005 0 0 1 556.14258 147.74219 L 554.51367 151.22266 A 0.50005 0.50005 0 0 1 554.4082 151.36914 L 552.87109 152.85742 L 551.33789 155.65039 A 0.50005 0.50005 0 0 1 550.93555 155.9082 L 548.63477 156.06836 A 0.50005 0.50005 0 0 1 548.26758 155.94336 L 547.01953 154.83008 L 546.00781 156.89062 L 546.50977 157.00195 A 0.50005 0.50005 0 0 1 546.87695 157.33789 L 547.50586 159.30859 L 548.4082 159.49023 A 0.50005 0.50005 0 0 1 548.73828 160.24023 L 546.35742 164.16016 A 0.50005 0.50005 0 0 1 546.13672 164.35547 L 543.24609 165.66602 A 0.50005 0.50005 0 0 1 543.14062 165.69922 L 540.20117 166.31055 A 0.50005 0.50005 0 0 1 540.0293 166.31445 A 0.50005 0.50005 0 0 1 540.0957 166.50391 L 540.33594 168.32422 A 0.50005 0.50005 0 0 1 540.30273 168.57812 L 537.89258 174.52734 A 0.50005 0.50005 0 0 1 537.54297 174.82617 L 536.16211 175.14844 L 532.66211 181.12305 A 0.50005 0.50005 0 0 1 532.55664 181.25 L 529.91602 183.51953 A 0.50005 0.50005 0 0 1 529.24023 183.49805 L 526.76562 181.07617 L 524.07422 183.50391 L 521.57031 186.62891 L 522.95508 188.24414 L 524.5293 188.21094 A 0.50005 0.50005 0 0 1 525.03906 188.68945 L 525.12305 190.78906 L 528.27734 194.26172 L 529.30859 193.55664 A 0.50005 0.50005 0 0 1 529.84766 193.54102 L 531.10742 194.30273 A 0.50005 0.50005 0 0 1 531.34375 194.6543 L 532.2168 200.37891 L 534.35742 202.31836 L 535.58789 200.83008 L 534.95508 199.96484 A 0.50005 0.50005 0 0 1 535.07227 199.26172 L 538.5957 196.78516 L 538.14453 193.26367 A 0.50005 0.50005 0 0 1 538.72852 192.70703 L 540.20898 192.97266 L 543.17578 190.1582 A 0.50005 0.50005 0 0 1 543.49023 190.02148 L 548.88086 189.70117 A 0.50005 0.50005 0 0 1 549.33398 189.93555 L 549.69727 190.51758 L 551 189.55469 L 551.83594 187.75 A 0.50005 0.50005 0 0 1 552.51172 187.51172 L 553.17578 187.8418 L 554.93164 184.70703 L 553.71289 181.43359 L 552.51367 180.86133 A 0.50005 0.50005 0 0 1 552.25781 180.24414 L 552.86719 178.50391 A 0.50005 0.50005 0 0 1 553.25391 178.17773 L 554.65625 177.93359 L 555.26953 176.50195 L 553.17773 175.07227 A 0.50005 0.50005 0 0 1 553.17383 174.25 L 555.69531 172.5 A 0.50005 0.50005 0 0 1 555.89453 172.41797 L 559.41992 171.81055 L 561.63281 167.13867 L 562.11133 164.89648 A 0.50005 0.50005 0 0 1 562.60938 164.5 L 565.07812 164.55078 L 565.23438 163.48047 L 563.78125 163.75195 A 0.50005 0.50005 0 0 1 563.2832 163.55078 L 562.14258 161.94922 A 0.50005 0.50005 0 0 1 562.07031 161.52148 L 562.62891 159.58203 A 0.50005 0.50005 0 0 1 563.30664 159.25977 L 565.82812 160.33789 L 569.0332 159.35156 A 0.50005 0.50005 0 0 1 569.34961 159.35938 L 568.97266 158.37891 A 0.50005 0.50005 0 0 1 568.94141 158.24805 L 568.72266 155.96875 A 0.50005 0.50005 0 0 1 568.78516 155.67383 L 569.24414 154.86133 L 567.57617 154.7793 A 0.50005 0.50005 0 0 1 567.12695 154.44336 L 565.9668 151.09766 L 564.79297 149.66797 A 0.50005 0.50005 0 0 1 564.69141 149.24219 L 565.32227 146.37305 A 0.50005 0.50005 0 0 1 565.38086 146.22461 L 568.04102 141.76367 A 0.50005 0.50005 0 0 1 568.16016 141.62695 L 571.0625 139.3418 L 570.43164 138.97656 L 569.61719 139.14062 L 567.38281 142.39258 A 0.50005 0.50005 0 0 1 566.70898 142.53711 L 565.26562 141.65234 L 563.96484 142.60352 A 0.50005 0.50005 0 0 1 563.50781 142.67383 L 560.50781 141.64258 A 0.50005 0.50005 0 0 1 560.17383 141.22852 L 559.91797 139.07422 L 558.80273 137.3418 z M 569.65234 160.14844 L 569.33789 163.45703 L 569.77148 163.96484 L 570.05078 161.1875 L 569.65234 160.14844 z M 534.90625 160.24219 L 534.2793 161.20312 A 0.50005 0.50005 0 0 1 534.13672 161.34766 L 530.61523 163.67773 A 0.50005 0.50005 0 0 1 530.45117 163.74805 L 527.01172 164.53711 A 0.50005 0.50005 0 0 1 526.6582 164.48828 L 526.26953 164.27344 L 525.06445 166.51758 L 526.73047 169.32422 A 0.50005 0.50005 0 0 1 526.79883 169.625 L 526.65234 171.21875 L 528.33203 171.86914 L 532.93164 167.40039 A 0.50005 0.50005 0 0 1 533.00781 167.33984 L 535.7168 165.58008 A 0.50005 0.50005 0 0 1 536.06836 165.50586 L 538.80273 165.9375 L 537.16992 165.42773 A 0.50005 0.50005 0 0 1 536.82031 164.96484 L 536.72656 161.62305 L 534.90625 160.24219 z M 570.36328 164.66016 L 572.14648 166.75195 L 572.83789 166.30664 L 572.04883 165.15039 L 570.36328 164.66016 z M 571.42773 174.7168 L 570.83594 174.87891 L 570.29688 176.60938 A 0.50005 0.50005 0 0 1 570.125 176.85742 L 570.07617 176.89453 L 570.51172 176.83398 L 571.42773 174.7168 z M 561.71094 175.93555 L 560.27148 177.31055 L 560.64844 177.74023 L 561.71094 175.93555 z "
       transform="translate(-5,-5)"
       id="Suffolk"
       inkscape:label="#path4616" />
    <path
       style="color:#000000;font-style:normal;font-variant:normal;font-weight:normal;font-stretch:normal;font-size:medium;line-height:normal;font-family:sans-serif;font-variant-ligatures:normal;font-variant-position:normal;font-variant-caps:normal;font-variant-numeric:normal;font-variant-alternates:normal;font-feature-settings:normal;text-indent:0;text-align:start;text-decoration:none;text-decoration-line:none;text-decoration-style:solid;text-decoration-color:#000000;letter-spacing:normal;word-spacing:normal;text-transform:none;writing-mode:lr-tb;direction:ltr;text-orientation:mixed;dominant-baseline:auto;baseline-shift:baseline;text-anchor:start;white-space:normal;shape-padding:0;clip-rule:nonzero;display:inline;overflow:visible;visibility:visible;opacity:1;isolation:auto;mix-blend-mode:normal;color-interpolation:sRGB;color-interpolation-filters:linearRGB;solid-color:#000000;solid-opacity:1;vector-effect:none;fill:#cccccc;fill-opacity:1;fill-rule:nonzero;stroke:none;stroke-width:1;stroke-linecap:butt;stroke-linejoin:miter;stroke-miterlimit:4;stroke-dasharray:none;stroke-dashoffset:0;stroke-opacity:1;color-rendering:auto;image-rendering:auto;shape-rendering:auto;text-rendering:auto;enable-background:accumulate"
       d="M 587.96094 178.5625 L 586.69922 179.78906 A 0.50005 0.50005 0 0 1 586.24414 179.91797 L 583.76562 179.38281 L 581.46094 179.94336 L 583.1543 180.93359 L 584.32422 180.27344 A 0.50005 0.50005 0 0 1 584.72266 180.23438 L 588.41211 181.41406 A 0.50005 0.50005 0 0 1 588.75781 181.85156 L 588.87109 183.29297 L 590.76562 187.45312 A 0.50005 0.50005 0 0 1 590.36523 188.15625 L 589.46289 188.25781 L 589.81445 190.56445 L 591.33398 193.84961 A 0.50005 0.50005 0 0 1 591.37305 194.14648 L 590.97266 196.41602 A 0.50005 0.50005 0 0 1 590.77148 196.73633 L 589.50977 197.63672 A 0.50005 0.50005 0 0 1 588.85156 197.56836 L 586.46094 194.95703 A 0.50005 0.50005 0 0 1 586.33594 194.54102 L 586.5918 192.92188 L 583.87109 192.98047 A 0.50005 0.50005 0 0 1 583.375 192.60352 L 583.30273 192.32031 L 582.18359 192.45898 L 582.25 194.48438 A 0.50005 0.50005 0 0 1 581.87891 194.98242 L 578.89453 195.78125 L 579.11914 197.76758 L 581.03125 202.04297 L 582.62305 203.19531 A 0.50005 0.50005 0 0 1 582.82812 203.65234 L 580.7168 223.8418 A 0.50005 0.50005 0 0 1 580.45508 224.23047 L 563.66211 233.21094 L 563.64648 233.12109 A 0.50005 0.50005 0 0 1 563.38672 233.62109 L 546.30664 242.79883 L 553.30859 281.77344 L 561.86914 288.48633 A 0.50005 0.50005 0 0 1 561.95898 288.57812 L 565.33789 293.04883 A 0.50005 0.50005 0 0 1 565.43555 293.41797 L 565.1543 295.48438 L 565.88477 295.6875 A 0.50005 0.50005 0 0 1 566.21875 295.99805 L 567.28906 298.9082 A 0.50005 0.50005 0 0 1 567.30469 298.95703 L 569.61523 308.10742 A 0.50005 0.50005 0 0 1 569.62109 308.13867 L 570.41211 312.39844 A 0.50005 0.50005 0 0 1 570.24219 312.87109 L 565.33008 317.02734 L 556.67188 325.82031 L 561.25781 330.5 A 0.50005 0.50005 0 0 1 561.36133 331.04102 L 559.13672 336.41016 L 581.56836 332.7168 A 0.50005 0.50005 0 0 1 582.11523 333.02539 L 585.9043 342.54883 L 589.52539 341.92773 A 0.50005 0.50005 0 0 1 590.0918 342.28711 L 599.5625 376.73828 A 0.50005 0.50005 0 0 1 599.57812 376.81836 L 600.05273 381.41211 L 601.4375 382.32227 L 604.16211 381.48242 A 0.50005 0.50005 0 0 1 604.69336 381.64062 L 605.49023 382.59375 L 606.71094 382.26953 L 608.61719 380.50781 L 607.77344 378.1875 L 603.75977 375.97852 A 0.50005 0.50005 0 0 1 603.50977 375.44141 L 603.85938 373.69141 A 0.50005 0.50005 0 0 1 604.17188 373.32227 L 606.99023 372.24219 A 0.50005 0.50005 0 0 1 607.45898 372.30273 L 610.26953 374.29688 L 610.95898 373.80273 A 0.50005 0.50005 0 0 1 611.36133 373.72266 L 614.52148 374.44336 A 0.50005 0.50005 0 0 1 614.83984 374.67578 L 616.02539 376.68555 L 617.15234 374.11914 A 0.50005 0.50005 0 0 1 617.58008 373.82031 L 618.31445 373.77734 L 618.34961 370.18555 L 616.79102 367.35156 A 0.50005 0.50005 0 0 1 616.88867 366.74414 L 618.09961 365.61523 A 0.50005 0.50005 0 0 1 618.44922 365.48047 L 619.80273 365.50586 L 618.60742 362.0332 A 0.50005 0.50005 0 0 1 618.87305 361.41406 L 621.32422 360.30469 A 0.50005 0.50005 0 0 1 621.96094 360.50781 L 622.96289 362.21289 L 625.11133 363.2168 A 0.50005 0.50005 0 0 1 625.27148 363.33398 L 626.91992 365.16016 L 627.45508 365.20703 L 626.9043 363.23438 L 624.86523 359.64648 A 0.50005 0.50005 0 0 1 625.33008 358.90039 L 627.89648 359.05664 L 628.16602 358.16016 L 626.32812 356.61328 A 0.50005 0.50005 0 0 1 626.21289 356.47266 L 624.57422 353.5332 A 0.50005 0.50005 0 0 1 624.68945 352.90625 L 626.01953 351.79492 L 625.08398 350.6582 A 0.50005 0.50005 0 0 1 625.23242 349.90039 L 626.92383 348.99023 A 0.50005 0.50005 0 0 1 627.44727 349.02148 L 630.13867 350.91211 L 632.00781 350.83008 A 0.50005 0.50005 0 0 1 632.34766 350.94336 L 634.0625 352.35547 L 635.77539 351.39453 A 0.50005 0.50005 0 0 1 636.36719 351.4707 L 639.73828 354.73242 L 641.42188 355.51758 A 0.50005 0.50005 0 0 1 641.61914 356.25781 L 641.18945 356.86523 L 643.67969 354.42188 L 644.43555 351.4375 A 0.50005 0.50005 0 0 1 644.54688 351.22852 L 645.92383 349.67773 L 645.89062 348.65625 A 0.50005 0.50005 0 0 1 645.98438 348.34766 L 648.23047 345.23438 L 645.91211 341.38867 A 0.50005 0.50005 0 0 1 646.09961 340.69141 L 652.46094 337.2207 A 0.50005 0.50005 0 0 1 652.49805 337.20312 L 660.97266 333.45898 L 666.85938 326.52539 L 666.1875 325.37109 A 0.50005 0.50005 0 0 1 666.12891 325.2168 L 665.61914 322.62695 A 0.50005 0.50005 0 0 1 665.61328 322.47461 L 665.84375 320.43359 A 0.50005 0.50005 0 0 1 666.02734 320.09961 L 667.21289 319.14648 L 667.95898 317.49023 L 669.39258 312.31445 L 668.36328 310.48438 A 0.50005 0.50005 0 0 1 668.30078 310.26953 L 667.87891 303.20312 L 664.79297 298.09961 A 0.50005 0.50005 0 0 1 664.7207 297.86328 L 664.58984 294.99219 A 0.50005 0.50005 0 0 1 664.81055 294.55664 L 666.2207 293.60156 L 665.26562 292.50977 L 660.4043 289.63086 A 0.50005 0.50005 0 0 1 660.19922 289.39453 L 659.83398 288.53125 L 656.55078 285.67188 L 653.71484 286.28906 L 651.58594 288.33008 A 0.50005 0.50005 0 0 1 651.2832 288.46875 L 649.43359 288.62891 A 0.50005 0.50005 0 0 1 649.14258 288.56445 L 647.5625 287.66406 A 0.50005 0.50005 0 0 1 647.38672 287.49609 L 646.23047 285.66016 A 0.50005 0.50005 0 0 1 645.70117 286.1582 L 642.58203 285.97852 A 0.50005 0.50005 0 0 1 642.33789 285.90039 L 640.89844 284.9707 A 0.50005 0.50005 0 0 1 640.79688 284.88281 L 635.5957 279.02148 A 0.50005 0.50005 0 0 1 635.53906 278.94531 L 634.3125 276.875 L 632.56836 276.50977 A 0.50005 0.50005 0 0 1 632.32617 276.38281 L 630.52539 274.67188 A 0.50005 0.50005 0 0 1 630.37109 274.34961 L 630.14258 271.41016 L 628.29883 271.10352 A 0.50005 0.50005 0 0 1 627.89062 270.71484 L 627.38086 268.32422 A 0.50005 0.50005 0 0 1 627.65234 267.76953 L 631.28125 266.00977 A 0.50005 0.50005 0 0 1 631.53906 265.96094 L 633.54883 266.12109 A 0.50005 0.50005 0 0 1 633.89258 266.29883 L 635.46094 268.17188 L 636.70898 267.67188 L 637.26367 266.66602 L 636.37891 264.17773 A 0.50005 0.50005 0 0 1 636.35156 263.96094 L 636.82227 259.25977 A 0.50005 0.50005 0 0 1 636.94922 258.97461 L 638.04883 257.75586 A 0.50005 0.50005 0 0 1 638.3418 257.5957 L 640.01758 257.33398 L 641.03906 256.20508 A 0.50005 0.50005 0 0 1 641.44141 256.04102 L 642.89062 256.13086 A 0.50005 0.50005 0 0 1 643.23047 256.29492 L 642.67773 255.42773 A 0.50005 0.50005 0 0 1 642.61133 255.26758 L 641.45117 250.00781 A 0.50005 0.50005 0 0 1 641.44141 249.86523 L 641.60156 247.50586 A 0.50005 0.50005 0 0 1 641.78711 247.15039 L 643.51367 245.75781 L 643.19531 244.08203 L 637.95117 238.35742 A 0.50005 0.50005 0 0 1 637.90234 238.29492 L 633.08203 230.96484 A 0.50005 0.50005 0 0 1 633.05859 230.92383 L 628.35742 222.04883 L 626.61914 220.4375 A 0.50005 0.50005 0 0 1 626.46094 220.0957 L 626.34375 217.8418 L 625.4707 215.45117 A 0.50005 0.50005 0 0 1 625.45117 215.17969 L 626.58203 209.69922 L 623.02148 207.95898 A 0.50005 0.50005 0 0 1 622.83984 207.81055 L 621 205.36133 L 619.3418 204.77148 A 0.50005 0.50005 0 0 1 619.10742 204.59766 L 616.20703 200.66602 A 0.50005 0.50005 0 0 1 616.11133 200.4082 L 615.98633 198.75586 L 615.22266 198.05859 A 0.50005 0.50005 0 0 1 615.07227 197.57812 L 615.45703 195.89844 L 614.91992 195.0293 L 613.72852 195.15039 L 612.27539 196.61133 L 611.2207 199.19336 L 610.70703 204.13086 A 0.50005 0.50005 0 0 1 610.52148 204.4707 L 602.17188 211.12109 A 0.50005 0.50005 0 0 1 601.47852 211.05273 L 598.38867 207.39258 A 0.50005 0.50005 0 0 1 598.29883 207.24023 L 595.44922 199.34961 A 0.50005 0.50005 0 0 1 595.72461 198.71875 L 597.55859 197.94531 L 596.53711 197.2793 A 0.50005 0.50005 0 0 1 596.32617 196.73633 L 597.32617 192.81641 A 0.50005 0.50005 0 0 1 597.52539 192.5293 L 599.35938 191.25977 L 596.33594 191.10938 A 0.50005 0.50005 0 0 1 596.01562 190.97266 L 593.625 188.69141 A 0.50005 0.50005 0 0 1 593.5625 188.61914 L 591.52148 185.73828 A 0.50005 0.50005 0 0 1 591.48633 185.68164 L 589.15625 181.21094 A 0.50005 0.50005 0 0 1 589.10352 181.03906 L 588.81445 178.57422 L 587.96094 178.5625 z M 578.08984 181.39062 L 578.03906 182.33594 A 0.50005 0.50005 0 0 1 577.99805 182.50977 L 578.72852 181.67383 L 578.08984 181.39062 z M 577.68555 182.86914 L 576.58008 183.95703 A 0.50005 0.50005 0 0 1 576.40234 184.07031 L 575.45898 184.41406 L 576.83984 185.05273 L 577.15039 183.57617 A 0.50005 0.50005 0 0 1 577.26367 183.35156 L 577.68555 182.86914 z M 646.79492 261.28906 L 649.26758 264.75977 A 0.50005 0.50005 0 0 1 649.32031 264.85352 L 650.12891 266.74219 A 0.50005 0.50005 0 0 1 649.99414 267.32031 L 648.71484 268.4082 L 649.4375 267.88477 A 0.50005 0.50005 0 0 1 649.95898 267.8457 L 652.22461 269.01953 L 652.57812 268.77734 L 650.00586 265.89258 A 0.50005 0.50005 0 0 1 649.95508 265.82422 L 647.87891 262.49219 L 646.79492 261.28906 z M 644.30859 269.44727 L 644.625 271.72266 L 645.57227 271.89258 L 647.18945 269.70312 L 646.54297 270.25195 A 0.50005 0.50005 0 0 1 645.99023 270.31445 L 644.30859 269.44727 z M 641.61523 276.58008 L 641.39648 276.91797 L 642.50977 278.30664 A 0.50005 0.50005 0 0 1 642.56445 278.39258 L 644.25391 281.68359 L 642.68164 278.17188 L 641.61523 276.58008 z "
       transform="translate(-5,-5)"
       id="Plymouth"
       inkscape:label="#path4525" />
    <path
       style="color:#000000;font-style:normal;font-variant:normal;font-weight:normal;font-stretch:normal;font-size:medium;line-height:normal;font-family:sans-serif;font-variant-ligatures:normal;font-variant-position:normal;font-variant-caps:normal;font-variant-numeric:normal;font-variant-alternates:normal;font-feature-settings:normal;text-indent:0;text-align:start;text-decoration:none;text-decoration-line:none;text-decoration-style:solid;text-decoration-color:#000000;letter-spacing:normal;word-spacing:normal;text-transform:none;writing-mode:lr-tb;direction:ltr;text-orientation:mixed;dominant-baseline:auto;baseline-shift:baseline;text-anchor:start;white-space:normal;shape-padding:0;clip-rule:nonzero;display:inline;overflow:visible;visibility:visible;opacity:1;isolation:auto;mix-blend-mode:normal;color-interpolation:sRGB;color-interpolation-filters:linearRGB;solid-color:#000000;solid-opacity:1;vector-effect:none;fill:#cccccc;fill-opacity:1;fill-rule:nonzero;stroke:none;stroke-width:1;stroke-linecap:butt;stroke-linejoin:miter;stroke-miterlimit:4;stroke-dasharray:none;stroke-dashoffset:0;stroke-opacity:1;color-rendering:auto;image-rendering:auto;shape-rendering:auto;text-rendering:auto;enable-background:accumulate"
       d="m 275.70312,50.484375 34.2754,1.435547 31.49804,1.5 a 0.50005,0.50005 0 0 0 0.006,0 l 17.77539,0.634766 0.28711,1.890624 a 0.50005,0.50005 0 0 0 0.14063,0.277344 l 8.51172,8.511719 0.26171,1.976563 -0.49804,10.054687 a 0.50005,0.50005 0 0 0 0.6875,0.486328 l 2.91211,-1.189453 15.21484,0.447266 a 0.50005,0.50005 0 0 0 0.51367,-0.517578 L 387.23633,74.5 l 23.40625,9.378906 -2.88867,21.173824 a 0.50005,0.50005 0 0 0 -0.002,0.0156 l -0.27929,2.67969 a 0.50005,0.50005 0 0 0 0.39648,0.54101 l 9.51172,1.94141 a 0.50005,0.50005 0 0 0 0.57031,-0.65625 l -0.67773,-1.9336 0.66797,-2.46874 1.54101,-2.2461 1.50977,-1.07031 2.37695,1.89453 a 0.50005,0.50005 0 0 0 0.20898,0.0996 l 2.91016,0.60937 a 0.50005,0.50005 0 0 0 0.37891,-0.0742 l 2.98828,-1.9961 8.65039,2.10547 1.52344,6.32617 -0.70118,1.93555 -5.63867,11.61523 a 0.50005,0.50005 0 0 0 0.1836,0.64063 l 3.45507,2.18555 -3.34179,15.63281 -5.48633,1.36523 a 0.50005,0.50005 0 0 0 -0.1582,0.0684 l -4.19922,2.80078 a 0.50005,0.50005 0 0 0 0.0195,0.84375 l 4.72461,2.83789 -5.57617,4.61914 a 0.50005,0.50005 0 0 0 0.01,0.77735 l 0.71485,0.5625 -1.28711,2.4668 -3.40039,2.21874 a 0.50005,0.50005 0 0 0 -0.1211,0.72852 l 1.66992,2.12891 a 0.50005,0.50005 0 0 0 0.1504,0.1289 l 2.84374,1.57617 -0.21679,1.64258 a 0.50005,0.50005 0 0 0 0.0742,0.33399 l 1.74023,2.72851 a 0.50005,0.50005 0 0 0 0.0488,0.0645 l 2.68945,3.00976 a 0.50005,0.50005 0 0 0 0.68164,0.0606 l 3.53321,-2.77149 3.86132,-1.74804 7.46094,-1.13867 1.71485,0.66992 a 0.50005,0.50005 0 0 0 0.25195,0.0293 l 4.27148,-0.61132 0.27539,1.56836 -0.17187,3.43359 -4.39258,11.35547 a 0.50005,0.50005 0 0 0 -0.0332,0.1543 l -0.0879,1.75585 -0.92383,-0.55859 a 0.50005,0.50005 0 0 0 -0.3125,-0.0684 l -4.07813,0.43945 a 0.50005,0.50005 0 0 0 -0.20703,0.0703 l -1.41211,0.85742 -3.52343,-1.49024 a 0.50005,0.50005 0 0 0 -0.29688,-0.0293 l -1.76953,0.36914 a 0.50005,0.50005 0 0 0 -0.10156,0.0332 l -4.92969,2.18945 a 0.50005,0.50005 0 0 0 -0.2793,0.32422 l -3.43945,12.36914 a 0.50005,0.50005 0 0 0 0.0586,0.40235 l 4.28125,6.74023 a 0.50005,0.50005 0 0 0 0.25196,0.20117 l 2.36132,0.84961 a 0.50005,0.50005 0 0 0 0.15625,0.0312 l 2.98829,0.0684 0.19531,2.51953 a 0.50005,0.50005 0 0 0 0.75195,0.39258 l 3.52539,-2.07617 7.04492,0.23438 a 0.50005,0.50005 0 0 0 0.32422,-0.10547 l 0.28125,-0.21875 1.03711,6.5625 a 0.50005,0.50005 0 0 0 0.4668,0.42187 l 3.81445,0.20508 -0.0176,2.23047 -0.0781,7.36328 -4.91797,4.24219 a 0.50005,0.50005 0 0 0 -0.16406,0.28515 l -0.3711,1.91016 a 0.50005,0.50005 0 0 0 0.0547,0.33789 l 1.62305,2.91797 -0.5625,1.72266 a 0.50005,0.50005 0 0 0 -0.0234,0.15429 l -0.0293,22.3086 -6.0625,0.61328 -10.96093,0.25976 a 0.50005,0.50005 0 0 0 -0.002,0 l -42.09961,1.22071 a 0.50005,0.50005 0 0 0 -0.0176,0 l -6.9004,0.44726 -0.25976,-4.1289 a 0.50005,0.50005 0 0 0 -0.49024,-0.46876 l -20.05468,-0.32031 -21.48242,-0.86914 a 0.50005,0.50005 0 0 0 -0.0137,-0.002 l -16.93945,-0.23828 -15.58008,-0.95117 0.26172,-17.5625 a 0.50005,0.50005 0 0 0 0,-0.004 l 0.17969,-21.25 a 0.50005,0.50005 0 0 0 -0.57813,-0.49609 l -13.78711,2.21679 -0.20703,-1.74414 a 0.50005,0.50005 0 0 0 -0.27734,-0.38867 l -13.73047,-6.72852 -0.11719,-3.48046 0.38867,-1.56641 9.28126,-12.59961 a 0.50005,0.50005 0 0 0 0.006,-0.006 l 0.51172,-0.7207 1.34571,0.34375 a 0.50005,0.50005 0 0 0 0.625,-0.50782 l -0.1211,-2.52929 a 0.50005,0.50005 0 0 0 -0.42773,-0.47071 l -0.71289,-0.10351 -0.23438,-3.17969 0.48047,0.0547 a 0.50005,0.50005 0 0 0 0.55469,-0.4707 l 0.1914,-3.6836 1.86524,-2.40625 a 0.50005,0.50005 0 0 0 -0.13867,-0.73437 l -1.47071,-0.88672 -0.35937,-1.79492 0.45703,-2.86133 a 0.50005,0.50005 0 0 0 -0.59375,-0.56836 l -11.25391,2.30664 -2.39648,0.3125 -1.91406,-14.46484 a 0.50005,0.50005 0 0 0 -0.51563,-0.43555 l -1.58008,0.0605 a 0.50005,0.50005 0 0 0 -0.25,0.0781 l -2.6914,1.7168 -1.5,0.38672 0.33398,-1.875 a 0.50005,0.50005 0 0 0 -0.004,-0.18946 l -0.29883,-1.42578 0.6875,-1.80273 a 0.50005,0.50005 0 0 0 -0.0606,-0.47071 l -0.96289,-1.33984 0.71094,-1.8164 a 0.50005,0.50005 0 0 0 0.0117,-0.33204 l -0.45118,-1.4375 0.39454,-1.96289 a 0.50005,0.50005 0 0 0 0.008,-0.14648 l -0.29102,-3.05078 1.86719,-6.09571 2.61133,-2.78515 a 0.50005,0.50005 0 0 0 0.0449,-0.0547 l 2.31055,-3.31055 a 0.50005,0.50005 0 0 0 0.084,-0.35742 l -1.63281,-11.21875 10.15625,-9.86133 a 0.50005,0.50005 0 0 0 0.0273,-0.68945 l -5.19531,-5.90039 -0.89258,-8.083984 a 0.50005,0.50005 0 0 0 -0.01,-0.05664 l -0.63672,-2.767578 0.043,-1.449219 2.77734,0.384766 a 0.50005,0.50005 0 0 0 0.5625,-0.574219 l -1.08008,-6.755859 0.39453,0.06641 a 0.50005,0.50005 0 0 0 0.38672,-0.0957 l 1.95899,-1.509766 a 0.50005,0.50005 0 0 0 0.18945,-0.476562 L 281.625,83.28875 286.14453,82.695 a 0.50005,0.50005 0 0 0 0.22852,-0.08984 l 0.92968,-0.669922 a 0.50005,0.50005 0 0 0 0.20704,-0.402344 l 0.0195,-3.027344 0.65234,-3.667968 a 0.50005,0.50005 0 0 0 0.004,-0.154297 l -0.93946,-7.09961 a 0.50005,0.50005 0 0 0 -0.54882,-0.43164 l -2.29297,0.240234 -0.22852,-1.794922 a 0.50005,0.50005 0 0 0 -0.55469,-0.433594 l -2.55078,0.300782 -0.19336,-1.730469 a 0.50005,0.50005 0 0 0 -0.52929,-0.443359 l -2.49805,0.160156 z"
       id="Worcester" />
    <path
       style="color:#000000;font-style:normal;font-variant:normal;font-weight:normal;font-stretch:normal;font-size:medium;line-height:normal;font-family:sans-serif;font-variant-ligatures:normal;font-variant-position:normal;font-variant-caps:normal;font-variant-numeric:normal;font-variant-alternates:normal;font-feature-settings:normal;text-indent:0;text-align:start;text-decoration:none;text-decoration-line:none;text-decoration-style:solid;text-decoration-color:#000000;letter-spacing:normal;word-spacing:normal;text-transform:none;writing-mode:lr-tb;direction:ltr;text-orientation:mixed;dominant-baseline:auto;baseline-shift:baseline;text-anchor:start;white-space:normal;shape-padding:0;clip-rule:nonzero;display:inline;overflow:visible;visibility:visible;opacity:1;isolation:auto;mix-blend-mode:normal;color-interpolation:sRGB;color-interpolation-filters:linearRGB;solid-color:#000000;solid-opacity:1;vector-effect:none;fill:#cccccc;fill-opacity:1;fill-rule:nonzero;stroke:none;stroke-width:1;stroke-linecap:butt;stroke-linejoin:miter;stroke-miterlimit:4;stroke-dasharray:none;stroke-dashoffset:0;stroke-opacity:1;color-rendering:auto;image-rendering:auto;shape-rendering:auto;text-rendering:auto;enable-background:accumulate"
       d="M 580.99414 6.5 L 577.63867 7.0957031 L 569.9082 11.757812 A 0.50005 0.50005 0 0 1 569.75586 11.818359 L 555.71875 14.835938 L 552.99609 17.746094 L 551.05273 22.335938 L 548.77148 30.328125 A 0.50005 0.50005 0 0 1 548.14844 30.669922 L 533.29102 26.283203 L 529.71289 27.972656 L 526.31836 29.957031 L 522.02148 35.136719 L 523.00977 50.798828 A 0.50005 0.50005 0 0 1 522.37109 51.310547 L 513.23242 48.658203 L 508.72461 49.835938 L 506.90625 51.353516 L 510.60156 70.736328 A 0.50005 0.50005 0 0 1 510.58203 70.996094 L 509.69141 73.515625 A 0.50005 0.50005 0 0 1 509.44922 73.792969 L 507.20312 74.957031 L 525.13086 86.560547 A 0.50005 0.50005 0 0 1 525.24023 87.304688 L 523.4668 89.373047 L 526.14258 91.638672 L 527.28125 87.894531 A 0.50005 0.50005 0 0 1 527.74414 87.541016 L 529.94336 87.470703 A 0.50005 0.50005 0 0 1 530.41602 87.767578 L 531.58008 90.382812 L 533.04688 91.626953 L 545.88672 90.095703 L 549.57031 89.427734 A 0.50005 0.50005 0 0 1 550.0293 89.583984 L 555.66016 95.773438 A 0.50005 0.50005 0 0 1 555.75781 95.935547 L 557.0293 99.345703 A 0.50005 0.50005 0 0 1 556.85547 99.923828 L 555.28516 101.07422 A 0.50005 0.50005 0 0 1 554.69922 101.07617 L 553.58203 100.27539 L 552.01562 100.9043 A 0.50005 0.50005 0 0 1 551.59961 100.88477 L 550.41797 100.27148 L 548.95117 103.3457 A 0.50005 0.50005 0 0 1 548.9082 103.41992 L 547.65234 105.18555 L 546.8125 112.26562 L 548.20703 113.83398 L 550.17188 113.95703 L 553.75391 113.32812 A 0.50005 0.50005 0 0 1 554.33789 113.76953 L 554.67969 117.18945 L 555.67773 119.4375 A 0.50005 0.50005 0 0 1 555.54492 120.01953 L 553.9043 121.42578 L 554.56836 122.62891 A 0.50005 0.50005 0 0 1 554.57031 123.10547 L 553.41016 125.27539 A 0.50005 0.50005 0 0 1 553.18945 125.49023 L 551.79297 126.16992 L 551.51758 128.45703 L 557.39258 137.36133 L 558.51953 136.19336 A 0.50005 0.50005 0 0 1 559.30078 136.26953 L 560.82031 138.62891 A 0.50005 0.50005 0 0 1 560.89648 138.8418 L 561.12891 140.79883 L 563.58594 141.64258 L 564.94531 140.64648 A 0.50005 0.50005 0 0 1 565.50195 140.62305 L 566.82617 141.43555 L 568.9082 138.40625 A 0.50005 0.50005 0 0 1 569.22266 138.19922 L 570.28711 137.98633 L 575.125 133.60938 A 0.50005 0.50005 0 0 1 575.83008 133.64258 L 576.81836 134.72656 L 576.88281 134.05273 A 0.50005 0.50005 0 0 1 577.13281 133.66602 L 578.63867 132.80859 L 579.83594 131.15625 A 0.50005 0.50005 0 0 1 580.22656 130.94922 L 583.29688 130.87109 A 0.50005 0.50005 0 0 1 583.56055 130.9375 L 586.32812 132.53906 L 587.43555 131.67578 L 587.58203 130.29688 A 0.50005 0.50005 0 0 1 587.64648 130.10156 L 589.12695 127.52148 A 0.50005 0.50005 0 0 1 589.26758 127.36523 L 594.07812 123.89453 A 0.50005 0.50005 0 0 1 594.28906 123.80664 L 596.24219 123.48242 A 0.50005 0.50005 0 0 1 596.21289 123.43555 L 595.26367 121.55469 A 0.50005 0.50005 0 0 1 595.31641 121.02148 L 597.17969 118.64062 L 596.58203 116.51758 L 594.47656 115.54297 L 593.29688 116.22461 L 591.03516 120.20703 A 0.50005 0.50005 0 0 1 590.40625 120.42188 L 587.82617 119.3418 A 0.50005 0.50005 0 0 1 587.52344 118.81836 L 587.77344 116.81836 A 0.50005 0.50005 0 0 1 587.85547 116.60156 L 589.51562 114.13086 A 0.50005 0.50005 0 0 1 589.74609 113.94531 L 591.98047 113.0625 L 592.31641 111.57031 L 591.99023 111.19922 L 589.83398 112.27734 A 0.50005 0.50005 0 0 1 589.25586 112.18359 L 588.44727 111.37305 A 0.50005 0.50005 0 0 1 588.36523 110.77344 L 589.97461 107.93359 A 0.50005 0.50005 0 0 1 590.10547 107.7832 L 591.67383 106.57422 A 0.50005 0.50005 0 0 1 592.26367 106.55859 L 593.56836 107.46094 L 594.53516 106.78906 A 0.50005 0.50005 0 0 1 594.69141 106.7168 L 598.67188 105.65625 A 0.50005 0.50005 0 0 1 598.77148 105.64062 L 601.72461 105.4668 L 603.31055 104.71875 L 605.72461 102.53906 A 0.50005 0.50005 0 0 1 605.86719 102.44922 L 607.99805 101.55859 A 0.50005 0.50005 0 0 1 608.37695 101.55664 L 611.97852 103.00586 L 614.63477 102.375 L 615.92773 99.935547 A 0.50005 0.50005 0 0 1 616.20312 99.699219 L 619.97461 98.369141 A 0.50005 0.50005 0 0 1 620.33203 98.378906 L 622.53906 99.300781 L 626.4043 98.974609 L 626.74609 98.318359 A 0.50005 0.50005 0 0 1 627.06055 98.066406 L 628.98438 97.548828 L 630.10156 95.683594 A 0.50005 0.50005 0 0 1 630.30859 95.492188 L 631.26367 95.019531 L 632.53125 93.205078 L 632.03516 92.701172 A 0.50005 0.50005 0 0 1 631.99805 92.039062 L 633.5918 90.027344 L 633.54102 88.964844 A 0.50005 0.50005 0 0 1 633.93945 88.449219 L 636.40039 87.949219 A 0.50005 0.50005 0 0 1 636.87305 88.107422 L 638.35352 89.767578 A 0.50005 0.50005 0 0 1 638.46094 89.964844 L 638.90039 91.523438 A 0.50005 0.50005 0 0 1 638.875 91.867188 L 636.99609 95.970703 L 637.09766 96.392578 L 638.65234 96.003906 L 640.41602 93.185547 A 0.50005 0.50005 0 0 1 640.47461 93.107422 L 642.67773 90.761719 L 643.33008 88.664062 L 643.33008 86.070312 A 0.50005 0.50005 0 0 1 643.5332 85.667969 L 645.95117 83.882812 L 646.3457 82.373047 A 0.50005 0.50005 0 0 1 646.55078 82.085938 L 649.35938 80.185547 A 0.50005 0.50005 0 0 1 649.62891 80.099609 L 651.64062 80.052734 L 651.46289 78.146484 A 0.50005 0.50005 0 0 1 651.5 77.902344 L 652.04102 76.650391 L 651.14648 75.929688 A 0.50005 0.50005 0 0 1 650.96484 75.476562 L 651.20703 73.603516 L 649.73633 73.890625 A 0.50005 0.50005 0 0 1 649.57422 73.896484 L 645.70312 73.375 A 0.50005 0.50005 0 0 1 645.27148 72.835938 L 645.68555 68.177734 L 645.125 65.339844 L 643.97656 64.039062 L 642.65625 64.873047 A 0.50005 0.50005 0 0 1 642.375 64.949219 L 640.95312 64.90625 L 637.15039 68.275391 L 636.50391 69.679688 A 0.50005 0.50005 0 0 1 636.28711 69.910156 L 634.85352 70.679688 L 631.07227 74.884766 A 0.50005 0.50005 0 0 1 630.59375 75.039062 L 627.37305 74.337891 A 0.50005 0.50005 0 0 1 627.26953 74.304688 L 622.40039 72.054688 A 0.50005 0.50005 0 0 1 622.14648 71.789062 L 621.73242 70.775391 L 618.57812 67.439453 L 616.93164 66.632812 L 614.42969 66.275391 A 0.50005 0.50005 0 0 1 614.22852 66.201172 L 611.65039 64.541016 A 0.50005 0.50005 0 0 1 611.41992 64.113281 L 611.46094 61.302734 A 0.50005 0.50005 0 0 1 611.59375 60.970703 L 612.57617 59.912109 L 612.23242 58.353516 L 607.62109 47.667969 A 0.50005 0.50005 0 0 1 607.59766 47.601562 L 604.79688 37.259766 A 0.50005 0.50005 0 0 1 604.78125 37.169922 L 603.97852 27.34375 L 603.07422 25.052734 A 0.50005 0.50005 0 0 1 603.04492 24.941406 L 601.86523 16.660156 A 0.50005 0.50005 0 0 1 601.85938 16.585938 L 601.9043 10.818359 L 599.66602 11.603516 L 595.8125 13.984375 A 0.50005 0.50005 0 0 1 595.24414 13.955078 L 587.03516 7.5996094 L 583.5332 6.5 L 580.99414 6.5 z M 598.98242 121.18945 L 597.04492 123.5293 A 0.50005 0.50005 0 0 1 597.01562 123.56055 L 597.99609 124.43945 L 598.71484 123.92578 L 598.98242 121.18945 z M 577.81055 141.99219 A 0.50005 0.50005 0 0 1 577.81055 142 L 577.68359 145.19531 L 580.57227 143.875 A 0.50005 0.50005 0 0 1 581.13867 143.98242 L 582.88281 145.78711 L 583.75 145.26367 L 582 143.53516 L 579.69336 142.86914 L 579.0957 143.20508 A 0.50005 0.50005 0 0 1 578.41992 143.02344 L 577.81055 141.99219 z "
       transform="translate(-5,-5)"
       id="Essex"
       inkscape:label="#path4536" />
    <path
       style="color:#000000;font-style:normal;font-variant:normal;font-weight:normal;font-stretch:normal;font-size:medium;line-height:normal;font-family:sans-serif;font-variant-ligatures:normal;font-variant-position:normal;font-variant-caps:normal;font-variant-numeric:normal;font-variant-alternates:normal;font-feature-settings:normal;text-indent:0;text-align:start;text-decoration:none;text-decoration-line:none;text-decoration-style:solid;text-decoration-color:#000000;letter-spacing:normal;word-spacing:normal;text-transform:none;writing-mode:lr-tb;direction:ltr;text-orientation:mixed;dominant-baseline:auto;baseline-shift:baseline;text-anchor:start;white-space:normal;shape-padding:0;clip-rule:nonzero;display:inline;overflow:visible;visibility:visible;opacity:1;isolation:auto;mix-blend-mode:normal;color-interpolation:sRGB;color-interpolation-filters:linearRGB;solid-color:#000000;solid-opacity:1;vector-effect:none;fill:#cccccc;fill-opacity:1;fill-rule:nonzero;stroke:none;stroke-width:1;stroke-linecap:butt;stroke-linejoin:miter;stroke-miterlimit:4;stroke-dasharray:none;stroke-dashoffset:0;stroke-opacity:1;color-rendering:auto;image-rendering:auto;shape-rendering:auto;text-rendering:auto;enable-background:accumulate"
       d="M 743.9043 244.96094 L 740.09375 245.14648 L 736.07031 246.16406 L 733.50195 247.80469 L 732.20312 250.06836 L 735.62305 252.67188 A 0.50005 0.50005 0 0 1 735.68555 252.72852 L 737.92578 255.11719 A 0.50005 0.50005 0 0 1 738.00586 255.23242 L 740.04688 259.23633 L 742.48438 257.84961 L 744.16797 253.7793 A 0.50005 0.50005 0 0 1 744.2793 253.61523 L 746.10742 251.80469 A 0.50005 0.50005 0 0 1 746.22461 251.71875 L 748.14453 250.69922 A 0.50005 0.50005 0 0 1 748.25 250.65625 L 751.43164 249.80664 A 0.50005 0.50005 0 0 1 751.69336 249.80859 L 753.21289 250.22852 A 0.50005 0.50005 0 0 1 753.29102 250.25781 L 759.02148 252.9375 A 0.50005 0.50005 0 0 1 759.0957 252.97852 L 762.47461 255.33008 A 0.50005 0.50005 0 0 1 762.56445 255.4082 L 765.38281 258.57812 A 0.50005 0.50005 0 0 1 765.44141 258.65625 L 766.82031 261.00586 A 0.50005 0.50005 0 0 1 766.86133 261.0918 L 768.2207 264.91211 A 0.50005 0.50005 0 0 1 768.24023 264.98438 L 769.78125 272.88477 A 0.50005 0.50005 0 0 1 769.78906 272.9707 L 770.03711 285.43945 L 770.73047 286.72266 A 0.50005 0.50005 0 0 1 770.78906 286.94141 L 771.18359 298.07227 L 771.82227 298.07617 L 771.7793 294.99609 A 0.50005 0.50005 0 0 1 771.90625 294.6582 L 773.18359 293.22266 L 772.64453 291.59766 A 0.50005 0.50005 0 0 1 772.78125 291.07227 L 774.24023 289.72266 A 0.50005 0.50005 0 0 1 774.43555 289.61133 L 776.64453 288.94141 A 0.50005 0.50005 0 0 1 776.80859 288.91992 L 780.73828 289.07031 A 0.50005 0.50005 0 0 1 781.18555 289.75391 L 780.22461 292.19336 L 781.58594 294.4668 L 784.22852 296.0625 A 0.50005 0.50005 0 0 1 784.4707 296.5 L 784.43945 297.91992 A 0.50005 0.50005 0 0 1 784.04102 298.40039 L 782.57227 298.70312 L 782.20703 299.33984 L 783.13477 300.33789 L 786.42383 300.62109 A 0.50005 0.50005 0 0 1 786.80273 300.85352 L 787.43359 301.85352 A 0.50005 0.50005 0 0 1 787.43555 302.38281 L 785.60547 305.35742 L 786.79688 316.45703 A 0.50005 0.50005 0 0 1 786.79883 316.49414 L 787.09961 325.54297 A 0.50005 0.50005 0 0 1 787.06055 325.75586 L 786.07031 328.07617 A 0.50005 0.50005 0 0 1 785.98633 328.20898 L 782.42578 332.28906 A 0.50005 0.50005 0 0 1 782.27734 332.4043 L 773.50781 336.88477 A 0.50005 0.50005 0 0 1 773.2832 336.93945 L 771.58398 336.94922 L 769.35156 338.11328 A 0.50005 0.50005 0 0 1 769.24805 338.15234 L 766.38086 338.91406 L 760.65234 341.30078 A 0.50005 0.50005 0 0 1 760.42578 341.33789 L 756.19336 341.04883 L 754.45703 341.93555 A 0.50005 0.50005 0 0 1 754.35938 341.97266 L 746.81055 344.00195 A 0.50005 0.50005 0 0 1 746.52344 343.99414 L 745.49219 343.65625 L 739.7832 346.32422 L 734.75 350.6582 L 735.68359 351.7793 A 0.50005 0.50005 0 0 1 735.74023 352.33594 L 734.48047 354.68555 A 0.50005 0.50005 0 0 1 734.40039 354.79688 L 732.37891 356.88672 A 0.50005 0.50005 0 0 1 731.84961 357.00977 L 727.91602 355.58789 L 725.99805 356.41797 A 0.50005 0.50005 0 0 1 725.77344 356.45898 L 722.26953 356.26758 L 721 356.92383 A 0.50005 0.50005 0 0 1 720.58984 356.94727 L 719.3457 356.4668 L 716.49805 356.68945 A 0.50005 0.50005 0 0 1 716.33203 356.67383 L 715.19727 356.37305 L 715.02734 357.98242 A 0.50005 0.50005 0 0 1 714.66016 358.41211 L 711.63867 359.22266 A 0.50005 0.50005 0 0 1 711.46484 359.23828 L 708.05469 358.92773 A 0.50005 0.50005 0 0 1 707.84766 358.86133 L 706.58594 358.12109 A 0.50005 0.50005 0 0 1 706.33984 357.67969 L 706.375 355.92188 L 702.25 353.30273 L 699.35156 352.27148 A 0.50005 0.50005 0 0 1 699.02539 351.72852 L 699.23438 350.26953 A 0.50005 0.50005 0 0 1 699.66016 349.8457 L 701.58398 349.57227 L 701.77344 348.79102 A 0.50005 0.50005 0 0 1 702.31445 348.41211 L 711.66406 349.44531 L 713.44141 349.12695 A 0.50005 0.50005 0 0 1 713.66406 349.13867 L 716.60938 349.96094 L 722.16016 350.88281 L 723.02148 349.97656 L 721.62891 349.21289 L 703.89062 348.1582 A 0.50005 0.50005 0 0 1 703.82812 348.15039 L 695.50781 346.58203 A 0.50005 0.50005 0 0 1 695.42578 346.55859 L 682.1543 341.59766 A 0.50005 0.50005 0 0 1 682.03906 341.53711 L 676.96875 337.91602 A 0.50005 0.50005 0 0 1 676.76172 337.55664 L 676.66211 336.48242 L 671.6875 332.875 A 0.50005 0.50005 0 0 1 671.59766 332.79297 L 668.14844 328.70312 A 0.50005 0.50005 0 0 1 668.09961 328.63281 L 667.39648 327.43945 L 661.66211 334.19336 A 0.50005 0.50005 0 0 1 661.48242 334.32812 L 652.92188 338.10938 L 647.03711 341.31836 L 649.25781 345.00195 A 0.50005 0.50005 0 0 1 649.23633 345.55273 L 646.89453 348.79492 L 646.92969 349.84375 A 0.50005 0.50005 0 0 1 646.80469 350.19141 L 645.375 351.80078 L 644.72656 354.36328 L 648.00977 355.54883 A 0.50005 0.50005 0 0 1 648.31055 355.85156 L 649.63086 359.5625 A 0.50005 0.50005 0 0 1 649.39844 360.16992 L 647.01758 361.45898 A 0.50005 0.50005 0 0 1 646.89844 361.50586 L 643.82617 362.25 L 641.48828 364.79492 L 641.50977 365.03711 L 645.79297 365.40234 A 0.50005 0.50005 0 0 1 646.23242 365.76562 L 647.02148 368.60547 A 0.50005 0.50005 0 0 1 646.55078 369.24023 L 643.39453 369.30273 L 642.92969 370.71484 L 644.7793 371.47852 L 646.56055 370.33789 A 0.50005 0.50005 0 0 1 647.12891 370.35938 L 649.66016 372.25 A 0.50005 0.50005 0 0 1 649.68555 373.0293 L 646.75586 375.54883 A 0.50005 0.50005 0 0 1 646.54297 375.65625 L 643.43555 376.37695 L 644.08984 377.38867 A 0.50005 0.50005 0 0 1 644.16797 377.69531 L 644.05859 379.24805 L 645.54688 382.22656 A 0.50005 0.50005 0 0 1 645.46875 382.78906 L 644.22461 384.14062 L 644.09766 385.81836 A 0.50005 0.50005 0 0 1 643.93164 386.1543 L 642.94727 387.02734 L 642.875 388.19727 L 645.23047 394.68945 A 0.50005 0.50005 0 0 1 645.25977 394.87891 L 645.14062 398.07812 A 0.50005 0.50005 0 0 1 644.9707 398.43555 L 642.6582 400.46875 L 642.61914 404.79492 A 0.50005 0.50005 0 0 1 642.56836 405.00977 L 641.60938 406.9707 A 0.50005 0.50005 0 0 1 641.41602 407.17969 L 639.86719 408.09961 L 639.57422 409.98633 A 0.50005 0.50005 0 0 1 639.34961 410.33203 L 637.49805 411.51172 A 0.50005 0.50005 0 0 1 636.93359 411.49219 L 635.75977 410.62695 L 635.37695 411.10156 L 635.63086 412.77539 L 637.86328 412.19531 A 0.50005 0.50005 0 0 1 638.41211 412.41016 L 639.39844 413.95508 L 641.46289 414.67773 L 644.12109 409.77148 A 0.50005 0.50005 0 0 1 644.24805 409.61914 L 646.47852 407.83984 A 0.50005 0.50005 0 0 1 646.65039 407.75 L 651.68945 406.2793 A 0.50005 0.50005 0 0 1 651.89062 406.26367 L 653.80859 406.49609 L 655.46094 405.64453 A 0.50005 0.50005 0 0 1 655.72852 405.5918 L 658.56445 405.81055 L 659.94531 405.07812 A 0.50005 0.50005 0 0 1 660.10547 405.02539 L 663.21289 404.55273 L 666.05273 403.61523 A 0.50005 0.50005 0 0 1 666.21875 403.58984 L 668.00781 403.61914 A 0.50005 0.50005 0 0 1 668.25 403.6875 L 670.32812 404.88281 L 671.48828 404.31055 A 0.50005 0.50005 0 0 1 671.63477 404.26562 L 678.0625 403.27734 L 681.68945 401.39258 L 684.9082 397.48242 L 688.36328 391.56641 L 688.91602 389.46289 A 0.50005 0.50005 0 0 1 688.97656 389.32617 L 690.15625 387.43555 A 0.50005 0.50005 0 0 1 690.61133 387.20117 L 692.88477 387.34766 L 696.89844 386.51953 A 0.50005 0.50005 0 0 1 697.07422 386.51562 L 698.74805 386.76758 L 703.34961 385.27539 L 705.23438 384.01367 L 707.24414 379.58398 A 0.50005 0.50005 0 0 1 707.45117 379.35547 L 709.39258 378.24609 A 0.50005 0.50005 0 0 1 709.55469 378.1875 L 712.58398 377.6582 A 0.50005 0.50005 0 0 1 712.87695 377.69531 L 716.58789 379.38477 A 0.50005 0.50005 0 0 1 716.77734 379.53711 L 717.69531 380.73633 L 720.60742 379.70703 L 720.65234 379.15039 A 0.50005 0.50005 0 0 1 720.9668 378.72461 L 723.11523 377.875 A 0.50005 0.50005 0 0 1 723.38672 377.84766 L 726.99609 378.47656 A 0.50005 0.50005 0 0 1 727.3418 378.7168 L 728.58203 380.83789 A 0.50005 0.50005 0 0 1 728.64844 381.04297 L 729.01562 385.01758 L 729.95703 385.01172 L 730.58398 382.44141 A 0.50005 0.50005 0 0 1 730.71094 382.21289 L 732.99023 379.85352 A 0.50005 0.50005 0 0 1 733.1543 379.74023 L 738.92188 377.28711 L 741.69531 375.46289 A 0.50005 0.50005 0 0 1 741.8457 375.39648 L 743.66406 374.92969 L 744.16992 373.99219 A 0.50005 0.50005 0 0 1 744.50195 373.74219 L 750.49219 372.42188 A 0.50005 0.50005 0 0 1 750.63086 372.41016 L 756.69336 372.78516 L 762.03125 371.20508 L 768.07422 368.93164 A 0.50005 0.50005 0 0 1 768.18555 368.9043 L 771.1543 368.51367 A 0.50005 0.50005 0 0 1 771.31445 368.51953 L 773.38672 368.91602 L 774.00781 368.41992 A 0.50005 0.50005 0 0 1 774.2207 368.32031 L 779.03125 367.34961 A 0.50005 0.50005 0 0 1 779.10156 367.33984 L 781.52148 367.20508 L 784.81836 365.91406 A 0.50005 0.50005 0 0 1 785.02734 365.88086 L 786.63867 365.9707 A 0.50005 0.50005 0 0 1 786.84375 366.02734 L 789.25391 367.29688 A 0.50005 0.50005 0 0 1 789.38086 367.39453 L 791.84375 369.97461 L 793.9668 371.24023 A 0.50005 0.50005 0 0 1 794.1582 371.44922 L 795.36914 373.89844 A 0.50005 0.50005 0 0 1 795.34961 374.375 L 794.22266 376.27539 L 793.93555 378.5918 A 0.50005 0.50005 0 0 1 793.88281 378.76172 L 792.19727 382 L 792.29883 383.8125 A 0.50005 0.50005 0 0 1 792.24414 384.06836 L 790.78711 386.89648 L 790.89453 388.55859 L 791.79688 385.14258 A 0.50005 0.50005 0 0 1 792.00781 384.85156 L 793.58789 383.82031 A 0.50005 0.50005 0 0 1 793.82812 383.74023 L 795.58984 383.625 L 797.41016 381.37891 L 797.57031 378.7207 A 0.50005 0.50005 0 0 1 797.5918 378.60547 L 799.55078 372.0957 A 0.50005 0.50005 0 0 1 799.60742 371.97461 L 800.31055 370.85547 L 800.31055 368.24023 A 0.50005 0.50005 0 0 1 800.36523 368.00977 L 802.49023 363.91016 L 803.14258 360.01953 L 803.5 355.12695 L 803.25977 345.37695 L 800.79688 325.08008 L 799.99023 321.14062 A 0.50005 0.50005 0 0 1 799.98633 321.11523 L 798.98047 314.46484 L 793.44336 294.75391 L 789.35938 283.54883 L 783.42188 271.71094 L 778.50195 263.48242 L 772.87305 256.88477 L 767.52344 252.77539 L 760.12109 249.05469 L 750.31641 245.95898 L 743.9043 244.96094 z M 724.42969 350.74805 L 725.02344 351.56445 L 725.41211 351.28711 L 724.42969 350.74805 z M 790.59961 394.53711 L 790.54492 394.9375 A 0.50005 0.50005 0 0 1 790.52344 395.03125 L 789.46289 398.15039 A 0.50005 0.50005 0 0 1 789.36328 398.32227 L 787.25586 400.68555 L 786.29297 402.54688 L 786.75977 404.2832 L 787.95508 404.98438 L 790.20898 403.16797 L 790.92578 401.22266 L 790.59961 394.53711 z "
       transform="translate(-5,-5)"
       id="Barnstable"
       inkscape:label="#path4506" />
    <path
       style="color:#000000;font-style:normal;font-variant:normal;font-weight:normal;font-stretch:normal;font-size:medium;line-height:normal;font-family:sans-serif;font-variant-ligatures:normal;font-variant-position:normal;font-variant-caps:normal;font-variant-numeric:normal;font-variant-alternates:normal;font-feature-settings:normal;text-indent:0;text-align:start;text-decoration:none;text-decoration-line:none;text-decoration-style:solid;text-decoration-color:#000000;letter-spacing:normal;word-spacing:normal;text-transform:none;writing-mode:lr-tb;direction:ltr;text-orientation:mixed;dominant-baseline:auto;baseline-shift:baseline;text-anchor:start;white-space:normal;shape-padding:0;clip-rule:nonzero;display:inline;overflow:visible;visibility:visible;opacity:1;isolation:auto;mix-blend-mode:normal;color-interpolation:sRGB;color-interpolation-filters:linearRGB;solid-color:#000000;solid-opacity:1;vector-effect:none;fill:#cccccc;fill-opacity:1;fill-rule:nonzero;stroke:none;stroke-width:1;stroke-linecap:butt;stroke-linejoin:miter;stroke-miterlimit:4;stroke-dasharray:none;stroke-dashoffset:0;stroke-opacity:1;color-rendering:auto;image-rendering:auto;shape-rendering:auto;text-rendering:auto;enable-background:accumulate"
       d="m 125.70898,161.34766 12.22461,1.10156 0.11719,2.32617 a 0.50005,0.50005 0 0 0 0.56836,0.46875 l 1.58008,-0.2207 0.67383,19.32812 -7.01953,7.57813 a 0.50005,0.50005 0 0 0 0.0566,0.73242 l 8.79101,6.91992 a 0.50005,0.50005 0 0 0 0.77539,-0.21094 l 1.8125,-4.65625 1.35938,-2.1875 9.05664,-1.10742 0.11523,2.47266 a 0.50005,0.50005 0 0 0 0.5586,0.47461 l 3.7207,-0.4375 0.20117,5.29883 a 0.50005,0.50005 0 0 0 0.49024,0.48046 l 1.72265,0.0332 0.13672,4.76172 a 0.50005,0.50005 0 0 0 0.37891,0.4707 l 20.83984,5.19141 a 0.50005,0.50005 0 0 0 0.61914,-0.4375 l 0.16016,-1.61914 a 0.50005,0.50005 0 0 0 -0.002,-0.10743 l -0.79687,-6.80664 4.11328,-0.86523 a 0.50005,0.50005 0 0 0 0.38672,-0.39063 l 0.47851,-2.36328 2.19532,-0.5625 a 0.50005,0.50005 0 0 0 0.3457,-0.31055 l 5,-13.60156 4.42578,-3.33203 2.125,1.24024 0.44141,3.0664 -0.26758,1.09375 -1.57227,1.30469 a 0.50005,0.50005 0 0 0 -0.10351,0.11719 l -2.30859,3.61914 a 0.50005,0.50005 0 0 0 -0.0508,0.0996 l -1.38867,3.87109 a 0.50005,0.50005 0 0 0 -0.0195,0.27344 l 0.33008,1.53906 a 0.50005,0.50005 0 0 0 0.21875,0.31641 l 1.48047,0.95703 0.89062,2.08008 a 0.50005,0.50005 0 0 0 0.0879,0.13672 l 1.51172,1.67187 a 0.50005,0.50005 0 0 0 0.2207,0.14063 l 2.28907,0.7207 a 0.50005,0.50005 0 0 0 0.21289,0.0176 l 15.38086,-1.94922 a 0.50005,0.50005 0 0 0 0.004,0 l 26.23828,-3.54297 1.66797,13.28906 a 0.50005,0.50005 0 0 0 0.57422,0.43164 l 7.85938,-1.24023 a 0.50005,0.50005 0 0 0 0.42187,-0.47266 l 0.0801,-1.83984 a 0.50005,0.50005 0 0 0 -0.0527,-0.2461 l -0.87305,-1.73632 1.12695,-1.19532 0.77149,0.41602 a 0.50005,0.50005 0 0 0 0.56445,-0.0606 l 1.28906,-1.10937 a 0.50005,0.50005 0 0 0 0.17383,-0.34961 l 0.0742,-1.27149 2,-1.08008 12.12305,-4.29882 1.86132,-0.47657 0.38282,1.83008 a 0.50005,0.50005 0 0 0 0.52148,0.39649 l 2.35938,-0.15039 a 0.50005,0.50005 0 0 0 0.38671,-0.22461 l 2.25782,-3.44336 4.31054,-0.66992 -8.61914,11.70312 a 0.50005,0.50005 0 0 0 -0.082,0.17578 l -0.42969,1.72852 a 0.50005,0.50005 0 0 0 -0.0156,0.13867 l 0.13086,3.84961 a 0.50005,0.50005 0 0 0 0.2793,0.43164 l 13.75586,6.74023 0.23828,1.99024 a 0.50005,0.50005 0 0 0 0.57422,0.43555 l 13.71484,-2.20704 -0.17383,20.65625 -0.26172,17.53516 -24.8164,-0.60937 a 0.50005,0.50005 0 0 0 -0.004,0 l -15.04688,-0.21876 -31.03515,-0.95117 a 0.50005,0.50005 0 0 0 -0.008,0 l -15.89844,-0.26953 a 0.50005,0.50005 0 0 0 -0.0644,0.004 l -10.05079,1.11914 a 0.50005,0.50005 0 0 0 -0.25195,0.10351 l -1.9082,1.48829 -4.85742,-0.14258 -0.15039,-1.3086 a 0.50005,0.50005 0 0 0 -0.45899,-0.4414 l -7.81836,-0.58008 -11.71679,-1.46875 a 0.50005,0.50005 0 0 0 -0.0605,-0.004 l -13.33008,-0.0195 a 0.50005,0.50005 0 0 0 -0.44922,0.7207 l 0.78125,1.5879 -3.20117,6.44921 a 0.50005,0.50005 0 0 0 -0.0488,0.16993 l -0.10937,1.00781 -10.15821,1.31836 0.84375,-10.9961 a 0.50005,0.50005 0 0 0 -0.47461,-0.53711 l -11.14062,-0.53906 a 0.50005,0.50005 0 0 0 -0.0117,-0.002 l -30.22461,-0.78906 -11.5918,-0.55274 -0.55468,-1.82422 0.46289,-2.92578 a 0.50005,0.50005 0 0 0 -0.16992,-0.45898 l -1.23243,-1.04883 0.61133,-1.06055 a 0.50005,0.50005 0 0 0 -0.0176,-0.52734 l -0.7539,-1.125 -2.339847,-6.9707 -0.304687,-3.41211 0.421875,-1.35938 1.921879,-1.11133 a 0.50005,0.50005 0 0 0 0.20703,-0.23242 l 0.45898,-1.05078 a 0.50005,0.50005 0 0 0 -0.0449,-0.48437 l -1.072266,-1.5586 -0.642578,-2.39453 -0.169922,-3.79687 7.390626,1.38476 a 0.50005,0.50005 0 0 0 0.58008,-0.3789 l 7.25976,-31.56446 0.0625,0.0117 a 0.50005,0.50005 0 0 0 0.59961,-0.4707 l 0.66211,-18.17578 z"
       id="Hampden" />
    <path
       style="color:#000000;font-style:normal;font-variant:normal;font-weight:normal;font-stretch:normal;font-size:medium;line-height:normal;font-family:sans-serif;font-variant-ligatures:normal;font-variant-position:normal;font-variant-caps:normal;font-variant-numeric:normal;font-variant-alternates:normal;font-feature-settings:normal;text-indent:0;text-align:start;text-decoration:none;text-decoration-line:none;text-decoration-style:solid;text-decoration-color:#000000;letter-spacing:normal;word-spacing:normal;text-transform:none;writing-mode:lr-tb;direction:ltr;text-orientation:mixed;dominant-baseline:auto;baseline-shift:baseline;text-anchor:start;white-space:normal;shape-padding:0;clip-rule:nonzero;display:inline;overflow:visible;visibility:visible;opacity:1;isolation:auto;mix-blend-mode:normal;color-interpolation:sRGB;color-interpolation-filters:linearRGB;solid-color:#000000;solid-opacity:1;vector-effect:none;fill:#cccccc;fill-opacity:1;fill-rule:nonzero;stroke:none;stroke-width:1;stroke-linecap:butt;stroke-linejoin:miter;stroke-miterlimit:4;stroke-dasharray:none;stroke-dashoffset:0;stroke-opacity:1;color-rendering:auto;image-rendering:auto;shape-rendering:auto;text-rendering:auto;enable-background:accumulate"
       d="M 536.10156 166.52344 L 533.59375 168.15234 L 528.79883 172.80859 L 524.32812 177.26758 L 527.13086 180.0332 L 529.61133 182.46094 L 531.83984 180.54492 L 535.4082 174.45703 A 0.50005 0.50005 0 0 1 535.72656 174.22266 L 537.06445 173.91211 L 539.32617 168.32422 L 539.15234 167.00586 L 536.10156 166.52344 z M 503.42578 173.75391 L 490.81445 178.07812 L 492.03125 182.24219 L 495.41016 190.18359 A 0.50005 0.50005 0 0 1 495.44141 190.28906 L 496.68164 196.98828 A 0.50005 0.50005 0 0 1 496.17383 197.58008 L 490.53711 197.39062 L 490.73828 197.7207 A 0.50005 0.50005 0 0 1 490.81055 197.98633 L 490.75977 201.56641 A 0.50005 0.50005 0 0 1 490.62305 201.90234 L 488.30859 204.35742 L 488.77734 206.35547 A 0.50005 0.50005 0 0 1 488.45703 206.94141 L 486.19336 207.74023 L 485.84766 209.18359 L 487.44336 210.97852 A 0.50005 0.50005 0 0 1 487.24609 211.77734 L 483.29492 213.25781 A 0.50005 0.50005 0 0 1 483.21289 213.28125 L 479.58984 213.96875 L 474.26758 215.36719 L 474.67383 217.78711 A 0.50005 0.50005 0 0 1 474.20312 218.36914 L 469.48242 218.58008 A 0.50005 0.50005 0 0 1 469.33398 218.56445 L 468.03125 218.22656 L 465.20117 219.46484 L 460.85352 224.37109 A 0.50005 0.50005 0 0 1 460.54688 224.53516 L 457.83594 224.89844 L 457.75977 232.05469 A 0.50005 0.50005 0 0 1 457.58594 232.42773 L 452.62695 236.70508 L 452.32617 238.26562 L 453.9668 241.2168 A 0.50005 0.50005 0 0 1 454.00586 241.61523 L 453.40039 243.4707 L 453.36914 265.64062 L 478.87109 265.16016 A 0.50005 0.50005 0 0 1 479.38086 265.66016 L 479.38086 275.2207 L 482.57422 275.16211 L 499.38867 266.47656 L 545.51562 242.08789 L 562.59766 232.9082 L 562.61328 232.99805 A 0.50005 0.50005 0 0 1 562.875 232.5 L 579.75 223.47461 L 581.80273 203.83594 L 580.33594 202.77539 A 0.50005 0.50005 0 0 1 580.17383 202.57422 L 578.17383 198.10352 A 0.50005 0.50005 0 0 1 578.13281 197.95508 L 577.85352 195.4668 A 0.50005 0.50005 0 0 1 578.2207 194.92773 L 581.23828 194.11914 L 581.16992 192.03516 A 0.50005 0.50005 0 0 1 581.60742 191.52344 L 582.70508 191.38672 L 581.57227 190.04102 L 580.23438 190.58984 L 580.51172 192.10938 A 0.50005 0.50005 0 0 1 580.5 192.33984 L 579.98047 194.12109 A 0.50005 0.50005 0 0 1 579.54688 194.47852 L 577.73242 194.65234 L 576.30664 195.94922 A 0.50005 0.50005 0 0 1 576.20508 196.02148 L 573.51562 197.45117 A 0.50005 0.50005 0 0 1 572.78906 197.10547 L 572.34961 194.83594 A 0.50005 0.50005 0 0 1 572.43555 194.44531 L 573.69141 192.72656 L 574.04297 190.22266 L 570.86914 191.25195 L 569.64062 192.69336 A 0.50005 0.50005 0 0 1 569.15234 192.85742 L 564.12305 191.74805 A 0.50005 0.50005 0 0 1 563.75391 191.41211 L 563.2832 189.94141 L 559.50586 187.83594 A 0.50005 0.50005 0 0 1 559.3125 187.64453 L 557.92383 185.1543 A 0.50005 0.50005 0 0 1 558.2207 184.42969 L 560.24805 183.84375 L 561.75 182.76758 L 561.66797 181.68555 L 560.22852 181.69922 L 558.31641 182.46484 A 0.50005 0.50005 0 0 1 557.91602 182.45117 L 556.41992 181.74219 L 554.84961 181.625 L 555.94922 184.57617 A 0.50005 0.50005 0 0 1 555.91602 184.99414 L 553.81641 188.74414 A 0.50005 0.50005 0 0 1 553.1582 188.94727 L 552.52734 188.63477 L 551.85352 190.08984 A 0.50005 0.50005 0 0 1 551.69727 190.28125 L 549.85742 191.64258 A 0.50005 0.50005 0 0 1 549.13672 191.50586 L 548.64258 190.7168 L 543.73242 191.00781 L 540.71484 193.87305 A 0.50005 0.50005 0 0 1 540.28125 194.00195 L 539.22266 193.8125 L 539.625 196.95703 A 0.50005 0.50005 0 0 1 539.41797 197.42969 L 536.06445 199.78711 L 536.625 200.55469 A 0.50005 0.50005 0 0 1 536.60547 201.16797 L 534.79492 203.35938 A 0.50005 0.50005 0 0 1 534.07422 203.41016 L 531.41406 201 A 0.50005 0.50005 0 0 1 531.25586 200.70508 L 530.39062 195.03711 L 529.60742 194.56445 L 528.48242 195.33203 A 0.50005 0.50005 0 0 1 527.83008 195.25586 L 524.25977 191.32617 A 0.50005 0.50005 0 0 1 524.13086 191.00977 L 524.06055 189.2207 L 522.74023 189.25 A 0.50005 0.50005 0 0 1 522.34961 189.07617 L 520.58984 187.02344 L 517.55273 185.10352 A 0.50005 0.50005 0 0 1 517.34961 184.85156 L 515.64648 180.16406 L 512.93945 179.60938 A 0.50005 0.50005 0 0 1 512.54297 179.17578 L 512.22656 176.30664 L 510.36719 175.5918 L 508.64258 175.80664 A 0.50005 0.50005 0 0 1 508.39258 175.77344 L 503.42578 173.75391 z M 602.18359 191.77148 L 599.84961 192.13672 L 598.24805 193.24414 L 597.38281 196.63672 L 598.89258 197.62109 A 0.50005 0.50005 0 0 1 598.81445 198.5 L 596.55078 199.45703 L 599.20898 206.81641 L 601.92773 210.03711 L 609.73438 203.82031 L 610.23242 199.01758 A 0.50005 0.50005 0 0 1 610.26758 198.88086 L 611.25781 196.45898 L 609.92773 195.20117 L 604.91016 192.60547 L 602.18359 191.77148 z "
       transform="translate(-5,-5)"
       id="Norfolk"
       inkscape:label="#path4595" />
    <path
       style="color:#000000;font-style:normal;font-variant:normal;font-weight:normal;font-stretch:normal;font-size:medium;line-height:normal;font-family:sans-serif;font-variant-ligatures:normal;font-variant-position:normal;font-variant-caps:normal;font-variant-numeric:normal;font-variant-alternates:normal;font-feature-settings:normal;text-indent:0;text-align:start;text-decoration:none;text-decoration-line:none;text-decoration-style:solid;text-decoration-color:#000000;letter-spacing:normal;word-spacing:normal;text-transform:none;writing-mode:lr-tb;direction:ltr;text-orientation:mixed;dominant-baseline:auto;baseline-shift:baseline;text-anchor:start;white-space:normal;shape-padding:0;clip-rule:nonzero;display:inline;overflow:visible;visibility:visible;opacity:1;isolation:auto;mix-blend-mode:normal;color-interpolation:sRGB;color-interpolation-filters:linearRGB;solid-color:#000000;solid-opacity:1;vector-effect:none;fill:#cccccc;fill-opacity:1;fill-rule:nonzero;stroke:none;stroke-width:1;stroke-linecap:butt;stroke-linejoin:miter;stroke-miterlimit:4;stroke-dasharray:none;stroke-dashoffset:0;stroke-opacity:1;color-rendering:auto;image-rendering:auto;shape-rendering:auto;text-rendering:auto;enable-background:accumulate"
       d="m 112.82422,42.423828 46.53125,2.125 42.39844,2.201172 a 0.50005,0.50005 0 0 0 0.002,0 l 34.71875,1.728516 38.20703,1.960937 2.25586,13.623047 a 0.50005,0.50005 0 0 0 0.52539,0.416016 l 2.47266,-0.158204 0.19726,1.75586 a 0.50005,0.50005 0 0 0 0.55664,0.439453 l 2.55664,-0.300781 0.22852,1.789062 a 0.50005,0.50005 0 0 0 0.54687,0.433594 l 2.29688,-0.240234 0.86523,6.541015 -0.64648,3.634766 a 0.50005,0.50005 0 0 0 -0.008,0.08398 l -0.0176,2.816407 -0.6211,0.447265 -4.90624,0.642578 a 0.50005,0.50005 0 0 0 -0.42774,0.576172 l 0.25195,1.576172 -1.55078,1.195313 -0.86523,-0.144532 a 0.50005,0.50005 0 0 0 -0.57617,0.572266 l 1.08203,6.773437 -2.66016,-0.367187 a 0.50005,0.50005 0 0 0 -0.56836,0.480469 l -0.0605,2.070312 a 0.50005,0.50005 0 0 0 0.0137,0.126953 l 0.64257,2.800782 0.90821,8.210946 a 0.50005,0.50005 0 0 0 0.12109,0.27539 l 4.98438,5.66406 -9.99805,9.70703 a 0.50005,0.50005 0 0 0 -0.14648,0.43164 l 1.64257,11.27344 -2.17773,3.11914 -2.66406,2.84375 a 0.50005,0.50005 0 0 0 -0.11328,0.19531 l -1.92969,6.29883 a 0.50005,0.50005 0 0 0 -0.0195,0.19531 l 0.29297,3.07617 -0.40625,2.01758 a 0.50005,0.50005 0 0 0 0.0137,0.24805 l 0.4375,1.39258 -0.7461,1.90429 a 0.50005,0.50005 0 0 0 0.0586,0.47461 l 0.96289,1.3418 -0.64258,1.6875 a 0.50005,0.50005 0 0 0 -0.0234,0.28125 l 0.31055,1.47656 -0.43555,2.44141 -1.95117,2.93359 a 0.50005,0.50005 0 0 0 -0.0703,0.16016 l -0.89258,3.73437 -1.57031,1.36914 -1.375,0.20899 a 0.50005,0.50005 0 0 0 -0.34375,0.21875 l -0.78516,1.19336 -1.55664,0.91797 0.35547,-2.88868 0.87891,-1.9082 a 0.50005,0.50005 0 0 0 0.0449,-0.20508 l 0.0312,-2.84961 a 0.50005,0.50005 0 0 0 -0.0274,-0.16211 l -0.83007,-2.49023 a 0.50005,0.50005 0 0 0 -0.13868,-0.21289 l -0.68164,-0.61914 0.51368,-1.16992 a 0.50005,0.50005 0 0 0 0.0234,-0.3418 l -0.51367,-1.73242 0.23242,-2.92578 a 0.50005,0.50005 0 0 0 -0.0762,-0.30664 l -1.25977,-1.9961 -0.52734,-1.97461 0.17188,-2.30468 a 0.50005,0.50005 0 0 0 -0.008,-0.14063 l -0.67773,-3.24609 0.51367,-0.77539 a 0.50005,0.50005 0 0 0 0.0293,-0.50391 l -1.4707,-2.89453 -0.29883,-2.13672 a 0.50005,0.50005 0 0 0 -0.57227,-0.42578 l -23.58984,3.64453 -1.19922,-7.39062 a 0.50005,0.50005 0 0 0 -0.57031,-0.41407 l -20.12696,3.09766 -0.9082,-0.16406 a 0.50005,0.50005 0 0 0 -0.22461,0.01 l -8.11719,2.28125 -17.55468,2.51758 0.9375,-13.52344 a 0.50005,0.50005 0 0 0 -0.57422,-0.52929 l -12.03321,1.83593 -0.0527,-3.91797 a 0.50005,0.50005 0 0 0 -0.25977,-0.43164 l -3.28906,-1.79882 a 0.50005,0.50005 0 0 0 -0.11719,-0.0469 l -21.20507,-5.4043 -0.72266,-6.52539 1.13281,-5.25 A 0.50005,0.50005 0 0 0 145.00391,106.5 l -0.75391,-0.16016 -0.21094,-4.19531 a 0.50005,0.50005 0 0 0 -0.39062,-0.46289 l -21.1875,-4.679687 5.69726,-24.800781 a 0.50005,0.50005 0 0 0 0.01,-0.164063 l -0.31055,-2.949218 a 0.50005,0.50005 0 0 0 -0.0625,-0.19336 l -0.54687,-0.970703 0.20117,-3.222656 a 0.50005,0.50005 0 0 0 -0.38086,-0.517578 l -1.58984,-0.388672 a 0.50005,0.50005 0 0 0 -0.35938,0.04687 l -2.85156,1.566406 -3.15235,-2.605469 0.58399,-1.535156 2.85547,-0.55664 a 0.50005,0.50005 0 0 0 0.39258,-0.607422 l -0.3125,-1.308594 0.84375,-0.587891 1.4707,0.433594 a 0.50005,0.50005 0 0 0 0.35937,-0.03125 l 2.47852,-1.199219 a 0.50005,0.50005 0 0 0 0.2793,-0.511718 l -0.22266,-1.806641 0.9082,-1.929688 a 0.50005,0.50005 0 0 0 -0.49609,-0.710937 l -10.5957,0.957031 -5.16602,-0.472656 z"
       id="Franklin" />
    <path
       style="color:#000000;font-style:normal;font-variant:normal;font-weight:normal;font-stretch:normal;font-size:medium;line-height:normal;font-family:sans-serif;font-variant-ligatures:normal;font-variant-position:normal;font-variant-caps:normal;font-variant-numeric:normal;font-variant-alternates:normal;font-feature-settings:normal;text-indent:0;text-align:start;text-decoration:none;text-decoration-line:none;text-decoration-style:solid;text-decoration-color:#000000;letter-spacing:normal;word-spacing:normal;text-transform:none;writing-mode:lr-tb;direction:ltr;text-orientation:mixed;dominant-baseline:auto;baseline-shift:baseline;text-anchor:start;white-space:normal;shape-padding:0;clip-rule:nonzero;display:inline;overflow:visible;visibility:visible;opacity:1;isolation:auto;mix-blend-mode:normal;color-interpolation:sRGB;color-interpolation-filters:linearRGB;solid-color:#000000;solid-opacity:1;vector-effect:none;fill:#cccccc;fill-opacity:1;fill-rule:nonzero;stroke:none;stroke-width:1;stroke-linecap:butt;stroke-linejoin:miter;stroke-miterlimit:4;stroke-dasharray:none;stroke-dashoffset:0;stroke-opacity:1;color-rendering:auto;image-rendering:auto;shape-rendering:auto;text-rendering:auto;enable-background:accumulate"
       d="M 631.06836 414.48633 L 629.90234 414.64258 L 625.5957 419.25195 A 0.50005 0.50005 0 0 1 625.14062 419.40234 L 623.66016 419.13672 L 621.78906 420.29492 L 620.13086 422.87109 A 0.50005 0.50005 0 0 1 619.86914 423.07422 L 617.13086 423.99805 L 615.57422 427.01953 A 0.50005 0.50005 0 0 1 615.06836 427.28711 L 613.41602 427.08203 L 611.74805 429.44727 A 0.50005 0.50005 0 0 1 611.39648 429.65625 L 610.30469 429.7793 L 608.60742 432.48242 L 608.98633 434.5957 L 609.90234 435.56641 L 611.63086 435.46289 L 614.625 432.25781 A 0.50005 0.50005 0 0 1 614.98438 432.09961 L 616.72266 432.08203 L 618.02734 431.18164 L 618.99414 429.73633 L 617.98047 428.27539 A 0.50005 0.50005 0 0 1 617.94727 427.75781 L 618.89648 425.93945 A 0.50005 0.50005 0 0 1 619.42188 425.67578 L 621.30469 425.98633 L 623.98438 423.42773 A 0.50005 0.50005 0 0 1 624.21484 423.30273 L 629.01562 422.16797 L 630.41406 420.65625 L 629.95898 419.5625 A 0.50005 0.50005 0 0 1 630.18164 418.93164 L 633.16211 417.31055 A 0.50005 0.50005 0 0 1 633.71094 417.35742 L 634.33203 417.84961 L 635.83008 417.17188 L 637.0293 415.97266 L 636.67188 415.32617 L 635.12109 416.49023 A 0.50005 0.50005 0 0 1 634.75586 416.58594 L 632.03711 416.23633 A 0.50005 0.50005 0 0 1 631.63477 415.92383 L 631.06836 414.48633 z M 653.78516 425.39648 L 650.31641 427.62109 L 645.40039 431.33008 A 0.50005 0.50005 0 0 1 645.16797 431.42578 L 641.42773 431.93164 L 640.44922 433.01562 L 640.29688 434.38477 A 0.50005 0.50005 0 0 1 640.24805 434.55273 L 638.9375 437.18359 A 0.50005 0.50005 0 0 1 638.54102 437.45703 L 635.44336 437.76953 L 634.89648 438.86328 A 0.50005 0.50005 0 0 1 634.61523 439.11133 L 632.39258 439.89453 L 631.24219 444.08203 A 0.50005 0.50005 0 0 1 631.11914 444.29883 L 630.14062 445.30273 L 629.9668 447.09766 A 0.50005 0.50005 0 0 1 629.7793 447.44336 L 628.23047 448.65625 L 627.23828 450.29883 A 0.50005 0.50005 0 0 1 626.91211 450.5293 L 625.44727 450.83398 L 624.46289 452.48047 L 623.73047 455.03711 A 0.50005 0.50005 0 0 1 623.63086 455.22461 L 619.61328 459.94531 L 617.35742 464.01172 A 0.50005 0.50005 0 0 1 617.25586 464.13867 L 615.90625 465.36914 A 0.50005 0.50005 0 0 1 615.67969 465.48828 L 613.80859 465.9082 A 0.50005 0.50005 0 0 1 613.49219 465.875 L 609.70312 464.14844 L 607.19336 463.62891 L 605.64258 464.23633 A 0.50005 0.50005 0 0 1 605.47266 464.26953 L 602.60938 464.34375 L 601.82031 465.66992 L 605.99805 471.31055 L 609.86523 475.10742 L 615.55664 478.82031 L 616.61523 478.25977 L 616.73047 476.07422 A 0.50005 0.50005 0 0 1 616.76758 475.9082 L 617.60742 473.88867 A 0.50005 0.50005 0 0 1 617.73242 473.71094 L 621.45312 470.32031 A 0.50005 0.50005 0 0 1 621.53516 470.25977 L 624.73438 468.35938 A 0.50005 0.50005 0 0 1 624.83594 468.31445 L 630.08594 466.625 A 0.50005 0.50005 0 0 1 630.14453 466.60938 L 634.3457 465.79883 A 0.50005 0.50005 0 0 1 634.39258 465.79297 L 643.9043 464.90234 A 0.50005 0.50005 0 0 1 643.91602 464.90039 L 659.57617 463.83203 A 0.50005 0.50005 0 0 1 659.62305 463.83008 L 678.52148 464.35938 L 681.31641 464.0625 A 0.50005 0.50005 0 0 1 681.39453 464.06055 L 685.62109 464.27539 L 687.85352 463.61719 L 688.5332 462.73828 L 688.21094 454.91992 A 0.50005 0.50005 0 0 1 688.21484 454.83594 L 688.82617 450.10352 L 687.87695 443.45703 L 685.59961 443.83789 L 683.7832 446.63672 L 684.10742 450.20508 A 0.50005 0.50005 0 0 1 683.97266 450.59375 L 681.13281 453.59375 A 0.50005 0.50005 0 0 1 681.01953 453.68359 L 679.62109 454.49219 A 0.50005 0.50005 0 0 1 679.26758 454.54883 L 676.89648 454.04883 A 0.50005 0.50005 0 0 1 676.50391 453.62695 L 676.24414 451.72656 L 675.29102 449.52148 L 673.13281 448.5957 L 670.72852 448.24414 A 0.50005 0.50005 0 0 1 670.55664 448.1875 L 668.35742 446.9668 A 0.50005 0.50005 0 0 1 668.26172 446.89844 L 666.15234 444.95898 A 0.50005 0.50005 0 0 1 666.02734 444.78125 L 664.17773 440.30078 A 0.50005 0.50005 0 0 1 664.14648 440.03516 L 664.69922 436.3418 L 664.59375 433.63281 L 662.39844 429.05078 L 661.8418 428.68164 L 660.48828 429.40625 L 656.73047 433.08789 A 0.50005 0.50005 0 0 1 656.43555 433.22656 L 654.83594 433.40625 A 0.50005 0.50005 0 0 1 654.2832 432.95898 L 654.10156 431.15039 A 0.50005 0.50005 0 0 1 654.13672 430.91211 L 654.97266 428.85352 L 654.41797 425.58789 L 653.78516 425.39648 z M 604.86328 432.94531 L 602.57227 433.10742 L 601.07031 434.41992 L 600.88867 435.20703 L 601.75977 436.94141 L 602.6582 437.06836 L 604.27734 435.95703 A 0.50005 0.50005 0 0 1 604.50781 435.87305 L 606.25586 435.6875 L 607.06641 435.05859 L 604.86328 432.94531 z M 595.42188 437.79883 L 592.09961 439.04688 L 591.75391 440.4043 A 0.50005 0.50005 0 0 1 591.20703 440.77539 L 587.35547 440.29297 L 586.73633 441.77734 L 587.20508 443.11523 L 589.60742 442.76562 A 0.50005 0.50005 0 0 1 589.69531 442.75977 L 593.68945 442.88672 L 595.43359 442.32422 L 598.14453 440.05273 L 596.86914 438.26562 L 595.42188 437.79883 z M 581.21484 441.45312 L 580.51562 442.82617 A 0.50005 0.50005 0 0 1 580.29492 443.04688 L 578.49414 443.95117 L 578.06641 445.76367 A 0.50005 0.50005 0 0 1 577.48828 446.14062 L 576.78516 446.00781 L 576.82227 446.69141 L 580.29492 445.32031 L 582.21289 442.56055 L 581.21484 441.45312 z M 606.99414 491.58203 L 605.96875 492.13867 A 0.50005 0.50005 0 0 1 605.76367 492.19922 L 603.85352 492.32812 L 604.7207 493.58203 L 608.8418 494.26758 L 609.23242 492.46875 L 606.99414 491.58203 z "
       transform="translate(-5,-5)"
       id="Dukes"
       inkscape:label="#path4561" />
    <path
       style="color:#000000;font-style:normal;font-variant:normal;font-weight:normal;font-stretch:normal;font-size:medium;line-height:normal;font-family:sans-serif;font-variant-ligatures:normal;font-variant-position:normal;font-variant-caps:normal;font-variant-numeric:normal;font-variant-alternates:normal;font-feature-settings:normal;text-indent:0;text-align:start;text-decoration:none;text-decoration-line:none;text-decoration-style:solid;text-decoration-color:#000000;letter-spacing:normal;word-spacing:normal;text-transform:none;writing-mode:lr-tb;direction:ltr;text-orientation:mixed;dominant-baseline:auto;baseline-shift:baseline;text-anchor:start;white-space:normal;shape-padding:0;clip-rule:nonzero;display:inline;overflow:visible;visibility:visible;opacity:1;isolation:auto;mix-blend-mode:normal;color-interpolation:sRGB;color-interpolation-filters:linearRGB;solid-color:#000000;solid-opacity:1;vector-effect:none;fill:#cccccc;fill-opacity:1;fill-rule:nonzero;stroke:none;stroke-width:1;stroke-linecap:butt;stroke-linejoin:miter;stroke-miterlimit:4;stroke-dasharray:none;stroke-dashoffset:0;stroke-opacity:1;color-rendering:auto;image-rendering:auto;shape-rendering:auto;text-rendering:auto;enable-background:accumulate"
       d="M 780.23242 451.88672 L 780.05469 452.38281 L 781.18164 452.98828 L 780.23242 451.88672 z M 784.86328 457.33203 L 784.82031 459.41016 A 0.50005 0.50005 0 0 1 784.80859 459.50977 L 783.36719 465.90039 A 0.50005 0.50005 0 0 1 783.30859 466.04883 L 780.07812 471.38867 A 0.50005 0.50005 0 0 1 780.01562 471.4707 L 776.36523 475.39062 A 0.50005 0.50005 0 0 1 776.28125 475.46289 L 771.94141 478.41406 A 0.50005 0.50005 0 0 1 771.7207 478.49609 L 766.73047 479.10352 L 762.26953 480.20508 A 0.50005 0.50005 0 0 1 762.15039 480.2207 L 748.07031 480.25 A 0.50005 0.50005 0 0 1 747.98633 480.24219 L 746.3125 479.96094 L 747.45898 481.88477 A 0.50005 0.50005 0 0 1 747.51562 482.25586 L 747.06641 484.13672 A 0.50005 0.50005 0 0 1 746.85352 484.43945 L 745.10352 485.57812 A 0.50005 0.50005 0 0 1 744.89648 485.65625 L 743.18359 485.88477 L 752.17773 490.29883 L 763.81641 494.58984 L 767.74414 495.04102 L 771.44727 493.75781 A 0.50005 0.50005 0 0 1 771.61719 493.73047 L 778.44727 493.83984 A 0.50005 0.50005 0 0 1 778.53516 493.84961 L 787.02539 495.49023 L 789.94531 494.87695 L 795.76172 492.85156 L 797.99414 490.33984 L 798.77734 487.77148 L 798.68359 483.72852 L 784.86328 457.33203 z M 721.61523 467.5293 L 721.05469 467.91992 L 721.20703 468.28906 L 723.91016 467.96875 L 723.83594 467.64844 L 721.61523 467.5293 z M 730.82617 475.44922 L 728.62109 475.67578 L 730.00977 477.48438 L 733.60742 480 A 0.50005 0.50005 0 0 1 733.69922 480.08398 L 734.41602 480.91602 L 735.57812 479.46875 L 734.24805 476.85156 L 730.82617 475.44922 z M 740.08984 484.13672 L 740.68945 484.66016 L 741.83008 485.2207 L 741.48828 484.70508 L 740.08984 484.13672 z "
       transform="translate(-5,-5)"
       id="Nantucket"
       inkscape:label="#path4580" />
    <path
       style="color:#000000;font-style:normal;font-variant:normal;font-weight:normal;font-stretch:normal;font-size:medium;line-height:normal;font-family:sans-serif;font-variant-ligatures:normal;font-variant-position:normal;font-variant-caps:normal;font-variant-numeric:normal;font-variant-alternates:normal;font-feature-settings:normal;text-indent:0;text-align:start;text-decoration:none;text-decoration-line:none;text-decoration-style:solid;text-decoration-color:#000000;letter-spacing:normal;word-spacing:normal;text-transform:none;writing-mode:lr-tb;direction:ltr;text-orientation:mixed;dominant-baseline:auto;baseline-shift:baseline;text-anchor:start;white-space:normal;shape-padding:0;clip-rule:nonzero;display:inline;overflow:visible;visibility:visible;opacity:1;isolation:auto;mix-blend-mode:normal;color-interpolation:sRGB;color-interpolation-filters:linearRGB;solid-color:#000000;solid-opacity:1;vector-effect:none;fill:#cccccc;fill-opacity:1;fill-rule:nonzero;stroke:none;stroke-width:1;stroke-linecap:butt;stroke-linejoin:miter;stroke-miterlimit:4;stroke-dasharray:none;stroke-dashoffset:0;stroke-opacity:1;color-rendering:auto;image-rendering:auto;shape-rendering:auto;text-rendering:auto;enable-background:accumulate"
       d="M 59.507812,39.957031 111.82422,42.376953 111.48047,53.375 a 0.50005,0.50005 0 0 0 0.45312,0.513672 l 5.68164,0.519531 a 0.50005,0.50005 0 0 0 0.0898,0 l 9.77148,-0.882812 -0.59961,1.271484 a 0.50005,0.50005 0 0 0 -0.043,0.273437 l 0.19532,1.595704 -1.98242,0.958984 -1.51563,-0.445312 A 0.50005,0.50005 0 0 0 123.10352,57.25 l -1.32032,0.919922 a 0.50005,0.50005 0 0 0 -0.19922,0.52539 l 0.26758,1.132813 -2.61718,0.511719 a 0.50005,0.50005 0 0 0 -0.3711,0.3125 l -0.81055,2.130859 a 0.50005,0.50005 0 0 0 0.14844,0.5625 l 3.68945,3.048828 a 0.50005,0.50005 0 0 0 0.56055,0.05469 l 2.97852,-1.636719 0.99609,0.244141 -0.18555,2.953125 a 0.50005,0.50005 0 0 0 0.0645,0.27539 l 0.56836,1.009766 0.29101,2.763672 -5.79101,25.208984 a 0.50005,0.50005 0 0 0 -0.002,0.01172 l -0.88086,4.29101 a 0.50005,0.50005 0 0 0 0.37891,0.58789 l 1.82227,0.41211 -2.48047,12.06836 a 0.50005,0.50005 0 0 0 -0.002,0.008 l -1.6582,8.79493 a 0.50005,0.50005 0 0 0 -0.44922,0.39453 l -5.04883,23.56836 -0.49218,1.89843 -11.4375,-2.9082 a 0.50005,0.50005 0 0 0 -0.60743,0.35938 l -0.648432,2.49023 a 0.50005,0.50005 0 0 0 -0.01563,0.15625 l 0.958992,15.49023 a 0.50005,0.50005 0 0 0 0.23047,0.39063 l 2.19726,1.40234 4.6211,4.52344 a 0.50005,0.50005 0 0 0 0.17968,0.11328 l 1.13086,0.41016 a 0.50005,0.50005 0 0 0 0.36524,-0.01 l 1.78515,-0.75976 2.00391,1.71875 a 0.50005,0.50005 0 0 0 0.75,-0.11524 l 0.44726,-0.71875 -0.58007,15.92969 a 0.50005,0.50005 0 0 0 -0.54883,0.38281 l -7.26172,31.57227 -7.539067,-1.41211 A 0.50005,0.50005 0 0 0 98,218.83203 l 0.201172,4.48047 a 0.50005,0.50005 0 0 0 0.01563,0.10742 l 0.679687,2.5293 a 0.50005,0.50005 0 0 0 0.07227,0.1543 l 0.960938,1.40039 -0.28125,0.64453 -1.949219,1.1289 a 0.50005,0.50005 0 0 0 -0.226563,0.28516 l -0.509765,1.63867 a 0.50005,0.50005 0 0 0 -0.02148,0.19336 l 0.320313,3.57031 a 0.50005,0.50005 0 0 0 0.02344,0.11524 l 2.38086,7.08984 a 0.50005,0.50005 0 0 0 0.05859,0.11914 l 0.617187,0.91992 -0.664062,1.1504 a 0.50005,0.50005 0 0 0 0.107422,0.63085 l 1.33789,1.13868 -0.4375,2.76367 a 0.50005,0.50005 0 0 0 0.0156,0.22265 l 0.48242,1.58399 -38.52343,-2.21875 -14.36914,-0.91992 a 0.50005,0.50005 0 0 0 -0.002,0 l -30.759765,-1.75 a 0.50005,0.50005 0 0 0 -0.02734,0 L 3.6582031,245.75195 1.515625,235.29297 17.189453,182.68359 a 0.50005,0.50005 0 0 0 0,-0.002 l 21.630859,-73.03906 z"
       id="Berkshire" />
  </g>
</svg>
