<?xml version="1.0" encoding="UTF-8" standalone="no"?>
<svg
   xmlns:dc="http://purl.org/dc/elements/1.1/"
   xmlns:cc="http://creativecommons.org/ns#"
   xmlns:rdf="http://www.w3.org/1999/02/22-rdf-syntax-ns#"
   xmlns:svg="http://www.w3.org/2000/svg"
   xmlns="http://www.w3.org/2000/svg"
   xmlns:sodipodi="http://sodipodi.sourceforge.net/DTD/sodipodi-0.dtd"
   xmlns:inkscape="http://www.inkscape.org/namespaces/inkscape"
   version="1.2"
   width="810"
   height="810"
   stroke-linecap="round"
   stroke-linejoin="round"
   id="svg13"
   sodipodi:docname="nh.svg"
   inkscape:version="0.92.1 r15371">
  <metadata
     id="metadata19">
    <rdf:RDF>
      <cc:Work
         rdf:about="">
        <dc:format>image/svg+xml</dc:format>
        <dc:type
           rdf:resource="http://purl.org/dc/dcmitype/StillImage" />
      </cc:Work>
    </rdf:RDF>
  </metadata>
  <defs
     id="defs17" />
  <sodipodi:namedview
     pagecolor="#ffffff"
     bordercolor="#666666"
     borderopacity="1"
     objecttolerance="10"
     gridtolerance="10"
     guidetolerance="10"
     inkscape:pageopacity="0"
     inkscape:pageshadow="2"
     inkscape:window-width="1920"
     inkscape:window-height="1017"
     id="namedview15"
     showgrid="false"
     inkscape:zoom="0.82408494"
     inkscape:cx="595.07653"
     inkscape:cy="423.8892"
     inkscape:window-x="-8"
     inkscape:window-y="-8"
     inkscape:window-maximized="1"
     inkscape:current-layer="New Hampshire" />
  <g
     id="New Hampshire"
     transform="translate(5,5)">
    <path
       style="color:#000000;font-style:normal;font-variant:normal;font-weight:normal;font-stretch:normal;font-size:medium;line-height:normal;font-family:sans-serif;font-variant-ligatures:normal;font-variant-position:normal;font-variant-caps:normal;font-variant-numeric:normal;font-variant-alternates:normal;font-feature-settings:normal;text-indent:0;text-align:start;text-decoration:none;text-decoration-line:none;text-decoration-style:solid;text-decoration-color:#000000;letter-spacing:normal;word-spacing:normal;text-transform:none;writing-mode:lr-tb;direction:ltr;text-orientation:mixed;dominant-baseline:auto;baseline-shift:baseline;text-anchor:start;white-space:normal;shape-padding:0;clip-rule:nonzero;display:inline;overflow:visible;visibility:visible;opacity:1;isolation:auto;mix-blend-mode:normal;color-interpolation:sRGB;color-interpolation-filters:linearRGB;solid-color:#000000;solid-opacity:1;vector-effect:none;fill:#cccccc;fill-opacity:1;fill-rule:nonzero;stroke:none;stroke-width:1;stroke-linecap:butt;stroke-linejoin:miter;stroke-miterlimit:4;stroke-dasharray:none;stroke-dashoffset:0;stroke-opacity:1;color-rendering:auto;image-rendering:auto;shape-rendering:auto;text-rendering:auto;enable-background:accumulate"
       d="m 501.98828,532.21875 3.55078,19.05273 a 0.50005,0.50005 0 0 0 0.50586,0.40821 l 2.09961,-0.0606 a 0.50005,0.50005 0 0 0 0.25586,-0.0781 l 2.35742,-1.51563 0.78907,1.37305 a 0.50005,0.50005 0 0 0 0.86132,0.01 l 3.48242,-5.79101 0.54883,0.50976 a 0.50005,0.50005 0 0 0 0.36719,0.13282 l 4.14063,-0.22071 a 0.50005,0.50005 0 0 0 0.33593,-0.15625 l 0.80078,-0.85156 2.95704,13.39648 a 0.50005,0.50005 0 0 0 0.88867,0.19141 l 12.125,-16.17969 0.92383,-1.00586 1.5996,5.8086 -1.06445,5.7539 -2.23828,3.96875 a 0.50005,0.50005 0 0 0 -0.0371,0.41016 l 2.03711,5.83008 -1.35742,4.79883 a 0.50005,0.50005 0 0 0 0.01,0.30273 l 1.23438,3.48438 -1.44141,2.5371 -4.04492,4.58008 a 0.50005,0.50005 0 0 0 -0.125,0.32618 l -0.0801,6.36914 a 0.50005,0.50005 0 0 0 0.004,0.0742 l 0.73047,5.29102 a 0.50005,0.50005 0 0 0 0.0781,0.20703 l 1.72657,2.60352 0.35351,2.72461 a 0.50005,0.50005 0 0 0 0.0332,0.12304 l 1.74024,4.32032 a 0.50005,0.50005 0 0 0 0.0879,0.14257 l 2.41992,2.75977 a 0.50005,0.50005 0 0 0 0.47266,0.16016 l 3.98633,-0.78125 1.24804,2.07031 a 0.50005,0.50005 0 0 0 0.10156,0.11914 l 3.13868,2.72265 1.05664,3.02344 a 0.50005,0.50005 0 0 0 0.0586,0.11719 l 2.27344,3.33398 1.14844,4.03125 a 0.50005,0.50005 0 0 0 0.32226,0.3379 l 1.9668,0.6621 1.01953,2.90821 a 0.50005,0.50005 0 0 0 0.23633,0.27734 l 3.98828,2.12695 0.76562,2.18555 a 0.50005,0.50005 0 0 0 0.35352,0.32227 l 3.38477,0.82226 0.98632,3.19922 a 0.50005,0.50005 0 0 0 0.32618,0.32813 l 4.46093,1.42382 1.6836,3.63672 -1.47657,2.8418 a 0.50005,0.50005 0 0 0 -0.0527,0.17578 l -0.75977,6.83203 -1.55078,1.41406 a 0.50005,0.50005 0 0 0 -0.14258,0.51368 l 1.05665,3.47656 -0.94336,1.53711 a 0.50005,0.50005 0 0 0 -0.0742,0.24023 l -0.14649,3.32813 -1.00195,3.31836 a 0.50005,0.50005 0 0 0 -0.004,0.27539 l 1.63086,6.03125 a 0.50005,0.50005 0 0 0 0.15039,0.24219 l 1.16016,1.03125 -0.75781,0.83007 -2.28711,-0.35546 -1.93555,-1.87891 a 0.50005,0.50005 0 0 0 -0.42773,-0.13477 l -3.48047,0.56055 a 0.50005,0.50005 0 0 0 -0.41992,0.51758 l 0.41796,9.02539 -0.34374,1.62695 -2.49415,2.22852 -3.51757,-0.9668 a 0.50005,0.50005 0 0 0 -0.0391,-0.01 l -9.40039,-1.79882 a 0.50005,0.50005 0 0 0 -0.20703,0.004 l -10.41797,2.4375 -19.7207,0.35352 9.79297,-16.50977 a 0.50005,0.50005 0 0 0 -0.11133,-0.64062 l -22.82812,-18.83789 -26.46875,-22.50586 2.20117,-2.61914 6.30859,-7.04688 a 0.50005,0.50005 0 0 0 0.0488,-0.0644 l 3.16602,-4.94922 7.49609,-9.49023 a 0.50005,0.50005 0 0 0 0.0996,-0.39063 l -3.41797,-20.78515 -3.84961,-27.8418 6.07617,-7.17969 a 0.50005,0.50005 0 0 0 0.0215,-0.0254 z"
       id="Strafford" />
    <path
       style="color:#000000;font-style:normal;font-variant:normal;font-weight:normal;font-stretch:normal;font-size:medium;line-height:normal;font-family:sans-serif;font-variant-ligatures:normal;font-variant-position:normal;font-variant-caps:normal;font-variant-numeric:normal;font-variant-alternates:normal;font-feature-settings:normal;text-indent:0;text-align:start;text-decoration:none;text-decoration-line:none;text-decoration-style:solid;text-decoration-color:#000000;letter-spacing:normal;word-spacing:normal;text-transform:none;writing-mode:lr-tb;direction:ltr;text-orientation:mixed;dominant-baseline:auto;baseline-shift:baseline;text-anchor:start;white-space:normal;shape-padding:0;clip-rule:nonzero;display:inline;overflow:visible;visibility:visible;opacity:1;isolation:auto;mix-blend-mode:normal;color-interpolation:sRGB;color-interpolation-filters:linearRGB;solid-color:#000000;solid-opacity:1;vector-effect:none;fill:#cccccc;fill-opacity:1;fill-rule:nonzero;stroke:none;stroke-width:1;stroke-linecap:butt;stroke-linejoin:miter;stroke-miterlimit:4;stroke-dasharray:none;stroke-dashoffset:0;stroke-opacity:1;color-rendering:auto;image-rendering:auto;shape-rendering:auto;text-rendering:auto;enable-background:accumulate"
       d="m 507.82227,1.6933594 1.58984,17.2324216 1.07812,20.171875 a 0.50005,0.50005 0 0 0 0,0.0059 l 0.78125,11.279296 2.57032,42.53711 a 0.50005,0.50005 0 0 0 0.006,0.05664 l 0.25586,1.460938 1.27734,21.13281 a 0.50005,0.50005 0 0 0 0,0.006 l 1.95117,26.22852 1.76953,27.33398 1.64844,30.61524 1.18945,29.75586 a 0.50005,0.50005 0 0 0 0.002,0.01 l 1.49023,25.79688 1.41992,29.23828 a 0.50005,0.50005 0 0 0 0,0.004 l 0.66992,11.40625 0.66016,16.5918 -7.00781,0.375 a 0.50005,0.50005 0 0 0 -0.46485,0.59375 l 0.51172,2.6543 0.0469,10.90429 -5.68164,0.0352 a 0.50005,0.50005 0 0 0 -0.0508,0.004 l -6.13477,0.67578 -33.76367,-2.49805 a 0.50005,0.50005 0 0 0 -0.50781,0.33008 l -11.75977,32.78125 a 0.50005,0.50005 0 0 0 0.49609,0.66797 l 0.1836,-0.01 -1.84375,12.94922 -2.29688,0.0508 a 0.50005,0.50005 0 0 0 -0.27343,0.0899 l -2.22657,1.54687 -1.28711,-1.44726 0.0391,-9.41797 a 0.50005,0.50005 0 0 0 -0.0137,-0.11328 l -2.96875,-12.95118 a 0.50005,0.50005 0 0 0 -0.21679,-0.30859 l -5.95703,-3.83789 -2.33594,-10.75781 a 0.50005,0.50005 0 0 0 -0.57227,-0.38672 l -4.27539,0.73047 -5.90039,-10.98438 a 0.50005,0.50005 0 0 0 -0.19531,-0.19726 l -5.81836,-3.28125 a 0.50005,0.50005 0 0 0 -0.33008,-0.0566 l -7.43945,1.27343 -0.27344,-1.74804 a 0.50005,0.50005 0 0 0 -0.57617,-0.41602 l -14.55273,2.47656 -2.4004,-14.84375 a 0.50005,0.50005 0 0 0 -0.29101,-0.37695 l -21.9707,-9.7207 a 0.50005,0.50005 0 0 0 -0.4668,0.0332 l -1.77735,1.10547 -14.3125,-21.5293 1.06641,-0.01 2.91211,1.47461 a 0.50005,0.50005 0 0 0 0.67188,-0.21875 l 1.11132,-2.18946 4.52539,-0.0273 a 0.50005,0.50005 0 0 0 0.21289,-0.0488 l 2.73047,-1.31055 a 0.50005,0.50005 0 0 0 0.0937,-0.0586 l 5.75,-4.55078 a 0.50005,0.50005 0 0 0 0.15235,-0.58399 l -0.54102,-1.29296 3.875,-1.96875 a 0.50005,0.50005 0 0 0 0.25586,-0.31641 l 1.47266,-5.45508 1.60351,-0.0254 a 0.50005,0.50005 0 0 0 0.49024,-0.5332 l -0.27539,-4.09571 1.96093,-0.71875 1.76172,0.83985 a 0.50005,0.50005 0 0 0 0.66992,-0.2461 l 1.3418,-2.97656 3.74024,-0.1289 a 0.50005,0.50005 0 0 0 0.44336,-0.30665 l 0.86132,-2.06445 3.92383,-3.1914 a 0.50005,0.50005 0 0 0 0.0918,-0.67579 l -3.37695,-4.75586 1.7207,-0.35546 a 0.50005,0.50005 0 0 0 0.30469,-0.19922 l 1.83984,-2.57032 A 0.50005,0.50005 0 0 0 403,238.10352 l 0.0195,-2.72071 a 0.50005,0.50005 0 0 0 -0.18359,-0.39062 l -4.76172,-3.8711 0.16211,-1.67382 1.50781,-1.21485 3.71289,0.86524 a 0.50005,0.50005 0 0 0 0.32813,-0.0371 l 4.42968,-2.10938 a 0.50005,0.50005 0 0 0 0.26954,-0.33008 l 0.59179,-2.38086 1.95703,-2.1875 a 0.50005,0.50005 0 0 0 0.0898,-0.52148 l -0.58985,-1.44141 a 0.50005,0.50005 0 0 0 -0.30664,-0.28515 l -2.8125,-0.92188 -1.24609,-1.63281 1.31641,-2.32422 a 0.50005,0.50005 0 0 0 0.0566,-0.33789 l -0.61719,-3.33008 0.92578,-3.09375 a 0.50005,0.50005 0 0 0 -0.16211,-0.52929 l -2.05078,-1.68946 0.85547,-1.01367 a 0.50005,0.50005 0 0 0 0.0937,-0.47266 l -1.08008,-3.40039 a 0.50005,0.50005 0 0 0 -0.53516,-0.3457 l -3.20703,0.38477 -1.25781,-1.74414 -0.0957,-4.87305 a 0.50005,0.50005 0 0 0 -0.28907,-0.44336 l -1.90429,-0.88672 -0.56836,-7.54883 a 0.50005,0.50005 0 0 0 -0.10156,-0.26367 l -5.88672,-7.73437 0.22851,-4.00586 a 0.50005,0.50005 0 0 0 -0.0508,-0.25 l -1.22851,-2.46289 2.7871,-0.98243 a 0.50005,0.50005 0 0 0 0.29297,-0.27343 l 1.02735,-2.375 3.55468,-3.3086 a 0.50005,0.50005 0 0 0 0.14258,-0.24023 l 0.49414,-1.92578 2.49414,-0.57227 a 0.50005,0.50005 0 0 0 0.29883,-0.20117 l 1.83008,-2.63086 a 0.50005,0.50005 0 0 0 0.084,-0.21875 l 0.57032,-4.32031 a 0.50005,0.50005 0 0 0 -0.15235,-0.42969 l -1.40234,-1.32422 0.43555,-1.95703 2.15234,-0.7207 a 0.50005,0.50005 0 0 0 0.2793,-0.23438 l 2.54101,-4.66015 a 0.50005,0.50005 0 0 0 0.0254,-0.42774 l -0.95898,-2.37305 1.60742,-2.76757 a 0.50005,0.50005 0 0 0 0.0625,-0.17774 l 0.38672,-2.59179 2.17383,-0.92188 a 0.50005,0.50005 0 0 0 0.20898,-0.16797 l 3.39063,-4.69922 a 0.50005,0.50005 0 0 0 0.0586,-0.10937 l 0.98242,-2.47852 3.8711,-4.76953 a 0.50005,0.50005 0 0 0 0.041,-0.57227 l -1.84961,-3.0996 a 0.50005,0.50005 0 0 0 -0.0742,-0.0957 l -2.25976,-2.26758 -0.44336,-6.48242 0.26758,-4.63867 a 0.50005,0.50005 0 0 0 -0.15039,-0.38867 l -2.20508,-2.13477 -2.49414,-4.654294 0.45117,-1.90625 2.29492,-2.089844 4.13086,-1.787109 2.94141,2.005859 a 0.50005,0.50005 0 0 0 0.57031,-0.0059 l 5.44922,-3.839844 a 0.50005,0.50005 0 0 0 -0.29492,-0.908203 l -7.40039,0.101563 0.20117,-3.351563 1.87109,-4.654297 a 0.50005,0.50005 0 0 0 -0.17773,-0.595703 l -2.59961,-1.818359 1.24804,-1.410156 a 0.50005,0.50005 0 0 0 0.125,-0.347657 l -0.14453,-4.339843 2.39649,-2.496094 3.81836,-1.679688 a 0.50005,0.50005 0 0 0 0.28125,-0.328125 l 0.70703,-2.607422 3.2832,-3.4375 a 0.50005,0.50005 0 0 0 0.13477,-0.291015 l 0.22851,-2.125 4.02149,-3.480469 a 0.50005,0.50005 0 0 0 0.17382,-0.380859 l -0.0215,-3.621094 a 0.50005,0.50005 0 0 0 -0.1875,-0.388672 l -1.27344,-1.011719 0.47071,-2.447265 1.26757,-1.148438 a 0.50005,0.50005 0 0 0 0.16016,-0.3125 l 0.43164,-3.708984 1.10156,-1.294922 a 0.50005,0.50005 0 0 0 0.0762,-0.119141 l 4.57031,-10.128906 a 0.50005,0.50005 0 0 0 0.0176,-0.363281 l -1.18946,-3.609375 A 0.50005,0.50005 0 0 0 439.625,28.509766 l -6.33594,-4.390625 h 2.3418 a 0.50005,0.50005 0 0 0 0.31055,-0.107422 l 3.55859,-2.822266 3.92773,2.177735 a 0.50005,0.50005 0 0 0 0.69727,-0.230469 l 1.30078,-2.875 2.74805,-0.949219 a 0.50005,0.50005 0 0 0 0.28711,-0.253906 l 1.33008,-2.75 a 0.50005,0.50005 0 0 0 -0.002,-0.439453 l -1.14258,-2.316407 5.26172,-1.871093 a 0.50005,0.50005 0 0 0 0.28321,-0.257813 l 0.92187,-1.9453124 4.73633,-2.1738281 a 0.50005,0.50005 0 0 0 0.2207,-0.1992187 l 1.61914,-2.7226563 3.15235,-1.4042969 0.77343,1.6894532 a 0.50005,0.50005 0 0 0 0.38282,0.2871093 l 2.69922,0.3925781 0.39453,4.515625 a 0.50005,0.50005 0 0 0 0.17187,0.3359378 l 5.94336,5.113281 1.55469,3.158203 a 0.50005,0.50005 0 0 0 0.48437,0.277344 l 3.50977,-0.25 a 0.50005,0.50005 0 0 0 0.23047,-0.07422 l 1.60156,-1.009766 5.03516,3.71875 a 0.50005,0.50005 0 0 0 0.61328,-0.01562 l 3.08594,-2.511719 2.87695,2.173828 a 0.50005,0.50005 0 0 0 0.39062,0.0918 l 3.06059,-0.5586 A 0.50005,0.50005 0 0 0 498,20.058594 l 3.00977,-5.560547 a 0.50005,0.50005 0 0 0 0.0488,-0.126953 l 0.80664,-3.570313 1.67774,-1.1484372 a 0.50005,0.50005 0 0 0 0.17969,-0.6035157 L 503.06055,7.453125 505.625,2.5019531 Z"
       id="Coos" />
    <path
       style="color:#000000;font-style:normal;font-variant:normal;font-weight:normal;font-stretch:normal;font-size:medium;line-height:normal;font-family:sans-serif;font-variant-ligatures:normal;font-variant-position:normal;font-variant-caps:normal;font-variant-numeric:normal;font-variant-alternates:normal;font-feature-settings:normal;text-indent:0;text-align:start;text-decoration:none;text-decoration-line:none;text-decoration-style:solid;text-decoration-color:#000000;letter-spacing:normal;word-spacing:normal;text-transform:none;writing-mode:lr-tb;direction:ltr;text-orientation:mixed;dominant-baseline:auto;baseline-shift:baseline;text-anchor:start;white-space:normal;shape-padding:0;clip-rule:nonzero;display:inline;overflow:visible;visibility:visible;opacity:1;isolation:auto;mix-blend-mode:normal;color-interpolation:sRGB;color-interpolation-filters:linearRGB;solid-color:#000000;solid-opacity:1;vector-effect:none;fill:#cccccc;fill-opacity:1;fill-rule:nonzero;stroke:none;stroke-width:1;stroke-linecap:butt;stroke-linejoin:miter;stroke-miterlimit:4;stroke-dasharray:none;stroke-dashoffset:0;stroke-opacity:1;color-rendering:auto;image-rendering:auto;shape-rendering:auto;text-rendering:auto;enable-background:accumulate"
       d="m 360.45703,277.16406 14.80664,22.27344 a 0.50005,0.50005 0 0 0 0.67969,0.14648 l 1.9668,-1.2207 21.48046,9.50391 2.43555,15.07226 a 0.50005,0.50005 0 0 0 0.57813,0.41407 l 14.54882,-2.47461 0.27344,1.74804 a 0.50005,0.50005 0 0 0 0.57813,0.41602 l 7.76367,-1.33008 5.53906,3.12109 5.67188,10.5586 -1.65235,0.27344 a 0.50005,0.50005 0 0 0 -0.40429,0.60351 l 2.97851,13.2793 a 0.50005,0.50005 0 0 0 0.2168,0.31055 l 5.57617,3.61718 2.32617,10.84766 0.0195,4.33984 -1.05078,1.78125 a 0.50005,0.50005 0 0 0 -0.0371,0.43164 l 3.40039,8.96094 a 0.50005,0.50005 0 0 0 0.48047,0.32227 l 3.48438,-0.0879 -6.10157,11.20117 -1.56054,2.15234 a 0.50005,0.50005 0 0 0 -0.0899,0.36914 l 4.82618,32.10938 -44.34961,7.00195 a 0.50005,0.50005 0 0 0 -0.41602,0.57031 l 4.65039,29.69141 a 0.50005,0.50005 0 0 0 0.54492,0.41992 l 0.79688,-0.082 1.36523,10.36719 2.24219,18.76953 -21.72461,3.07226 a 0.50005,0.50005 0 0 0 -0.0137,0.002 l -5.9707,1.00976 a 0.50005,0.50005 0 0 0 -0.41602,0.47656 l -0.10742,3.35743 -1.37109,3.59179 a 0.50005,0.50005 0 0 0 -0.0215,0.27539 l 0.95313,4.83008 -1.29688,3.87305 a 0.50005,0.50005 0 0 0 0.006,0.33594 l 1.11719,2.96679 -2.79688,2.07422 a 0.50005,0.50005 0 0 0 -0.16211,0.20508 l -1.13672,2.63672 -3.68164,2.75391 -3.32617,-0.11719 -1.81055,-1.47461 a 0.50005,0.50005 0 0 0 -0.65234,0.0176 l -4.04883,3.67968 a 0.50005,0.50005 0 0 0 -0.004,0.73829 l 3.14453,2.90429 -1.69531,1.86133 a 0.50005,0.50005 0 0 0 -0.11133,0.20313 l -0.44727,1.61328 -2.58594,-1.30469 a 0.50005,0.50005 0 0 0 -0.37304,-0.0332 l -2.88281,0.88671 -1.04297,-0.59179 a 0.50005,0.50005 0 0 0 -0.63868,0.12305 l -3.23828,4.10351 -1.41992,-2.18555 a 0.50005,0.50005 0 0 0 -0.53906,-0.21289 l -2.65039,0.65039 a 0.50005,0.50005 0 0 0 -0.28125,0.18555 l -1.44336,1.9375 -2.46875,1.12305 -6.69531,-18.7793 a 0.50005,0.50005 0 0 0 -0.85157,-0.1582 l -9.58007,11.16015 a 0.50005,0.50005 0 0 0 -0.041,0.0566 l -2.91211,4.54883 -6.55273,9.13867 -28.68555,-4.63476 -0.44727,-2.46289 a 0.50005,0.50005 0 0 0 -0.91015,-0.18164 l -4.56836,7.05078 -5.57813,-2.50391 2.76172,-4.13867 a 0.50005,0.50005 0 0 0 -0.21679,-0.73437 l -22.61915,-9.83008 a 0.50005,0.50005 0 0 0 -0.11914,-0.0352 l -14.7539,-2.43945 -11.73242,-2.2461 0.25781,-1.54882 a 0.50005,0.50005 0 0 0 -0.0645,-0.3418 l -1.32226,-2.18164 1.58398,-6.36328 2.5,-1.22656 a 0.50005,0.50005 0 0 0 0.2793,-0.41602 l 0.30078,-4.46094 1.80078,-3.05859 a 0.50005,0.50005 0 0 0 0.0625,-0.16797 l 0.61914,-3.51953 a 0.50005,0.50005 0 0 0 0.006,-0.125 l -0.40039,-5.16992 1.18946,-3.1543 5.34375,-6.3457 6.6289,-4.63282 2.36719,-0.83789 a 0.50005,0.50005 0 0 0 0.26367,-0.21875 l 3.09375,-5.2832 3.24805,-2.21484 a 0.50005,0.50005 0 0 0 0.2168,-0.42188 l -0.0566,-3.89844 2.18165,-2.20117 a 0.50005,0.50005 0 0 0 0.0723,-0.0918 l 2.30078,-3.76953 a 0.50005,0.50005 0 0 0 0.0684,-0.32812 l -0.76172,-5.55274 1.36524,-3.15234 a 0.50005,0.50005 0 0 0 0.041,-0.2168 l -0.13086,-3.39062 a 0.50005,0.50005 0 0 0 -0.0234,-0.13477 l -1.03516,-3.19922 0.98633,-2.48437 3.08789,-1.00586 a 0.50005,0.50005 0 0 0 0.3125,-0.6543 l -1.10156,-2.90234 2.36914,-1.92188 a 0.50005,0.50005 0 0 0 0.13086,-0.16211 l 2.25781,-4.44726 6,-4.5918 a 0.50005,0.50005 0 0 0 0.11523,-0.125 l 1.30078,-2 a 0.50005,0.50005 0 0 0 0.0801,-0.25 l 0.29492,-6.96875 2.44922,-0.91406 a 0.50005,0.50005 0 0 0 0.25391,-0.20898 l 1.19922,-1.98047 a 0.50005,0.50005 0 0 0 0.0449,-0.42188 l -1.32031,-3.83008 a 0.50005,0.50005 0 0 0 -0.58008,-0.32617 l -1.44141,0.32031 0.51758,-4.96875 a 0.50005,0.50005 0 0 0 -0.041,-0.25781 l -0.91016,-2.02539 2.73633,-2.72461 a 0.50005,0.50005 0 0 0 0.13476,-0.46094 l -0.38867,-1.77539 1.52734,-1.06836 A 0.50005,0.50005 0 0 0 287.58008,396 l 0.78125,-2.1543 1.21679,0.60352 a 0.50005,0.50005 0 0 0 0.63868,-0.17383 l 2.35937,-3.57031 a 0.50005,0.50005 0 0 0 0.0703,-0.39063 l -0.66796,-2.83007 2.50586,-1.56055 a 0.50005,0.50005 0 0 0 0.23046,-0.5 l -0.33398,-2.16602 1.71875,-0.0684 a 0.50005,0.50005 0 0 0 0.41406,-0.25195 l 1.85938,-3.25 a 0.50005,0.50005 0 0 0 0.041,-0.4043 l -0.62304,-1.88867 3.79101,-1.29101 a 0.50005,0.50005 0 0 0 0.084,-0.90821 l -1.72266,-0.9707 1.95312,-1.23242 a 0.50005,0.50005 0 0 0 0.0117,-0.83789 l -4.24023,-2.83594 -0.52735,-2.54492 0.55665,-2.5586 3.1875,-1.52343 a 0.50005,0.50005 0 0 0 0.24414,-0.25 l 0.77929,-1.78125 a 0.50005,0.50005 0 0 0 -0.0918,-0.54102 l -1.71875,-1.84766 0.1914,-4.88281 a 0.50005,0.50005 0 0 0 -0.0742,-0.2832 l -2.57226,-4.11914 -0.95117,-3.45899 a 0.50005,0.50005 0 0 0 -0.0527,-0.125 l -1.76953,-2.95312 1.26172,-3.02734 a 0.50005,0.50005 0 0 0 0.0391,-0.16993 l 0.125,-2.89257 1.50391,-2.50196 a 0.50005,0.50005 0 0 0 0.0684,-0.31054 l -0.21875,-2.08204 1.23633,-3.69726 a 0.50005,0.50005 0 0 0 -0.0195,-0.36719 l -2.53711,-5.52148 0.28126,-3.59961 a 0.50005,0.50005 0 0 0 -0.34766,-0.51563 l -1.62891,-0.51758 1.82422,-3.92187 4.15625,-2.87305 a 0.50005,0.50005 0 0 0 0.11524,-0.10937 l 1.5,-1.99024 a 0.50005,0.50005 0 0 0 0.0976,-0.23242 l 0.75977,-5.50976 1.66797,0.50976 a 0.50005,0.50005 0 0 0 0.35742,-0.0254 l 7.14062,-3.3418 a 0.50005,0.50005 0 0 0 0.21289,-0.18945 l 1.02149,-1.65039 3.64648,0.27734 a 0.50005,0.50005 0 0 0 0.0566,0 l 7.48047,-0.28906 a 0.50005,0.50005 0 0 0 0.34375,-0.15625 l 2.44922,-2.5918 2.98633,-0.25195 6.42383,3.27539 a 0.50005,0.50005 0 0 0 0.36914,0.0332 l 4.35937,-1.28906 a 0.50005,0.50005 0 0 0 0.13477,-0.0625 l 4.1914,-2.77539 3.0918,-0.82812 a 0.50005,0.50005 0 0 0 0.21289,-0.1211 l 1.41992,-1.33984 a 0.50005,0.50005 0 0 0 0.14063,-0.49609 l -0.82617,-3 0.39062,-4.04102 2.89258,-1.10938 a 0.50005,0.50005 0 0 0 0.30664,-0.58007 l -0.45898,-1.97657 2.16796,-1.77929 2.45704,0.13867 a 0.50005,0.50005 0 0 0 0.31445,-0.0898 z"
       id="Grafton" />
    <path
       style="color:#000000;font-style:normal;font-variant:normal;font-weight:normal;font-stretch:normal;font-size:medium;line-height:normal;font-family:sans-serif;font-variant-ligatures:normal;font-variant-position:normal;font-variant-caps:normal;font-variant-numeric:normal;font-variant-alternates:normal;font-feature-settings:normal;text-indent:0;text-align:start;text-decoration:none;text-decoration-line:none;text-decoration-style:solid;text-decoration-color:#000000;letter-spacing:normal;word-spacing:normal;text-transform:none;writing-mode:lr-tb;direction:ltr;text-orientation:mixed;dominant-baseline:auto;baseline-shift:baseline;text-anchor:start;white-space:normal;shape-padding:0;clip-rule:nonzero;display:inline;overflow:visible;visibility:visible;opacity:1;isolation:auto;mix-blend-mode:normal;color-interpolation:sRGB;color-interpolation-filters:linearRGB;solid-color:#000000;solid-opacity:1;vector-effect:none;fill:#cccccc;fill-opacity:1;fill-rule:nonzero;stroke:none;stroke-width:1;stroke-linecap:butt;stroke-linejoin:miter;stroke-miterlimit:4;stroke-dasharray:none;stroke-dashoffset:0;stroke-opacity:1;color-rendering:auto;image-rendering:auto;shape-rendering:auto;text-rendering:auto;enable-background:accumulate"
       d="m 476.37891,623.01562 26.26757,22.33594 a 0.50005,0.50005 0 0 0 0.006,0.004 l 22.5,18.56836 -10.0332,16.91015 a 0.50005,0.50005 0 0 0 0.43945,0.75586 l 20.66993,-0.36914 a 0.50005,0.50005 0 0 0 0.10546,-0.0137 l 10.36719,-2.42578 9.27539,1.77539 3.76172,1.03516 a 0.50005,0.50005 0 0 0 0.46484,-0.10938 l 2.82032,-2.51953 a 0.50005,0.50005 0 0 0 0.15625,-0.26953 l 0.38867,-1.84961 a 0.50005,0.50005 0 0 0 0.0117,-0.12695 l -0.40039,-8.64453 2.79297,-0.44922 1.86914,1.8164 a 0.50005,0.50005 0 0 0 0.27148,0.13477 l 2.71094,0.41992 a 0.50005,0.50005 0 0 0 0.44531,-0.15625 l 0.99414,-1.08789 2.16406,1.41016 5.59375,4.86718 a 0.50005,0.50005 0 0 0 0.0684,0.0488 l 3.49219,2.13086 2.58789,4.0332 a 0.50005,0.50005 0 0 0 0.2168,0.18555 l 4.1289,1.8418 a 0.50005,0.50005 0 0 0 0.24219,0.041 l 6.61133,-0.5039 0.53711,3.91797 -1.31836,0.38867 a 0.50005,0.50005 0 0 0 -0.35742,0.4707 l -0.0684,4.26172 -1.4043,3.27734 -2.00195,1.38868 a 0.50005,0.50005 0 0 0 -0.19141,0.25585 l -1.51757,4.69336 -3.04688,6.0254 -1.23047,0.0977 a 0.50005,0.50005 0 0 0 -0.40625,0.27149 l -1.72851,3.41992 a 0.50005,0.50005 0 0 0 -0.0547,0.24609 l 0.0762,1.85547 -2.38477,4.88281 -2.0625,1.92774 A 0.50005,0.50005 0 0 0 580.05273,720.5 l -0.1875,1.83984 -1.57226,1.15821 a 0.50005,0.50005 0 0 0 -0.19727,0.32812 l -0.83984,5.61133 -1.5918,1.22656 a 0.50005,0.50005 0 0 0 -0.16601,0.23242 l -1.03125,2.96875 a 0.50005,0.50005 0 0 0 -0.0274,0.16211 l -0.0195,4.33789 -1.00781,2.31446 a 0.50005,0.50005 0 0 0 -0.041,0.1582 l -0.2832,3.41797 -2.72266,0.95312 a 0.50005,0.50005 0 0 0 -0.0996,0.0469 l -3.69531,2.29687 -8.23633,-6.33007 a 0.50005,0.50005 0 0 0 -0.15429,-0.0801 l -3.75,-1.16992 a 0.50005,0.50005 0 0 0 -0.20117,-0.0195 l -6.31055,0.6504 a 0.50005,0.50005 0 0 0 -0.20703,0.0684 l -7.91797,4.79687 -14.46875,3.12305 a 0.50005,0.50005 0 0 0 -0.26172,0.14843 l -2.94922,3.17969 a 0.50005,0.50005 0 0 0 -0.0937,0.14649 l -2.0293,4.80859 a 0.50005,0.50005 0 0 0 -0.0215,0.0586 l -2.19336,7.72657 -14.94531,-4.36914 a 0.50005,0.50005 0 0 0 -0.37305,0.0371 l -7.43164,3.92969 a 0.50005,0.50005 0 0 0 -0.15039,0.12305 l -4.58984,5.5293 a 0.50005,0.50005 0 0 0 -0.11328,0.35156 l 1.01171,15.52148 -8.82617,-2.5332 a 0.50005,0.50005 0 0 0 -0.26367,-0.004 l -4.57031,1.19922 -3.09766,-3.76367 a 0.50005,0.50005 0 0 0 -0.26953,-0.16797 l -20.17383,-4.85156 -0.10351,-2.19531 a 0.50005,0.50005 0 0 0 -0.28125,-0.42774 l -2.5625,-1.24023 0.75586,-3.82227 a 0.50005,0.50005 0 0 0 -0.0996,-0.4082 l -6,-7.5 a 0.50005,0.50005 0 0 0 -0.3711,-0.1875 l -8.58593,-0.34375 -5.36524,-31.38281 16.54102,-2.68164 a 0.50005,0.50005 0 0 0 0.41211,-0.58204 L 444.43164,703.5 a 0.50005,0.50005 0 0 0 -0.006,-0.0293 l -2.20703,-8.91797 1.62305,0.35547 a 0.50005,0.50005 0 0 0 0.57031,-0.29492 l 8.0332,-19.19726 9.02344,-18.375 a 0.50005,0.50005 0 0 0 0.008,-0.0176 l 8.73047,-19.63086 a 0.50005,0.50005 0 0 0 0.008,-0.0156 l 2.9375,-7.31054 2.36328,-4.23243 a 0.50005,0.50005 0 0 0 0.043,-0.0996 z"
       id="Rockingham" />
    <path
       style="color:#000000;font-style:normal;font-variant:normal;font-weight:normal;font-stretch:normal;font-size:medium;line-height:normal;font-family:sans-serif;font-variant-ligatures:normal;font-variant-position:normal;font-variant-caps:normal;font-variant-numeric:normal;font-variant-alternates:normal;font-feature-settings:normal;text-indent:0;text-align:start;text-decoration:none;text-decoration-line:none;text-decoration-style:solid;text-decoration-color:#000000;letter-spacing:normal;word-spacing:normal;text-transform:none;writing-mode:lr-tb;direction:ltr;text-orientation:mixed;dominant-baseline:auto;baseline-shift:baseline;text-anchor:start;white-space:normal;shape-padding:0;clip-rule:nonzero;display:inline;overflow:visible;visibility:visible;opacity:1;isolation:auto;mix-blend-mode:normal;color-interpolation:sRGB;color-interpolation-filters:linearRGB;solid-color:#000000;solid-opacity:1;vector-effect:none;fill:#cccccc;fill-opacity:1;fill-rule:nonzero;stroke:none;stroke-width:1;stroke-linecap:butt;stroke-linejoin:miter;stroke-miterlimit:4;stroke-dasharray:none;stroke-dashoffset:0;stroke-opacity:1;color-rendering:auto;image-rendering:auto;shape-rendering:auto;text-rendering:auto;enable-background:accumulate"
       d="m 341.53906,520.57812 6.58985,18.48047 a 0.50005,0.50005 0 0 0 0.67773,0.28711 l 3.08008,-1.40039 a 0.50005,0.50005 0 0 0 0.19336,-0.15625 l 1.41406,-1.89648 2.13086,-0.52149 1.60547,2.47071 a 0.50005,0.50005 0 0 0 0.8125,0.0371 l 3.40234,-4.3125 0.85742,0.48828 a 0.50005,0.50005 0 0 0 0.39454,0.043 l 2.89648,-0.89063 2.77539,1.40039 1.12305,3.01758 a 0.50005,0.50005 0 0 0 0.30078,0.29688 l 1.2793,0.45117 1.96875,3.98828 a 0.50005,0.50005 0 0 0 0.17773,0.19922 l 3.66797,2.37304 -0.58008,3.69922 a 0.50005,0.50005 0 0 0 0.0762,0.35352 l 3.16016,4.77929 a 0.50005,0.50005 0 0 0 0.18555,0.16797 l 5,2.59961 a 0.50005,0.50005 0 0 0 0.22265,0.0566 l 3.41016,0.0645 1.64648,4.03125 0.4043,5.66992 a 0.50005,0.50005 0 0 0 0.0352,0.15234 l 1.83007,4.49024 a 0.50005,0.50005 0 0 0 0.19336,0.23242 l 4.22071,2.70117 a 0.50005,0.50005 0 0 0 0.58203,-0.0312 l 3.58203,-2.86719 1.98242,-0.57226 a 0.50005,0.50005 0 0 0 0.17383,-0.0899 l 2.95898,-2.36914 2.2793,0.64453 44.74609,32.1875 24.91797,18.39258 -2.17773,2.5918 a 0.50005,0.50005 0 0 0 -0.0957,0.17773 l -1.02343,3.39844 -2.35352,4.21094 a 0.50005,0.50005 0 0 0 -0.0273,0.0586 l -2.94727,7.33203 -8.72265,19.61133 -9.02539,18.38281 a 0.50005,0.50005 0 0 0 -0.0117,0.0273 l -7.87891,18.82422 -2.00391,-0.43946 a 0.50005,0.50005 0 0 0 -0.59179,0.60743 l 2.20117,8.89257 -11.81055,-2.96679 -1.05078,-6.99024 a 0.50005,0.50005 0 0 0 -0.75781,-0.34961 l -3.99024,2.48047 -1.78515,-1.6289 -1.20899,-2.97461 a 0.50005,0.50005 0 0 0 -0.52539,-0.3086 l -4.83984,0.61133 -0.98438,-5.42383 a 0.50005,0.50005 0 0 0 -0.57226,-0.40429 l -27.31445,4.45117 -5.84571,-29.59571 a 0.50005,0.50005 0 0 0 -0.61719,-0.38671 l -28.79101,7.5996 a 0.50005,0.50005 0 0 0 -0.008,0.004 l -13.03516,3.66211 -12.54297,-27.75781 a 0.50005,0.50005 0 0 0 -0.58594,-0.27735 l -21.14648,5.70704 -6.95508,-10.2754 -0.78125,-9.67773 a 0.50005,0.50005 0 0 0 -0.48437,-0.46094 l -4.13477,-0.0996 -5.28516,-20.10742 8.60743,-16.16797 a 0.50005,0.50005 0 0 0 0.0469,-0.12695 l 0.65039,-2.93945 a 0.50005,0.50005 0 0 0 0.0117,-0.0781 l 0.45899,-7.67969 a 0.50005,0.50005 0 0 0 -0.0801,-0.30468 l -2.38086,-3.63282 0.86914,-4.78125 8.97266,1.26368 a 0.50005,0.50005 0 0 0 0.50781,-0.25391 l 4.72265,-8.54687 12.29688,-19.47266 6.74023,-9.40039 a 0.50005,0.50005 0 0 0 0.0137,-0.0215 l 2.90235,-4.53125 z"
       id="Merrimack" />
    <path
       style="color:#000000;font-style:normal;font-variant:normal;font-weight:normal;font-stretch:normal;font-size:medium;line-height:normal;font-family:sans-serif;font-variant-ligatures:normal;font-variant-position:normal;font-variant-caps:normal;font-variant-numeric:normal;font-variant-alternates:normal;font-feature-settings:normal;text-indent:0;text-align:start;text-decoration:none;text-decoration-line:none;text-decoration-style:solid;text-decoration-color:#000000;letter-spacing:normal;word-spacing:normal;text-transform:none;writing-mode:lr-tb;direction:ltr;text-orientation:mixed;dominant-baseline:auto;baseline-shift:baseline;text-anchor:start;white-space:normal;shape-padding:0;clip-rule:nonzero;display:inline;overflow:visible;visibility:visible;opacity:1;isolation:auto;mix-blend-mode:normal;color-interpolation:sRGB;color-interpolation-filters:linearRGB;solid-color:#000000;solid-opacity:1;vector-effect:none;fill:#cccccc;fill-opacity:1;fill-rule:nonzero;stroke:none;stroke-width:1;stroke-linecap:butt;stroke-linejoin:miter;stroke-miterlimit:4;stroke-dasharray:none;stroke-dashoffset:0;stroke-opacity:1;color-rendering:auto;image-rendering:auto;shape-rendering:auto;text-rendering:auto;enable-background:accumulate"
       d="m 271.78516,651.19141 -3.46289,9.2832 a 0.50005,0.50005 0 0 0 -0.0195,0.0625 l -1.21875,5.21875 a 0.50005,0.50005 0 0 0 0.45704,0.61328 l 12.40039,0.73047 a 0.50005,0.50005 0 0 0 0.0195,0 l 19.05859,0.37109 0.35352,0.008 -1.75782,13.64257 -3.66601,19.33594 a 0.50005,0.50005 0 0 0 -0.008,0.0703 l -1.07032,22.65821 a 0.50005,0.50005 0 0 0 0.48438,0.52343 l 12.17578,0.34961 2.38281,17.69727 a 0.50005,0.50005 0 0 0 0.002,0.01 l 4.4707,29.10938 a 0.50005,0.50005 0 0 0 0.46875,0.42383 l 6.45703,0.3125 0.64453,3.3789 2.56836,18.92188 -11.22656,-0.3418 -32.29688,-1.48047 a 0.50005,0.50005 0 0 0 -0.002,0 l -36.42773,-1.44922 -38.56641,-1.90234 -0.44336,-1.60156 a 0.50005,0.50005 0 0 0 -0.0703,-0.15039 l -2.62696,-3.81836 -0.59179,-3.50195 a 0.50005,0.50005 0 0 0 -0.0918,-0.21485 l -3.38086,-4.54883 a 0.50005,0.50005 0 0 0 -0.63086,-0.14648 l -4.55273,2.37305 -0.44141,-0.82032 1.68555,-3.19531 a 0.50005,0.50005 0 0 0 -0.0195,-0.50195 l -2.11133,-3.30078 a 0.50005,0.50005 0 0 0 -0.082,-0.0977 l -4.62696,-4.27539 -1.07812,-4.62305 -0.77734,-6.57226 a 0.50005,0.50005 0 0 0 -0.0606,-0.18946 l -1.83985,-3.23828 1.04102,-9.32422 2.5,-1.19921 a 0.50005,0.50005 0 0 0 0.17188,-0.13672 l 2.0996,-2.59961 a 0.50005,0.50005 0 0 0 0.10938,-0.27539 l 0.32031,-4.03516 1.29297,-2.00391 a 0.50005,0.50005 0 0 0 0.0781,-0.30664 L 189.408,723.8949 a 0.50005,0.50005 0 0 0 -0.0625,-0.21094 l -1.63867,-2.88086 0.42578,-1.18945 2.91797,-2.32031 5.70899,-1.28516 a 0.50005,0.50005 0 0 0 0.19726,-0.0937 l 2.25586,-1.75195 1.50391,0.51953 a 0.50005,0.50005 0 0 0 0.54492,-0.14844 l 2.7793,-3.29101 a 0.50005,0.50005 0 0 0 0.082,-0.50781 l -0.7461,-1.85743 1.06055,-2.74804 2.23242,-0.27344 a 0.50005,0.50005 0 0 0 0.41602,-0.33985 l 0.93945,-2.85937 a 0.50005,0.50005 0 0 0 -0.17383,-0.55469 l -2.64453,-1.99414 -1.21094,-3.18554 0.62696,-3.57618 a 0.50005,0.50005 0 0 0 -0.0332,-0.28125 l -1.43554,-3.38867 4.82031,-5.43359 a 0.50005,0.50005 0 0 0 0.0742,-0.11133 l 2.28906,-4.65039 a 0.50005,0.50005 0 0 0 0.0176,-0.4043 l -1.62305,-4.11523 1.71289,-2.54102 a 0.50005,0.50005 0 0 0 0.0781,-0.20508 l 0.45117,-2.98046 a 0.50005,0.50005 0 0 0 -0.0801,-0.35547 l -2.07031,-3.04883 0.4082,-1.48828 a 0.50005,0.50005 0 0 0 -0.29883,-0.59766 l -2.29297,-0.90625 -0.92382,-1.99805 0.97265,-3.91406 3.60352,0.41016 0.0371,6.94726 a 0.50005,0.50005 0 0 0 0.45508,0.49414 l 13.34961,1.19141 a 0.50005,0.50005 0 0 0 0.54101,-0.55664 l -0.84766,-7.21289 9.71094,0.79883 a 0.50005,0.50005 0 0 0 0.53516,-0.57813 l -0.29883,-1.83789 13.33789,-1.68555 a 0.50005,0.50005 0 0 0 0.0117,-0.002 z"
       id="Cheshire" />
    <path
       style="color:#000000;font-style:normal;font-variant:normal;font-weight:normal;font-stretch:normal;font-size:medium;line-height:normal;font-family:sans-serif;font-variant-ligatures:normal;font-variant-position:normal;font-variant-caps:normal;font-variant-numeric:normal;font-variant-alternates:normal;font-feature-settings:normal;text-indent:0;text-align:start;text-decoration:none;text-decoration-line:none;text-decoration-style:solid;text-decoration-color:#000000;letter-spacing:normal;word-spacing:normal;text-transform:none;writing-mode:lr-tb;direction:ltr;text-orientation:mixed;dominant-baseline:auto;baseline-shift:baseline;text-anchor:start;white-space:normal;shape-padding:0;clip-rule:nonzero;display:inline;overflow:visible;visibility:visible;opacity:1;isolation:auto;mix-blend-mode:normal;color-interpolation:sRGB;color-interpolation-filters:linearRGB;solid-color:#000000;solid-opacity:1;vector-effect:none;fill:#cccccc;fill-opacity:1;fill-rule:nonzero;stroke:none;stroke-width:1;stroke-linecap:butt;stroke-linejoin:miter;stroke-miterlimit:4;stroke-dasharray:none;stroke-dashoffset:0;stroke-opacity:1;color-rendering:auto;image-rendering:auto;shape-rendering:auto;text-rendering:auto;enable-background:accumulate"
       d="m 412.94727,475.16992 14.84179,14.64649 a 0.50005,0.50005 0 0 0 0.008,0.006 l 22.94921,21.7207 a 0.50005,0.50005 0 0 0 0.006,0.006 l 22.20899,20.43945 a 0.50005,0.50005 0 0 0 0.19531,0.11133 l 6.62695,1.98242 4.10938,4.1875 a 0.50005,0.50005 0 0 0 0.75,-0.0391 l 1.78906,-2.26953 7.41211,5.51172 -5.875,6.94531 a 0.50005,0.50005 0 0 0 -0.11328,0.39062 l 3.87891,28.07032 a 0.50005,0.50005 0 0 0 0.002,0.0117 l 3.38476,20.57227 -7.37304,9.33789 a 0.50005,0.50005 0 0 0 -0.0293,0.0391 l -3.1582,4.9375 -5.99024,6.68946 -24.98242,-18.43946 a 0.50005,0.50005 0 0 0 -0.006,-0.004 L 408.76172,567.7832 a 0.50005,0.50005 0 0 0 -0.15625,-0.0742 l -2.60938,-0.74023 a 0.50005,0.50005 0 0 0 -0.44921,0.0918 l -3.08204,2.46679 -1.98437,0.57227 a 0.50005,0.50005 0 0 0 -0.17383,0.0898 l -3.37891,2.70703 -3.78515,-2.42187 -1.74024,-4.26953 -0.40429,-5.66992 a 0.50005,0.50005 0 0 0 -0.0352,-0.1543 l -1.80078,-4.41016 a 0.50005,0.50005 0 0 0 -0.45313,-0.31054 l -3.62304,-0.0684 -4.78125,-2.48633 -2.98047,-4.50977 0.59961,-3.82812 a 0.50005,0.50005 0 0 0 -0.22266,-0.49805 l -3.82422,-2.47461 -1.99804,-4.04687 a 0.50005,0.50005 0 0 0 -0.28125,-0.25 l -1.25,-0.44141 -1.05274,-2.83008 0.53516,-1.92773 1.94922,-2.14258 a 0.50005,0.50005 0 0 0 -0.0293,-0.70313 l -3.11133,-2.86914 3.33008,-3.02539 1.60547,1.3086 a 0.50005,0.50005 0 0 0 0.29883,0.11328 l 3.66992,0.12891 a 0.50005,0.50005 0 0 0 0.31641,-0.0996 l 3.92968,-2.93946 a 0.50005,0.50005 0 0 0 0.16016,-0.20312 l 1.13672,-2.63672 2.99218,-2.21875 a 0.50005,0.50005 0 0 0 0.16993,-0.57813 l -1.1875,-3.15429 1.2832,-3.83008 a 0.50005,0.50005 0 0 0 0.0176,-0.25586 l -0.95313,-4.82031 1.34961,-3.53516 a 0.50005,0.50005 0 0 0 0.0312,-0.16211 l 0.0977,-3.03125 5.56055,-0.93945 22.20312,-3.14063 a 0.50005,0.50005 0 0 0 0.42578,-0.55468 z"
       id="Belknap" />
    <path
       style="color:#000000;font-style:normal;font-variant:normal;font-weight:normal;font-stretch:normal;font-size:medium;line-height:normal;font-family:sans-serif;font-variant-ligatures:normal;font-variant-position:normal;font-variant-caps:normal;font-variant-numeric:normal;font-variant-alternates:normal;font-feature-settings:normal;text-indent:0;text-align:start;text-decoration:none;text-decoration-line:none;text-decoration-style:solid;text-decoration-color:#000000;letter-spacing:normal;word-spacing:normal;text-transform:none;writing-mode:lr-tb;direction:ltr;text-orientation:mixed;dominant-baseline:auto;baseline-shift:baseline;text-anchor:start;white-space:normal;shape-padding:0;clip-rule:nonzero;display:inline;overflow:visible;visibility:visible;opacity:1;isolation:auto;mix-blend-mode:normal;color-interpolation:sRGB;color-interpolation-filters:linearRGB;solid-color:#000000;solid-opacity:1;vector-effect:none;fill:#cccccc;fill-opacity:1;fill-rule:nonzero;stroke:none;stroke-width:1;stroke-linecap:butt;stroke-linejoin:miter;stroke-miterlimit:4;stroke-dasharray:none;stroke-dashoffset:0;stroke-opacity:1;color-rendering:auto;image-rendering:auto;shape-rendering:auto;text-rendering:auto;enable-background:accumulate"
       d="m 234.94922,522.95508 11.98633,2.29687 a 0.50005,0.50005 0 0 0 0.0137,0.002 l 14.69726,2.42968 22.01563,9.56641 -2.75781,4.13281 a 0.50005,0.50005 0 0 0 0.21093,0.73242 l 6.50977,2.92188 a 0.50005,0.50005 0 0 0 0.625,-0.18555 l 4.11328,-6.35156 0.28516,1.56836 a 0.50005,0.50005 0 0 0 0.41211,0.4043 l 28.59179,4.61914 -11.91601,18.87109 a 0.50005,0.50005 0 0 0 -0.0137,0.0254 l -4.56446,8.25781 -9.10937,-1.28125 a 0.50005,0.50005 0 0 0 -0.56055,0.40625 l -0.99023,5.44922 a 0.50005,0.50005 0 0 0 0.0742,0.36328 l 2.39843,3.66211 -0.44726,7.47461 -0.62696,2.83594 -8.66796,16.2793 a 0.50005,0.50005 0 0 0 -0.043,0.36133 l 5.43164,20.66015 a 0.50005,0.50005 0 0 0 0.4707,0.37305 l 4.06055,0.0996 0.7539,9.36133 a 0.50005,0.50005 0 0 0 0.084,0.24023 l 6.83398,10.09375 -5.54687,1.45117 a 0.50005,0.50005 0 0 0 -0.33203,0.68164 l 2.88281,6.66211 -3.14649,9.04297 -18.6875,-0.36328 -11.79882,-0.69336 1.07812,-4.61133 3.74805,-10.05078 a 0.50005,0.50005 0 0 0 -0.54102,-0.66797 l -25.49414,3.82813 -13.8457,1.75 a 0.50005,0.50005 0 0 0 -0.42969,0.57617 l 0.27735,1.71875 -9.6836,-0.79688 a 0.50005,0.50005 0 0 0 -0.53711,0.55664 l 0.84766,7.20899 -12.28321,-1.0957 -0.0391,-6.93555 a 0.50005,0.50005 0 0 0 -0.44336,-0.49414 l -4.04492,-0.45899 -0.0586,-2.70898 1.91601,-2.94141 a 0.50005,0.50005 0 0 0 0.0371,-0.48047 l -1.29297,-2.84961 2.61719,-2.86523 a 0.50005,0.50005 0 0 0 0.12695,-0.39648 l -0.5664,-4.87305 1.53125,-4.2793 a 0.50005,0.50005 0 0 0 0.002,-0.33398 l -1.10547,-3.17969 0.80274,-3.97461 2.83789,-1.38086 a 0.50005,0.50005 0 0 0 0.22265,-0.2168 l 3.13086,-5.91992 a 0.50005,0.50005 0 0 0 0.0449,-0.12109 l 1.41796,-6.20508 1.39454,-2.86914 a 0.50005,0.50005 0 0 0 -0.0156,-0.4668 l -3.14648,-5.50781 1.98632,-4.01172 2.23438,-2.74609 a 0.50005,0.50005 0 0 0 -0.16992,-0.76563 l -4.7461,-2.30078 -0.49414,-3.85351 0.59375,-2.15821 2.01953,-2.23242 a 0.50005,0.50005 0 0 0 0.125,-0.26758 l 1.94336,-14.18945 1.15821,-3.83398 a 0.50005,0.50005 0 0 0 0.0195,-0.19336 l -0.4043,-4.08789 2.39649,-4.43555 a 0.50005,0.50005 0 0 0 0.0605,-0.21094 l 0.21875,-4.06836 a 0.50005,0.50005 0 0 0 -0.0351,-0.21484 l -0.84961,-2.09961 a 0.50005,0.50005 0 0 0 -0.0645,-0.11328 l -2.89843,-3.87305 0.88281,-3.72851 0.83789,-0.19141 a 0.50005,0.50005 0 0 0 0.33203,-0.25781 l 1.98047,-3.83985 a 0.50005,0.50005 0 0 0 0.0547,-0.25976 l -0.43555,-7.04688 0.5332,-2.71093 1.375,-1.65626 5.13867,-2.37109 a 0.50005,0.50005 0 0 0 0.10938,-0.0703 z"
       id="Sullivan" />
    <path
       style="color:#000000;font-style:normal;font-variant:normal;font-weight:normal;font-stretch:normal;font-size:medium;line-height:normal;font-family:sans-serif;font-variant-ligatures:normal;font-variant-position:normal;font-variant-caps:normal;font-variant-numeric:normal;font-variant-alternates:normal;font-feature-settings:normal;text-indent:0;text-align:start;text-decoration:none;text-decoration-line:none;text-decoration-style:solid;text-decoration-color:#000000;letter-spacing:normal;word-spacing:normal;text-transform:none;writing-mode:lr-tb;direction:ltr;text-orientation:mixed;dominant-baseline:auto;baseline-shift:baseline;text-anchor:start;white-space:normal;shape-padding:0;clip-rule:nonzero;display:inline;overflow:visible;visibility:visible;opacity:1;isolation:auto;mix-blend-mode:normal;color-interpolation:sRGB;color-interpolation-filters:linearRGB;solid-color:#000000;solid-opacity:1;vector-effect:none;fill:#cccccc;fill-opacity:1;fill-rule:nonzero;stroke:none;stroke-width:1;stroke-linecap:butt;stroke-linejoin:miter;stroke-miterlimit:4;stroke-dasharray:none;stroke-dashoffset:0;stroke-opacity:1;color-rendering:auto;image-rendering:auto;shape-rendering:auto;text-rendering:auto;enable-background:accumulate"
       d="m 526.22266,313.55664 2.41796,58.10352 a 0.50005,0.50005 0 0 0 0,0.004 l 0.76954,15.92774 1.55078,38.16211 0.0898,6.11328 a 0.50005,0.50005 0 0 0 0,0.0137 l 0.74024,17.42578 0.30859,14.30469 a 0.50005,0.50005 0 0 0 0.002,0.0312 l 1.0293,12.05078 0.7793,15.89062 a 0.50005,0.50005 0 0 0 0.002,0.01 l 1.57812,23.19531 0.81055,16.75586 a 0.50005,0.50005 0 0 0 0.17774,0.35742 l 3.68945,3.09375 1.02344,2.40039 -0.45703,1.6543 -1.75,0.93945 a 0.50005,0.50005 0 0 0 -0.13282,0.10157 l -1.55078,1.68945 a 0.50005,0.50005 0 0 0 -0.0312,0.0391 l -11.48633,15.32813 -2.92578,-13.25586 a 0.50005,0.50005 0 0 0 -0.85156,-0.23438 l -1.3125,1.39258 -3.72852,0.19922 -0.84375,-0.78711 a 0.50005,0.50005 0 0 0 -0.76953,0.10938 l -3.36133,5.58984 -0.62695,-1.0918 a 0.50005,0.50005 0 0 0 -0.70312,-0.17187 l -2.6836,1.72656 -1.5332,0.043 -3.68164,-19.75977 a 0.50005,0.50005 0 0 0 -0.89258,-0.20508 l -7.40234,9.98633 -7.82813,-5.82031 a 0.50005,0.50005 0 0 0 -0.6914,0.0918 l -1.73829,2.20312 -3.80273,-3.875 a 0.50005,0.50005 0 0 0 -0.21289,-0.1289 l -6.63867,-1.98633 -22.12305,-20.35938 -22.94336,-21.71484 -15.73437,-15.52539 -1.40821,-10.67969 a 0.50005,0.50005 0 0 0 -0.54687,-0.43164 l -0.8086,0.082 -4.49804,-28.72851 44.3457,-7.00196 a 0.50005,0.50005 0 0 0 0.41602,-0.56836 l -4.86914,-32.39843 1.46093,-2.01368 a 0.50005,0.50005 0 0 0 0.0332,-0.0547 l 6.52929,-11.99024 a 0.50005,0.50005 0 0 0 -0.45117,-0.73828 l -3.99609,0.0996 -3.1875,-8.40234 0.99804,-1.69336 a 0.50005,0.50005 0 0 0 0.0684,-0.25781 l -0.0195,-4.5293 a 0.50005,0.50005 0 0 0 -0.0117,-0.10156 l -2.3789,-11.10157 a 0.50005,0.50005 0 0 0 -0.2168,-0.31445 l -5.58008,-3.61914 -2.82031,-12.56445 1.82031,-0.30274 a 0.50005,0.50005 0 0 0 0.002,0 l 4.1582,-0.71094 2.2793,10.49415 a 0.50005,0.50005 0 0 0 0.21679,0.3125 l 5.95899,3.83984 2.91211,12.69726 -0.041,9.55079 a 0.50005,0.50005 0 0 0 0.12695,0.33593 l 1.71094,1.91992 a 0.50005,0.50005 0 0 0 0.6582,0.0781 l 2.4668,-1.71484 2.56836,-0.0566 a 0.50005,0.50005 0 0 0 0.48438,-0.42969 l 1.99023,-13.96875 a 0.50005,0.50005 0 0 0 -0.51953,-0.57031 l -0.043,0.002 11.37891,-31.7168 33.43164,2.47266 a 0.50005,0.50005 0 0 0 0.0918,-0.002 l 6.1543,-0.67774 6.1543,-0.0391 a 0.50005,0.50005 0 0 0 0.49609,-0.50196 l -0.0488,-11.45117 a 0.50005,0.50005 0 0 0 -0.01,-0.0918 l -0.41211,-2.13672 z"
       id="Carroll" />
    <path
       style="color:#000000;font-style:normal;font-variant:normal;font-weight:normal;font-stretch:normal;font-size:medium;line-height:normal;font-family:sans-serif;font-variant-ligatures:normal;font-variant-position:normal;font-variant-caps:normal;font-variant-numeric:normal;font-variant-alternates:normal;font-feature-settings:normal;text-indent:0;text-align:start;text-decoration:none;text-decoration-line:none;text-decoration-style:solid;text-decoration-color:#000000;letter-spacing:normal;word-spacing:normal;text-transform:none;writing-mode:lr-tb;direction:ltr;text-orientation:mixed;dominant-baseline:auto;baseline-shift:baseline;text-anchor:start;white-space:normal;shape-padding:0;clip-rule:nonzero;display:inline;overflow:visible;visibility:visible;opacity:1;isolation:auto;mix-blend-mode:normal;color-interpolation:sRGB;color-interpolation-filters:linearRGB;solid-color:#000000;solid-opacity:1;vector-effect:none;fill:#cccccc;fill-opacity:1;fill-rule:nonzero;stroke:none;stroke-width:1;stroke-linecap:butt;stroke-linejoin:miter;stroke-miterlimit:4;stroke-dasharray:none;stroke-dashoffset:0;stroke-opacity:1;color-rendering:auto;image-rendering:auto;shape-rendering:auto;text-rendering:auto;enable-background:accumulate"
       d="m 326.83984,643.72266 12.54493,27.76367 a 0.50005,0.50005 0 0 0 0.58984,0.27539 l 13.44727,-3.7793 28.27148,-7.46484 5.83594,29.54883 a 0.50005,0.50005 0 0 0 0.57031,0.39648 l 27.30664,-4.45117 0.98242,5.4082 a 0.50005,0.50005 0 0 0 0.55469,0.40625 l 4.92773,-0.62109 1.10547,2.72265 a 0.50005,0.50005 0 0 0 0.12696,0.18165 l 2.15039,1.96093 a 0.50005,0.50005 0 0 0 0.59961,0.0547 l 3.66601,-2.2793 0.98633,6.56836 a 0.50005,0.50005 0 0 0 0.37305,0.41016 l 12.62695,3.17187 3.74023,20.57227 -16.53515,2.67773 a 0.50005,0.50005 0 0 0 -0.41406,0.57813 l 5.51953,32.2793 a 0.50005,0.50005 0 0 0 0.47265,0.41601 l 8.76367,0.35156 5.71094,7.14063 -0.78515,3.9707 a 0.50005,0.50005 0 0 0 0.27343,0.54688 l 2.64258,1.28125 0.10547,2.27343 a 0.50005,0.50005 0 0 0 0.38281,0.4629 l 20.37696,4.90039 2.9082,3.5332 -4.70508,4.81055 a 0.50005,0.50005 0 0 0 -0.0801,0.10742 l -2.45117,4.44531 -3.25,4.15039 -12.76758,-0.29492 -88.9375,-2.66797 -40.9375,-1.58398 -2.59375,-19.10547 a 0.50005,0.50005 0 0 0 -0.004,-0.0254 l -0.72071,-3.7793 a 0.50005,0.50005 0 0 0 -0.46679,-0.40625 l -6.44141,-0.31055 -4.4082,-28.70117 -2.43946,-18.11523 a 0.50005,0.50005 0 0 0 -0.48046,-0.4336 l -12.0918,-0.3457 1.04492,-22.11523 3.66406,-19.31641 a 0.50005,0.50005 0 0 0 0.004,-0.0293 l 1.83008,-14.20898 a 0.50005,0.50005 0 0 0 -0.48438,-0.56446 l -0.22265,-0.004 3.10351,-8.92188 a 0.50005,0.50005 0 0 0 -0.0137,-0.36328 l -2.72852,-6.30469 5.66602,-1.48242 a 0.50005,0.50005 0 0 0 0.004,-0.002 z"
       id="Hillsborough" />
  </g>
</svg>
