<?xml version="1.0" encoding="UTF-8" standalone="no"?>
<svg
   xmlns:dc="http://purl.org/dc/elements/1.1/"
   xmlns:cc="http://creativecommons.org/ns#"
   xmlns:rdf="http://www.w3.org/1999/02/22-rdf-syntax-ns#"
   xmlns:svg="http://www.w3.org/2000/svg"
   xmlns="http://www.w3.org/2000/svg"
   xmlns:sodipodi="http://sodipodi.sourceforge.net/DTD/sodipodi-0.dtd"
   xmlns:inkscape="http://www.inkscape.org/namespaces/inkscape"
   version="1.2"
   width="810"
   height="810"
   stroke-linecap="round"
   stroke-linejoin="round"
   id="svg20"
   sodipodi:docname="nv.svg"
   inkscape:version="0.92.1 r15371">
  <metadata
     id="metadata26">
    <rdf:RDF>
      <cc:Work
         rdf:about="">
        <dc:format>image/svg+xml</dc:format>
        <dc:type
           rdf:resource="http://purl.org/dc/dcmitype/StillImage" />
      </cc:Work>
    </rdf:RDF>
  </metadata>
  <defs
     id="defs24" />
  <sodipodi:namedview
     pagecolor="#ffffff"
     bordercolor="#666666"
     borderopacity="1"
     objecttolerance="10"
     gridtolerance="10"
     guidetolerance="10"
     inkscape:pageopacity="0"
     inkscape:pageshadow="2"
     inkscape:window-width="1920"
     inkscape:window-height="1017"
     id="namedview22"
     showgrid="false"
     inkscape:zoom="0.82408494"
     inkscape:cx="572.60549"
     inkscape:cy="597.23699"
     inkscape:window-x="-8"
     inkscape:window-y="-8"
     inkscape:window-maximized="1"
     inkscape:current-layer="Nevada" />
  <g
     id="Nevada"
     transform="translate(5,5)">
    <path
       style="color:#000000;font-style:normal;font-variant:normal;font-weight:normal;font-stretch:normal;font-size:medium;line-height:normal;font-family:sans-serif;font-variant-ligatures:normal;font-variant-position:normal;font-variant-caps:normal;font-variant-numeric:normal;font-variant-alternates:normal;font-feature-settings:normal;text-indent:0;text-align:start;text-decoration:none;text-decoration-line:none;text-decoration-style:solid;text-decoration-color:#000000;letter-spacing:normal;word-spacing:normal;text-transform:none;writing-mode:lr-tb;direction:ltr;text-orientation:mixed;dominant-baseline:auto;baseline-shift:baseline;text-anchor:start;white-space:normal;shape-padding:0;clip-rule:nonzero;display:inline;overflow:visible;visibility:visible;opacity:1;isolation:auto;mix-blend-mode:normal;color-interpolation:sRGB;color-interpolation-filters:linearRGB;solid-color:#000000;solid-opacity:1;vector-effect:none;fill:#cccccc;fill-opacity:1;fill-rule:nonzero;stroke:none;stroke-width:1;stroke-linecap:butt;stroke-linejoin:miter;stroke-miterlimit:4;stroke-dasharray:none;stroke-dashoffset:0;stroke-opacity:1;color-rendering:auto;image-rendering:auto;shape-rendering:auto;text-rendering:auto;enable-background:accumulate"
       d="m 144.76953,1.5058594 9.9668,0.1347656 12.75195,0.5683594 a 0.50005,0.50005 0 0 0 0.002,0 l 23.84961,0.9101562 9.72266,0.4472656 -0.50586,14.6230468 h 0.30274 a 0.50005,0.50005 0 0 0 -0.5,0.484375 l -0.93946,30.271484 a 0.50005,0.50005 0 0 0 0.47656,0.513672 L 199.0606,68.96875 a 0.50005,0.50005 0 0 0 0.49023,0.521484 l 1.15234,0.01953 -0.68554,19.449218 -1.6582,-0.09766 a 0.50005,0.50005 0 0 0 -0.5293,0.484375 l -0.84961,31.230463 a 0.50005,0.50005 0 0 0 0.48242,0.51367 l 1.23828,0.043 -0.91992,24.07813 a 0.50005,0.50005 0 0 0 0,0.002 l -0.85547,25.16797 h -1.72656 a 0.50005,0.50005 0 0 0 -0.49805,0.48437 l -0.6914,23.42969 -1.16016,35.56836 a 0.50005,0.50005 0 0 0 0.49023,0.51758 l 9.47266,0.19922 -0.39258,10.8418 a 0.50005,0.50005 0 0 0 0.48438,0.51757 l 1.04101,0.0332 -0.27539,9.67382 a 0.50005,0.50005 0 0 0 0.48828,0.51368 l 1.15039,0.0273 -0.0488,1.98047 a 0.50005,0.50005 0 0 0 0.49023,0.51172 l 1.14648,0.0195 -0.29296,11.25586 -1.14844,-0.0352 a 0.50005,0.50005 0 0 0 -0.51563,0.48633 l -0.0762,2.80078 -5.48047,-0.13672 a 0.50005,0.50005 0 0 0 -0.44922,0.25586 l -1.66992,2.98242 -0.23437,-0.008 a 0.50005,0.50005 0 0 0 -0.25977,0.0606 l -4.91015,2.69336 -1.45118,-0.17188 a 0.50005,0.50005 0 0 0 -0.41992,0.15039 l -0.98242,1.02539 -3.50391,-0.5039 a 0.50005,0.50005 0 0 0 -0.13476,0 l -4.81055,0.60937 a 0.50005,0.50005 0 0 0 -0.43359,0.43946 l -0.13867,1.23828 -3.28321,0.65429 -1.56445,-0.44726 a 0.50005,0.50005 0 0 0 -0.33203,0.0215 l -5.82031,2.46875 a 0.50005,0.50005 0 0 0 -0.21485,0.17383 l -2.30078,3.29102 -3.29102,0.18945 -2.61718,-1.35742 a 0.50005,0.50005 0 0 0 -0.73047,0.42383 l -0.32031,8.25 a 0.50005,0.50005 0 0 0 0.48437,0.51953 l 3.09961,0.10351 -0.27734,3.91016 -1.25782,-0.0723 a 0.50005,0.50005 0 0 0 -0.51367,0.375 l -0.84961,3.32032 a 0.50005,0.50005 0 0 0 0.0273,0.32617 l 1.88476,4.28515 -0.86719,-0.0371 a 0.50005,0.50005 0 0 0 -0.51953,0.48243 l -0.18359,5.27929 -1.12891,-0.041 a 0.50005,0.50005 0 0 0 -0.51758,0.47265 l -0.11523,2.20703 -1.23633,0.75196 a 0.50005,0.50005 0 0 0 -0.21094,0.26172 l -0.13867,0.39258 -2.89062,-0.10743 a 0.50005,0.50005 0 0 0 -0.51758,0.48243 l -0.043,1.15234 -1.15234,-0.0332 a 0.50005,0.50005 0 0 0 -0.51563,0.48046 l -0.041,1.15235 -1.98242,-0.0645 a 0.50005,0.50005 0 0 0 -0.19141,0.0312 l -4.03906,1.5 a 0.50005,0.50005 0 0 0 -0.17579,0.11133 l -1.71093,1.66993 a 0.50005,0.50005 0 0 0 -0.15039,0.35156 l -0.0156,1.29883 -1.25781,0.43554 -10.36524,-0.38867 0.25977,-11.62305 0.30859,-7.87304 1.23047,-22.40625 a 0.50005,0.50005 0 0 0 0,-0.008 l 0.82032,-20.85742 1.31054,-26.59765 a 0.50005,0.50005 0 0 0 0,-0.004 L 137.5,197.98047 a 0.50005,0.50005 0 0 0 0,-0.002 l 1.03906,-26.99024 a 0.50005,0.50005 0 0 0 0,-0.002 l 0.82032,-25.14063 a 0.50005,0.50005 0 0 0 0,-0.002 l 0.5,-17.29687 1.31054,-35.337896 1.41016,-35.908203 0.6289,-13.507812 a 0.50005,0.50005 0 0 0 0,-0.0039 l 0.57032,-14.910156 a 0.50005,0.50005 0 0 0 0,-0.002 L 144.25,14.617188 Z"
       id="Washoe" />
    <path
       style="color:#000000;font-style:normal;font-variant:normal;font-weight:normal;font-stretch:normal;font-size:medium;line-height:normal;font-family:sans-serif;font-variant-ligatures:normal;font-variant-position:normal;font-variant-caps:normal;font-variant-numeric:normal;font-variant-alternates:normal;font-feature-settings:normal;text-indent:0;text-align:start;text-decoration:none;text-decoration-line:none;text-decoration-style:solid;text-decoration-color:#000000;letter-spacing:normal;word-spacing:normal;text-transform:none;writing-mode:lr-tb;direction:ltr;text-orientation:mixed;dominant-baseline:auto;baseline-shift:baseline;text-anchor:start;white-space:normal;shape-padding:0;clip-rule:nonzero;display:inline;overflow:visible;visibility:visible;opacity:1;isolation:auto;mix-blend-mode:normal;color-interpolation:sRGB;color-interpolation-filters:linearRGB;solid-color:#000000;solid-opacity:1;vector-effect:none;fill:#cccccc;fill-opacity:1;fill-rule:nonzero;stroke:none;stroke-width:1;stroke-linecap:butt;stroke-linejoin:miter;stroke-miterlimit:4;stroke-dasharray:none;stroke-dashoffset:0;stroke-opacity:1;color-rendering:auto;image-rendering:auto;shape-rendering:auto;text-rendering:auto;enable-background:accumulate"
       d="m 203.8125,230.60352 47.16406,1.30664 a 0.50005,0.50005 0 0 0 0.008,0 l 43.16015,0.44922 49.06641,0.6914 7.11328,0.1836 1.67187,2.23437 1.66211,3.1543 a 0.50005,0.50005 0 0 0 0.15625,0.17773 l 1.84961,1.2832 0.96485,3.08399 0.33789,2.62109 -0.2793,3.14063 -0.63672,1.98437 -1.29687,1.31446 a 0.50005,0.50005 0 0 0 -0.14453,0.36718 l 0.14648,4.43555 -0.74609,1.26563 a 0.50005,0.50005 0 0 0 -0.0703,0.24218 l -0.0586,2.94141 a 0.50005,0.50005 0 0 0 0.18359,0.39648 l 1.45117,1.1875 -0.95117,2.10938 a 0.50005,0.50005 0 0 0 -0.041,0.26172 l 0.17968,1.59961 a 0.50005,0.50005 0 0 0 0.0762,0.21289 l 1.60156,2.51367 -1.74219,3.24219 a 0.50005,0.50005 0 0 0 0.15821,0.64843 l 1.77539,1.22266 0.006,0.54883 -1.5371,2.80664 a 0.50005,0.50005 0 0 0 -0.0469,0.35547 l 0.39453,1.64453 -0.80469,4.07422 -1.15234,1.34765 -1.54297,-0.3125 a 0.50005,0.50005 0 0 0 -0.22265,0.006 l -3.41993,0.88086 a 0.50005,0.50005 0 0 0 -0.31054,0.23438 l -0.29493,0.51562 -1.8789,0.10352 a 0.50005,0.50005 0 0 0 -0.46484,0.57812 l 0.21679,1.37891 -2.29492,1.40625 a 0.50005,0.50005 0 0 0 -0.19336,0.2168 l -0.56641,1.22851 -2.74609,0.84375 a 0.50005,0.50005 0 0 0 -0.2207,0.81641 l 1.50976,1.64258 -0.64648,2.27734 -2.29883,0.38867 a 0.50005,0.50005 0 0 0 -0.41602,0.45313 l -0.0703,0.89843 -1.6289,2.83399 -2.8125,0.54492 -1.48829,-0.40039 a 0.50005,0.50005 0 0 0 -0.5957,0.30078 l -1.13086,2.87891 a 0.50005,0.50005 0 0 0 -0.0293,0.25781 l 0.81054,5.30078 a 0.50005,0.50005 0 0 0 0.0449,0.14453 l 1.67383,3.42383 1.06055,4.93164 -0.20899,1.87305 -0.92773,0.74023 a 0.50005,0.50005 0 0 0 -0.14844,0.19922 l -0.81054,1.93945 -3.23633,1.64649 a 0.50005,0.50005 0 0 0 -0.20703,0.19726 l -1.93946,3.4004 a 0.50005,0.50005 0 0 0 -0.004,0.49218 l 1.00586,1.80469 -0.19532,2.16602 a 0.50005,0.50005 0 0 0 0.12891,0.38281 l 1.01172,1.10351 -7.10547,1.90821 -33.47851,-0.46875 -33.44727,-0.72071 -11.39063,-0.33593 0.0879,-3.83203 a 0.50005,0.50005 0 0 0 -0.48633,-0.51172 l -2.79102,-0.0684 0.0684,-2.78907 a 0.50005,0.50005 0 0 0 -0.48828,-0.51171 l -1.15039,-0.0293 0.0273,-1.15039 a 0.50005,0.50005 0 0 0 -0.48633,-0.51172 l -1.15039,-0.0273 0.0273,-1.17969 a 0.50005,0.50005 0 0 0 -0.48438,-0.51172 l -1.15234,-0.0352 0.0273,-1.10351 a 0.50005,0.50005 0 0 0 -0.48437,-0.51172 l -1.15625,-0.0352 0.0195,-0.96484 a 0.50005,0.50005 0 0 0 -0.48828,-0.50977 l -1.625,-0.0391 0.084,-2.78711 a 0.50005,0.50005 0 0 0 -0.48828,-0.51367 l -1.13281,-0.0293 0.0215,-1.15234 a 0.50005,0.50005 0 0 0 -0.48828,-0.50977 l -1.13672,-0.0273 0.0156,-1.15625 a 0.50005,0.50005 0 0 0 -0.4884,-0.50592 l -1.13282,-0.0273 0.0195,-1.1543 a 0.50005,0.50005 0 0 0 -0.48633,-0.50781 l -1.14063,-0.0273 0.0274,-1.18164 a 0.50005,0.50005 0 0 0 -0.48829,-0.51172 l -1.50976,-0.0371 0.0273,-1.15039 a 0.50005,0.50005 0 0 0 -0.48633,-0.51172 l -1.17968,-0.0293 0.0371,-1.26758 a 0.50005,0.50005 0 0 0 -0.48438,-0.51367 l -1.1543,-0.0352 0.0293,-1.15234 a 0.50005,0.50005 0 0 0 -0.48828,-0.51172 l -1.16016,-0.0293 0.0273,-1.15039 a 0.50005,0.50005 0 0 0 -0.48633,-0.51172 l -1.08789,-0.0273 0.0352,-1.16797 a 0.50005,0.50005 0 0 0 -0.48242,-0.51367 l -1.16211,-0.043 0.0137,-1.12109 a 0.50005,0.50005 0 0 0 -0.47852,-0.50586 l -1.13281,-0.0488 0.0215,-1.11328 a 0.50005,0.50005 0 0 0 -0.45898,-0.50586 l -1.11719,-0.0918 0.38281,-13.83398 1.88672,0.0625 a 0.50005,0.50005 0 0 0 0.51563,-0.48047 l 0.46289,-12.91016 0.55859,0.0215 a 0.50005,0.50005 0 0 0 0.51953,-0.48633 l 0.25977,-9.75977 a 0.50005,0.50005 0 0 0 -0.87696,-0.34179 l -3.21484,3.70117 -3.93945,3.31836 -2.03125,0.49023 0.0586,-2.14648 1.14844,0.0352 a 0.50005,0.50005 0 0 0 0.51562,-0.48828 l 0.32032,-12.25976 a 0.50005,0.50005 0 0 0 -0.49024,-0.51172 l -1.14844,-0.0215 0.0488,-1.97656 a 0.50005,0.50005 0 0 0 -0.48828,-0.51367 l -1.14844,-0.0273 0.27539,-9.66797 a 0.50005,0.50005 0 0 0 -0.48242,-0.51368 l -1.03906,-0.0351 z"
       id="Churchill" />
    <path
       style="color:#000000;font-style:normal;font-variant:normal;font-weight:normal;font-stretch:normal;font-size:medium;line-height:normal;font-family:sans-serif;font-variant-ligatures:normal;font-variant-position:normal;font-variant-caps:normal;font-variant-numeric:normal;font-variant-alternates:normal;font-feature-settings:normal;text-indent:0;text-align:start;text-decoration:none;text-decoration-line:none;text-decoration-style:solid;text-decoration-color:#000000;letter-spacing:normal;word-spacing:normal;text-transform:none;writing-mode:lr-tb;direction:ltr;text-orientation:mixed;dominant-baseline:auto;baseline-shift:baseline;text-anchor:start;white-space:normal;shape-padding:0;clip-rule:nonzero;display:inline;overflow:visible;visibility:visible;opacity:1;isolation:auto;mix-blend-mode:normal;color-interpolation:sRGB;color-interpolation-filters:linearRGB;solid-color:#000000;solid-opacity:1;vector-effect:none;fill:#cccccc;fill-opacity:1;fill-rule:nonzero;stroke:none;stroke-width:1;stroke-linecap:butt;stroke-linejoin:miter;stroke-miterlimit:4;stroke-dasharray:none;stroke-dashoffset:0;stroke-opacity:1;color-rendering:auto;image-rendering:auto;shape-rendering:auto;text-rendering:auto;enable-background:accumulate"
       d="m 397.30859,120 36.18946,0.0391 -0.0156,5.10547 -0.3789,0.0273 a 0.50005,0.50005 0 0 0 -0.4629,0.5 l 0.10938,22.33984 -0.01,21.24805 a 0.50005,0.50005 0 0 0 0,0.01 l 0.18946,9.33399 -0.0488,19.98046 -0.35156,15.66407 a 0.50005,0.50005 0 0 0 0,0.008 l -0.0898,10.56055 a 0.50005,0.50005 0 0 0 0.39063,0.49218 l 0.44922,0.10157 -0.01,48.93945 h 0.33985 a 0.50005,0.50005 0 0 0 -0.5,0.5 l 0.0195,29.13672 -0.13086,0.0918 a 0.50005,0.50005 0 0 0 -0.21875,0.41211 V 326.7793 L 432.53125,328 h -12.85742 l -23.3086,-0.26953 a 0.50005,0.50005 0 0 0 -0.002,0 l -28.12109,-0.16016 a 0.50005,0.50005 0 0 0 -0.0937,0.008 l -25.86133,4.84961 a 0.50005,0.50005 0 0 0 -0.006,0.002 l -13.23437,2.66406 -1.22852,-1.33984 0.18945,-2.09961 a 0.50005,0.50005 0 0 0 -0.0605,-0.28711 l -0.94336,-1.69336 1.72656,-3.02539 3.26562,-1.66211 a 0.50005,0.50005 0 0 0 0.23633,-0.25391 l 0.83008,-1.99219 0.99023,-0.78906 a 0.50005,0.50005 0 0 0 0.1836,-0.33594 l 0.24023,-2.16015 a 0.50005,0.50005 0 0 0 -0.008,-0.16016 l -1.08984,-5.07031 a 0.50005,0.50005 0 0 0 -0.0391,-0.11328 l -1.66796,-3.41211 -0.77735,-5.0918 0.91797,-2.33789 1.16797,0.3125 a 0.50005,0.50005 0 0 0 0.22461,0.01 l 3.15039,-0.61133 a 0.50005,0.50005 0 0 0 0.33789,-0.24024 l 1.80078,-3.13085 a 0.50005,0.50005 0 0 0 0.0644,-0.20899 l 0.0488,-0.62305 2.22656,-0.375 a 0.50005,0.50005 0 0 0 0.39649,-0.35546 l 0.81055,-2.84961 a 0.50005,0.50005 0 0 0 -0.11329,-0.47461 l -1.16406,-1.26758 2.20313,-0.67774 a 0.50005,0.50005 0 0 0 0.30664,-0.26757 l 0.59765,-1.29297 2.44922,-1.5 a 0.50005,0.50005 0 0 0 0.23438,-0.50391 l -0.18555,-1.16406 1.59961,-0.0899 a 0.50005,0.50005 0 0 0 0.4043,-0.25 l 0.32617,-0.5664 3.10351,-0.79883 1.71875,0.3457 A 0.50005,0.50005 0 0 0 354,286.52539 l 1.42969,-1.66992 a 0.50005,0.50005 0 0 0 0.11133,-0.22852 l 0.8496,-4.31054 a 0.50005,0.50005 0 0 0 -0.004,-0.21289 l -0.375,-1.5625 1.50586,-2.75 a 0.50005,0.50005 0 0 0 0.0625,-0.2461 l -0.01,-0.93945 a 0.50005,0.50005 0 0 0 -0.21679,-0.4082 l -1.6211,-1.11524 1.66797,-3.10547 a 0.50005,0.50005 0 0 0 -0.0195,-0.50586 l -1.69727,-2.66211 -0.15234,-1.34765 1.05469,-2.33594 a 0.50005,0.50005 0 0 0 -0.13867,-0.5918 l -1.5625,-1.27539 0.0527,-2.5664 0.75391,-1.27735 a 0.50005,0.50005 0 0 0 0.0684,-0.26953 l -0.14258,-4.36719 1.22851,-1.24609 a 0.50005,0.50005 0 0 0 0.1211,-0.19922 l 0.68945,-2.14844 a 0.50005,0.50005 0 0 0 0.0215,-0.10937 l 0.29102,-3.25 a 0.50005,0.50005 0 0 0 -0.002,-0.10742 l -0.35157,-2.72071 a 0.50005,0.50005 0 0 0 -0.0176,-0.0859 l -1.03125,-3.28907 a 0.50005,0.50005 0 0 0 -0.19141,-0.26171 l -1.88867,-1.31055 -1.62305,-3.08203 a 0.50005,0.50005 0 0 0 -0.043,-0.0664 l -1.67773,-2.24219 21.42773,-59.24804 4.64063,-12.84766 16.55664,0.0977 a 0.50005,0.50005 0 0 0 0.0137,0 l 2.84961,-0.0605 a 0.50005,0.50005 0 0 0 0.48828,-0.49805 z"
       id="Lander" />
    <path
       style="color:#000000;font-style:normal;font-variant:normal;font-weight:normal;font-stretch:normal;font-size:medium;line-height:normal;font-family:sans-serif;font-variant-ligatures:normal;font-variant-position:normal;font-variant-caps:normal;font-variant-numeric:normal;font-variant-alternates:normal;font-feature-settings:normal;text-indent:0;text-align:start;text-decoration:none;text-decoration-line:none;text-decoration-style:solid;text-decoration-color:#000000;letter-spacing:normal;word-spacing:normal;text-transform:none;writing-mode:lr-tb;direction:ltr;text-orientation:mixed;dominant-baseline:auto;baseline-shift:baseline;text-anchor:start;white-space:normal;shape-padding:0;clip-rule:nonzero;display:inline;overflow:visible;visibility:visible;opacity:1;isolation:auto;mix-blend-mode:normal;color-interpolation:sRGB;color-interpolation-filters:linearRGB;solid-color:#000000;solid-opacity:1;vector-effect:none;fill:#cccccc;fill-opacity:1;fill-rule:nonzero;stroke:none;stroke-width:1;stroke-linecap:butt;stroke-linejoin:miter;stroke-miterlimit:4;stroke-dasharray:none;stroke-dashoffset:0;stroke-opacity:1;color-rendering:auto;image-rendering:auto;shape-rendering:auto;text-rendering:auto;enable-background:accumulate"
       d="m 470.44336,119.9707 0.24609,37.40235 a 0.50005,0.50005 0 0 0 0.0137,0.10937 l 7.59961,33.21875 a 0.50005,0.50005 0 0 0 0,0.002 l 6.44922,27.94922 a 0.50005,0.50005 0 0 0 0.49414,0.38672 l 14.31446,-0.17773 0.61523,0.48047 -0.0703,1.21484 -1.04883,0.7207 a 0.50005,0.50005 0 0 0 -0.2168,0.4375 l 0.0801,1.60938 a 0.50005,0.50005 0 0 0 0.0391,0.17187 l 0.98829,2.32032 -0.46485,2.05273 a 0.50005,0.50005 0 0 0 0.002,0.23047 l 0.52343,2.12695 -0.68554,3.15821 a 0.50005,0.50005 0 0 0 0.0176,0.27539 l 1.82813,5.07031 -0.25195,1.70703 a 0.50005,0.50005 0 0 0 0.0684,0.33594 l 1.2832,2.06836 -0.39649,1.33593 a 0.50005,0.50005 0 0 0 -0.01,0.25196 l 1.16015,5.13867 -0.27148,1.79492 -1.08594,1.09375 a 0.50005,0.50005 0 0 0 -0.14453,0.37305 l 0.27539,6.98437 -1.92578,3.58985 a 0.50005,0.50005 0 0 0 -0.0566,0.28125 l 0.33984,3.70117 a 0.50005,0.50005 0 0 0 0.0352,0.14453 l 0.47656,1.14648 0.10352,3.2461 -0.34961,1.01367 a 0.50005,0.50005 0 0 0 -0.0176,0.26758 l 1.25391,5.78906 -2.05078,4.10156 a 0.50005,0.50005 0 0 0 -0.0371,0.35352 l 0.55273,2.07031 -0.81445,2.66016 -2.38867,2.6875 a 0.50005,0.50005 0 0 0 -0.11719,0.23828 l -0.39649,2.05273 -2.37695,0.16211 a 0.50005,0.50005 0 0 0 -0.46484,0.50391 l 0.29492,33.86328 -7.92969,0.13281 -52.37305,0.17774 0.2168,-1.06836 a 0.50005,0.50005 0 0 0 0.01,-0.0996 v -22.07617 l 0.13281,-0.0918 a 0.50005,0.50005 0 0 0 0.21875,-0.41211 l -0.0215,-29.0332 a 0.50005,0.50005 0 0 0 0.16015,-0.36719 l 0.01,-49.83984 a 0.50005,0.50005 0 0 0 -0.38868,-0.48829 l -0.44726,-0.0996 0.0859,-10.1543 0.34961,-15.66602 a 0.50005,0.50005 0 0 0 0.002,-0.01 l 0.0488,-19.99024 a 0.50005,0.50005 0 0 0 0,-0.0117 l -0.18946,-9.33398 0.01,-21.24609 a 0.50005,0.50005 0 0 0 0,-0.002 l -0.10742,-21.87304 0.37304,-0.0254 a 0.50005,0.50005 0 0 0 0.46485,-0.49805 l 0.0176,-5.57227 z"
       id="Eureka" />
    <path
       style="color:#000000;font-style:normal;font-variant:normal;font-weight:normal;font-stretch:normal;font-size:medium;line-height:normal;font-family:sans-serif;font-variant-ligatures:normal;font-variant-position:normal;font-variant-caps:normal;font-variant-numeric:normal;font-variant-alternates:normal;font-feature-settings:normal;text-indent:0;text-align:start;text-decoration:none;text-decoration-line:none;text-decoration-style:solid;text-decoration-color:#000000;letter-spacing:normal;word-spacing:normal;text-transform:none;writing-mode:lr-tb;direction:ltr;text-orientation:mixed;dominant-baseline:auto;baseline-shift:baseline;text-anchor:start;white-space:normal;shape-padding:0;clip-rule:nonzero;display:inline;overflow:visible;visibility:visible;opacity:1;isolation:auto;mix-blend-mode:normal;color-interpolation:sRGB;color-interpolation-filters:linearRGB;solid-color:#000000;solid-opacity:1;vector-effect:none;fill:#cccccc;fill-opacity:1;fill-rule:nonzero;stroke:none;stroke-width:1;stroke-linecap:butt;stroke-linejoin:miter;stroke-miterlimit:4;stroke-dasharray:none;stroke-dashoffset:0;stroke-opacity:1;color-rendering:auto;image-rendering:auto;shape-rendering:auto;text-rendering:auto;enable-background:accumulate"
       d="m 199.69922,121.16406 44.10742,1.14258 -0.28711,11.43164 a 0.50005,0.50005 0 0 0 0.49219,0.51172 l 46.2793,0.84961 a 0.50005,0.50005 0 0 0 0.002,0 l 51.90039,0.67383 -0.23242,19.21094 a 0.50005,0.50005 0 0 0 0.49218,0.50585 l 28.80274,0.35743 0.52148,0.5332 -0.17578,16.76953 -21.36914,59.08008 -7,-0.17969 a 0.50005,0.50005 0 0 0 -0.006,0 l -49.07031,-0.6914 a 0.50005,0.50005 0 0 0 -0.002,0 L 251,230.91016 203.34375,229.58984 a 0.50005,0.50005 0 0 0 -0.004,0 l -9.47461,-0.19922 1.14454,-35.06445 a 0.50005,0.50005 0 0 0 0,-0.002 l 0.67578,-22.94336 h 1.72461 a 0.50005,0.50005 0 0 0 0.5,-0.48438 l 0.86914,-25.64843 z"
       id="Pershing" />
    <path
       style="color:#000000;font-style:normal;font-variant:normal;font-weight:normal;font-stretch:normal;font-size:medium;line-height:normal;font-family:sans-serif;font-variant-ligatures:normal;font-variant-position:normal;font-variant-caps:normal;font-variant-numeric:normal;font-variant-alternates:normal;font-feature-settings:normal;text-indent:0;text-align:start;text-decoration:none;text-decoration-line:none;text-decoration-style:solid;text-decoration-color:#000000;letter-spacing:normal;word-spacing:normal;text-transform:none;writing-mode:lr-tb;direction:ltr;text-orientation:mixed;dominant-baseline:auto;baseline-shift:baseline;text-anchor:start;white-space:normal;shape-padding:0;clip-rule:nonzero;display:inline;overflow:visible;visibility:visible;opacity:1;isolation:auto;mix-blend-mode:normal;color-interpolation:sRGB;color-interpolation-filters:linearRGB;solid-color:#000000;solid-opacity:1;vector-effect:none;fill:#cccccc;fill-opacity:1;fill-rule:nonzero;stroke:none;stroke-width:1;stroke-linecap:butt;stroke-linejoin:miter;stroke-miterlimit:4;stroke-dasharray:none;stroke-dashoffset:0;stroke-opacity:1;color-rendering:auto;image-rendering:auto;shape-rendering:auto;text-rendering:auto;enable-background:accumulate"
       d="m 655.4043,217.08594 2.08593,74.64844 2.35547,87.95703 -51.35742,1.29882 -32.75195,0.66602 -11.13867,-7.36328 -42.55078,-28.4082 a 0.50005,0.50005 0 0 0 -0.29102,-0.084 l -26.89844,-17.89062 -0.29297,-33.62305 2.28907,-0.1582 a 0.50005,0.50005 0 0 0 0.45703,-0.4043 l 0.44336,-2.29492 2.36914,-2.66797 a 0.50005,0.50005 0 0 0 0.10547,-0.18555 l 0.88867,-2.90039 a 0.50005,0.50005 0 0 0 0.006,-0.27539 l -0.54102,-2.02539 2.04492,-4.0918 a 0.50005,0.50005 0 0 0 0.041,-0.32812 l -1.25977,-5.82422 0.33399,-0.9668 a 0.50005,0.50005 0 0 0 0.0273,-0.17968 l -0.10937,-3.42969 a 0.50005,0.50005 0 0 0 -0.0391,-0.17578 l -0.48047,-1.16016 -0.31835,-3.47461 1.91796,-3.57812 a 0.50005,0.50005 0 0 0 0.0586,-0.25586 l -0.27149,-6.90235 1.04688,-1.05664 a 0.50005,0.50005 0 0 0 0.14062,-0.27734 l 0.3086,-2.04883 a 0.50005,0.50005 0 0 0 -0.006,-0.18555 l -1.15039,-5.10156 0.42187,-1.42578 a 0.50005,0.50005 0 0 0 -0.0547,-0.40625 l -1.30274,-2.10352 0.24219,-1.64843 a 0.50005,0.50005 0 0 0 -0.0234,-0.24414 l -1.82227,-5.05469 0.67969,-3.12891 a 0.50005,0.50005 0 0 0 -0.002,-0.22461 l -0.52148,-2.12695 0.47265,-2.09375 a 0.50005,0.50005 0 0 0 -0.0273,-0.30664 l -1.01563,-2.38867 -0.0605,-1.24219 1.01953,-0.70117 a 0.50005,0.50005 0 0 0 0.21679,-0.38281 l 0.0996,-1.72071 a 0.50005,0.50005 0 0 0 -0.0762,-0.29492 l 27.67188,-0.3125 0.0996,0.0449 a 0.50005,0.50005 0 0 0 0.20117,0.043 l 22.07812,0.2207 a 0.50005,0.50005 0 0 0 0.0137,0 l 20.70899,-0.34961 10.9082,-0.12109 a 0.50005,0.50005 0 0 0 0.0391,-0.002 l 1.66993,-0.14649 43.39062,-0.4414 a 0.50005,0.50005 0 0 0 0.008,0 l 20.7793,-0.47852 a 0.50005,0.50005 0 0 0 0.004,-0.002 z"
       id="White_Pine"
       inkscape:label="#White Pine" />
    <path
       style="color:#000000;font-style:normal;font-variant:normal;font-weight:normal;font-stretch:normal;font-size:medium;line-height:normal;font-family:sans-serif;font-variant-ligatures:normal;font-variant-position:normal;font-variant-caps:normal;font-variant-numeric:normal;font-variant-alternates:normal;font-feature-settings:normal;text-indent:0;text-align:start;text-decoration:none;text-decoration-line:none;text-decoration-style:solid;text-decoration-color:#000000;letter-spacing:normal;word-spacing:normal;text-transform:none;writing-mode:lr-tb;direction:ltr;text-orientation:mixed;dominant-baseline:auto;baseline-shift:baseline;text-anchor:start;white-space:normal;shape-padding:0;clip-rule:nonzero;display:inline;overflow:visible;visibility:visible;opacity:1;isolation:auto;mix-blend-mode:normal;color-interpolation:sRGB;color-interpolation-filters:linearRGB;solid-color:#000000;solid-opacity:1;vector-effect:none;fill:#cccccc;fill-opacity:1;fill-rule:nonzero;stroke:none;stroke-width:1;stroke-linecap:butt;stroke-linejoin:miter;stroke-miterlimit:4;stroke-dasharray:none;stroke-dashoffset:0;stroke-opacity:1;color-rendering:auto;image-rendering:auto;shape-rendering:auto;text-rendering:auto;enable-background:accumulate"
       d="m 665.64648,589.0918 0.57422,17.02539 a 0.50005,0.50005 0 0 0 0,0.006 l 1.00977,21.89062 a 0.50005,0.50005 0 0 0 0.002,0.0176 l 0.24805,2.97656 0.26953,10.24219 0.11914,12.05469 a 0.50005,0.50005 0 0 0 0.002,0.0176 l 0.37891,8.83398 -2.00195,1.68164 a 0.50005,0.50005 0 0 0 -0.14453,0.20508 l -2.40235,6.32422 -1.62695,0.64843 a 0.50005,0.50005 0 0 0 -0.29883,0.58399 l 0.48633,1.96484 -1.6211,3.30469 a 0.50005,0.50005 0 0 0 -0.0469,0.16602 l -0.25977,2.38086 -1.22265,2.01171 -1.69336,-0.30078 a 0.50005,0.50005 0 0 0 -0.27735,0.0293 l -3.48242,1.41797 -1.75976,0.24805 -2.31446,-1.21094 -0.86132,-2.0918 a 0.50005,0.50005 0 0 0 -0.32813,-0.29101 l -1.75391,-0.49024 -1.71093,-1.44922 0.38672,-1.58008 a 0.50005,0.50005 0 0 0 -0.0977,-0.43359 l -2.08008,-2.56055 a 0.50005,0.50005 0 0 0 -0.0606,-0.0625 l -2.79687,-2.42382 -1.03125,-1.59961 a 0.50005,0.50005 0 0 0 -0.39844,-0.22852 l -4.16015,-0.17969 a 0.50005,0.50005 0 0 0 -0.35157,0.125 l -2.20312,1.94727 -0.87891,-1.01172 a 0.50005,0.50005 0 0 0 -0.3457,-0.16992 l -1.12109,-0.0703 a 0.50005,0.50005 0 0 0 -0.26368,0.0566 l -2.23632,1.17968 -0.71875,-2.05273 a 0.50005,0.50005 0 0 0 -0.46875,-0.33399 l -5.81055,-0.0312 a 0.50005,0.50005 0 0 0 -0.27149,0.0801 l -3.33203,2.12696 -1.59179,-1.00782 a 0.50005,0.50005 0 0 0 -0.58399,0.0332 l -4.61914,3.77148 -4.78906,0.6211 a 0.50005,0.50005 0 0 0 -0.33789,0.19921 l -1.66992,2.26953 a 0.50005,0.50005 0 0 0 -0.041,0.52735 l 1.69141,3.25586 -0.44141,0.65234 a 0.50005,0.50005 0 0 0 0.043,0.61719 l 1.54101,1.70703 -1.26367,1.26367 a 0.50005,0.50005 0 0 0 -0.14648,0.36133 l 0.0703,4.28125 a 0.50005,0.50005 0 0 0 0.0605,0.23047 l 2.68164,4.88477 1.18555,3.36132 a 0.50005,0.50005 0 0 0 0.13867,0.20703 l 3.02929,2.70704 -3.45117,2.51562 a 0.50005,0.50005 0 0 0 -0.13867,0.6543 l 0.94531,1.64648 -1.3789,2.75 a 0.50005,0.50005 0 0 0 0.0371,0.50977 l 1.1582,1.65429 -0.16602,2.22266 a 0.50005,0.50005 0 0 0 0.0293,0.21289 l 0.51563,1.37695 -0.084,2.37891 -0.69531,2.45313 a 0.50005,0.50005 0 0 0 0.008,0.29296 l 0.40039,1.20118 a 0.50005,0.50005 0 0 0 0.16406,0.23437 l 1.51758,1.19141 -0.57422,2.35742 a 0.50005,0.50005 0 0 0 -0.0117,0.16211 l 0.15039,1.68945 a 0.50005,0.50005 0 0 0 0.16796,0.33203 l 1.01954,0.89649 2.17187,3.25781 -0.40234,2.21875 -1.24219,0.69531 a 0.50005,0.50005 0 0 0 -0.17578,0.70899 l 1.07422,1.65234 0.58398,3.39649 -1.67773,2.0625 a 0.50005,0.50005 0 0 0 -0.11133,0.28124 l -0.10938,1.60938 a 0.50005,0.50005 0 0 0 0.0293,0.20508 l 1.23047,3.41601 0.27344,2.23438 a 0.50005,0.50005 0 0 0 0.0566,0.17969 l 1.04101,1.90039 a 0.50005,0.50005 0 0 0 0.0918,0.12109 l 2.37109,2.26367 0.87305,3.19727 a 0.50005,0.50005 0 0 0 0.0312,0.084 l 1.15039,2.39844 1.02735,3.75 -0.14649,3.02148 a 0.50005,0.50005 0 0 0 0.0176,0.15235 l 1.04101,3.8789 0.78516,5.9375 a 0.50005,0.50005 0 0 0 0.0957,0.23633 l 0.67188,0.89258 0.31445,4.12695 -0.67969,3.51368 -1.50976,0.70507 -3.14649,0.57813 a 0.50005,0.50005 0 0 0 -0.31054,0.19141 l -1.32031,1.75976 a 0.50005,0.50005 0 0 0 0.10156,0.70117 l 3.76758,2.82422 -0.10938,1.33399 -1.7207,1.51562 a 0.50005,0.50005 0 0 0 -0.1211,0.16406 l -0.88086,1.87891 a 0.50005,0.50005 0 0 0 -0.043,0.27539 l 0.20507,1.60938 -13.69531,-12.99415 a 0.50005,0.50005 0 0 0 -0.002,-0.002 L 574.79297,758.3457 557.11328,741.65625 a 0.50005,0.50005 0 0 0 -0.002,0 L 535.54297,721.41602 519.80469,706.4668 a 0.50005,0.50005 0 0 0 -0.006,-0.004 l -7.64649,-7.04883 -8.71484,-8.27929 -0.16797,-23.24805 a 0.50005,0.50005 0 0 0 -0.48633,-0.4961 l -4.12695,-0.11718 -0.16602,-27.77735 a 0.50005,0.50005 0 0 0 0,-0.002 l -0.30078,-29.85937 a 0.50005,0.50005 0 0 0 0,-0.002 l -0.24218,-17.44726 13.76562,-0.10547 a 0.50005,0.50005 0 0 0 0.49609,-0.50781 l -0.0117,-0.76954 71.17968,-1.01367 a 0.50005,0.50005 0 0 0 0.002,0 l 17.19921,-0.33008 0.0215,0.59961 a 0.50005,0.50005 0 0 0 0.51172,0.48047 z"
       id="Clark" />
    <path
       style="color:#000000;font-style:normal;font-variant:normal;font-weight:normal;font-stretch:normal;font-size:medium;line-height:normal;font-family:sans-serif;font-variant-ligatures:normal;font-variant-position:normal;font-variant-caps:normal;font-variant-numeric:normal;font-variant-alternates:normal;font-feature-settings:normal;text-indent:0;text-align:start;text-decoration:none;text-decoration-line:none;text-decoration-style:solid;text-decoration-color:#000000;letter-spacing:normal;word-spacing:normal;text-transform:none;writing-mode:lr-tb;direction:ltr;text-orientation:mixed;dominant-baseline:auto;baseline-shift:baseline;text-anchor:start;white-space:normal;shape-padding:0;clip-rule:nonzero;display:inline;overflow:visible;visibility:visible;opacity:1;isolation:auto;mix-blend-mode:normal;color-interpolation:sRGB;color-interpolation-filters:linearRGB;solid-color:#000000;solid-opacity:1;vector-effect:none;fill:#cccccc;fill-opacity:1;fill-rule:nonzero;stroke:none;stroke-width:1;stroke-linecap:butt;stroke-linejoin:miter;stroke-miterlimit:4;stroke-dasharray:none;stroke-dashoffset:0;stroke-opacity:1;color-rendering:auto;image-rendering:auto;shape-rendering:auto;text-rendering:auto;enable-background:accumulate"
       d="M 368.28519,328.57031 396.3555,328.73047 419.66406,329 a 0.50005,0.50005 0 0 0 0.006,0 h 13.26953 a 0.50005,0.50005 0 0 0 0.002,0 l 52.99023,-0.17969 a 0.50005,0.50005 0 0 0 0.006,0 l 8.27539,-0.13867 27.13086,18.04492 a 0.50005,0.50005 0 0 0 0.28906,0.084 l 42.41016,28.31445 a 0.50005,0.50005 0 0 0 0.002,0.002 l 11.05078,7.30469 1.27539,70.42383 -79.77734,1.07422 a 0.50005,0.50005 0 0 0 -0.49414,0.5039 l 0.41016,76.69922 a 0.50005,0.50005 0 0 0 0,0.008 l 0.2207,11.35547 -0.10938,2.84375 a 0.50005,0.50005 0 0 0 -0.002,0.0254 l 0.26172,27.16993 a 0.50005,0.50005 0 0 0 0,0.002 l 0.26953,16.9043 -0.20898,2.20117 a 0.50005,0.50005 0 0 0 -0.002,0.0547 l 0.25,17.94921 0.30078,29.85743 0.16993,28.25976 a 0.50005,0.50005 0 0 0 0.48632,0.4961 l 4.12696,0.11718 0.1582,21.82422 -3.52148,-3.24609 -18.62696,-17.56836 a 0.50005,0.50005 0 0 0 0,-0.002 l -26.08984,-24.49805 -10.34961,-9.79883 a 0.50005,0.50005 0 0 0 -0.002,-0.002 l -20.37891,-19.10938 -26.5293,-25.06054 a 0.50005,0.50005 0 0 0 -0.002,0 l -14.84961,-13.94141 0.34766,-51.8418 a 0.50005,0.50005 0 0 0 0,-0.004 l -0.0293,-7.98829 0.36914,-56.79687 a 0.50005,0.50005 0 0 0 -0.11719,-0.32617 l -4.83007,-5.75 a 0.50005,0.50005 0 0 0 -0.38477,-0.17774 l -1.45117,0.008 0.0234,-1.74024 a 0.50005,0.50005 0 0 0 -0.12305,-0.33594 l -14.38867,-16.49804 -19.8086,-23.10938 a 0.50005,0.50005 0 0 0 -0.002,-0.002 l -5.75,-6.61914 a 0.50005,0.50005 0 0 0 -0.004,-0.004 l -2.6582,-2.99804 -41.52148,-48.06446 0.14062,-8.62109 29.13477,-7.8418 7.95508,-2.13672 13.49023,-2.71679 z"
       id="Nye" />
    <path
       style="color:#000000;font-style:normal;font-variant:normal;font-weight:normal;font-stretch:normal;font-size:medium;line-height:normal;font-family:sans-serif;font-variant-ligatures:normal;font-variant-position:normal;font-variant-caps:normal;font-variant-numeric:normal;font-variant-alternates:normal;font-feature-settings:normal;text-indent:0;text-align:start;text-decoration:none;text-decoration-line:none;text-decoration-style:solid;text-decoration-color:#000000;letter-spacing:normal;word-spacing:normal;text-transform:none;writing-mode:lr-tb;direction:ltr;text-orientation:mixed;dominant-baseline:auto;baseline-shift:baseline;text-anchor:start;white-space:normal;shape-padding:0;clip-rule:nonzero;display:inline;overflow:visible;visibility:visible;opacity:1;isolation:auto;mix-blend-mode:normal;color-interpolation:sRGB;color-interpolation-filters:linearRGB;solid-color:#000000;solid-opacity:1;vector-effect:none;fill:#cccccc;fill-opacity:1;fill-rule:nonzero;stroke:none;stroke-width:1;stroke-linecap:butt;stroke-linejoin:miter;stroke-miterlimit:4;stroke-dasharray:none;stroke-dashoffset:0;stroke-opacity:1;color-rendering:auto;image-rendering:auto;shape-rendering:auto;text-rendering:auto;enable-background:accumulate"
       d="m 214.89258,263.28125 -0.20899,7.85937 -0.55468,-0.0195 a 0.50005,0.50005 0 0 0 -0.51953,0.48047 l -0.46094,12.91211 -1.89258,-0.0625 a 0.50005,0.50005 0 0 0 -0.51563,0.48438 l -0.41015,14.81054 a 0.50005,0.50005 0 0 0 0.45898,0.51172 l 1.12305,0.0918 -0.0215,1.13086 a 0.50005,0.50005 0 0 0 0.47852,0.50976 l 1.13477,0.0488 -0.0137,1.125 a 0.50005,0.50005 0 0 0 0.48243,0.50586 l 1.15234,0.041 -0.0352,1.17383 a 0.50005,0.50005 0 0 0 0.48828,0.51562 l 1.08985,0.0273 -0.0273,1.15039 a 0.50005,0.50005 0 0 0 0.48829,0.51172 l 1.16015,0.0274 -0.0293,1.15039 a 0.50005,0.50005 0 0 0 0.48437,0.51172 l 1.15234,0.0352 -0.0371,1.27149 a 0.50005,0.50005 0 0 0 0.48828,0.51367 l 1.18164,0.0293 -0.0293,1.14843 a 0.50005,0.50005 0 0 0 0.48828,0.51172 l 1.50977,0.0391 -0.0274,1.17969 a 0.50005,0.50005 0 0 0 0.48633,0.51172 l 1.14453,0.0274 -0.0215,1.15429 a 0.50005,0.50005 0 0 0 0.48828,0.50781 l 1.13476,0.0293 -0.0137,1.15625 a 0.50005,0.50005 0 0 0 0.48828,0.50586 l 1.13282,0.0273 -0.0195,1.15235 a 0.50005,0.50005 0 0 0 0.48632,0.50976 l 1.12696,0.0274 -0.084,2.78711 a 0.50005,0.50005 0 0 0 0.48828,0.51562 l 1.63086,0.0391 -0.0195,0.96094 a 0.50005,0.50005 0 0 0 0.48438,0.50977 l 1.15429,0.0351 -0.0293,1.10352 a 0.50005,0.50005 0 0 0 0.48632,0.51172 l 1.15235,0.0351 -0.0273,1.1836 a 0.50005,0.50005 0 0 0 0.48633,0.51172 l 1.15039,0.0273 -0.0273,1.15039 A 0.50005,0.50005 0 0 0 237.23828,329 l 1.15039,0.0273 -0.0684,2.79102 a 0.50005,0.50005 0 0 0 0.48828,0.51172 l 2.78907,0.0684 -0.0762,3.32812 -13.99804,-0.38672 a 0.50005,0.50005 0 0 0 -0.4375,0.23633 l -7.61133,12.25 a 0.50005,0.50005 0 0 0 -0.0156,0.0274 l -1.29882,2.41992 a 0.50005,0.50005 0 0 0 -0.0605,0.22461 l -0.24023,10.48047 a 0.50005,0.50005 0 0 0 0.48828,0.51171 l 9.49023,0.23633 -0.21484,8.92383 h 0.0273 a 0.50005,0.50005 0 0 0 -0.50977,0.48828 l -0.8496,39.19336 -21.61914,-0.37891 -14.90626,-14.0332 0.375,-12.5957 a 0.50005,0.50005 0 0 0 -0.48437,-0.51367 l -1.10156,-0.0352 0.0957,-9.45117 a 0.50005,0.50005 0 0 0 -0.51562,-0.50391 l -4.42969,0.14258 0.3125,-3.08203 a 0.50005,0.50005 0 0 0 0.002,-0.0352 l 0.15039,-4.95117 a 0.50005,0.50005 0 0 0 -0.13476,-0.35547 l -1.46094,-1.56054 0.0762,-3.10547 a 0.50005,0.50005 0 0 0 -0.48437,-0.51367 l -1.13477,-0.0332 0.0977,-2.31445 1.10937,0.0273 a 0.50005,0.50005 0 0 0 0.51162,-0.4765 l 0.35742,-7.74805 1.10742,0.0352 a 0.50005,0.50005 0 0 0 0.51563,-0.47852 l 0.11719,-2.77734 4.22851,0.19531 a 0.50005,0.50005 0 0 0 0.46485,-0.26367 l 0.33398,-0.62695 2.60938,0.082 A 0.50005,0.50005 0 0 0 193,344.49219 l 0.2793,-10.65821 a 0.50005,0.50005 0 0 0 -0.48242,-0.51367 l -11.24805,-0.36914 -9.60742,-0.43359 -0.38672,-1.49805 -0.27539,-3.78515 a 0.50005,0.50005 0 0 0 -0.10742,-0.2754 l -0.7754,-0.97265 1.05079,-3.34571 a 0.50005,0.50005 0 0 0 0.0234,-0.15429 l -0.01,-1.81836 a 0.50005,0.50005 0 0 0 -0.48047,-0.49805 l -7.52735,-0.31445 -2.74609,-1.57617 -2.13281,-4.16211 5.19922,-1.43555 a 0.50005,0.50005 0 0 0 0.0898,-0.0352 l 15.15039,-7.5996 a 0.50005,0.50005 0 0 0 0.21094,-0.19922 l 18.06836,-31.53711 0.23828,0.01 a 0.50005,0.50005 0 0 0 0.45508,-0.25586 l 1.67187,-2.98633 5.67969,0.14258 a 0.50005,0.50005 0 0 0 0.12891,-0.0137 l 2.78125,-0.67187 a 0.50005,0.50005 0 0 0 0.20312,-0.10352 l 4.06055,-3.41992 a 0.50005,0.50005 0 0 0 0.0566,-0.0547 z"
       id="Lyon" />
    <path
       style="color:#000000;font-style:normal;font-variant:normal;font-weight:normal;font-stretch:normal;font-size:medium;line-height:normal;font-family:sans-serif;font-variant-ligatures:normal;font-variant-position:normal;font-variant-caps:normal;font-variant-numeric:normal;font-variant-alternates:normal;font-feature-settings:normal;text-indent:0;text-align:start;text-decoration:none;text-decoration-line:none;text-decoration-style:solid;text-decoration-color:#000000;letter-spacing:normal;word-spacing:normal;text-transform:none;writing-mode:lr-tb;direction:ltr;text-orientation:mixed;dominant-baseline:auto;baseline-shift:baseline;text-anchor:start;white-space:normal;shape-padding:0;clip-rule:nonzero;display:inline;overflow:visible;visibility:visible;opacity:1;isolation:auto;mix-blend-mode:normal;color-interpolation:sRGB;color-interpolation-filters:linearRGB;solid-color:#000000;solid-opacity:1;vector-effect:none;fill:#cccccc;fill-opacity:1;fill-rule:nonzero;stroke:none;stroke-width:1;stroke-linecap:butt;stroke-linejoin:miter;stroke-miterlimit:4;stroke-dasharray:none;stroke-dashoffset:0;stroke-opacity:1;color-rendering:auto;image-rendering:auto;shape-rendering:auto;text-rendering:auto;enable-background:accumulate"
       d="m 157.86916,314.93359 2.01563,3.9336 a 0.50005,0.50005 0 0 0 0.19726,0.20703 l 2.97852,1.70898 a 0.50005,0.50005 0 0 0 0.22851,0.0664 l 7.17383,0.30078 0.006,1.26367 -1.10547,3.52539 a 0.50005,0.50005 0 0 0 0.0859,0.46289 l 0.84375,1.0586 0.26758,3.67578 a 0.50005,0.50005 0 0 0 0.0156,0.0879 l 0.32422,1.25977 -16.83203,-0.41407 -0.60938,-2.9414 a 0.50005,0.50005 0 0 0 -0.47851,-0.39844 l -10.91602,-0.25 -10.05468,-0.34375 0.10937,-5.01758 10.44141,0.39063 a 0.50005,0.50005 0 0 0 0.18359,-0.0274 l 1.67969,-0.58008 a 0.50005,0.50005 0 0 0 0.33594,-0.46679 l 0.0176,-1.44336 1.48633,-1.45117 3.84766,-1.42774 2.38281,0.0762 a 0.50005,0.50005 0 0 0 0.51563,-0.48047 l 0.041,-1.15429 1.1543,0.0351 a 0.50005,0.50005 0 0 0 0.51367,-0.48242 l 0.043,-1.15039 2.75976,0.10352 a 0.50005,0.50005 0 0 0 0.34766,-0.12696 z"
       id="Carson_City"
       inkscape:label="#Carson City" />
    <path
       style="color:#000000;font-style:normal;font-variant:normal;font-weight:normal;font-stretch:normal;font-size:medium;line-height:normal;font-family:sans-serif;font-variant-ligatures:normal;font-variant-position:normal;font-variant-caps:normal;font-variant-numeric:normal;font-variant-alternates:normal;font-feature-settings:normal;text-indent:0;text-align:start;text-decoration:none;text-decoration-line:none;text-decoration-style:solid;text-decoration-color:#000000;letter-spacing:normal;word-spacing:normal;text-transform:none;writing-mode:lr-tb;direction:ltr;text-orientation:mixed;dominant-baseline:auto;baseline-shift:baseline;text-anchor:start;white-space:normal;shape-padding:0;clip-rule:nonzero;display:inline;overflow:visible;visibility:visible;opacity:1;isolation:auto;mix-blend-mode:normal;color-interpolation:sRGB;color-interpolation-filters:linearRGB;solid-color:#000000;solid-opacity:1;vector-effect:none;fill:#cccccc;fill-opacity:1;fill-rule:nonzero;stroke:none;stroke-width:1;stroke-linecap:butt;stroke-linejoin:miter;stroke-miterlimit:4;stroke-dasharray:none;stroke-dashoffset:0;stroke-opacity:1;color-rendering:auto;image-rendering:auto;shape-rendering:auto;text-rendering:auto;enable-background:accumulate"
       d="m 649.44141,3.7226562 0.50781,11.8867188 -0.01,3.888672 a 0.50005,0.50005 0 0 0 0,0.02148 l 0.45117,10.998047 0.87891,29.78711 2.2207,81.857426 1,42.43945 a 0.50005,0.50005 0 0 0 0,0.002 l 0.88672,31.48242 -6.7207,0.21484 -20.77539,0.47852 -43.40625,0.4414 a 0.50005,0.50005 0 0 0 -0.0391,0.002 l -1.66993,0.14843 -10.89062,0.11914 a 0.50005,0.50005 0 0 0 -0.004,0 l -20.70312,0.34961 -21.96875,-0.21875 -0.10352,-0.0469 a 0.50005,0.50005 0 0 0 -0.21093,-0.0449 l -29.16016,0.33008 -14.08789,0.17578 -6.35938,-27.55664 -7.58789,-33.16602 -0.25,-37.8457 a 0.50005,0.50005 0 0 0 -0.5,-0.4961 L 434,119.03906 397.3125,119 l 0.10742,-27.876953 0.18946,-27.759766 a 0.50005,0.50005 0 0 0 -0.002,-0.04883 l -0.0566,-0.626953 0.0898,-28.394531 0.14649,-27.8496096 54.63867,0.3671875 a 0.50005,0.50005 0 0 0 0.0254,-0.00195 l 3.02149,-0.1289063 22.60156,-0.1386719 1.5918,0.1074219 a 0.50005,0.50005 0 0 0 0.041,0.00195 l 35.73828,-0.4707031 26.47852,-0.21875 a 0.50005,0.50005 0 0 0 0.004,-0.00195 L 565.8692,5.560548 a 0.50005,0.50005 0 0 0 0.0234,-0.00195 l 13.21094,-0.8691407 5.8789,-0.1796875 17.66602,0.4199219 a 0.50005,0.50005 0 0 0 0.0293,0 l 11.08594,-0.390625 15.75586,-0.2695313 a 0.50005,0.50005 0 0 0 0.004,0 z"
       id="Elko" />
    <path
       style="color:#000000;font-style:normal;font-variant:normal;font-weight:normal;font-stretch:normal;font-size:medium;line-height:normal;font-family:sans-serif;font-variant-ligatures:normal;font-variant-position:normal;font-variant-caps:normal;font-variant-numeric:normal;font-variant-alternates:normal;font-feature-settings:normal;text-indent:0;text-align:start;text-decoration:none;text-decoration-line:none;text-decoration-style:solid;text-decoration-color:#000000;letter-spacing:normal;word-spacing:normal;text-transform:none;writing-mode:lr-tb;direction:ltr;text-orientation:mixed;dominant-baseline:auto;baseline-shift:baseline;text-anchor:start;white-space:normal;shape-padding:0;clip-rule:nonzero;display:inline;overflow:visible;visibility:visible;opacity:1;isolation:auto;mix-blend-mode:normal;color-interpolation:sRGB;color-interpolation-filters:linearRGB;solid-color:#000000;solid-opacity:1;vector-effect:none;fill:#cccccc;fill-opacity:1;fill-rule:nonzero;stroke:none;stroke-width:1;stroke-linecap:butt;stroke-linejoin:miter;stroke-miterlimit:4;stroke-dasharray:none;stroke-dashoffset:0;stroke-opacity:1;color-rendering:auto;image-rendering:auto;shape-rendering:auto;text-rendering:auto;enable-background:accumulate"
       d="m 227.7832,336.34766 14.21289,0.39257 11.88868,0.34961 a 0.50005,0.50005 0 0 0 0.004,0 l 33.45117,0.72071 a 0.50005,0.50005 0 0 0 0.004,0 l 29.96094,0.41797 -26.03516,7.00781 a 0.50005,0.50005 0 0 0 -0.36914,0.47461 l -0.15039,9.1914 a 0.50005,0.50005 0 0 0 0.12109,0.33399 l 41.65039,48.21094 a 0.50005,0.50005 0 0 0 0.004,0.004 l 2.35938,2.66211 -27.60938,29.74414 -7.22851,7.64844 a 0.50005,0.50005 0 0 0 -0.01,0.0117 l -4.39453,4.92383 -9.92578,10.48437 a 0.50005,0.50005 0 0 0 -0.0273,0.0312 l -1.50781,1.88672 -9.06641,9.81055 -5.4375,-0.12305 -0.96875,-0.24414 -12.65625,-11.94141 a 0.50005,0.50005 0 0 0 -0.006,-0.004 l -4.375,-4.00586 -8.16407,-7.875 a 0.50005,0.50005 0 0 0 -0.01,-0.01 l -5.06641,-4.62695 -15.60742,-14.80664 a 0.50005,0.50005 0 0 0 -0.01,-0.01 l -4.49414,-4.05469 -12.57812,-11.98242 21.02929,0.36914 a 0.50005,0.50005 0 0 0 0.50782,-0.48828 l 0.84961,-39.1914 h -0.0293 a 0.50005,0.50005 0 0 0 0.50977,-0.48828 l 0.24023,-9.91993 a 0.50005,0.50005 0 0 0 -0.48633,-0.51172 l -9.49219,-0.23828 0.22657,-9.86133 1.23632,-2.30078 z"
       id="Mineral" />
    <path
       style="color:#000000;font-style:normal;font-variant:normal;font-weight:normal;font-stretch:normal;font-size:medium;line-height:normal;font-family:sans-serif;font-variant-ligatures:normal;font-variant-position:normal;font-variant-caps:normal;font-variant-numeric:normal;font-variant-alternates:normal;font-feature-settings:normal;text-indent:0;text-align:start;text-decoration:none;text-decoration-line:none;text-decoration-style:solid;text-decoration-color:#000000;letter-spacing:normal;word-spacing:normal;text-transform:none;writing-mode:lr-tb;direction:ltr;text-orientation:mixed;dominant-baseline:auto;baseline-shift:baseline;text-anchor:start;white-space:normal;shape-padding:0;clip-rule:nonzero;display:inline;overflow:visible;visibility:visible;opacity:1;isolation:auto;mix-blend-mode:normal;color-interpolation:sRGB;color-interpolation-filters:linearRGB;solid-color:#000000;solid-opacity:1;vector-effect:none;fill:#cccccc;fill-opacity:1;fill-rule:nonzero;stroke:none;stroke-width:1;stroke-linecap:butt;stroke-linejoin:miter;stroke-miterlimit:4;stroke-dasharray:none;stroke-dashoffset:0;stroke-opacity:1;color-rendering:auto;image-rendering:auto;shape-rendering:auto;text-rendering:auto;enable-background:accumulate"
       d="m 195.69336,274.0918 -17.26172,30.1289 -14.97266,7.50977 -3.6875,1.01953 0.0918,-1.77148 1.13867,0.041 a 0.50005,0.50005 0 0 0 0.51758,-0.48242 l 0.18164,-5.27539 1.16797,0.0469 a 0.50005,0.50005 0 0 0 0.47852,-0.69921 l -2.14063,-4.86329 0.70508,-2.7539 1.33984,0.0762 a 0.50005,0.50005 0 0 0 0.52735,-0.46289 l 0.34961,-4.91992 a 0.50005,0.50005 0 0 0 -0.48243,-0.53516 l -3.11718,-0.10351 0.26953,-6.95899 2.04101,1.05664 a 0.50005,0.50005 0 0 0 0.25782,0.0547 l 3.67187,-0.21094 a 0.50005,0.50005 0 0 0 0.38086,-0.21094 l 2.35742,-3.37304 5.52539,-2.34571 1.50977,0.43164 a 0.50005,0.50005 0 0 0 0.23437,0.01 l 3.75977,-0.75 a 0.50005,0.50005 0 0 0 0.40039,-0.43359 l 0.13477,-1.20899 4.35351,-0.55273 3.69336,0.52929 a 0.50005,0.50005 0 0 0 0.43164,-0.14843 l 0.98828,-1.0293 1.36328,0.16016 a 0.50005,0.50005 0 0 0 0.29883,-0.0586 z"
       id="Storey" />
    <path
       style="color:#000000;font-style:normal;font-variant:normal;font-weight:normal;font-stretch:normal;font-size:medium;line-height:normal;font-family:sans-serif;font-variant-ligatures:normal;font-variant-position:normal;font-variant-caps:normal;font-variant-numeric:normal;font-variant-alternates:normal;font-feature-settings:normal;text-indent:0;text-align:start;text-decoration:none;text-decoration-line:none;text-decoration-style:solid;text-decoration-color:#000000;letter-spacing:normal;word-spacing:normal;text-transform:none;writing-mode:lr-tb;direction:ltr;text-orientation:mixed;dominant-baseline:auto;baseline-shift:baseline;text-anchor:start;white-space:normal;shape-padding:0;clip-rule:nonzero;display:inline;overflow:visible;visibility:visible;opacity:1;isolation:auto;mix-blend-mode:normal;color-interpolation:sRGB;color-interpolation-filters:linearRGB;solid-color:#000000;solid-opacity:1;vector-effect:none;fill:#cccccc;fill-opacity:1;fill-rule:nonzero;stroke:none;stroke-width:1;stroke-linecap:butt;stroke-linejoin:miter;stroke-miterlimit:4;stroke-dasharray:none;stroke-dashoffset:0;stroke-opacity:1;color-rendering:auto;image-rendering:auto;shape-rendering:auto;text-rendering:auto;enable-background:accumulate"
       d="m 659.87305,380.69336 0.50781,19.66016 a 0.50005,0.50005 0 0 0 0,0.002 l 0.85937,26.72851 L 662,457.16211 a 0.50005,0.50005 0 0 0 0,0.004 l 0.63086,20.02343 0.0586,8.82422 a 0.50005,0.50005 0 0 0 0,0.008 l 0.38086,17.41016 a 0.50005,0.50005 0 0 0 0,0.006 l 0.66016,19.84766 1.0293,37.44922 a 0.50005,0.50005 0 0 0 0,0.004 l 0.57031,14.83789 0.28906,12.51563 -64.03711,1.4375 -0.0215,-0.59766 a 0.50005,0.50005 0 0 0 -0.50977,-0.48242 l -17.68945,0.3418 -71.67774,1.01953 a 0.50005,0.50005 0 0 0 -0.49414,0.50781 l 0.0137,0.76562 -13.21289,0.10157 0.15821,-1.67774 a 0.50005,0.50005 0 0 0 0.002,-0.0566 l -0.26953,-16.92773 -0.26172,-27.15625 0.11133,-2.84766 a 0.50005,0.50005 0 0 0 0,-0.0293 l -0.2207,-11.36718 -0.40625,-76.19922 79.7832,-1.07422 a 0.50005,0.50005 0 0 0 0.49414,-0.50781 l -1.28125,-70.69141 32.41016,-0.66016 a 0.50005,0.50005 0 0 0 0.002,0 z"
       id="Lincoln" />
    <path
       style="color:#000000;font-style:normal;font-variant:normal;font-weight:normal;font-stretch:normal;font-size:medium;line-height:normal;font-family:sans-serif;font-variant-ligatures:normal;font-variant-position:normal;font-variant-caps:normal;font-variant-numeric:normal;font-variant-alternates:normal;font-feature-settings:normal;text-indent:0;text-align:start;text-decoration:none;text-decoration-line:none;text-decoration-style:solid;text-decoration-color:#000000;letter-spacing:normal;word-spacing:normal;text-transform:none;writing-mode:lr-tb;direction:ltr;text-orientation:mixed;dominant-baseline:auto;baseline-shift:baseline;text-anchor:start;white-space:normal;shape-padding:0;clip-rule:nonzero;display:inline;overflow:visible;visibility:visible;opacity:1;isolation:auto;mix-blend-mode:normal;color-interpolation:sRGB;color-interpolation-filters:linearRGB;solid-color:#000000;solid-opacity:1;vector-effect:none;fill:#cccccc;fill-opacity:1;fill-rule:nonzero;stroke:none;stroke-width:1;stroke-linecap:butt;stroke-linejoin:miter;stroke-miterlimit:4;stroke-dasharray:none;stroke-dashoffset:0;stroke-opacity:1;color-rendering:auto;image-rendering:auto;shape-rendering:auto;text-rendering:auto;enable-background:accumulate"
       d="M 202.0625,3.6113281 211.38867,4 a 0.50005,0.50005 0 0 0 0.01,0 l 17.59765,0.4296875 25.83594,0.890625 a 0.50005,0.50005 0 0 0 0.0195,0 l 16.59571,-0.041016 31.99609,0.4003906 a 0.50005,0.50005 0 0 0 0.002,0 l 21.25781,0.2109375 21,0.2988281 a 0.50005,0.50005 0 0 0 0.006,0 l 36.3379,0.050781 14.74023,0.1933594 -0.14649,27.8535149 a 0.50005,0.50005 0 0 0 0,0.002 l -0.0898,28.419922 a 0.50005,0.50005 0 0 0 0.002,0.04687 l 0.0566,0.625 -0.18946,27.736329 -0.10937,28.380861 -0.1875,40.11328 -2.35743,0.0488 -16.90234,-0.0996 a 0.50005,0.50005 0 0 0 -0.47266,0.33007 l -3.75976,10.40626 0.14844,-14.11133 A 0.50005,0.50005 0 0 0 372.6391,155.8301 L 371.82812,155 a 0.50005,0.50005 0 0 0 -0.35156,-0.15039 l -28.50976,-0.35352 0.23242,-19.21093 a 0.50005,0.50005 0 0 0 -0.49219,-0.50586 l -52.39844,-0.67969 -45.77734,-0.83984 0.28906,-11.42774 a 0.50005,0.50005 0 0 0 -0.48828,-0.51172 l -45.09765,-1.16992 -1.24024,-0.043 0.82227,-30.216795 1.65429,0.09766 A 0.50005,0.50005 0 0 0 201,89.507812 l 0.71875,-20.470703 a 0.50005,0.50005 0 0 0 -0.49023,-0.517578 L 200.08008,68.5 200.91992,48.960938 a 0.50005,0.50005 0 0 0 -0.48437,-0.521485 l 0.9082,-29.25 h -0.30469 a 0.50005,0.50005 0 0 0 0.5,-0.482422 z"
       id="Humboldt" />
    <path
       style="color:#000000;font-style:normal;font-variant:normal;font-weight:normal;font-stretch:normal;font-size:medium;line-height:normal;font-family:sans-serif;font-variant-ligatures:normal;font-variant-position:normal;font-variant-caps:normal;font-variant-numeric:normal;font-variant-alternates:normal;font-feature-settings:normal;text-indent:0;text-align:start;text-decoration:none;text-decoration-line:none;text-decoration-style:solid;text-decoration-color:#000000;letter-spacing:normal;word-spacing:normal;text-transform:none;writing-mode:lr-tb;direction:ltr;text-orientation:mixed;dominant-baseline:auto;baseline-shift:baseline;text-anchor:start;white-space:normal;shape-padding:0;clip-rule:nonzero;display:inline;overflow:visible;visibility:visible;opacity:1;isolation:auto;mix-blend-mode:normal;color-interpolation:sRGB;color-interpolation-filters:linearRGB;solid-color:#000000;solid-opacity:1;vector-effect:none;fill:#cccccc;fill-opacity:1;fill-rule:nonzero;stroke:none;stroke-width:1;stroke-linecap:butt;stroke-linejoin:miter;stroke-miterlimit:4;stroke-dasharray:none;stroke-dashoffset:0;stroke-opacity:1;color-rendering:auto;image-rendering:auto;shape-rendering:auto;text-rendering:auto;enable-background:accumulate"
       d="m 335.54711,406.86914 5.38476,6.19727 19.80859,23.10937 a 0.50005,0.50005 0 0 0 0.004,0.002 l 14.26367,16.35743 -0.0273,2.05859 a 0.50005,0.50005 0 0 0 0.50195,0.50586 l 1.72461,-0.008 4.5625,5.42968 -0.36914,56.61524 a 0.50005,0.50005 0 0 0 0,0.006 l 0.0293,7.98633 -0.3418,50.92187 -8.23633,-7.65625 -9.9375,-9.36719 -11.20898,-10.71875 a 0.50005,0.50005 0 0 0 -0.008,-0.008 l -7.32618,-6.71484 -8.91601,-8.53711 a 0.50005,0.50005 0 0 0 -0.0176,-0.0156 L 332.59766,530.56055 317.93555,516.5 a 0.50005,0.50005 0 0 0 -0.0254,-0.0234 l -2.55469,-2.13867 -6.34766,-6.14648 a 0.50005,0.50005 0 0 0 -0.006,-0.006 l -38.96093,-36.64649 5.27734,0.1211 A 0.50005,0.50005 0 0 0 275.69727,471.5 l 9.23046,-9.99023 a 0.50005,0.50005 0 0 0 0.0234,-0.0274 l 1.50586,-1.88476 9.91602,-10.47461 a 0.50005,0.50005 0 0 0 0.01,-0.01 l 4.39453,-4.92578 7.22657,-7.64453 a 0.50005,0.50005 0 0 0 0.002,-0.002 z"
       id="Esmeralda" />
    <path
       style="color:#000000;font-style:normal;font-variant:normal;font-weight:normal;font-stretch:normal;font-size:medium;line-height:normal;font-family:sans-serif;font-variant-ligatures:normal;font-variant-position:normal;font-variant-caps:normal;font-variant-numeric:normal;font-variant-alternates:normal;font-feature-settings:normal;text-indent:0;text-align:start;text-decoration:none;text-decoration-line:none;text-decoration-style:solid;text-decoration-color:#000000;letter-spacing:normal;word-spacing:normal;text-transform:none;writing-mode:lr-tb;direction:ltr;text-orientation:mixed;dominant-baseline:auto;baseline-shift:baseline;text-anchor:start;white-space:normal;shape-padding:0;clip-rule:nonzero;display:inline;overflow:visible;visibility:visible;opacity:1;isolation:auto;mix-blend-mode:normal;color-interpolation:sRGB;color-interpolation-filters:linearRGB;solid-color:#000000;solid-opacity:1;vector-effect:none;fill:#cccccc;fill-opacity:1;fill-rule:nonzero;stroke:none;stroke-width:1;stroke-linecap:butt;stroke-linejoin:miter;stroke-miterlimit:4;stroke-dasharray:none;stroke-dashoffset:0;stroke-opacity:1;color-rendering:auto;image-rendering:auto;shape-rendering:auto;text-rendering:auto;enable-background:accumulate"
       d="m 131.99023,329.13672 10.04297,0.34375 a 0.50005,0.50005 0 0 0 0.006,0 l 10.52149,0.24023 0.60937,2.94141 a 0.50005,0.50005 0 0 0 0.47852,0.39844 l 17.88476,0.43945 9.97461,0.44922 a 0.50005,0.50005 0 0 0 0.006,0 l 10.75391,0.35351 -0.25391,9.66211 -2.41797,-0.0742 a 0.50005,0.50005 0 0 0 -0.45703,0.26368 l -0.33203,0.62109 -4.41406,-0.20508 a 0.50005,0.50005 0 0 0 -0.52149,0.47852 l -0.11914,2.78515 -1.10547,-0.0332 a 0.50005,0.50005 0 0 0 -0.51562,0.47656 l -0.35742,7.75 L 180.66211,356 a 0.50005,0.50005 0 0 0 -0.51172,0.47852 l -0.14062,3.31054 a 0.50005,0.50005 0 0 0 0.48437,0.52149 l 1.14453,0.0332 -0.0684,2.81445 a 0.50005,0.50005 0 0 0 0.13477,0.35352 l 1.45898,1.55859 -0.14258,4.72657 -0.36914,3.63281 a 0.50005,0.50005 0 0 0 0.51368,0.55078 l 4.47851,-0.14258 -0.0937,9.41797 a 0.50005,0.50005 0 0 0 0.48438,0.50391 l 1.08984,0.0351 -0.33398,11.23438 -3.19141,-2.89649 -10.24609,-9.73437 a 0.50005,0.50005 0 0 0 0,-0.002 L 150.6836,359.16593 131.74415,341.26944 Z"
       id="Douglas" />
  </g>
</svg>
