<?xml version="1.0" encoding="UTF-8" standalone="no"?>
<svg
   xmlns:dc="http://purl.org/dc/elements/1.1/"
   xmlns:cc="http://creativecommons.org/ns#"
   xmlns:rdf="http://www.w3.org/1999/02/22-rdf-syntax-ns#"
   xmlns:svg="http://www.w3.org/2000/svg"
   xmlns="http://www.w3.org/2000/svg"
   xmlns:sodipodi="http://sodipodi.sourceforge.net/DTD/sodipodi-0.dtd"
   xmlns:inkscape="http://www.inkscape.org/namespaces/inkscape"
   version="1.2"
   width="530"
   height="810"
   stroke-linecap="round"
   stroke-linejoin="round"
   id="svg8"
   sodipodi:docname="ri.svg"
   inkscape:version="0.92.1 r15371">
  <metadata
     id="metadata14">
    <rdf:RDF>
      <cc:Work
         rdf:about="">
        <dc:format>image/svg+xml</dc:format>
        <dc:type
           rdf:resource="http://purl.org/dc/dcmitype/StillImage" />
      </cc:Work>
    </rdf:RDF>
  </metadata>
  <defs
     id="defs12" />
  <sodipodi:namedview
     pagecolor="#ffffff"
     bordercolor="#666666"
     borderopacity="1"
     objecttolerance="10"
     gridtolerance="10"
     guidetolerance="10"
     inkscape:pageopacity="0"
     inkscape:pageshadow="2"
     inkscape:window-width="1920"
     inkscape:window-height="1017"
     id="namedview10"
     showgrid="false"
     inkscape:zoom="0.82408494"
     inkscape:cx="285.12688"
     inkscape:cy="398.70487"
     inkscape:window-x="-8"
     inkscape:window-y="-8"
     inkscape:window-maximized="1"
     inkscape:current-layer="Rhode Island" />
  <g
     id="Rhode Island"
     transform="translate(5,5)">
    <path
       style="color:#000000;font-style:normal;font-variant:normal;font-weight:normal;font-stretch:normal;font-size:medium;line-height:normal;font-family:sans-serif;font-variant-ligatures:normal;font-variant-position:normal;font-variant-caps:normal;font-variant-numeric:normal;font-variant-alternates:normal;font-feature-settings:normal;text-indent:0;text-align:start;text-decoration:none;text-decoration-line:none;text-decoration-style:solid;text-decoration-color:#000000;letter-spacing:normal;word-spacing:normal;text-transform:none;writing-mode:lr-tb;direction:ltr;text-orientation:mixed;dominant-baseline:auto;baseline-shift:baseline;text-anchor:start;white-space:normal;shape-padding:0;clip-rule:nonzero;display:inline;overflow:visible;visibility:visible;opacity:1;isolation:auto;mix-blend-mode:normal;color-interpolation:sRGB;color-interpolation-filters:linearRGB;solid-color:#000000;solid-opacity:1;vector-effect:none;fill:#cccccc;fill-opacity:1;fill-rule:nonzero;stroke:none;stroke-width:1;stroke-linecap:butt;stroke-linejoin:miter;stroke-miterlimit:4;stroke-dasharray:none;stroke-dashoffset:0;stroke-opacity:1;color-rendering:auto;image-rendering:auto;shape-rendering:auto;text-rendering:auto;enable-background:accumulate"
       d="m 337.08984,1.5097656 0.0703,48.8808594 -0.10938,65.488285 a 0.50005,0.50005 0 0 0 0.59961,0.49023 l 5.38672,-1.09766 23.36719,-3.5996 -1.35157,14.73242 a 0.50005,0.50005 0 0 0 0.0137,0.17382 l 4.64062,17.49219 -5.5293,15.875 a 0.50005,0.50005 0 0 0 0.0371,0.41016 l 4.62696,8.17578 -6.3711,6.60156 a 0.50005,0.50005 0 0 0 -0.11328,0.18164 l -1.56836,4.48047 a 0.50005,0.50005 0 0 0 0.0117,0.36133 l 5.4668,12.79297 -0.0566,4.04297 -1.00391,3.77929 a 0.50005,0.50005 0 0 0 0.002,0.26758 l 1.03125,3.57032 a 0.50005,0.50005 0 0 0 0.27735,0.31835 l 3.52539,1.5625 3.04492,6.75391 -0.0586,3.73828 a 0.50005,0.50005 0 0 0 0.0605,0.24414 l 1.0293,1.91016 a 0.50005,0.50005 0 0 0 0.18945,0.19531 l 6.30274,3.64844 -0.94727,1.03711 -21.55468,20.01758 -1.61719,1.20312 a 0.50005,0.50005 0 0 0 -0.18946,0.28906 l -1.2207,5.32422 -1.92187,0.006 -0.14063,-3.57617 a 0.50005,0.50005 0 0 0 -0.17969,-0.36523 l -1.27539,-1.06641 0.93946,-3.60352 a 0.50005,0.50005 0 0 0 0.0117,-0.1914 l -0.66015,-5.0293 a 0.50005,0.50005 0 0 0 -0.0527,-0.16797 l -1.96093,-3.73047 a 0.50005,0.50005 0 0 0 -0.4668,-0.26562 l -2.63867,0.13086 2.13672,-5.27539 a 0.50005,0.50005 0 0 0 0.0332,-0.13282 l 0.64063,-5.83984 a 0.50005,0.50005 0 0 0 -0.11133,-0.37305 l -4.40039,-5.33984 a 0.50005,0.50005 0 0 0 -0.25586,-0.16406 l -6.67969,-1.78125 a 0.50005,0.50005 0 0 0 -0.24219,-0.004 l -6.34961,1.4707 a 0.50005,0.50005 0 0 0 -0.36133,0.33008 l -0.81054,2.42969 a 0.50005,0.50005 0 0 0 0.006,0.33398 l 4.26758,11.24414 -0.0352,6.85352 -1.07031,-2.66016 a 0.50005,0.50005 0 0 0 -0.4336,-0.3125 l -3.5332,-0.21289 -0.91797,-2.13671 a 0.50005,0.50005 0 0 0 -0.2168,-0.24024 l -2.71093,-1.5 a 0.50005,0.50005 0 0 0 -0.34571,-0.0508 l -7.62109,1.63086 a 0.50005,0.50005 0 0 0 -0.29102,0.18359 l -2.31445,3.02149 -4.89258,-1.38868 a 0.50005,0.50005 0 0 0 -0.50976,0.1504 l -2.74414,3.08593 -5.16016,0.0859 a 0.50005,0.50005 0 0 0 -0.18945,0.0391 l -2.38867,1.02149 a 0.50005,0.50005 0 0 0 -0.2461,0.22656 l -2.4707,4.67969 a 0.50005,0.50005 0 0 0 -0.0508,0.3125 l 0.33008,2.03906 -3.8125,2.80859 a 0.50005,0.50005 0 0 0 -0.17579,0.56836 l 1.4668,4.17578 -0.18945,3.17969 -4.10156,0.38086 a 0.50005,0.50005 0 0 0 -0.34376,0.18359 l -1.67968,2.08008 a 0.50005,0.50005 0 0 0 -0.0996,0.41992 l 0.55469,2.57227 -1.38868,1.46094 -44.08203,1.76172 -17.74414,0.30859 a 0.50005,0.50005 0 0 0 -0.006,0.002 l -67.50781,2.01953 -52.02734,1.24024 -47.22071,0.88086 -0.78906,-40.73047 a 0.50005,0.50005 0 0 0 0,-0.008 L 56.58984,194.42578 53.4707,76.980469 52.80469,10.988281 75.02344,9.5488281 133.14453,7.9101562 204.13281,5.8300781 237.79102,5.0292969 a 0.50005,0.50005 0 0 0 0.041,-0.00195 L 256.7207,3.0195312 Z"
       id="Providence"
       inkscape:connector-curvature="0" />
    <path
       style="color:#000000;font-style:normal;font-variant:normal;font-weight:normal;font-stretch:normal;font-size:medium;line-height:normal;font-family:sans-serif;font-variant-ligatures:normal;font-variant-position:normal;font-variant-caps:normal;font-variant-numeric:normal;font-variant-alternates:normal;font-feature-settings:normal;text-indent:0;text-align:start;text-decoration:none;text-decoration-line:none;text-decoration-style:solid;text-decoration-color:#000000;letter-spacing:normal;word-spacing:normal;text-transform:none;writing-mode:lr-tb;direction:ltr;text-orientation:mixed;dominant-baseline:auto;baseline-shift:baseline;text-anchor:start;white-space:normal;shape-padding:0;clip-rule:nonzero;display:inline;overflow:visible;visibility:visible;opacity:1;isolation:auto;mix-blend-mode:normal;color-interpolation:sRGB;color-interpolation-filters:linearRGB;solid-color:#000000;solid-opacity:1;vector-effect:none;fill:#cccccc;fill-opacity:1;fill-rule:nonzero;stroke:none;stroke-width:1;stroke-linecap:butt;stroke-linejoin:miter;stroke-miterlimit:4;stroke-dasharray:none;stroke-dashoffset:0;stroke-opacity:1;color-rendering:auto;image-rendering:auto;shape-rendering:auto;text-rendering:auto;enable-background:accumulate"
       d="m 465.82617,315.6582 -8.24609,19.66992 -2.56055,12.78907 a 0.50005,0.50005 0 0 1 -0.48828,0.40234 l -3.25977,0.01 a 0.50005,0.50005 0 0 1 -0.5,-0.46094 l -0.50781,-6.46094 -1.26172,-6.4707 -1.36718,-0.3086 -1.95899,6.06641 a 0.50005,0.50005 0 0 1 -0.18164,0.25 l -4.56836,3.32031 -0.61914,2.6875 a 0.50005,0.50005 0 0 1 -0.1875,0.28711 l -2.25976,1.69141 a 0.50005,0.50005 0 0 1 -0.29883,0.0996 l -4.08008,0.01 a 0.50005,0.50005 0 0 1 -0.2207,-0.0508 l -2.44727,-1.20507 -2.98633,0.86132 -5.15039,4.91016 -1.42383,5.22461 a 0.50005,0.50005 0 0 1 -0.18164,0.26953 l -2.59961,1.95898 a 0.50005,0.50005 0 0 1 -0.18359,0.0879 l -4.61719,1.10742 -2.07617,3.74218 1.83594,3.78516 a 0.50005,0.50005 0 0 1 0.0488,0.26563 l -0.69141,7.36914 a 0.50005,0.50005 0 0 1 -0.0293,0.13086 l -4.91992,12.9414 a 0.50005,0.50005 0 0 1 -0.39844,0.31641 l -2.84961,0.4043 -2.30664,7.8789 1.60157,-0.0488 a 0.50005,0.50005 0 0 1 0.48437,0.32617 l 1.15039,3.08985 a 0.50005,0.50005 0 0 1 -0.0273,0.40625 l -2.93946,5.60156 a 0.50005,0.50005 0 0 1 -0.25195,0.22852 l -3.92383,1.6289 -1.49218,3.73438 a 0.50005,0.50005 0 0 1 -0.0606,0.10937 l -4.75195,6.54883 -4.65625,11.78906 -0.34571,2.20704 1.76563,0.8496 a 0.50005,0.50005 0 0 1 0.2832,0.44922 l 0.0117,3.25977 a 0.50005,0.50005 0 0 1 -0.18164,0.38672 l -3.03711,2.50976 -0.92969,4.35743 1.98242,7.95703 a 0.50005,0.50005 0 0 1 -0.10937,0.45312 l -2.28125,2.57813 a 0.50005,0.50005 0 0 1 -0.33984,0.16796 l -4.34961,0.30079 a 0.50005,0.50005 0 0 1 -0.42579,-0.1875 l -1.9082,-2.39258 -1.56836,0.55273 -0.4707,1.92969 1.52344,1.23047 a 0.50005,0.50005 0 0 1 0.17968,0.45898 l -0.39062,2.72071 a 0.50005,0.50005 0 0 1 -0.39649,0.41992 l -1.92187,0.38086 -0.85156,5.07226 1.80273,2.83594 3.04883,1.00391 a 0.50005,0.50005 0 0 1 0.34375,0.46484 l 0.22851,10.82617 1.00586,2.42188 1.84961,0.27929 a 0.50005,0.50005 0 0 1 0.42383,0.43555 l 1.08985,9.33008 a 0.50005,0.50005 0 0 1 -0.3418,0.5332 l -4.76563,1.56836 -8.51367,5.63281 a 0.50005,0.50005 0 0 1 -0.77148,-0.3496 l -0.25977,-1.91016 a 0.50005,0.50005 0 0 1 0.008,-0.17969 l 1.32422,-5.75391 -1.01367,-2.45312 -3.17969,4.69922 a 0.50005,0.50005 0 0 1 -0.0312,0.043 l -4.16992,4.96875 a 0.50005,0.50005 0 0 1 -0.21094,0.14844 l -3.2832,1.20507 -5.62695,4.1211 -0.95313,2.125 2.49024,1.67383 a 0.50005,0.50005 0 0 1 0.21094,0.30859 l 1.76367,8.08203 1.2832,0.51758 6.27539,-3.79102 a 0.50005,0.50005 0 0 1 0.48047,-0.0195 l 4.30859,2.12891 a 0.50005,0.50005 0 0 1 0.11719,0.0801 l 1.79688,1.64062 1.99414,-2.3457 a 0.50005,0.50005 0 0 1 0.49609,-0.16211 l 3.1582,0.74219 3.22071,-3.44727 a 0.50005,0.50005 0 0 1 0.58593,-0.10742 l 2.875,1.40429 2.53321,-1.64453 a 0.50005,0.50005 0 0 1 0.75976,0.3125 l 0.85157,3.91211 4.0371,-2.85351 1.04102,-4.50196 -0.81445,-3.51757 a 0.50005,0.50005 0 0 1 0.0469,-0.34961 l 1.75977,-3.25977 a 0.50005,0.50005 0 0 1 0.20117,-0.20312 l 2.83984,-1.54102 -0.34765,-3.61133 a 0.50005,0.50005 0 0 1 -0.002,-0.0859 l 0.80079,-10.33985 a 0.50005,0.50005 0 0 1 0.20507,-0.36719 l 3.58985,-2.60937 a 0.50005,0.50005 0 0 1 0.26172,-0.0937 l 6,-0.38086 a 0.50005,0.50005 0 0 1 0.47265,0.26367 l 3.75977,7.03516 0.71875,0.0996 3.85742,-4.16602 0.79883,-3.08789 a 0.50005,0.50005 0 0 1 0.32812,-0.35156 l 1.96094,-0.63867 a 0.50005,0.50005 0 0 1 0.25195,-0.0156 l 4.53907,0.89063 a 0.50005,0.50005 0 0 1 0.10156,0.0312 l 4.21875,1.80859 a 0.50005,0.50005 0 0 1 0.17187,0.12109 l 4.72071,5.14063 a 0.50005,0.50005 0 0 1 0.11328,0.47266 l -1.40235,5.00976 3.78125,-1.70508 0.47266,-3.48633 a 0.50005,0.50005 0 0 1 0.0977,-0.23632 l 1.31445,-1.72461 0.0957,-2.46289 -4.18359,-0.01 a 0.50005,0.50005 0 0 1 -0.42383,-0.23633 l -2.57812,-4.16015 a 0.50005,0.50005 0 0 1 -0.0606,-0.38282 l 0.89844,-3.64062 a 0.50005,0.50005 0 0 1 0.0566,-0.13477 l 3.98828,-6.70117 -0.01,-3.37109 a 0.50005,0.50005 0 0 1 0.0801,-0.27149 l 4.96484,-7.75976 2.70118,-6.76367 0.95117,-5.99805 -0.54883,-1.52344 -3.84375,-1.93945 a 0.50005,0.50005 0 0 1 -0.23242,-0.25 l -1.30078,-3.0293 a 0.50005,0.50005 0 0 1 -0.0293,-0.30664 l 1.16797,-5.19141 -1.08594,-2.77734 a 0.50005,0.50005 0 0 1 -0.0137,-0.31836 l 1.84961,-6.55469 -2.08984,-2.0625 a 0.50005,0.50005 0 0 1 -0.13672,-0.24414 l -0.82032,-3.58007 a 0.50005,0.50005 0 0 1 0,-0.22461 l 1.3086,-5.64649 0.0586,-8.77539 -5.12695,-11.54297 a 0.50005,0.50005 0 0 1 -0.041,-0.25 l 1.68946,-17.76172 0.20898,-11.21093 a 0.50005,0.50005 0 0 1 0.21875,-0.40235 l 2.88867,-1.9707 a 0.50005,0.50005 0 0 1 0.19922,-0.0801 l 8.4375,-1.41016 6.00195,-2.38086 a 0.50005,0.50005 0 0 1 0.48438,0.0645 l 2.38867,1.78906 a 0.50005,0.50005 0 0 1 0.20117,0.42188 l -0.51562,12.20507 3.29687,8.38086 2.20117,1.97071 a 0.50005,0.50005 0 0 1 0.16016,0.45703 l -0.64062,3.74023 a 0.50005,0.50005 0 0 1 -0.42774,0.41016 l -2.19726,0.28711 -0.13868,2.67383 a 0.50005,0.50005 0 0 1 -0.11718,0.29687 l -3.44727,4.07227 0.13281,1.64453 3.95117,2.13086 a 0.50005,0.50005 0 0 1 0.26172,0.44922 l -0.16992,9.27929 a 0.50005,0.50005 0 0 1 -0.006,0.0625 l -1.04883,7.3086 a 0.50005,0.50005 0 0 1 -0.46484,0.42968 l -5.5293,0.33008 -0.97265,2.31055 3.74218,1.27539 a 0.50005,0.50005 0 0 1 0.31641,0.32617 l 0.66016,2.11914 a 0.50005,0.50005 0 0 1 -0.0918,0.46875 l -1.5,1.80469 0.16602,5.52539 5.78515,2.7793 a 0.50005,0.50005 0 0 1 0.22461,0.21484 l 1.3086,2.43945 a 0.50005,0.50005 0 0 1 0.0508,0.33789 l -2.2168,10.7461 2.32813,4.89844 a 0.50005,0.50005 0 0 1 0.0488,0.21093 l 0.0274,3.73633 2.67383,4.19727 a 0.50005,0.50005 0 0 1 0.0605,0.40234 l -3.66797,13.39258 2.35352,0.62109 a 0.50005,0.50005 0 0 1 0.28515,0.20313 l 1.78126,2.61914 a 0.50005,0.50005 0 0 1 0.084,0.25 l 0.20898,3.24023 6.24805,6.68946 a 0.50005,0.50005 0 0 1 0.13477,0.33007 l 0.1289,5.5 a 0.50005,0.50005 0 0 1 -0.0293,0.1836 l -1.28321,3.50586 -0.26758,7.05078 a 0.50005,0.50005 0 0 1 -0.25,0.41601 l -2.68359,1.53321 -0.14062,2.93359 1.70117,3.66406 4.80468,-3.25 a 0.50005,0.50005 0 0 1 0.3418,-0.082 l 3.78906,0.47071 1.65821,-0.91211 a 0.50005,0.50005 0 0 1 0.19336,-0.0605 l 5.68554,-0.54297 -0.74414,-1.66406 a 0.50005,0.50005 0 0 1 -0.0449,-0.19531 l -0.0801,-4.0293 a 0.50005,0.50005 0 0 1 0.0937,-0.30078 L 485.26367,501 a 0.50005,0.50005 0 0 1 0.35352,-0.20703 l 2.6875,-0.28516 2.49023,-3.70703 a 0.50005,0.50005 0 0 1 0.31836,-0.21094 l 3.34961,-0.66015 a 0.50005,0.50005 0 0 1 0.25195,0.0137 l 2.17969,0.70703 2.66992,-2.18359 0.44532,-2.26368 a 0.50005,0.50005 0 0 1 0.47851,-0.40234 l 2.0957,-0.0469 1.94141,-1.72852 -1.3418,-5.64062 a 0.50005,0.50005 0 0 1 0.0937,-0.42383 l 2.90039,-3.67188 a 0.50005,0.50005 0 0 1 0.20118,-0.15039 l 5.24023,-2.16992 a 0.50005,0.50005 0 0 1 0.10156,-0.0312 l 5.52344,-1.00977 -1.33203,-22.13867 -6.4082,-64.11914 -0.19727,-1.375 -4,-7.75586 -2.09375,-2.25976 a 0.50005,0.50005 0 0 1 -0.13086,-0.30664 l -0.67187,-10.03907 a 0.50005,0.50005 0 0 1 0.002,-0.0801 l 0.67969,-7.1504 a 0.50005,0.50005 0 0 1 0.10547,-0.26367 l 3.17382,-4.01757 1.9375,-27.5586 -0.10547,-0.85937 -8.5957,-2.33789 -20.75,-4.76954 a 0.50005,0.50005 0 0 1 -0.38672,-0.49609 l 0.0508,-2.62109 z m -103.09179,7.88086 -1.63868,0.90235 1.01563,1.35937 a 0.50005,0.50005 0 0 1 0.002,0.5957 l -2.86523,3.9004 4.87109,3.12304 a 0.50005,0.50005 0 0 1 0.0215,0.82617 l -2.51367,1.80274 -1.77539,3.35547 a 0.50005,0.50005 0 0 1 -0.18359,0.19336 l -2.15039,1.29492 0.3789,5.69336 1.70118,6.16797 1.95898,2.02539 1.30078,-0.76172 a 0.50005,0.50005 0 0 1 0.3418,-0.0586 l 5.2207,0.94922 a 0.50005,0.50005 0 0 1 0.22266,0.10157 l 8.12109,6.51953 a 0.50005,0.50005 0 0 1 0.1836,0.43945 l -0.70899,7.33984 a 0.50005,0.50005 0 0 1 -0.0527,0.17969 l -2.28125,4.4375 0.3164,1.66016 a 0.50005,0.50005 0 0 1 -0.13086,0.4414 l -2.77148,2.86914 -2.20313,10.00391 0.75,7.8418 3.125,4.87304 3.12696,1.40625 6.11133,-3.95312 6.02343,-12.9082 1.95899,-6.43555 a 0.50005,0.50005 0 0 1 0.21289,-0.27734 l 1.2832,-0.8086 -0.95898,-11.73047 -2.70703,-6.54687 -3.85743,-1.45313 a 0.50005,0.50005 0 0 1 -0.23828,-0.18945 l -1.98828,-2.95898 -6.4082,-0.25977 a 0.50005,0.50005 0 0 1 -0.1875,-0.0449 l -5.41016,-2.49024 a 0.50005,0.50005 0 0 1 -0.10351,-0.0644 l -3,-2.40039 a 0.50005,0.50005 0 0 1 -0.14454,-0.18555 l -1.02734,-2.30664 -2.72461,-2.52148 a 0.50005,0.50005 0 0 1 0.041,-0.76758 l 4.94336,-3.66016 -1.4961,-7.27734 a 0.50005,0.50005 0 0 1 0.0312,-0.29883 l 1.00196,-2.32422 -4.0586,-2.98632 a 0.50005,0.50005 0 0 1 -0.20117,-0.34571 z m -10.53516,5.09766 -3.47266,0.32031 1.25782,2.20508 a 0.50005,0.50005 0 0 1 0.0508,0.12695 l 1.41406,5.66211 1.27148,0.84961 2.1211,-1.71484 1.89258,-4.94727 -0.6836,-1.34179 z m 54.36914,11.71875 -3.00391,0.52734 -0.8789,1.50977 -0.0781,2.0957 1.81836,2.19336 a 0.50005,0.50005 0 0 1 0.10742,0.4043 l -0.27734,1.58008 5.00976,-0.0332 0.24024,-4.56836 -0.95703,-3.02343 z m -57.59961,38.52344 -3.85937,5.2207 1.17187,0.92773 3.62305,-4.28711 z m 44.66016,18.91992 0.37304,3.50976 1.39649,0.42579 -0.75,-3.59961 z m -47.8418,10.60351 -1.97656,0.58008 -3.56641,4.79883 -1.51562,4.10156 -0.0586,3.88477 a 0.50005,0.50005 0 0 1 -0.16797,0.36719 l -1.96093,1.73828 -0.67383,7.47265 a 0.50005,0.50005 0 0 1 -0.0215,0.11133 l -0.72656,2.20703 0.62891,6.10547 a 0.50005,0.50005 0 0 1 -0.0527,0.2793 l -2.13476,4.1582 -2.23243,9.01563 -0.27343,6.125 0.98437,2.55078 4.08008,3.37695 a 0.50005,0.50005 0 0 1 0.0762,0.0781 l 4.15039,5.33984 a 0.50005,0.50005 0 0 1 -0.0195,0.63476 l -3.03515,3.48438 -0.95704,3.46094 0.61524,2.81054 a 0.50005,0.50005 0 0 1 -0.33984,0.58399 l -5.75,1.78906 a 0.50005,0.50005 0 0 1 -0.25196,0.0117 l -4.41797,-0.92578 -0.55859,1.75586 1.96094,2.86914 a 0.50005,0.50005 0 0 1 0.0762,0.39258 l -0.4082,1.79883 1.01171,5.36718 a 0.50005,0.50005 0 0 1 0.004,0.16016 l -0.61328,4.58789 2.13867,5.875 a 0.50005,0.50005 0 0 1 -0.125,0.53125 l -3.11914,2.98242 -0.95898,2.50586 -0.13672,5.32227 0.66601,4.62304 1.70899,-2.20117 a 0.50005,0.50005 0 0 1 0.10742,-0.10351 l 3.76953,-2.63672 0.82813,-9.37696 a 0.50005,0.50005 0 0 1 0.69336,-0.41797 l 2.70507,1.13672 1.70703,-3.08007 -0.36914,-3.74024 -1.7832,-5.41797 a 0.50005,0.50005 0 0 1 -0.0234,-0.16015 l 0.0293,-4.01953 -1.05664,-4.39063 a 0.50005,0.50005 0 0 1 0.35742,-0.59961 l 3.8418,-1.01953 a 0.50005,0.50005 0 0 1 0.60547,0.33594 l 1.66992,5.4707 a 0.50005,0.50005 0 0 1 0.0176,0.0762 l 0.91406,6.45313 2.79297,-1.96289 a 0.50005,0.50005 0 0 1 0.3789,-0.082 l 5.07618,0.93555 3.55078,-0.54492 2.63086,-2.51367 -3.19141,-2.06641 a 0.50005,0.50005 0 0 1 -0.18359,-0.21094 l -4.87891,-10.68945 a 0.50005,0.50005 0 0 1 -0.043,-0.25976 l 0.38086,-3.68946 a 0.50005,0.50005 0 0 1 0.17383,-0.33203 l 4.71289,-3.97265 0.81641,-4.54688 -1.29493,-1.49805 -3.57226,-1.20507 a 0.50005,0.50005 0 0 1 -0.33984,-0.45704 l -0.13868,-4.2207 a 0.50005,0.50005 0 0 1 0.10547,-0.32617 l 1.32617,-1.68555 1.35743,-6.91015 -1.7793,-8.16797 a 0.50005,0.50005 0 0 1 -0.008,-0.0586 l -0.51954,-5.4707 a 0.50005,0.50005 0 0 1 0.0508,-0.27148 l 2.88086,-5.75391 0.34375,-7.625 -2.49805,-13.02734 z m 17.32422,34.11524 0.008,5.50976 1.26953,0.28125 -0.33984,-5.29687 z m -37.50586,27.62695 -2.5625,1.63867 0.31641,2.6875 1.90234,0.66407 2.11133,-2.94532 z m 40.95508,7.20117 -1.46094,0.89453 v 1.37891 h 1.95117 z m 8.34179,6.98828 -0.0566,2.29883 1.21485,-0.20703 z"
       id="Newport"
       inkscape:label="#path4533"
       inkscape:connector-curvature="0" />
    <path
       style="color:#000000;font-style:normal;font-variant:normal;font-weight:normal;font-stretch:normal;font-size:medium;line-height:normal;font-family:sans-serif;font-variant-ligatures:normal;font-variant-position:normal;font-variant-caps:normal;font-variant-numeric:normal;font-variant-alternates:normal;font-feature-settings:normal;text-indent:0;text-align:start;text-decoration:none;text-decoration-line:none;text-decoration-style:solid;text-decoration-color:#000000;letter-spacing:normal;word-spacing:normal;text-transform:none;writing-mode:lr-tb;direction:ltr;text-orientation:mixed;dominant-baseline:auto;baseline-shift:baseline;text-anchor:start;white-space:normal;shape-padding:0;clip-rule:nonzero;display:inline;overflow:visible;visibility:visible;opacity:1;isolation:auto;mix-blend-mode:normal;color-interpolation:sRGB;color-interpolation-filters:linearRGB;solid-color:#000000;solid-opacity:1;vector-effect:none;fill:#cccccc;fill-opacity:1;fill-rule:nonzero;stroke:none;stroke-width:1;stroke-linecap:butt;stroke-linejoin:miter;stroke-miterlimit:4;stroke-dasharray:none;stroke-dashoffset:0;stroke-opacity:1;color-rendering:auto;image-rendering:auto;shape-rendering:auto;text-rendering:auto;enable-background:accumulate"
       d="m 313.22461,334.33984 -4.10156,0.92969 -3.375,2.94727 a 0.50005,0.50005 0 0 1 -0.45313,0.10742 l -2.41601,-0.61914 -6.22852,4.71289 0.31445,2.02539 a 0.50005,0.50005 0 0 1 -0.17773,0.46289 l -2.07422,1.69531 -2.61133,3.83985 0.42383,3.07031 a 0.50005,0.50005 0 0 1 -0.0332,0.25976 l -0.92969,2.24024 a 0.50005,0.50005 0 0 1 -0.32422,0.28906 l -2.82031,0.81055 A 0.50005,0.50005 0 0 1 287.79492,356.75 l -1.11914,-4.50391 -2.06836,-2.21289 -8.52344,4.97852 0.72461,2.36133 a 0.50005,0.50005 0 0 1 -0.16406,0.53515 l -5.51953,4.46094 a 0.50005,0.50005 0 0 1 -0.1875,0.0937 l -1.97656,0.52539 -2.32813,3.23242 -1.23437,3.16602 1.64453,2.5957 a 0.50005,0.50005 0 0 1 0.0762,0.23047 l 0.70898,9.5 a 0.50005,0.50005 0 0 1 -0.49804,0.53711 l -24.74219,-0.0293 -16.73047,0.56836 a 0.50005,0.50005 0 0 1 -0.0117,0 l -67.65039,0.86914 -6.95508,2.03125 a 0.50005,0.50005 0 0 1 -0.13671,0.0215 l -73.68946,0.42968 -19.15234,0.9961 -6.27149,164.29297 a 0.50005,0.50005 0 0 1 -0.3125,0.44336 l -2.58984,1.05078 a 0.50005,0.50005 0 0 1 -0.32227,0.0176 l -3.70117,-1.04102 a 0.50005,0.50005 0 0 1 -0.12109,-0.0508 l -4.0625,-2.43945 h -4.73633 l -2.78906,3.58593 a 0.50005,0.50005 0 0 1 -0.16992,0.14063 l -6.58008,3.31055 a 0.50005,0.50005 0 0 1 -0.29102,0.0488 l -3.57226,-0.46875 -1.73633,1.77149 -0.59375,3.41992 1.55078,5.93555 a 0.50005,0.50005 0 0 1 0.008,0.2207 l -0.65234,3.34766 2.56445,4.13476 3.72656,3.10938 a 0.50005,0.50005 0 0 1 0.17579,0.45312 l -0.59571,4.20508 1.88867,3.13672 a 0.50005,0.50005 0 0 1 0.0215,0.47851 l -1.33984,2.73633 0.68359,4.16211 a 0.50005,0.50005 0 0 1 -0.11133,0.4043 l -4.05859,4.78906 -0.17188,4.65625 1.40821,5.76758 2.875,1.98242 a 0.50005,0.50005 0 0 1 0.20898,0.33399 l 1.29102,8.1289 a 0.50005,0.50005 0 0 1 -0.10547,0.39258 l -4.68946,5.83008 a 0.50005,0.50005 0 0 1 -0.0684,0.0684 l -5.90039,4.95117 a 0.50005,0.50005 0 0 1 -0.12695,0.0762 l -1.95898,0.83203 -2.83594,4.3711 a 0.50005,0.50005 0 0 1 -0.0801,0.0957 l -3.83984,3.5293 a 0.50005,0.50005 0 0 1 -0.22657,0.11914 l -1.83789,0.42773 -1.00195,2.99609 -0.44922,5.7168 1.5332,0.26953 a 0.50005,0.50005 0 0 1 0.34375,0.23828 l 1.4336,2.41797 7.97851,-4.79101 a 0.50005,0.50005 0 0 1 0.0606,-0.0312 l 7.9707,-3.41016 a 0.50005,0.50005 0 0 1 0.041,-0.0156 l 12.73047,-4.16016 a 0.50005,0.50005 0 0 1 0.0371,-0.0117 l 28.75,-6.97851 a 0.50005,0.50005 0 0 1 0.041,-0.008 l 5.04883,-0.79101 a 0.50005,0.50005 0 0 1 0.12305,-0.004 l 3.70117,0.33985 a 0.50005,0.50005 0 0 1 0.1543,0.041 l 6.19726,2.73438 3.15821,-2.29102 a 0.50005,0.50005 0 0 1 0.15429,-0.0762 l 11.07032,-3.21094 a 0.50005,0.50005 0 0 1 0.0937,-0.0176 l 4.45117,-0.40039 a 0.50005,0.50005 0 0 1 0.125,0.006 l 5.54492,0.9082 7.2793,-2.8125 5.7832,-6.02929 a 0.50005,0.50005 0 0 1 0.22656,-0.13477 l 5.92969,-1.67383 31.19922,-11.67382 a 0.50005,0.50005 0 0 1 0.21094,-0.0293 l 2.94335,0.20703 3.52149,-2.6582 a 0.50005,0.50005 0 0 1 0.13086,-0.0703 l 11.37891,-4.12109 a 0.50005,0.50005 0 0 1 0.10546,-0.0254 l 14.92774,-1.96094 5.91406,-2.63867 a 0.50005,0.50005 0 0 1 0.0859,-0.0293 l 23.80859,-5.78125 a 0.50005,0.50005 0 0 1 0.20508,-0.006 l 7.2793,1.28711 2.32617,-0.26562 3.82226,-2.8125 a 0.50005,0.50005 0 0 1 0.29493,-0.0977 l 7.83984,-0.0293 a 0.50005,0.50005 0 0 1 0.12305,0.0156 l 4.64258,1.17188 7.1914,0.94726 a 0.50005,0.50005 0 0 1 0.21484,0.082 l 3.9004,2.63867 a 0.50005,0.50005 0 0 1 0.15039,0.16016 l 1.59765,2.71094 4.03125,3.53711 a 0.50005,0.50005 0 0 1 0.16797,0.42578 l -0.14062,1.4043 4.81836,1.63086 0.18554,-1.23438 -1.65234,-3.0625 a 0.50005,0.50005 0 0 1 -0.0527,-0.1582 l -0.87109,-5.41016 a 0.50005,0.50005 0 0 1 0.0449,-0.29883 l 6.40039,-13.04101 a 0.50005,0.50005 0 0 1 0.0195,-0.0352 l 4.08985,-6.87891 a 0.50005,0.50005 0 0 1 0.1914,-0.18554 l 3.40235,-1.83789 0.93555,-4.81641 a 0.50005,0.50005 0 0 1 0.16992,-0.28906 l 4.13476,-3.45703 2.12891,-3.98242 0.21484,-7.18555 -1.46093,-3.59375 a 0.50005,0.50005 0 0 1 -0.0352,-0.15235 l -0.71094,-10.2207 a 0.50005,0.50005 0 0 1 0.13672,-0.37891 l 4.75,-5.01953 a 0.50005,0.50005 0 0 1 0.0957,-0.0801 l 4.24024,-2.66993 a 0.50005,0.50005 0 0 1 0.22851,-0.0742 l 3.01563,-0.22657 4.47265,-4.80664 -0.5625,-1.625 a 0.50005,0.50005 0 0 1 0.004,-0.33984 l 1.25977,-3.33985 a 0.50005,0.50005 0 0 1 0.27343,-0.28515 l 2.04493,-0.86328 0.10351,-3.75196 -2.13281,-1.96679 a 0.50005,0.50005 0 0 1 -0.16016,-0.33789 l -0.50976,-8.67969 a 0.50005,0.50005 0 0 1 0.18359,-0.41602 l 2.13867,-1.75 a 0.50005,0.50005 0 0 1 0.3086,-0.11328 l 5.88476,-0.0918 0.27539,-7.90624 -1.41797,-1.22266 a 0.50005,0.50005 0 0 1 -0.17187,-0.34961 l -0.80078,-13.75977 a 0.50005,0.50005 0 0 1 0.0176,-0.16211 l 4.41992,-16.09765 -0.39258,-12.14844 -1.68555,-1.97656 a 0.50005,0.50005 0 0 1 -0.11914,-0.36719 l 0.29492,-3.43164 -3.49609,-2.11914 a 0.50005,0.50005 0 0 1 -0.17773,-0.18359 l -2.44922,-4.4004 a 0.50005,0.50005 0 0 1 -0.004,-0.48046 l 1.70508,-3.15235 -2.48047,0.74805 a 0.50005,0.50005 0 0 1 -0.57617,-0.22852 l -1.65039,-2.84961 a 0.50005,0.50005 0 0 1 -0.0254,-0.45117 l 2.08203,-4.71875 -1.01172,-2.30664 -2.98828,-2.8164 -5.80664,-3.20899 a 0.50005,0.50005 0 0 1 -0.24219,-0.3164 l -0.58008,-2.31055 a 0.50005,0.50005 0 0 1 0.18555,-0.52149 l 3.07617,-2.30273 -5.10156,-3.18359 a 0.50005,0.50005 0 0 1 -0.23047,-0.36133 l -0.45117,-3.58985 a 0.50005,0.50005 0 0 1 0.375,-0.54687 l 1.36718,-0.34375 -1.27343,-3.375 a 0.50005,0.50005 0 0 1 0.26953,-0.63477 l 3.75976,-1.63086 a 0.50005,0.50005 0 0 1 0.6543,0.25196 l 1.4707,3.25 a 0.50005,0.50005 0 0 1 0.0391,0.27148 l -0.31836,2.43555 5.375,-4.66797 a 0.50005,0.50005 0 0 1 0.18554,-0.10156 l 7.33008,-2.18946 a 0.50005,0.50005 0 0 1 0.0801,-0.0176 l 5.81445,-0.73829 4.60938,-2.32421 0.0937,-11.64649 -6.83203,0.32422 a 0.50005,0.50005 0 0 1 -0.4043,-0.17383 l -1.79883,-2.11133 a 0.50005,0.50005 0 0 1 -0.0488,-0.58007 l 3.41993,-5.70118 a 0.50005,0.50005 0 0 1 0.61328,-0.20703 l 1.46289,0.58008 3.19726,-1.1582 1.10157,-2.90039 -3.5293,-3.50196 a 0.50005,0.50005 0 0 1 -0.13477,-0.24218 l -0.49023,-2.10938 a 0.50005,0.50005 0 0 1 0.15234,-0.48437 l 3.44532,-3.12891 0.1289,-1.42969 -2.93555,-5.22461 a 0.50005,0.50005 0 0 1 -0.0625,-0.2207 l -0.92968,-18.35938 z m -107.82813,390.91993 -1.01953,2.01757 -0.42773,12.58985 a 0.50005,0.50005 0 0 1 -0.0293,0.15429 l -2.57031,7 a 0.50005,0.50005 0 0 1 -0.16016,0.22071 l -3.55859,2.81054 -2.52148,3.33008 a 0.50005,0.50005 0 0 1 -0.73829,0.0645 l -1.55468,-1.43555 -0.28711,5.76367 a 0.50005,0.50005 0 0 1 -0.0508,0.19531 l -2.79883,5.71875 a 0.50005,0.50005 0 0 1 -0.22852,0.22852 l -5.4082,2.68164 -3.40235,12.29687 0.0293,5.17969 a 0.50005,0.50005 0 0 1 -0.11719,0.32617 l -1.6582,1.96875 1.00391,5.42383 7.74414,6.17578 4.11133,0.52149 9.0332,-2.48438 a 0.50005,0.50005 0 0 1 0.48828,0.13086 l 1.14258,1.15039 6.57812,-1.52539 a 0.50005,0.50005 0 0 1 0.19727,-0.006 l 1.80078,0.30664 6.35547,-2.29492 a 0.50005,0.50005 0 0 1 0.15039,-0.0293 l 3.04492,-0.125 3.10938,-1.65039 2.11718,-6.68164 -0.35351,-2.89648 -3.73633,-1.60742 a 0.50005,0.50005 0 0 1 -0.17969,-0.13282 l -1.83984,-2.1289 a 0.50005,0.50005 0 0 1 -0.0996,-0.18164 l -1.07422,-3.52149 -1.83789,0.29883 a 0.50005,0.50005 0 0 1 -0.47656,-0.18945 l -4.66992,-6.08985 a 0.50005,0.50005 0 0 1 -0.0859,-0.17187 l -1.15039,-4.21094 a 0.50005,0.50005 0 0 1 -0.0176,-0.125 l -0.0391,-3.58984 a 0.50005,0.50005 0 0 1 0.0137,-0.12305 l 1.58008,-6.55078 a 0.50005,0.50005 0 0 1 0.0215,-0.0684 l 1.91016,-4.78906 a 0.50005,0.50005 0 0 1 0.0293,-0.0625 l 3.98438,-6.98828 0.97852,-4.02539 -1.15821,-3.17188 -4.4707,-6.70508 -5.1543,-1.00195 a 0.50005,0.50005 0 0 1 -0.2207,-0.10156 z"
       id="Washington"
       inkscape:label="#path4544"
       inkscape:connector-curvature="0" />
    <path
       style="color:#000000;font-style:normal;font-variant:normal;font-weight:normal;font-stretch:normal;font-size:medium;line-height:normal;font-family:sans-serif;font-variant-ligatures:normal;font-variant-position:normal;font-variant-caps:normal;font-variant-numeric:normal;font-variant-alternates:normal;font-feature-settings:normal;text-indent:0;text-align:start;text-decoration:none;text-decoration-line:none;text-decoration-style:solid;text-decoration-color:#000000;letter-spacing:normal;word-spacing:normal;text-transform:none;writing-mode:lr-tb;direction:ltr;text-orientation:mixed;dominant-baseline:auto;baseline-shift:baseline;text-anchor:start;white-space:normal;shape-padding:0;clip-rule:nonzero;display:inline;overflow:visible;visibility:visible;opacity:1;isolation:auto;mix-blend-mode:normal;color-interpolation:sRGB;color-interpolation-filters:linearRGB;solid-color:#000000;solid-opacity:1;vector-effect:none;fill:#cccccc;fill-opacity:1;fill-rule:nonzero;stroke:none;stroke-width:1;stroke-linecap:butt;stroke-linejoin:miter;stroke-miterlimit:4;stroke-dasharray:none;stroke-dashoffset:0;stroke-opacity:1;color-rendering:auto;image-rendering:auto;shape-rendering:auto;text-rendering:auto;enable-background:accumulate"
       d="m 325.37112,230.64844 2.39649,1.32617 0.97265,2.26367 a 0.50005,0.50005 0 0 0 0.42969,0.30078 l 3.52344,0.21094 1.85352,4.60742 a 0.50005,0.50005 0 0 0 0.49804,0.31055 l 0.9961,-0.0703 1.64648,2.24023 0.63867,5.6543 -0.31445,3.02539 a 0.50005,0.50005 0 0 0 0.26758,0.49609 l 2.60547,1.36133 -2.95118,4.40625 a 0.50005,0.50005 0 0 0 -0.084,0.27148 l -0.15039,10.54102 a 0.50005,0.50005 0 0 0 0.0723,0.26367 l 3.10938,5.18946 a 0.50005,0.50005 0 0 0 0.15039,0.1582 l 4.56836,3.08008 a 0.50005,0.50005 0 0 0 0.19336,0.0781 l 7.54297,1.33594 -4.90625,3.86914 a 0.50005,0.50005 0 0 0 -0.18555,0.46289 l 0.89844,6.22852 -0.82031,3.64062 a 0.50005,0.50005 0 0 0 -0.0117,0.11328 l 0.0391,6.33008 a 0.50005,0.50005 0 0 0 0.18164,0.38086 l 1.66602,1.37695 -1.25,2.76172 -4.42774,2.68945 a 0.50005,0.50005 0 0 0 -0.22851,0.32422 L 343,312.04688 a 0.50005,0.50005 0 0 0 -0.01,0.13281 l 0.31055,5.36133 -3.09961,4.99609 -2.34179,-0.50195 -2.79102,-3.22266 a 0.50005,0.50005 0 0 0 -0.21875,-0.14648 l -2.1543,-0.73047 -0.45508,-10.80664 a 0.50005,0.50005 0 0 0 -0.56054,-0.47461 l -5.17774,0.63476 -13.58203,-0.71679 -10.75781,-2.49024 a 0.50005,0.50005 0 0 0 -0.1582,-0.01 l -4.6836,0.42578 -0.32422,-2.79493 a 0.50005,0.50005 0 0 0 -0.32421,-0.4121 l -2.76954,-1.01954 a 0.50005,0.50005 0 0 0 -0.58593,0.1875 l -2.32032,3.43164 a 0.50005,0.50005 0 0 0 0.0566,0.62891 l 1.52149,1.54883 -0.1836,7.42969 a 0.50005,0.50005 0 0 0 0.2793,0.46093 l 3.70899,1.82618 0.22265,1.31445 -3.05468,1.35351 a 0.50005,0.50005 0 0 0 -0.29102,0.375 l -0.33984,2.06055 a 0.50005,0.50005 0 0 0 0.0176,0.23242 l 1.33985,4.22071 a 0.50005,0.50005 0 0 0 0.76953,0.2539 l 2.80273,-2.0332 6.85742,-0.74609 a 0.50005,0.50005 0 0 0 0.28907,-0.13282 l 2.80859,-2.64843 5.01758,4.69922 a 0.50005,0.50005 0 0 0 0.19141,0.11328 l 5.84375,1.82812 -0.15235,7.57617 -5.4082,-0.91406 a 0.50005,0.50005 0 0 0 -0.19336,0.004 l -4.32031,0.98047 a 0.50005,0.50005 0 0 0 -0.21875,0.11132 l -3.27149,2.85743 -2.39453,-0.61524 a 0.50005,0.50005 0 0 0 -0.42578,0.0859 l -6.66016,5.03906 a 0.50005,0.50005 0 0 0 -0.19336,0.47656 l 0.31641,2.03711 -1.9082,1.5586 a 0.50005,0.50005 0 0 0 -0.0977,0.10547 l -2.75976,4.06054 a 0.50005,0.50005 0 0 0 -0.082,0.34961 l 0.43164,3.125 -0.78515,1.89258 -2.08985,0.60156 -1.02539,-4.1289 a 0.50005,0.50005 0 0 0 -0.11914,-0.22071 l -2.43164,-2.59961 a 0.50005,0.50005 0 0 0 -0.61718,-0.0898 l -9.20899,5.37891 a 0.50005,0.50005 0 0 0 -0.22656,0.57812 l 0.74023,2.41797 -5.17383,4.17969 -2.04687,0.54297 a 0.50005,0.50005 0 0 0 -0.27734,0.1914 l -2.46875,3.42969 a 0.50005,0.50005 0 0 0 -0.0606,0.11133 l -1.34961,3.45898 a 0.50005,0.50005 0 0 0 0.043,0.44922 l 1.71289,2.70508 0.66016,8.83789 -24.21094,-0.0293 a 0.50005,0.50005 0 0 0 -0.0176,0 l -16.73438,0.57032 -67.71484,0.86914 a 0.50005,0.50005 0 0 0 -0.13281,0.0195 l -6.95313,2.03125 -73.63086,0.42968 a 0.50005,0.50005 0 0 0 -0.0215,0 l -19.07812,0.99219 1.79296,-53.53515 a 0.50005,0.50005 0 0 0 0,-0.0312 l -1.62695,-62.80664 47.2168,-0.87891 a 0.50005,0.50005 0 0 0 0.002,-0.002 l 52.0293,-1.23829 a 0.50005,0.50005 0 0 0 0.004,0 l 67.50782,-2.02148 17.74609,-0.30859 a 0.50005,0.50005 0 0 0 0.0117,0 l 44.28906,-1.77149 a 0.50005,0.50005 0 0 0 0.34375,-0.15429 l 1.70899,-1.80079 a 0.50005,0.50005 0 0 0 0.12695,-0.44921 l -0.56055,-2.59571 1.39844,-1.73047 4.31836,-0.40039 a 0.50005,0.50005 0 0 0 0.45312,-0.46875 l 0.22071,-3.70898 a 0.50005,0.50005 0 0 0 -0.0273,-0.19531 l -1.37695,-3.92188 3.76172,-2.77148 a 0.50005,0.50005 0 0 0 0.19726,-0.48242 l -0.35351,-2.17383 2.30859,-4.375 2.13672,-0.91211 5.2832,-0.0879 a 0.50005,0.50005 0 0 0 0.36524,-0.16797 l 2.68164,-3.01563 4.91797,1.39453 a 0.50005,0.50005 0 0 0 0.5332,-0.17773 l 2.4082,-3.14258 z"
       id="Kent"
       inkscape:connector-curvature="0" />
    <path
       style="color:#000000;font-style:normal;font-variant:normal;font-weight:normal;font-stretch:normal;font-size:medium;line-height:normal;font-family:sans-serif;font-variant-ligatures:normal;font-variant-position:normal;font-variant-caps:normal;font-variant-numeric:normal;font-variant-alternates:normal;font-feature-settings:normal;text-indent:0;text-align:start;text-decoration:none;text-decoration-line:none;text-decoration-style:solid;text-decoration-color:#000000;letter-spacing:normal;word-spacing:normal;text-transform:none;writing-mode:lr-tb;direction:ltr;text-orientation:mixed;dominant-baseline:auto;baseline-shift:baseline;text-anchor:start;white-space:normal;shape-padding:0;clip-rule:nonzero;display:inline;overflow:visible;visibility:visible;opacity:1;isolation:auto;mix-blend-mode:normal;color-interpolation:sRGB;color-interpolation-filters:linearRGB;solid-color:#000000;solid-opacity:1;vector-effect:none;fill:#cccccc;fill-opacity:1;fill-rule:nonzero;stroke:none;stroke-width:1;stroke-linecap:butt;stroke-linejoin:miter;stroke-miterlimit:4;stroke-dasharray:none;stroke-dashoffset:0;stroke-opacity:1;color-rendering:auto;image-rendering:auto;shape-rendering:auto;text-rendering:auto;enable-background:accumulate"
       d="m 381.5019,223.49023 38.34766,21.47657 24.99023,37.82812 -1.93359,4.23633 -3.39258,3.16016 -5.36719,3.7832 -3.19726,0.52148 a 0.50005,0.50005 0 0 0 -0.40234,0.625 l 2.31054,8.44141 a 0.50005,0.50005 0 0 0 0.0469,0.11328 l 5.33203,9.42383 -0.44727,4.65234 -1.84961,5.29883 -3.53906,-2.80273 a 0.50005,0.50005 0 0 0 -0.64844,0.0234 l -4.07031,3.75 a 0.50005,0.50005 0 0 0 -0.10547,0.13868 l -2.10937,4.05859 a 0.50005,0.50005 0 0 0 -0.0547,0.17969 l -0.77344,7.49023 -1.375,1.67383 a 0.50005,0.50005 0 0 0 -0.11133,0.26953 l -0.30273,3.17383 -1.37695,3.27148 -4.47266,-1.85937 -1.98242,-6.46485 1.58203,-4.38281 a 0.50005,0.50005 0 0 0 -0.0879,-0.49414 l -6.81641,-8.02539 -1.79883,-5.5332 1.00391,-5.16211 a 0.50005,0.50005 0 0 0 -0.17578,-0.48438 l -4.58008,-3.71875 a 0.50005,0.50005 0 0 0 -0.67969,0.0449 l -2.43945,2.59961 a 0.50005,0.50005 0 0 0 -0.12891,0.41796 l 0.98633,6.42969 -1.91211,8.9375 -4.87109,3.66797 a 0.50005,0.50005 0 0 0 -0.19922,0.42188 l 0.17578,3.98437 -0.90039,3.38477 -0.78516,-0.20313 -2.38476,-8.24414 -0.78125,-11.95117 2.22656,-7.92188 2.12891,0.16797 a 0.50005,0.50005 0 0 0 0.46289,-0.23047 l 3.96875,-6.25 a 0.50005,0.50005 0 0 0 0.0762,-0.21875 l 1.2793,-13.10156 a 0.50005,0.50005 0 0 0 -0.14063,-0.39844 l -5.38867,-5.5 a 0.50005,0.50005 0 0 0 -0.61523,-0.0781 l -2.80078,1.67383 -2.54688,-4.99805 1.4668,-5.22266 a 0.50005,0.50005 0 0 0 -0.01,-0.29883 l -0.94922,-2.73046 a 0.50005,0.50005 0 0 0 -0.29883,-0.30469 l -5.27929,-1.95899 a 0.50005,0.50005 0 0 0 -0.0664,-0.0195 l -6.42969,-1.42968 a 0.50005,0.50005 0 0 0 -0.13281,-0.0117 l -10.07617,0.5 -1.00977,-3.44336 -0.01,-5.11719 a 0.50005,0.50005 0 0 0 -0.25391,-0.43555 l -2.15429,-1.22265 -2.55274,-5.21094 a 0.50005,0.50005 0 0 0 -0.0977,-0.13477 l -2.76953,-2.75 a 0.50005,0.50005 0 0 0 -0.35156,-0.14648 h -1.79297 l 1.12891,-4.91797 1.49219,-1.11133 a 0.50005,0.50005 0 0 0 0.041,-0.0332 l 21.58985,-20.05078 a 0.50005,0.50005 0 0 0 0.0293,-0.0293 z"
       id="Bristol"
       inkscape:connector-curvature="0" />
  </g>
</svg>
