<?xml version="1.0" encoding="UTF-8" standalone="no"?>
<svg
   xmlns:dc="http://purl.org/dc/elements/1.1/"
   xmlns:cc="http://creativecommons.org/ns#"
   xmlns:rdf="http://www.w3.org/1999/02/22-rdf-syntax-ns#"
   xmlns:svg="http://www.w3.org/2000/svg"
   xmlns="http://www.w3.org/2000/svg"
   xmlns:sodipodi="http://sodipodi.sourceforge.net/DTD/sodipodi-0.dtd"
   xmlns:inkscape="http://www.inkscape.org/namespaces/inkscape"
   version="1.2"
   width="810"
   height="810"
   stroke-linecap="round"
   stroke-linejoin="round"
   id="svg17"
   sodipodi:docname="vt.svg"
   inkscape:version="0.92.1 r15371">
  <metadata
     id="metadata23">
    <rdf:RDF>
      <cc:Work
         rdf:about="">
        <dc:format>image/svg+xml</dc:format>
        <dc:type
           rdf:resource="http://purl.org/dc/dcmitype/StillImage" />
      </cc:Work>
    </rdf:RDF>
  </metadata>
  <defs
     id="defs21" />
  <sodipodi:namedview
     pagecolor="#ffffff"
     bordercolor="#666666"
     borderopacity="1"
     objecttolerance="10"
     gridtolerance="10"
     guidetolerance="10"
     inkscape:pageopacity="0"
     inkscape:pageshadow="2"
     inkscape:window-width="1440"
     inkscape:window-height="837"
     id="namedview19"
     showgrid="false"
     inkscape:zoom="0.58271605"
     inkscape:cx="195.61521"
     inkscape:cy="496.0097"
     inkscape:window-x="-8"
     inkscape:window-y="-8"
     inkscape:window-maximized="1"
     inkscape:current-layer="Vermont" />
  <g
     id="Vermont"
     transform="translate(5,5)">
    <path
       style="color:#000000;font-style:normal;font-variant:normal;font-weight:normal;font-stretch:normal;font-size:medium;line-height:normal;font-family:sans-serif;font-variant-ligatures:normal;font-variant-position:normal;font-variant-caps:normal;font-variant-numeric:normal;font-variant-alternates:normal;font-feature-settings:normal;text-indent:0;text-align:start;text-decoration:none;text-decoration-line:none;text-decoration-style:solid;text-decoration-color:#000000;letter-spacing:normal;word-spacing:normal;text-transform:none;writing-mode:lr-tb;direction:ltr;text-orientation:mixed;dominant-baseline:auto;baseline-shift:baseline;text-anchor:start;white-space:normal;shape-padding:0;clip-rule:nonzero;display:inline;overflow:visible;visibility:visible;opacity:1;isolation:auto;mix-blend-mode:normal;color-interpolation:sRGB;color-interpolation-filters:linearRGB;solid-color:#000000;solid-opacity:1;vector-effect:none;fill:#cccccc;fill-opacity:1;fill-rule:nonzero;stroke:none;stroke-width:1;stroke-linecap:butt;stroke-linejoin:miter;stroke-miterlimit:4;stroke-dasharray:none;stroke-dashoffset:0;stroke-opacity:1;color-rendering:auto;image-rendering:auto;shape-rendering:auto;text-rendering:auto;enable-background:accumulate"
       d="m 316.11133,370.55273 0.17969,4.0586 a 0.50005,0.50005 0 0 0 0.28906,0.43164 l 4.51172,2.08594 0.45508,2.18945 -1.08985,2.30859 a 0.50005,0.50005 0 0 0 0.27735,0.68164 l 15.41015,5.8086 a 0.50005,0.50005 0 0 0 0.59375,-0.19141 l 0.52734,-0.80469 26.09766,10.01368 35.9336,15.14843 a 0.50005,0.50005 0 0 0 0.29882,0.72852 l 14.03321,3.9082 16.57421,5.19141 33.05665,13.21094 -3.02735,2.13867 a 0.50005,0.50005 0 0 0 -0.14648,0.16015 l -3.43946,6.00196 -2.57812,0.94726 a 0.50005,0.50005 0 0 0 -0.11914,0.0625 l -7.61914,5.43946 a 0.50005,0.50005 0 0 0 -0.0957,0.0898 l -6.11915,7.41992 a 0.50005,0.50005 0 0 0 -0.084,0.14649 l -1.40039,3.82031 a 0.50005,0.50005 0 0 0 -0.0293,0.14648 l -0.21094,4.26953 a 0.50005,0.50005 0 0 0 0.0391,0.22266 l 0.68359,1.59375 -0.63086,3.78711 -2.03515,3.54297 a 0.50005,0.50005 0 0 0 -0.0664,0.2207 l -0.2832,4.93164 -2.8125,1.41016 a 0.50005,0.50005 0 0 0 -0.26172,0.33008 l -1.83985,7.75 a 0.50005,0.50005 0 0 0 0.0606,0.3789 l 1.51758,2.45508 -0.9043,2.26953 -4.29883,3.9336 -5.87304,2.7871 a 0.50005,0.50005 0 0 0 -0.17383,0.13672 l -1.70899,2.09961 a 0.50005,0.50005 0 0 0 -0.10351,0.22266 l -0.6211,3.31055 a 0.50005,0.50005 0 0 0 -0.008,0.1289 l 0.57031,7.95117 -2.04101,4.06836 -1.07227,0.2461 a 0.50005,0.50005 0 0 0 -0.375,0.3789 l -1.08984,4.86914 a 0.50005,0.50005 0 0 0 0.01,0.25586 l 0.57031,1.86914 a 0.50005,0.50005 0 0 0 0.13867,0.22266 l 2.84961,2.63477 0.9043,2.18554 -0.18946,4.40821 -2.71679,5.14062 a 0.50005,0.50005 0 0 0 -0.0566,0.28711 l 0.51953,4.72266 -1.25196,4.32422 a 0.50005,0.50005 0 0 0 -0.0156,0.0762 l -2.04102,16.07617 -2.26562,2.54492 a 0.50005,0.50005 0 0 0 -0.11133,0.20508 l -0.70898,2.70898 a 0.50005,0.50005 0 0 0 -0.0117,0.19532 l 0.6582,4.80078 a 0.50005,0.50005 0 0 0 0.2832,0.38476 l 5.14844,2.41992 -2.16601,2.71485 a 0.50005,0.50005 0 0 0 -0.0586,0.0937 l -2.38086,4.91016 a 0.50005,0.50005 0 0 0 0.0176,0.4707 l 3.66797,6.27344 -1.45899,3.11132 a 0.50005,0.50005 0 0 0 -0.0351,0.10547 l -1.55664,7.07617 -3.38477,6.57618 -3.32226,1.6582 a 0.50005,0.50005 0 0 0 -0.26954,0.35352 l -0.94921,4.95898 a 0.50005,0.50005 0 0 0 0.0176,0.25391 l 1.0879,3.21484 -28.67774,-0.97461 a 0.50005,0.50005 0 0 0 -0.0781,0.004 l -32.4004,4.07031 a 0.50005,0.50005 0 0 0 -0.0469,0.008 l -2.20508,0.49024 -18.04297,-5.95508 -15.64258,-5.61914 -0.01,-14.74805 A 0.50005,0.50005 0 0 0 308.39844,599 L 296.5,598.56055 l 0.95312,-15.81446 2.17383,-0.1582 a 0.50005,0.50005 0 0 0 0.46289,-0.46484 l 0.59766,-8.91993 7.24805,0.20704 a 0.50005,0.50005 0 0 0 0.51367,-0.49414 l 0.01,-0.83399 15.35547,9.11719 a 0.50005,0.50005 0 0 0 0.75,-0.50391 l -0.93945,-6.17969 6.08203,-15.73632 a 0.50005,0.50005 0 0 0 0.0156,-0.0488 l 4.07031,-14.97852 a 0.50005,0.50005 0 0 0 0.0117,-0.20507 l -0.41992,-2.82032 a 0.50005,0.50005 0 0 0 -0.34571,-0.40429 l -11.54883,-3.61329 0.52539,-4.0039 a 0.50005,0.50005 0 0 0 -0.39453,-0.55469 l -4.82812,-0.98828 2.04297,-16.7207 2.58984,-15.79883 2.85742,1.07617 a 0.50005,0.50005 0 0 0 0.63086,-0.25781 l 7.00977,-15.09961 a 0.50005,0.50005 0 0 0 0.008,-0.0176 l 7.81055,-18.69141 a 0.50005,0.50005 0 0 0 -0.28711,-0.66015 l -29.8457,-11.08985 3.8496,-7.94336 a 0.50005,0.50005 0 0 0 -0.23046,-0.66796 l -3.42969,-1.66602 9.06445,-19.61523 a 0.50005,0.50005 0 0 0 -0.0117,-0.44532 l -2.25781,-4.21484 0.20313,-1.97852 a 0.50005,0.50005 0 0 0 -0.0703,-0.3125 l -1.41015,-2.29101 a 0.50005,0.50005 0 0 0 -0.23633,-0.19922 l -8.5,-3.5 a 0.50005,0.50005 0 0 0 -0.625,0.21289 l -1.74219,3.05078 -8.23828,-3.36133 -0.11523,-6.08984 a 0.50005,0.50005 0 0 0 -0.72657,-0.43555 l -20.99804,10.73633 -3.09766,-13.5625 a 0.50005,0.50005 0 0 0 -0.7168,-0.33203 l -1.11328,0.57617 0.0449,-5.02344 6.09375,2.56055 a 0.50005,0.50005 0 0 0 0.41602,-0.0117 l 18.67969,-9.27734 0.50976,12.70898 a 0.50005,0.50005 0 0 0 0.32227,0.44727 l 2.23828,0.84961 a 0.50005,0.50005 0 0 0 0.63086,-0.25391 l 12.24414,-26.05273 1.16797,0.4375 a 0.50005,0.50005 0 0 0 0.61719,-0.23438 z"
       id="Windsor" />
    <path
       style="color:#000000;font-style:normal;font-variant:normal;font-weight:normal;font-stretch:normal;font-size:medium;line-height:normal;font-family:sans-serif;font-variant-ligatures:normal;font-variant-position:normal;font-variant-caps:normal;font-variant-numeric:normal;font-variant-alternates:normal;font-feature-settings:normal;text-indent:0;text-align:start;text-decoration:none;text-decoration-line:none;text-decoration-style:solid;text-decoration-color:#000000;letter-spacing:normal;word-spacing:normal;text-transform:none;writing-mode:lr-tb;direction:ltr;text-orientation:mixed;dominant-baseline:auto;baseline-shift:baseline;text-anchor:start;white-space:normal;shape-padding:0;clip-rule:nonzero;display:inline;overflow:visible;visibility:visible;opacity:1;isolation:auto;mix-blend-mode:normal;color-interpolation:sRGB;color-interpolation-filters:linearRGB;solid-color:#000000;solid-opacity:1;vector-effect:none;fill:#cccccc;fill-opacity:1;fill-rule:nonzero;stroke:none;stroke-width:1;stroke-linecap:butt;stroke-linejoin:miter;stroke-miterlimit:4;stroke-dasharray:none;stroke-dashoffset:0;stroke-opacity:1;color-rendering:auto;image-rendering:auto;shape-rendering:auto;text-rendering:auto;enable-background:accumulate"
       d="m 644.10742,1.5507812 -1.89844,1.21875 a 0.50005,0.50005 0 0 0 -0.21093,0.2871094 l -0.41797,1.5019532 -1.74414,0.3417968 -3.46875,-2.3066406 a 0.50005,0.50005 0 0 0 -0.48047,-0.041016 l -5.05078,2.25 a 0.50005,0.50005 0 0 0 -0.13672,0.091797 l -2.78906,2.5898438 a 0.50005,0.50005 0 0 0 -0.14844,0.2558594 l -0.58008,2.5585938 a 0.50005,0.50005 0 0 0 0.0508,0.351563 l 3.04883,5.541015 a 0.50005,0.50005 0 0 0 0.0937,0.121094 l 2.42578,2.3125 -0.23047,5.091797 a 0.50005,0.50005 0 0 0 0.002,0.0625 l 0.59961,7.619141 a 0.50005,0.50005 0 0 0 0.14843,0.318359 l 2.70508,2.65625 1.92578,3.167969 -4.1914,5.267578 a 0.50005,0.50005 0 0 0 -0.0762,0.132812 l -1.09765,2.861328 -3.6836,5.22461 -2.63086,1.132812 a 0.50005,0.50005 0 0 0 -0.29687,0.390625 l -0.44727,3.185547 -1.88281,3.328125 a 0.50005,0.50005 0 0 0 -0.0254,0.4375 l 1.09961,2.638672 -1.30078,1.283203 a 0.50005,0.50005 0 0 0 -0.12109,0.195313 l -1.22071,3.58789 -2.51953,0.871094 a 0.50005,0.50005 0 0 0 -0.32617,0.367187 l -0.60938,2.871094 a 0.50005,0.50005 0 0 0 0.15039,0.470703 l 1.61524,1.494141 -0.97266,3.015625 a 0.50005,0.50005 0 0 0 -0.004,0.294922 l 0.40429,1.373047 -1.80859,2.673828 -2.9707,0.705078 a 0.50005,0.50005 0 0 0 -0.3711,0.367188 l -0.58398,2.388671 -3.99414,3.798829 a 0.50005,0.50005 0 0 0 -0.11719,0.167968 l -1.10547,2.619141 -3.55469,1.294922 a 0.50005,0.50005 0 0 0 -0.27539,0.695312 l 1.65039,3.251953 -0.21289,4.648436 a 0.50005,0.50005 0 0 0 0.10547,0.33008 l 6.89258,8.86719 1.03711,1.92187 -0.81055,1.57617 a 0.50005,0.50005 0 0 0 -0.0273,0.39258 l 0.91406,2.63086 -0.41211,2.02539 a 0.50005,0.50005 0 0 0 0.28516,0.55469 l 2.19531,0.99219 0.16016,5.41797 a 0.50005,0.50005 0 0 0 0.0957,0.27929 l 1.75,2.39063 a 0.50005,0.50005 0 0 0 0.4707,0.20117 l 3.56836,-0.47656 1.0625,3.21484 -1.15234,1.38672 a 0.50005,0.50005 0 0 0 0.0703,0.70703 l 2.54297,2.05274 -0.95898,3.35156 a 0.50005,0.50005 0 0 0 -0.01,0.23437 l 0.73438,3.74024 -1.57227,2.83008 a 0.50005,0.50005 0 0 0 0.043,0.55078 l 1.78125,2.27929 a 0.50005,0.50005 0 0 0 0.24219,0.16993 l 3.15039,1 0.47851,1.13867 -2.09375,2.38476 a 0.50005,0.50005 0 0 0 -0.11133,0.21485 l -0.6289,2.67773 -2.16211,1.66406 -2.4043,0.56055 -4.4082,-0.97656 a 0.50005,0.50005 0 0 0 -0.42774,0.10351 l -2.08984,1.73047 a 0.50005,0.50005 0 0 0 -0.17969,0.33985 l -0.21875,2.46093 a 0.50005,0.50005 0 0 0 0.18555,0.43555 l 5.52148,4.39063 0.01,2.6914 -1.86719,2.65821 -2.61914,0.57031 a 0.50005,0.50005 0 0 0 -0.31836,0.75195 l 2.90039,4.66992 a 0.50005,0.50005 0 0 0 0.084,0.10156 l 1.10351,1.02344 -4.11133,3.40625 a 0.50005,0.50005 0 0 0 -0.14648,0.19922 l -0.87891,2.19922 -4.29687,0.1875 a 0.50005,0.50005 0 0 0 -0.4375,0.29883 l -1.42383,3.26367 -1.76758,-0.81836 a 0.50005,0.50005 0 0 0 -0.38672,-0.0137 l -2.85156,1.08008 a 0.50005,0.50005 0 0 0 -0.32031,0.50781 l 0.35937,4.55273 -1.73242,0.0371 a 0.50005,0.50005 0 0 0 -0.47265,0.375 l -1.69727,6.57032 -0.76953,1.07812 -3.7793,1.18945 a 0.50005,0.50005 0 0 0 -0.30859,0.67578 l 0.68945,1.60157 -6.15039,4.97656 -2.93945,1.43555 -5.39063,0.0976 a 0.50005,0.50005 0 0 0 -0.4375,0.27735 l -1.17773,2.36328 -3.01367,-1.48828 a 0.50005,0.50005 0 0 0 -0.21289,-0.0508 l -2.21875,-0.041 a 0.50005,0.50005 0 0 0 -0.29883,0.0918 l -3.25,2.29101 -2.84961,-0.12304 a 0.50005,0.50005 0 0 0 -0.3418,0.11718 l -2.89062,2.41993 a 0.50005,0.50005 0 0 0 -0.16407,0.5039 l 0.53516,2.1543 -3.21289,1.26953 a 0.50005,0.50005 0 0 0 -0.31445,0.42383 l -0.43164,5.05859 a 0.50005,0.50005 0 0 0 0.0176,0.17969 l 0.91797,3.22266 -1.30273,1.26171 -4.27149,1.67383 -23.56054,-31.61328 6.99804,-4.50195 a 0.50005,0.50005 0 0 0 0.12305,-0.10938 l 11.51953,-14.56054 a 0.50005,0.50005 0 0 0 0.01,-0.60547 l -12.94922,-17.5918 16.19726,-21.75391 a 0.50005,0.50005 0 0 0 -0.10546,-0.70312 l -16.58399,-12.10156 17.71094,-23.95703 a 0.50005,0.50005 0 0 0 -0.11133,-0.70313 L 529.36133,86.802734 a 0.50005,0.50005 0 0 0 -0.006,-0.0039 l -8.44141,-5.84375 10.8711,-14.40625 2.29492,-2.533203 a 0.50005,0.50005 0 0 0 0.0391,-0.04687 l 10.33008,-14.660156 a 0.50005,0.50005 0 0 0 -0.11133,-0.689453 L 534.0331,40.94337 538.82021,4.4726672 571.00381,3.0800891 589.67373,2.9101672 a 0.50005,0.50005 0 0 0 0.0117,0 L 609.9707,2.25 622.15234,2.1699219 a 0.50005,0.50005 0 0 0 0.0117,0 z"
       id="Essex" />
    <path
       style="color:#000000;font-style:normal;font-variant:normal;font-weight:normal;font-stretch:normal;font-size:medium;line-height:normal;font-family:sans-serif;font-variant-ligatures:normal;font-variant-position:normal;font-variant-caps:normal;font-variant-numeric:normal;font-variant-alternates:normal;font-feature-settings:normal;text-indent:0;text-align:start;text-decoration:none;text-decoration-line:none;text-decoration-style:solid;text-decoration-color:#000000;letter-spacing:normal;word-spacing:normal;text-transform:none;writing-mode:lr-tb;direction:ltr;text-orientation:mixed;dominant-baseline:auto;baseline-shift:baseline;text-anchor:start;white-space:normal;shape-padding:0;clip-rule:nonzero;display:inline;overflow:visible;visibility:visible;opacity:1;isolation:auto;mix-blend-mode:normal;color-interpolation:sRGB;color-interpolation-filters:linearRGB;solid-color:#000000;solid-opacity:1;vector-effect:none;fill:#cccccc;fill-opacity:1;fill-rule:nonzero;stroke:none;stroke-width:1;stroke-linecap:butt;stroke-linejoin:miter;stroke-miterlimit:4;stroke-dasharray:none;stroke-dashoffset:0;stroke-opacity:1;color-rendering:auto;image-rendering:auto;shape-rendering:auto;text-rendering:auto;enable-background:accumulate"
       d="m 406.45703,180.10742 51.95703,27.82227 1.55078,4.33008 -13.05468,24.51367 -11.63086,14.48437 a 0.50005,0.50005 0 0 0 -0.10938,0.31641 l 0.0684,9.10937 -12.75195,23.30469 -12.20508,-5.67187 a 0.50005,0.50005 0 0 0 -0.70313,0.36132 l -5.91406,31.37891 -2.45312,-1.27148 a 0.50005,0.50005 0 0 0 -0.0469,-0.0195 l -26.15039,-10.30078 a 0.50005,0.50005 0 0 0 -0.65039,0.28907 l -0.90039,2.3789 -5.21289,-1.75586 a 0.50005,0.50005 0 0 0 -0.62109,0.27735 l -10.51953,24.76562 -0.9004,-0.3457 a 0.50005,0.50005 0 0 0 -0.63281,0.25781 l -12.02344,26.18945 -14.47656,-5.72656 -26.71875,-10.83789 a 0.50005,0.50005 0 0 0 -0.008,-0.004 L 290.25,329.3125 a 0.50005,0.50005 0 0 0 -0.23828,-0.0293 l -4.51953,0.53321 -1.13672,-7.47266 -2.49805,-21.17187 a 0.50005,0.50005 0 0 0 -0.006,-0.0332 l -0.4707,-2.54883 a 0.50005,0.50005 0 0 0 -0.54297,-0.40625 l -3.75977,0.38672 14.28321,-39.82226 a 0.50005,0.50005 0 0 0 -0.32031,-0.64453 l -2.23829,-0.70899 10.96485,-29.04883 6.65625,2.67774 a 0.50005,0.50005 0 0 0 0.21289,0.0352 l 1.67969,-0.0898 a 0.50005,0.50005 0 0 0 0.40625,-0.24805 l 5.93945,-10.26953 a 0.50005,0.50005 0 0 0 -0.18945,-0.6875 l -8.91407,-4.97265 8.37891,-16.03516 9.35352,3.05469 11.33593,6.17578 16.36524,9.36719 a 0.50005,0.50005 0 0 0 0.69336,-0.20508 l 13.53906,-26.33985 a 0.50005,0.50005 0 0 0 0.0195,-0.043 l 0.50781,-1.27539 25.36914,18.91993 a 0.50005,0.50005 0 0 0 0.75977,-0.20704 l 2.19922,-5.25195 4.3457,-7.66406 a 0.50005,0.50005 0 0 0 0.006,-0.0137 z"
       id="Washington" />
    <path
       style="color:#000000;font-style:normal;font-variant:normal;font-weight:normal;font-stretch:normal;font-size:medium;line-height:normal;font-family:sans-serif;font-variant-ligatures:normal;font-variant-position:normal;font-variant-caps:normal;font-variant-numeric:normal;font-variant-alternates:normal;font-feature-settings:normal;text-indent:0;text-align:start;text-decoration:none;text-decoration-line:none;text-decoration-style:solid;text-decoration-color:#000000;letter-spacing:normal;word-spacing:normal;text-transform:none;writing-mode:lr-tb;direction:ltr;text-orientation:mixed;dominant-baseline:auto;baseline-shift:baseline;text-anchor:start;white-space:normal;shape-padding:0;clip-rule:nonzero;display:inline;overflow:visible;visibility:visible;opacity:1;isolation:auto;mix-blend-mode:normal;color-interpolation:sRGB;color-interpolation-filters:linearRGB;solid-color:#000000;solid-opacity:1;vector-effect:none;fill:#cccccc;fill-opacity:1;fill-rule:nonzero;stroke:none;stroke-width:1;stroke-linecap:butt;stroke-linejoin:miter;stroke-miterlimit:4;stroke-dasharray:none;stroke-dashoffset:0;stroke-opacity:1;color-rendering:auto;image-rendering:auto;shape-rendering:auto;text-rendering:auto;enable-background:accumulate"
       d="m 301.60742,612.87109 6.625,2.20313 15.96875,5.73633 a 0.50005,0.50005 0 0 0 0.0117,0.004 l 18.17969,6 a 0.50005,0.50005 0 0 0 0.26562,0.0137 l 2.31641,-0.51562 32.33789,-4.06055 28.67969,0.97461 -1.48438,4.22852 a 0.50005,0.50005 0 0 0 -0.0234,0.22851 l 0.6914,5.44336 -3.05859,3.41016 a 0.50005,0.50005 0 0 0 -0.0801,0.54492 l 1.55273,3.32031 -2.09179,3.28907 a 0.50005,0.50005 0 0 0 -0.0781,0.29101 l 0.25586,5.78906 -1.31055,2.88086 a 0.50005,0.50005 0 0 0 0.002,0.41993 l 1.25,2.66015 a 0.50005,0.50005 0 0 0 0.27343,0.25391 l 2.41016,0.92969 -0.4043,1.51562 a 0.50005,0.50005 0 0 0 0.0723,0.41406 l 2.43945,3.50782 -0.4375,3.08398 -2.02734,3.06641 a 0.50005,0.50005 0 0 0 -0.0469,0.46484 l 1.92774,4.74414 -2.41992,5.04688 -4.70118,4.80078 a 0.50005,0.50005 0 0 0 -0.082,0.10937 l -0.90039,1.65039 a 0.50005,0.50005 0 0 0 -0.0195,0.43946 l 1.76172,4.03515 -0.67578,4.08399 a 0.50005,0.50005 0 0 0 0.0273,0.26171 l 1.51953,3.91993 a 0.50005,0.50005 0 0 0 0.16993,0.22265 l 2.89062,2.11719 -0.84375,2.63477 -2.55664,0.33984 a 0.50005,0.50005 0 0 0 -0.40234,0.31836 l -1.37891,3.66016 a 0.50005,0.50005 0 0 0 0.004,0.36523 l 0.83789,2.04297 -2.71289,3.28516 -1.6836,-0.56055 a 0.50005,0.50005 0 0 0 -0.46875,0.0801 l -2.70117,2.13281 -6.5039,1.5332 a 0.50005,0.50005 0 0 0 -0.19922,0.0996 l -3.51954,2.85938 a 0.50005,0.50005 0 0 0 -0.1582,0.22461 l -0.60937,1.75976 a 0.50005,0.50005 0 0 0 0.041,0.41602 l 1.95703,3.35547 -0.11523,3.79687 a 0.50005,0.50005 0 0 0 0.01,0.11719 l 0.6875,3.31055 -1.42968,2.23828 a 0.50005,0.50005 0 0 0 -0.0781,0.23632 l -0.30859,4.59375 -2.20313,2.77149 -3.00976,1.49023 a 0.50005,0.50005 0 0 0 -0.27344,0.37891 l -0.87109,6.26953 a 0.50005,0.50005 0 0 0 0.006,0.17383 l 0.48437,2.28125 -0.73047,2.31445 a 0.50005,0.50005 0 0 0 0.043,0.40039 l 2.16992,3.74414 0.95703,7.41016 a 0.50005,0.50005 0 0 0 0.01,0.0527 l 1.32031,5.44141 a 0.50005,0.50005 0 0 0 0.15039,0.25195 l 5.40235,4.89649 2.33398,3.57812 0.10352,1.48633 -1.98047,1.89648 a 0.50005,0.50005 0 0 0 -0.0918,0.60352 l 0.92969,1.68945 a 0.50005,0.50005 0 0 0 0.67383,0.19922 l 5.26367,-2.80859 3.57031,4.70508 0.71875,3.99218 a 0.50005,0.50005 0 0 0 0.082,0.19727 l 3.05274,4.35352 0.42383,1.46484 -39.85743,-1.51367 -49.51953,-1.99024 a 0.50005,0.50005 0 0 0 -0.004,0 l -30.57813,-1.01367 1.03125,-28.81836 a 0.50005,0.50005 0 0 0 0,-0.0606 l -0.1875,-2.21874 1.1875,-29.66993 a 0.50005,0.50005 0 0 0 0,-0.0312 l -0.0996,-4.27929 a 0.50005,0.50005 0 0 0 -0.4707,-0.48829 l -21.09766,-1.18164 1.43555,-31.4082 0.13281,0.008 a 0.50005,0.50005 0 0 0 0.53125,-0.5039 l -0.1914,-17.92188 1.51953,-14.67383 11.66015,0.47071 12.78906,1.05859 a 0.50005,0.50005 0 0 0 0.0234,0.002 l 7.66992,0.2793 a 0.50005,0.50005 0 0 0 0.51758,-0.47265 l 1.66211,-31.28126 2.18164,0.12305 a 0.50005,0.50005 0 0 0 0.52735,-0.47461 z"
       id="Windham" />
    <path
       style="color:#000000;font-style:normal;font-variant:normal;font-weight:normal;font-stretch:normal;font-size:medium;line-height:normal;font-family:sans-serif;font-variant-ligatures:normal;font-variant-position:normal;font-variant-caps:normal;font-variant-numeric:normal;font-variant-alternates:normal;font-feature-settings:normal;text-indent:0;text-align:start;text-decoration:none;text-decoration-line:none;text-decoration-style:solid;text-decoration-color:#000000;letter-spacing:normal;word-spacing:normal;text-transform:none;writing-mode:lr-tb;direction:ltr;text-orientation:mixed;dominant-baseline:auto;baseline-shift:baseline;text-anchor:start;white-space:normal;shape-padding:0;clip-rule:nonzero;display:inline;overflow:visible;visibility:visible;opacity:1;isolation:auto;mix-blend-mode:normal;color-interpolation:sRGB;color-interpolation-filters:linearRGB;solid-color:#000000;solid-opacity:1;vector-effect:none;fill:#cccccc;fill-opacity:1;fill-rule:nonzero;stroke:none;stroke-width:1;stroke-linecap:butt;stroke-linejoin:miter;stroke-miterlimit:4;stroke-dasharray:none;stroke-dashoffset:0;stroke-opacity:1;color-rendering:auto;image-rendering:auto;shape-rendering:auto;text-rendering:auto;enable-background:accumulate"
       d="m 198.26172,594.04883 21.35156,1.24023 19.32227,1.69922 a 0.50005,0.50005 0 0 0 0.043,0.002 l 11.63671,0.0293 14.45313,0.77735 -1.09375,4.38281 a 0.50005,0.50005 0 0 0 0.47656,0.62109 l 4.18945,0.0801 a 0.50005,0.50005 0 0 0 0.50977,-0.48242 l 0.16016,-4.23438 26.63281,1.375 a 0.50005,0.50005 0 0 0 0.008,0 l 11.92969,0.44336 0.01,13.92383 -6.59374,-2.19141 a 0.50005,0.50005 0 0 0 -0.65626,0.45118 l -0.95703,19.69726 -2.17578,-0.12305 a 0.50005,0.50005 0 0 0 -0.52734,0.47266 l -1.66406,31.28906 -7.16602,-0.26172 -12.78906,-1.05859 a 0.50005,0.50005 0 0 0 -0.0215,-0.002 l -12.14062,-0.49024 a 0.50005,0.50005 0 0 0 -0.51563,0.44922 l -1.57031,15.16992 a 0.50005,0.50005 0 0 0 -0.004,0.0566 l 0.18554,17.41211 -0.10351,-0.006 a 0.50005,0.50005 0 0 0 -0.53125,0.47657 l -1.48047,32.4082 a 0.50005,0.50005 0 0 0 0.47265,0.52344 l 21.12891,1.18359 0.0879,3.80274 -1.18945,29.68359 a 0.50005,0.50005 0 0 0 0.002,0.0625 l 0.1875,2.2207 -1.03125,28.79102 -88.03906,-3 -3.44922,-18.93945 1.81641,-4.00782 a 0.50005,0.50005 0 0 0 0.0117,-0.38281 l -0.78906,-2.08203 0.41797,-4.21094 1.20117,0.17383 a 0.50005,0.50005 0 0 0 0.57227,-0.47266 l 0.93945,-22.2207 a 0.50005,0.50005 0 0 0 0,-0.006 L 192,723.76953 l 1.50977,-33.25391 1.25976,-20.98632 a 0.50005,0.50005 0 0 0 0,-0.006 l 2.17969,-46.52539 0.66016,-10.2168 a 0.50005,0.50005 0 0 0 0,-0.0137 z"
       id="Bennington" />
    <path
       style="color:#000000;font-style:normal;font-variant:normal;font-weight:normal;font-stretch:normal;font-size:medium;line-height:normal;font-family:sans-serif;font-variant-ligatures:normal;font-variant-position:normal;font-variant-caps:normal;font-variant-numeric:normal;font-variant-alternates:normal;font-feature-settings:normal;text-indent:0;text-align:start;text-decoration:none;text-decoration-line:none;text-decoration-style:solid;text-decoration-color:#000000;letter-spacing:normal;word-spacing:normal;text-transform:none;writing-mode:lr-tb;direction:ltr;text-orientation:mixed;dominant-baseline:auto;baseline-shift:baseline;text-anchor:start;white-space:normal;shape-padding:0;clip-rule:nonzero;display:inline;overflow:visible;visibility:visible;opacity:1;isolation:auto;mix-blend-mode:normal;color-interpolation:sRGB;color-interpolation-filters:linearRGB;solid-color:#000000;solid-opacity:1;vector-effect:none;fill:#cccccc;fill-opacity:1;fill-rule:nonzero;stroke:none;stroke-width:1;stroke-linecap:butt;stroke-linejoin:miter;stroke-miterlimit:4;stroke-dasharray:none;stroke-dashoffset:0;stroke-opacity:1;color-rendering:auto;image-rendering:auto;shape-rendering:auto;text-rendering:auto;enable-background:accumulate"
       d="M 219.20898 6.5605469 L 209.49219 6.7910156 L 186.28516 7.0195312 A 0.50005 0.50005 0 0 0 185.82031 7.3515625 L 182.88867 15.511719 A 0.50005 0.50005 0 0 0 182.86719 15.765625 L 183.27734 18.105469 A 0.50005 0.50005 0 0 0 183.95508 18.484375 L 186.96484 17.279297 L 193.35352 17.830078 L 195.18164 23.117188 L 194.72852 27.298828 L 193.02734 32.185547 A 0.50005 0.50005 0 0 0 193.00781 32.439453 L 193.95312 37.636719 L 192.90039 40.529297 A 0.50005 0.50005 0 0 0 192.86914 40.701172 L 192.88086 44.421875 A 0.50005 0.50005 0 0 0 193.14844 44.863281 L 194.94727 45.806641 L 195.42969 50.992188 L 193.50586 55.128906 A 0.50005 0.50005 0 0 0 193.46094 55.333984 L 193.43945 57.044922 A 0.50005 0.50005 0 0 0 193.70117 57.490234 L 197.97266 59.798828 A 0.50005 0.50005 0 0 0 198.51172 59.759766 L 200.54102 58.228516 A 0.50005 0.50005 0 0 0 200.7207 57.970703 L 202.31055 52.53125 A 0.50005 0.50005 0 0 0 202.31445 52.599609 L 203.05273 58.806641 L 201.0918 59.369141 A 0.50005 0.50005 0 0 0 200.73633 59.765625 L 199.94727 64.384766 A 0.50005 0.50005 0 0 0 200.14648 64.875 L 202.12695 66.306641 L 201.61914 68.849609 L 200.41992 70.017578 L 197.71484 69.712891 A 0.50005 0.50005 0 0 0 197.19141 70.035156 L 195.8457 73.626953 L 193.98242 72.347656 A 0.50005 0.50005 0 0 0 193.24219 72.560547 L 192.17188 75.021484 A 0.50005 0.50005 0 0 0 192.13281 75.263672 L 192.67578 81.560547 L 192.01172 84.75 L 190.05664 87.607422 A 0.50005 0.50005 0 0 0 189.97461 87.820312 L 189.51562 91.089844 A 0.50005 0.50005 0 0 0 189.56836 91.394531 L 190.46875 93.085938 A 0.50005 0.50005 0 0 0 190.96094 93.347656 L 194.27148 93.007812 A 0.50005 0.50005 0 0 0 194.66211 92.742188 L 195.74414 90.679688 L 197.06445 92.021484 A 0.50005 0.50005 0 0 0 197.87305 91.882812 L 199.72266 87.943359 A 0.50005 0.50005 0 0 0 199.76758 87.6875 L 199.38086 83.21875 L 200.0625 75.123047 L 201.79102 74.457031 A 0.50005 0.50005 0 0 0 202.04492 74.238281 L 203.69336 71.347656 A 0.50005 0.50005 0 0 0 203.7168 71.302734 L 207.33789 63.123047 A 0.50005 0.50005 0 0 0 207.37305 63 L 207.78906 60.460938 L 209.29492 58.863281 A 0.50005 0.50005 0 0 0 209.42578 58.460938 L 209.07031 55.511719 L 210.70508 53.365234 L 213.73828 52.353516 A 0.50005 0.50005 0 0 0 214.08008 51.863281 L 213.75977 42.751953 A 0.50005 0.50005 0 0 0 213.71875 42.570312 L 212.12891 38.939453 A 0.50005 0.50005 0 0 0 211.56641 38.650391 L 210.43555 38.890625 A 0.50005 0.50005 0 0 0 210.09375 39.154297 L 205.97852 47.289062 L 204.3457 47.814453 A 0.50005 0.50005 0 0 0 204.03516 48.105469 L 202.41016 52.193359 L 204.11914 46.349609 A 0.50005 0.50005 0 0 0 204.13477 46.279297 L 204.6543 42.580078 A 0.50005 0.50005 0 0 0 204.53906 42.183594 L 203.68359 41.1875 L 204.50391 38.289062 L 207.23828 33.716797 A 0.50005 0.50005 0 0 0 207.29883 33.351562 L 205.98242 27.470703 L 207.71484 25.953125 L 213.09766 24.154297 A 0.50005 0.50005 0 0 0 213.39453 23.890625 L 216.15039 17.941406 L 217.375 16.355469 A 0.50005 0.50005 0 0 0 217.46484 16.169922 L 219.70508 7.1816406 A 0.50005 0.50005 0 0 0 219.20898 6.5605469 z M 185.89258 44.541016 L 182.88867 53.365234 L 181.64648 62.824219 A 0.50005 0.50005 0 0 1 181.5918 62.994141 L 180.7793 64.521484 L 182.40625 66.28125 A 0.50005 0.50005 0 0 1 182.53711 66.675781 L 182.27344 68.986328 L 184.88086 70.443359 L 185.89453 69.929688 L 186.67188 66.548828 A 0.50005 0.50005 0 0 1 186.75 66.375 L 188.80664 63.412109 L 188.08008 62.513672 A 0.50005 0.50005 0 0 1 188.08984 61.875 L 190.26172 59.347656 L 189.17773 56.710938 A 0.50005 0.50005 0 0 1 189.16992 56.347656 L 192.08203 48.378906 L 191.62109 46.035156 L 185.89258 44.541016 z M 216.30078 65.648438 L 212.82422 69.964844 L 212.09766 72.529297 L 212.54688 73.134766 L 215.02734 68.417969 A 0.50005 0.50005 0 0 1 215.4668 68.150391 L 217.56641 68.134766 L 217.1543 66.181641 L 216.30078 65.648438 z M 202.66016 93.203125 L 199.88477 93.314453 L 198.93359 98.962891 A 0.50005 0.50005 0 0 1 198.55273 99.367188 L 195.84375 99.996094 A 0.50005 0.50005 0 0 1 195.45898 99.929688 L 192.95898 98.310547 L 190.42383 101.3418 A 0.50005 0.50005 0 0 1 189.94727 101.51172 L 188.875 101.31055 L 183.4082 116.38867 L 183.96875 123.22852 A 0.50005 0.50005 0 0 1 183.9707 123.25586 L 184.34961 137.36719 A 0.50005 0.50005 0 0 1 184.3457 137.43945 L 183.83203 141.78125 L 190.08789 142.9082 A 0.50005 0.50005 0 0 1 190.49414 143.32227 L 190.89258 145.82812 L 192.74609 148.09375 A 0.50005 0.50005 0 0 1 192.8457 148.28906 L 193.39258 150.49023 L 195.33398 150.54102 L 196.65625 146.60156 A 0.50005 0.50005 0 0 1 197.10547 146.25977 L 200.87305 146.07227 L 201.58594 141.10938 A 0.50005 0.50005 0 0 1 201.78711 140.77539 L 203.54102 139.50195 L 203.89062 136.77344 L 201.77539 133.66016 A 0.50005 0.50005 0 0 1 201.70117 133.48047 L 200.75586 128.88477 L 199.81055 127.76172 L 198.69531 132.2793 A 0.50005 0.50005 0 0 1 198.50586 132.56445 L 197.27539 133.46289 A 0.50005 0.50005 0 0 1 197.00781 133.55859 L 192.99805 133.7793 A 0.50005 0.50005 0 0 1 192.58789 133.60352 L 191.0293 131.76367 A 0.50005 0.50005 0 0 1 190.91016 131.43359 L 190.9707 127.04297 A 0.50005 0.50005 0 0 1 191.24414 126.60352 L 195.5625 124.41602 L 198.02539 119.79102 L 197.75977 118.41406 A 0.50005 0.50005 0 0 1 197.77344 118.16602 L 199.38477 113.15625 L 199.71094 108.26758 A 0.50005 0.50005 0 0 1 200.03125 107.83398 L 206.39844 105.38477 L 207.08203 101.64258 L 204.36719 97.662109 A 0.50005 0.50005 0 0 1 204.3125 97.556641 L 202.66016 93.203125 z "
       transform="translate(-5,-5)"
       id="Grand_Isle"
       inkscape:label="#path4518" />
    <path
       style="color:#000000;font-style:normal;font-variant:normal;font-weight:normal;font-stretch:normal;font-size:medium;line-height:normal;font-family:sans-serif;font-variant-ligatures:normal;font-variant-position:normal;font-variant-caps:normal;font-variant-numeric:normal;font-variant-alternates:normal;font-feature-settings:normal;text-indent:0;text-align:start;text-decoration:none;text-decoration-line:none;text-decoration-style:solid;text-decoration-color:#000000;letter-spacing:normal;word-spacing:normal;text-transform:none;writing-mode:lr-tb;direction:ltr;text-orientation:mixed;dominant-baseline:auto;baseline-shift:baseline;text-anchor:start;white-space:normal;shape-padding:0;clip-rule:nonzero;display:inline;overflow:visible;visibility:visible;opacity:1;isolation:auto;mix-blend-mode:normal;color-interpolation:sRGB;color-interpolation-filters:linearRGB;solid-color:#000000;solid-opacity:1;vector-effect:none;fill:#cccccc;fill-opacity:1;fill-rule:nonzero;stroke:none;stroke-width:1;stroke-linecap:butt;stroke-linejoin:miter;stroke-miterlimit:4;stroke-dasharray:none;stroke-dashoffset:0;stroke-opacity:1;color-rendering:auto;image-rendering:auto;shape-rendering:auto;text-rendering:auto;enable-background:accumulate"
       d="m 537.81055,4.4902344 -4.80664,36.6152346 a 0.50005,0.50005 0 0 0 0.19726,0.464843 l 10.15039,7.560547 -10.0332,14.236329 -2.28906,2.527343 A 0.50005,0.50005 0 0 0 531,65.929688 l -11.19922,14.839843 a 0.50005,0.50005 0 0 0 0.11524,0.710938 l 8.44921,5.849609 -14.53906,20.025392 a 0.50005,0.50005 0 0 0 -0.008,0.0117 l -2.64844,3.85742 -25.26758,-17.335938 a 0.50005,0.50005 0 0 0 -0.76367,0.546875 l 6.04297,21.462893 -13.12695,-6.23047 a 0.50005,0.50005 0 0 0 -0.67578,0.25781 l -0.97266,2.30469 -12.96289,25.72461 a 0.50005,0.50005 0 0 0 -0.01,0.0215 l -1.14257,2.55274 -13.5586,25.44726 -9.43945,-4.95898 a 0.50005,0.50005 0 0 0 -0.008,-0.004 l -15.9668,-8.07812 -1.51563,-0.96875 0.61524,-2.85157 a 0.50005,0.50005 0 0 0 -0.26172,-0.55078 l -27.37891,-13.94922 15.9961,-30.51367 a 0.50005,0.50005 0 0 0 -0.22071,-0.67968 l -20.7279,-10.318274 -18.93555,-9.613282 11.09766,-18.058593 a 0.50005,0.50005 0 0 0 0.0723,-0.292969 l -1.95898,-31.496094 0.69727,-0.02344 a 0.50005,0.50005 0 0 0 0.47851,-0.574219 l -4.20312,-28.029297 4.69531,0.125 a 0.50005,0.50005 0 0 0 0.0254,0 l 12.7207,-0.3496094 7.92774,0.1191406 11.75976,0.6582032 a 0.50005,0.50005 0 0 0 0.0156,0.00195 l 13.03125,0.3183594 9.50976,0.609375 a 0.50005,0.50005 0 0 0 0.039,0.00196 l 9.70117,-0.1503906 a 0.50005,0.50005 0 0 0 0.006,0 l 27.28125,-0.7988282 14.19922,0.1386719 a 0.50005,0.50005 0 0 0 0.0195,0 l 19.72851,-0.5195312 a 0.50005,0.50005 0 0 0 0.006,0 l 18.81055,-0.6601563 z"
       id="Orleans" />
    <path
       style="color:#000000;font-style:normal;font-variant:normal;font-weight:normal;font-stretch:normal;font-size:medium;line-height:normal;font-family:sans-serif;font-variant-ligatures:normal;font-variant-position:normal;font-variant-caps:normal;font-variant-numeric:normal;font-variant-alternates:normal;font-feature-settings:normal;text-indent:0;text-align:start;text-decoration:none;text-decoration-line:none;text-decoration-style:solid;text-decoration-color:#000000;letter-spacing:normal;word-spacing:normal;text-transform:none;writing-mode:lr-tb;direction:ltr;text-orientation:mixed;dominant-baseline:auto;baseline-shift:baseline;text-anchor:start;white-space:normal;shape-padding:0;clip-rule:nonzero;display:inline;overflow:visible;visibility:visible;opacity:1;isolation:auto;mix-blend-mode:normal;color-interpolation:sRGB;color-interpolation-filters:linearRGB;solid-color:#000000;solid-opacity:1;vector-effect:none;fill:#cccccc;fill-opacity:1;fill-rule:nonzero;stroke:none;stroke-width:1;stroke-linecap:butt;stroke-linejoin:miter;stroke-miterlimit:4;stroke-dasharray:none;stroke-dashoffset:0;stroke-opacity:1;color-rendering:auto;image-rendering:auto;shape-rendering:auto;text-rendering:auto;enable-background:accumulate"
       d="m 333.16211,76.070312 27.67383,1.273438 -0.44532,0.90625 a 0.50005,0.50005 0 0 0 0.17383,0.638672 l 4.66993,3.068359 a 0.50005,0.50005 0 0 0 0.67187,-0.111328 l 0.54687,-0.710937 3.4004,2.933593 a 0.50005,0.50005 0 0 0 0.0996,0.06836 l 19.41993,9.859375 a 0.50005,0.50005 0 0 0 0.004,0.002 l 20.27344,10.091796 -15.99414,30.50782 a 0.50005,0.50005 0 0 0 0.2168,0.67773 l 27.48633,14.00586 -0.59376,2.74219 -13.53906,24.875 -1.40234,2.26953 a 0.50005,0.50005 0 0 0 -0.0156,0.0273 l -8.25781,15.60352 -4.35547,7.68359 a 0.50005,0.50005 0 0 0 -0.0273,0.0547 l -1.96289,4.68945 -25.37696,-18.92773 a 0.50005,0.50005 0 0 0 -0.76171,0.21679 l -0.74219,1.85743 -13.29102,25.85351 -15.91406,-9.11133 a 0.50005,0.50005 0 0 0 -0.01,-0.004 l -11.38086,-6.20117 a 0.50005,0.50005 0 0 0 -0.084,-0.0352 l -9.79883,-3.20117 a 0.50005,0.50005 0 0 0 -0.006,-0.002 l -7.76367,-2.42969 8.42578,-15.79688 a 0.50005,0.50005 0 0 0 -0.20898,-0.67773 l -6.31836,-3.33203 5.01367,-10.09375 a 0.50005,0.50005 0 0 0 -0.29101,-0.69727 l -4.10352,-1.35156 -7.68164,-10.01953 -12.74414,-17.98242 a 0.50005,0.50005 0 0 0 -0.30469,-0.20118 l -3.11523,-0.65039 -0.67383,-3.45703 5.46094,-0.17187 a 0.50005,0.50005 0 0 0 0.36328,-0.17383 l 2.77929,-3.2207 a 0.50005,0.50005 0 0 0 0.0625,-0.0898 l 10.08008,-18.84961 13.84571,6.97071 a 0.50005,0.50005 0 0 0 0.71484,-0.35352 l 3.41602,-18.017581 0.74804,0.144531 a 0.50005,0.50005 0 0 0 0.58594,-0.396484 l 1.36523,-7.109375 2.00977,0.386718 a 0.50005,0.50005 0 0 0 0.58594,-0.398437 l 0.78711,-4.175781 1.81445,0.314453 a 0.50005,0.50005 0 0 0 0.58594,-0.517578 l -0.24024,-4.730469 z"
       id="Lamoille" />
    <path
       style="color:#000000;font-style:normal;font-variant:normal;font-weight:normal;font-stretch:normal;font-size:medium;line-height:normal;font-family:sans-serif;font-variant-ligatures:normal;font-variant-position:normal;font-variant-caps:normal;font-variant-numeric:normal;font-variant-alternates:normal;font-feature-settings:normal;text-indent:0;text-align:start;text-decoration:none;text-decoration-line:none;text-decoration-style:solid;text-decoration-color:#000000;letter-spacing:normal;word-spacing:normal;text-transform:none;writing-mode:lr-tb;direction:ltr;text-orientation:mixed;dominant-baseline:auto;baseline-shift:baseline;text-anchor:start;white-space:normal;shape-padding:0;clip-rule:nonzero;display:inline;overflow:visible;visibility:visible;opacity:1;isolation:auto;mix-blend-mode:normal;color-interpolation:sRGB;color-interpolation-filters:linearRGB;solid-color:#000000;solid-opacity:1;vector-effect:none;fill:#cccccc;fill-opacity:1;fill-rule:nonzero;stroke:none;stroke-width:1;stroke-linecap:butt;stroke-linejoin:miter;stroke-miterlimit:4;stroke-dasharray:none;stroke-dashoffset:0;stroke-opacity:1;color-rendering:auto;image-rendering:auto;shape-rendering:auto;text-rendering:auto;enable-background:accumulate"
       d="m 260.14453,250.16797 10.05664,2.80273 2.45117,21.84571 a 0.50005,0.50005 0 0 0 0.002,0.008 l 3.18945,24.39062 a 0.50005,0.50005 0 0 0 0.54687,0.43164 l 4.0918,-0.42187 0.38281,2.08008 2.49805,21.16406 a 0.50005,0.50005 0 0 0 0.002,0.0156 l 1.21094,7.96093 a 0.50005,0.50005 0 0 0 0.55274,0.42188 l 4.87695,-0.57617 11.98047,4.59375 26.21875,10.63671 -2.75977,5.63868 -9.35547,17.29101 a 0.50005,0.50005 0 0 0 -0.002,0.006 l -4.59375,8.70117 -1.18945,-0.44726 a 0.50005,0.50005 0 0 0 -0.62696,0.25586 l -12.24414,26.05078 -1.49804,-0.56836 -0.52539,-13.14844 a 0.50005,0.50005 0 0 0 -0.72266,-0.42773 l -19.16406,9.51757 -6.57032,-2.76171 a 0.50005,0.50005 0 0 0 -0.69335,0.45703 l -0.0605,6.59961 a 0.50005,0.50005 0 0 0 0.73047,0.44922 l 1.27734,-0.66211 3.00781,13.17578 -13.57226,6.82422 -2.25,-12.3418 A 0.50005,0.50005 0 0 0 257.34961,410 l -0.7793,-1.59961 a 0.50005,0.50005 0 0 0 -0.4707,-0.2793 l -31.84961,1.3086 a 0.50005,0.50005 0 0 0 -0.47461,0.57617 l 0.0566,0.36719 -15.44336,0.67773 a 0.50005,0.50005 0 0 0 -0.47461,0.5586 l 2.91992,24.07812 -36.01757,3.96484 2.02539,-2.12695 a 0.50005,0.50005 0 0 0 0.13672,-0.31641 l 0.25,-4.39062 a 0.50005,0.50005 0 0 0 -0.10352,-0.33398 l -1.73828,-2.24805 -0.78711,-3.86524 a 0.50005,0.50005 0 0 0 -0.3125,-0.36914 l -2.89063,-1.10156 -2.50195,-4.83984 a 0.50005,0.50005 0 0 0 -0.0586,-0.0879 l -3.05274,-3.71485 2.39844,-3.89258 1.64063,0.25782 a 0.50005,0.50005 0 0 0 0.5625,-0.36719 l 0.96875,-3.75 a 0.50005,0.50005 0 0 0 0,-0.25 l -1.09375,-4.29492 1.39257,-2.94727 a 0.50005,0.50005 0 0 0 0.0469,-0.22265 l -0.0684,-3.93946 a 0.50005,0.50005 0 0 0 -0.0918,-0.27734 l -1.52344,-2.17578 -0.125,-5.76953 a 0.50005,0.50005 0 0 0 -0.29687,-0.44532 l -4.44336,-1.99218 0.20899,-6.13477 a 0.50005,0.50005 0 0 0 -0.32813,-0.48633 l -1.86133,-0.67773 -0.26172,-1.74024 1.36914,-2.71679 a 0.50005,0.50005 0 0 0 -0.0273,-0.4961 l -1.2793,-1.99023 -0.41211,-7.03906 a 0.50005,0.50005 0 0 0 -0.0234,-0.12696 l -0.54102,-1.63867 2.12305,-2.42578 a 0.50005,0.50005 0 0 0 0.10742,-0.45117 l -1.01758,-4.0586 1.57813,-3.4414 a 0.50005,0.50005 0 0 0 0.0352,-0.10547 l 0.81836,-3.95117 a 0.50005,0.50005 0 0 0 -0.0742,-0.38086 l -2.42968,-3.60938 a 0.50005,0.50005 0 0 0 -0.15821,-0.15039 l -4.20312,-2.52148 -0.72071,-4.17578 2.89844,-5.46875 a 0.50005,0.50005 0 0 0 0.043,-0.35547 l -0.73047,-2.92578 4.58399,-5.97071 2.41601,-1.42187 a 0.50005,0.50005 0 0 0 0.24219,-0.49805 l -0.4668,-3.41015 0.84766,-3.11915 4.0625,-5.42382 a 0.50005,0.50005 0 0 0 0.0898,-0.19336 l 2.47656,-11.31836 2.16211,-4.3457 a 0.50005,0.50005 0 0 0 -0.23828,-0.67579 l -4.69531,-2.17578 0.39453,-2.96875 3.03516,-2.32422 a 0.50005,0.50005 0 0 0 0.16015,-0.20898 l 1.35938,-3.34766 2.81836,-2.21875 4.91797,-0.20312 a 0.50005,0.50005 0 0 0 0.43554,-0.29102 l 1.57032,-3.42969 a 0.50005,0.50005 0 0 0 0.0332,-0.31445 l -0.69336,-3.16797 1.94531,-1.16211 5.98047,0.1836 0.74805,4.0332 a 0.50005,0.50005 0 0 0 0.48242,0.41016 l 1.85938,0.0293 a 0.50005,0.50005 0 0 0 0.48046,-0.66796 l -1.16992,-3.2793 2.57617,0.008 a 0.50005,0.50005 0 0 0 0.47852,-0.6543 l -0.75977,-2.35937 a 0.50005,0.50005 0 0 0 -0.2207,-0.27734 l -2.72461,-1.61524 1.55078,-2.10156 18.32422,-2.07617 a 0.50005,0.50005 0 0 0 0.0293,-0.004 l 11.18945,-1.92969 a 0.50005,0.50005 0 0 0 0.006,-0.002 l 19.92774,-3.70898 0.084,0.81835 a 0.50005,0.50005 0 0 0 0.56445,0.44532 l 13.41016,-1.81055 a 0.50005,0.50005 0 0 0 0.42773,-0.56641 z"
       id="Addison" />
    <path
       style="color:#000000;font-style:normal;font-variant:normal;font-weight:normal;font-stretch:normal;font-size:medium;line-height:normal;font-family:sans-serif;font-variant-ligatures:normal;font-variant-position:normal;font-variant-caps:normal;font-variant-numeric:normal;font-variant-alternates:normal;font-feature-settings:normal;text-indent:0;text-align:start;text-decoration:none;text-decoration-line:none;text-decoration-style:solid;text-decoration-color:#000000;letter-spacing:normal;word-spacing:normal;text-transform:none;writing-mode:lr-tb;direction:ltr;text-orientation:mixed;dominant-baseline:auto;baseline-shift:baseline;text-anchor:start;white-space:normal;shape-padding:0;clip-rule:nonzero;display:inline;overflow:visible;visibility:visible;opacity:1;isolation:auto;mix-blend-mode:normal;color-interpolation:sRGB;color-interpolation-filters:linearRGB;solid-color:#000000;solid-opacity:1;vector-effect:none;fill:#cccccc;fill-opacity:1;fill-rule:nonzero;stroke:none;stroke-width:1;stroke-linecap:butt;stroke-linejoin:miter;stroke-miterlimit:4;stroke-dasharray:none;stroke-dashoffset:0;stroke-opacity:1;color-rendering:auto;image-rendering:auto;shape-rendering:auto;text-rendering:auto;enable-background:accumulate"
       d="M 309.3418 6.9003906 L 279.08203 7.640625 A 0.50005 0.50005 0 0 1 279.05273 7.640625 L 267.50195 7.2597656 L 250.25781 7.2207031 L 248.93164 7.8261719 L 249.61719 15.103516 A 0.50005 0.50005 0 0 1 249.45898 15.517578 L 243.63867 20.896484 A 0.50005 0.50005 0 0 1 243.13477 21.001953 L 239.90039 19.867188 L 238.03906 20.677734 A 0.50005 0.50005 0 0 1 237.59766 20.658203 L 235.1582 19.306641 A 0.50005 0.50005 0 0 1 234.90039 18.878906 L 234.79102 12.798828 A 0.50005 0.50005 0 0 1 234.93164 12.441406 L 237.26953 10.027344 L 234.63477 8.7382812 L 231.28516 9.5683594 L 231.58594 11.84375 A 0.50005 0.50005 0 0 1 231.58008 12.013672 L 230.85938 15.443359 A 0.50005 0.50005 0 0 1 230.29883 15.833984 L 226.17578 15.240234 L 224.80859 18.371094 A 0.50005 0.50005 0 0 1 224.71289 18.513672 L 222.50195 20.84375 A 0.50005 0.50005 0 0 1 222.27344 20.982422 L 219.26758 21.8125 L 216.63281 27.123047 L 215.12695 33.152344 L 216.25781 35.632812 L 219.07227 37.208984 L 220.39648 34.349609 A 0.50005 0.50005 0 0 1 220.73047 34.074219 L 223.00977 33.513672 A 0.50005 0.50005 0 0 1 223.24609 33.513672 L 226.36719 34.263672 A 0.50005 0.50005 0 0 1 226.51367 34.326172 L 230.31445 36.695312 A 0.50005 0.50005 0 0 1 230.52344 36.960938 L 231.41406 39.599609 A 0.50005 0.50005 0 0 1 231.42188 39.894531 L 230.12891 44.554688 L 230.05078 47.892578 A 0.50005 0.50005 0 0 1 230.02539 48.037109 L 228.0957 53.876953 A 0.50005 0.50005 0 0 1 228.05273 53.96875 L 226.55664 56.578125 L 225.15625 69.574219 A 0.50005 0.50005 0 0 1 225.1543 69.597656 L 224.31445 74.908203 L 225.61328 75.074219 A 0.50005 0.50005 0 0 1 225.87305 75.1875 L 228.99219 77.818359 A 0.50005 0.50005 0 0 1 229.13672 78.380859 L 228.18555 80.830078 A 0.50005 0.50005 0 0 1 227.77734 81.146484 L 226.10547 81.341797 L 224.52539 85.351562 L 224.9043 86.794922 L 226.70703 87.175781 L 227.35742 83.533203 A 0.50005 0.50005 0 0 1 227.68164 83.148438 L 230.42383 82.169922 L 232.50586 77.621094 A 0.50005 0.50005 0 0 1 233.18359 77.382812 L 237.05469 79.322266 A 0.50005 0.50005 0 0 1 237.31445 79.890625 L 235.875 85.710938 A 0.50005 0.50005 0 0 1 235.78711 85.892578 L 230.87695 92.332031 L 230.44922 94.400391 A 0.50005 0.50005 0 0 1 230.17383 94.751953 L 226.25977 96.613281 L 225.75195 98.433594 A 0.50005 0.50005 0 0 1 225.6543 98.619141 L 222.45508 102.48828 L 219.66992 110.75586 L 244.71289 123.98828 A 0.50005 0.50005 0 0 1 244.7207 123.99219 L 261.09961 132.97852 L 288.68359 139.20508 L 287.97852 135.5957 A 0.50005 0.50005 0 0 1 288.45508 135 L 294.28516 134.81641 L 296.88477 131.80469 L 307.16992 112.57422 A 0.50005 0.50005 0 0 1 307.83398 112.36328 L 321.52148 119.25391 L 324.9082 101.39648 A 0.50005 0.50005 0 0 1 325.49414 101 L 326.24219 101.14453 L 327.60938 94.035156 A 0.50005 0.50005 0 0 1 328.19336 93.638672 L 330.20312 94.025391 L 330.98828 89.857422 A 0.50005 0.50005 0 0 1 331.56641 89.457031 L 333.25 89.75 L 333.03125 85.435547 A 0.50005 0.50005 0 0 1 333.16016 85.072266 L 337.58008 80.222656 A 0.50005 0.50005 0 0 1 337.97266 80.060547 L 366.64258 81.380859 A 0.50005 0.50005 0 0 1 367.06836 82.099609 L 366.48242 83.294922 L 370.39648 85.867188 L 370.98438 85.105469 A 0.50005 0.50005 0 0 1 371.70703 85.03125 L 375.0625 87.927734 L 386.05078 70.042969 L 384.07031 38.191406 A 0.50005 0.50005 0 0 1 384.55273 37.660156 L 385.20117 37.638672 L 381.04883 9.921875 L 372.53125 8.2578125 L 351.57812 7.4492188 L 326.23633 7.2402344 A 0.50005 0.50005 0 0 1 326.23047 7.2402344 L 309.3418 6.9003906 z M 220.09375 89.646484 L 218.6543 91.041016 L 218.95898 91.769531 L 221.31641 90.09375 L 220.09375 89.646484 z "
       transform="translate(-5,-5)"
       id="Franklin"
       inkscape:label="#path4527" />
    <path
       style="color:#000000;font-style:normal;font-variant:normal;font-weight:normal;font-stretch:normal;font-size:medium;line-height:normal;font-family:sans-serif;font-variant-ligatures:normal;font-variant-position:normal;font-variant-caps:normal;font-variant-numeric:normal;font-variant-alternates:normal;font-feature-settings:normal;text-indent:0;text-align:start;text-decoration:none;text-decoration-line:none;text-decoration-style:solid;text-decoration-color:#000000;letter-spacing:normal;word-spacing:normal;text-transform:none;writing-mode:lr-tb;direction:ltr;text-orientation:mixed;dominant-baseline:auto;baseline-shift:baseline;text-anchor:start;white-space:normal;shape-padding:0;clip-rule:nonzero;display:inline;overflow:visible;visibility:visible;opacity:1;isolation:auto;mix-blend-mode:normal;color-interpolation:sRGB;color-interpolation-filters:linearRGB;solid-color:#000000;solid-opacity:1;vector-effect:none;fill:#cccccc;fill-opacity:1;fill-rule:nonzero;stroke:none;stroke-width:1;stroke-linecap:butt;stroke-linejoin:miter;stroke-miterlimit:4;stroke-dasharray:none;stroke-dashoffset:0;stroke-opacity:1;color-rendering:auto;image-rendering:auto;shape-rendering:auto;text-rendering:auto;enable-background:accumulate"
       d="m 529.18359,87.90625 24.72266,17.70508 -17.70898,23.95117 a 0.50005,0.50005 0 0 0 0.10742,0.70117 l 16.58203,12.10352 -16.11719,21.64453 a 0.50005,0.50005 0 0 0 -0.002,0.59375 l 12.94336,17.58398 -11.23047,14.19532 -7.38086,4.74414 a 0.50005,0.50005 0 0 0 -0.13086,0.7207 l 23.79297,31.92383 -3.19531,2.08984 -4.70118,1.42969 -7.3125,-3.64063 a 0.50005,0.50005 0 0 0 -0.27148,-0.0508 l -3.7793,0.3711 a 0.50005,0.50005 0 0 0 -0.31836,0.1582 l -2.76171,2.99023 -8.27735,0.39844 -4.4707,-0.29883 a 0.50005,0.50005 0 0 0 -0.46094,0.24024 l -1.26367,2.08984 -4.19141,2.42383 -3.55469,1.29883 -2.39257,-0.70313 a 0.50005,0.50005 0 0 0 -0.63672,0.41797 l -0.85352,6.82031 -1.56445,2.10938 -4.76367,3.36328 a 0.50005,0.50005 0 0 0 -0.16797,0.20117 l -2.36914,5.21094 a 0.50005,0.50005 0 0 0 0.30859,0.68555 l 2.10156,0.64257 -0.2539,3.85547 a 0.50005,0.50005 0 0 0 0.0469,0.2461 l 2.92578,6.21093 -1.33984,4.16211 a 0.50005,0.50005 0 0 0 -0.0215,0.20899 l 0.26172,2.32617 -1.65626,2.84766 a 0.50005,0.50005 0 0 0 -0.0684,0.23437 l -0.11719,3.35156 -1.47656,3.63672 a 0.50005,0.50005 0 0 0 0.0371,0.44922 l 2.16407,3.53125 1.12109,3.94531 a 0.50005,0.50005 0 0 0 0.0606,0.13086 l 1.58789,2.49805 -30.55078,-11.47461 a 0.50005,0.50005 0 0 0 -0.0488,-0.0156 l -0.91992,-0.24024 a 0.50005,0.50005 0 0 0 -0.17969,-0.0137 l -32.67578,3.42578 -15.36328,-6.93164 12.77929,-23.35547 a 0.50005,0.50005 0 0 0 0.0625,-0.24414 l -0.0684,-9.0625 11.54882,-14.38086 a 0.50005,0.50005 0 0 0 0.0508,-0.0781 l 13.17969,-24.75 a 0.50005,0.50005 0 0 0 0.0293,-0.4043 l -1.68945,-4.71875 a 0.50005,0.50005 0 0 0 -0.23438,-0.27344 l -52.09961,-27.89844 1.12891,-1.82812 a 0.50005,0.50005 0 0 0 0.0137,-0.0234 l 13.32422,-24.47851 1.37695,0.88086 a 0.50005,0.50005 0 0 0 0.043,0.0254 l 15.98633,8.08789 9.87695,5.1875 a 0.50005,0.50005 0 0 0 0.67383,-0.20703 l 13.80078,-25.90039 a 0.50005,0.50005 0 0 0 0.0156,-0.0293 l 1.14453,-2.56055 12.96484,-25.73047 a 0.50005,0.50005 0 0 0 0.0137,-0.0293 l 0.77735,-1.83789 13.64843,6.4746 a 0.50005,0.50005 0 0 0 0.69532,-0.58789 l -5.96485,-21.189449 24.54102,16.837889 a 0.50005,0.50005 0 0 0 0.69531,-0.12891 l 2.92578,-4.26562 z"
       id="Caledonia" />
    <path
       style="color:#000000;font-style:normal;font-variant:normal;font-weight:normal;font-stretch:normal;font-size:medium;line-height:normal;font-family:sans-serif;font-variant-ligatures:normal;font-variant-position:normal;font-variant-caps:normal;font-variant-numeric:normal;font-variant-alternates:normal;font-feature-settings:normal;text-indent:0;text-align:start;text-decoration:none;text-decoration-line:none;text-decoration-style:solid;text-decoration-color:#000000;letter-spacing:normal;word-spacing:normal;text-transform:none;writing-mode:lr-tb;direction:ltr;text-orientation:mixed;dominant-baseline:auto;baseline-shift:baseline;text-anchor:start;white-space:normal;shape-padding:0;clip-rule:nonzero;display:inline;overflow:visible;visibility:visible;opacity:1;isolation:auto;mix-blend-mode:normal;color-interpolation:sRGB;color-interpolation-filters:linearRGB;solid-color:#000000;solid-opacity:1;vector-effect:none;fill:#cccccc;fill-opacity:1;fill-rule:nonzero;stroke:none;stroke-width:1;stroke-linecap:butt;stroke-linejoin:miter;stroke-miterlimit:4;stroke-dasharray:none;stroke-dashoffset:0;stroke-opacity:1;color-rendering:auto;image-rendering:auto;shape-rendering:auto;text-rendering:auto;enable-background:accumulate"
       d="m 294.875,405.70117 0.10547,5.61914 a 0.50005,0.50005 0 0 0 0.31055,0.45313 l 8.94921,3.65039 a 0.50005,0.50005 0 0 0 0.62305,-0.21485 l 1.74219,-3.04882 7.94336,3.26953 1.23633,2.00781 -0.20313,1.96094 a 0.50005,0.50005 0 0 0 0.0566,0.28711 l 2.21289,4.13086 -9.16601,19.83398 a 0.50005,0.50005 0 0 0 0.23633,0.66016 l 3.41992,1.66015 -3.8711,7.99219 a 0.50005,0.50005 0 0 0 0.27539,0.68555 l 29.8711,11.09765 -7.60547,18.20313 -6.81055,14.66992 -2.99609,-1.12695 a 0.50005,0.50005 0 0 0 -0.66797,0.38672 l -2.69141,16.41015 a 0.50005,0.50005 0 0 0 -0.002,0.0195 L 315.74414,531.5 a 0.50005,0.50005 0 0 0 0.39648,0.55078 l 4.82227,0.98633 -0.51953,3.95703 a 0.50005,0.50005 0 0 0 0.34766,0.54297 l 11.65039,3.64648 0.35937,2.40625 -4.03711,14.85352 -6.11914,15.83594 a 0.50005,0.50005 0 0 0 -0.0293,0.25586 l 0.80079,5.26562 -15.19141,-9.02148 a 0.50005,0.50005 0 0 0 -0.75391,0.42578 l -0.0156,1.1914 -7.2207,-0.20703 a 0.50005,0.50005 0 0 0 -0.51368,0.4668 l -0.59961,8.9668 -2.17773,0.1582 a 0.50005,0.50005 0 0 0 -0.46289,0.46875 l -0.98047,16.26562 -26.64453,-1.375 a 0.50005,0.50005 0 0 0 -0.52539,0.48047 l -0.16016,4.25 -3.07226,-0.0586 1.08789,-4.36133 a 0.50005,0.50005 0 0 0 -0.45899,-0.62109 l -15.07031,-0.8086 a 0.50005,0.50005 0 0 0 -0.0254,-0.002 l -11.62891,-0.0293 -19.30859,-1.69921 a 0.50005,0.50005 0 0 0 -0.0137,0 l -21.38281,-1.24219 0.65234,-19.17969 1.38086,-34.61914 a 0.50005,0.50005 0 0 0 0,-0.006 l 0.5664,-19.17383 1.20899,-3.09961 a 0.50005,0.50005 0 0 0 -0.0508,-0.46093 l -1.91797,-2.82813 0.39062,-3.44531 a 0.50005,0.50005 0 0 0 -0.0762,-0.32617 l -2.5,-3.88086 a 0.50005,0.50005 0 0 0 -0.084,-0.0977 l -2.69922,-2.4707 a 0.50005,0.50005 0 0 0 -0.18945,-0.10742 l -2.4629,-0.77149 -1.1914,-1.62695 a 0.50005,0.50005 0 0 0 -0.45899,-0.20117 l -1.60742,0.17578 0.38086,-7.77539 a 0.50005,0.50005 0 0 0 -0.0879,-0.3086 l -1.93359,-2.79101 -0.39844,-4.59766 a 0.50005,0.50005 0 0 0 -0.36719,-0.43945 l -3.91015,-1.07031 a 0.50005,0.50005 0 0 0 -0.16211,-0.0156 l -6.24024,0.37891 a 0.50005,0.50005 0 0 0 -0.30078,0.125 l -1.17383,1.03906 -2.49609,-0.83008 a 0.50005,0.50005 0 0 0 -0.44727,0.0684 l -2.89062,2.04883 a 0.50005,0.50005 0 0 0 -0.11914,0.12109 l -1.57031,2.24024 a 0.50005,0.50005 0 0 0 -0.0566,0.46875 l 0.80273,2.06054 -3.42578,4.88086 a 0.50005,0.50005 0 0 0 -0.0899,0.33008 l 0.45508,5.20703 -3.0332,2.17188 -7.2168,-5.29688 -0.34375,-1.91601 2.17969,-4.17774 a 0.50005,0.50005 0 0 0 0.0508,-0.30664 l -0.47851,-3.12304 1.36328,-3.6875 a 0.50005,0.50005 0 0 0 -0.041,-0.43555 l -2.28711,-3.73828 0.3418,-2.48438 1.83789,-1.69922 a 0.50005,0.50005 0 0 0 0.12891,-0.1914 l 2.78906,-7.48047 a 0.50005,0.50005 0 0 0 0.0234,-0.0781 l 1.58007,-8.06836 2.01953,-1.99218 a 0.50005,0.50005 0 0 0 0.0996,-0.13868 l 1.97461,-4.0957 4.20704,-3.03711 a 0.50005,0.50005 0 0 0 0.20507,-0.34961 l 0.86524,-7.875 2.29883,-3.29883 37.65429,-4.14453 a 0.50005,0.50005 0 0 0 0.44141,-0.55664 l -2.91602,-24.04492 15.46094,-0.67578 a 0.50005,0.50005 0 0 0 0.47266,-0.57422 l -0.0566,-0.36914 30.96679,-1.27344 0.60547,1.24414 2.35742,12.9336 a 0.50005,0.50005 0 0 0 0.7168,0.35547 l 14.51953,-7.29883 a 0.50005,0.50005 0 0 0 0.004,-0.002 z"
       id="Rutland" />
    <path
       style="color:#000000;font-style:normal;font-variant:normal;font-weight:normal;font-stretch:normal;font-size:medium;line-height:normal;font-family:sans-serif;font-variant-ligatures:normal;font-variant-position:normal;font-variant-caps:normal;font-variant-numeric:normal;font-variant-alternates:normal;font-feature-settings:normal;text-indent:0;text-align:start;text-decoration:none;text-decoration-line:none;text-decoration-style:solid;text-decoration-color:#000000;letter-spacing:normal;word-spacing:normal;text-transform:none;writing-mode:lr-tb;direction:ltr;text-orientation:mixed;dominant-baseline:auto;baseline-shift:baseline;text-anchor:start;white-space:normal;shape-padding:0;clip-rule:nonzero;display:inline;overflow:visible;visibility:visible;opacity:1;isolation:auto;mix-blend-mode:normal;color-interpolation:sRGB;color-interpolation-filters:linearRGB;solid-color:#000000;solid-opacity:1;vector-effect:none;fill:#cccccc;fill-opacity:1;fill-rule:nonzero;stroke:none;stroke-width:1;stroke-linecap:butt;stroke-linejoin:miter;stroke-miterlimit:4;stroke-dasharray:none;stroke-dashoffset:0;stroke-opacity:1;color-rendering:auto;image-rendering:auto;shape-rendering:auto;text-rendering:auto;enable-background:accumulate"
       d="m 410.44141,279.49414 12.04882,5.59961 a 0.50005,0.50005 0 0 0 0.004,0.002 l 15.98047,7.21094 a 0.50005,0.50005 0 0 0 0.25781,0.041 l 32.71875,-3.43164 0.80664,0.21093 31.625,11.87891 0.4375,6.44726 a 0.50005,0.50005 0 0 0 0.13672,0.31055 l 1.91406,2.02149 -0.66797,1.56836 -3.69335,1.80664 a 0.50005,0.50005 0 0 0 -0.26954,0.34961 l -0.67968,3.31054 a 0.50005,0.50005 0 0 0 0.002,0.20703 l 0.70898,3.24024 a 0.50005,0.50005 0 0 0 0.24024,0.32617 l 2.33008,1.33008 a 0.50005,0.50005 0 0 0 0.71875,-0.26563 l 0.56445,-1.58203 1.49805,0.81055 -0.28125,2.28125 -2.81446,1.82226 a 0.50005,0.50005 0 0 0 0.0312,0.85743 l 1.82227,1.00195 -3.76758,1.32812 a 0.50005,0.50005 0 0 0 -0.30664,0.63282 l 0.83789,2.46875 -1.8457,3.29492 -2.3125,0.10547 a 0.50005,0.50005 0 0 0 -0.46875,0.58398 l 0.46484,2.76172 -2.91015,1.8418 a 0.50005,0.50005 0 0 0 -0.2168,0.54297 l 0.84765,3.41015 -2.30273,3.54688 -1.5625,-0.75781 a 0.50005,0.50005 0 0 0 -0.68945,0.28515 l -1.01758,2.91016 -1.91016,1.35742 a 0.50005,0.50005 0 0 0 -0.19726,0.51953 l 0.48828,2.12305 -3.16797,3.21484 a 0.50005,0.50005 0 0 0 -0.0977,0.55859 l 1.16407,2.5293 -0.59766,6.31641 a 0.50005,0.50005 0 0 0 0.60938,0.5332 l 1.97656,-0.45117 1.32226,3.71094 -1.13281,1.91797 -2.96484,1.12695 a 0.50005,0.50005 0 0 0 -0.32227,0.45117 l -0.27539,8.18555 -1.32227,2.11133 -6.81054,5.3164 a 0.50005,0.50005 0 0 0 -0.14063,0.17188 l -2.45703,4.96093 -1.9707,0.1836 a 0.50005,0.50005 0 0 0 -0.42969,0.33984 l -0.75,2.27149 a 0.50005,0.50005 0 0 0 0.01,0.33789 l 1.24804,3.18945 -3.26172,1.09375 a 0.50005,0.50005 0 0 0 -0.30664,0.29492 l -1.26953,3.2793 a 0.50005,0.50005 0 0 0 -0.008,0.33984 l 1.26758,3.76367 0.17187,3.67774 -1.53711,3.63476 a 0.50005,0.50005 0 0 0 -0.0176,0.33594 l 1.08398,3.66797 -0.13867,2.50977 -2.47656,4.16406 -2.58985,2.66797 a 0.50005,0.50005 0 0 0 -0.14062,0.36133 l 0.10156,3.88281 -33.22656,-13.2793 a 0.50005,0.50005 0 0 0 -0.0352,-0.0137 l -16.59961,-5.19922 a 0.50005,0.50005 0 0 0 -0.0156,-0.004 l -13.40625,-3.73437 a 0.50005,0.50005 0 0 0 -0.27344,-0.63477 l -36.48047,-15.38086 a 0.50005,0.50005 0 0 0 -0.0156,-0.006 L 337.25,386.04297 a 0.50005,0.50005 0 0 0 -0.59766,0.19141 l -0.52929,0.80664 -14.53125,-5.47657 0.92968,-1.9707 a 0.50005,0.50005 0 0 0 0.0371,-0.31445 l -0.53906,-2.60157 a 0.50005,0.50005 0 0 0 -0.2793,-0.35156 l -4.46484,-2.0625 -0.24023,-5.45508 9.29492,-17.18164 a 0.50005,0.50005 0 0 0 0.01,-0.0176 l 2.79688,-5.71485 14.49023,5.73047 a 0.50005,0.50005 0 0 0 0.63672,-0.25586 l 12.02539,-26.19336 0.91211,0.35156 a 0.50005,0.50005 0 0 0 0.63867,-0.27148 l 10.5293,-24.78516 5.23047,1.76368 a 0.50005,0.50005 0 0 0 0.62891,-0.29688 l 0.89062,-2.35742 25.6543,10.10547 3.02734,1.56836 a 0.50005,0.50005 0 0 0 0.7207,-0.35157 z"
       id="Orange" />
    <path
       style="color:#000000;font-style:normal;font-variant:normal;font-weight:normal;font-stretch:normal;font-size:medium;line-height:normal;font-family:sans-serif;font-variant-ligatures:normal;font-variant-position:normal;font-variant-caps:normal;font-variant-numeric:normal;font-variant-alternates:normal;font-feature-settings:normal;text-indent:0;text-align:start;text-decoration:none;text-decoration-line:none;text-decoration-style:solid;text-decoration-color:#000000;letter-spacing:normal;word-spacing:normal;text-transform:none;writing-mode:lr-tb;direction:ltr;text-orientation:mixed;dominant-baseline:auto;baseline-shift:baseline;text-anchor:start;white-space:normal;shape-padding:0;clip-rule:nonzero;display:inline;overflow:visible;visibility:visible;opacity:1;isolation:auto;mix-blend-mode:normal;color-interpolation:sRGB;color-interpolation-filters:linearRGB;solid-color:#000000;solid-opacity:1;vector-effect:none;fill:#cccccc;fill-opacity:1;fill-rule:nonzero;stroke:none;stroke-width:1;stroke-linecap:butt;stroke-linejoin:miter;stroke-miterlimit:4;stroke-dasharray:none;stroke-dashoffset:0;stroke-opacity:1;color-rendering:auto;image-rendering:auto;shape-rendering:auto;text-rendering:auto;enable-background:accumulate"
       d="m 214.45898,106.77539 24.78321,13.0957 16.4375,9.01758 a 0.50005,0.50005 0 0 0 0.13086,0.0488 l 28.39843,6.41016 a 0.50005,0.50005 0 0 0 0.008,0.002 l 3.24804,0.67969 12.63672,17.83008 a 0.50005,0.50005 0 0 0 0.0117,0.0156 l 7.7793,10.14844 a 0.50005,0.50005 0 0 0 0.24023,0.17187 l 3.70313,1.22071 -4.97461,10.01171 a 0.50005,0.50005 0 0 0 0.21484,0.66407 l 6.30664,3.32617 -8.47461,15.88672 a 0.50005,0.50005 0 0 0 0.29297,0.71289 l 7.76758,2.42969 -8.52148,16.31054 a 0.50005,0.50005 0 0 0 0.19921,0.66797 l 8.89649,4.96289 -5.55078,9.59571 -1.29883,0.0703 -7.02734,-2.82813 a 0.50005,0.50005 0 0 0 -0.6543,0.28711 l -11.33008,30.01953 a 0.50005,0.50005 0 0 0 0.31641,0.6543 l 2.24609,0.71289 -13.67578,38.13281 -2.92188,-22.33398 -2.49023,-22.17578 a 0.50005,0.50005 0 0 0 -0.36133,-0.42578 l -11.12109,-3.09961 a 0.50005,0.50005 0 0 0 -0.62891,0.55468 l 0.85742,5.90039 -12.39843,1.67383 -0.0859,-0.84765 a 0.50005,0.50005 0 0 0 -0.58985,-0.44141 l -20.45703,3.81055 -11.17187,1.92578 -17.79688,2.01758 0.52149,-1.94336 a 0.50005,0.50005 0 0 0 -0.18164,-0.52735 l -3.49024,-2.64843 a 0.50005,0.50005 0 0 0 -0.64062,0.0293 l -3.30078,3.02735 -0.96094,-0.78907 5.24609,-5.59765 a 0.50005,0.50005 0 0 0 0.0449,-0.62891 l -2.13085,-3.05078 a 0.50005,0.50005 0 0 0 -0.57032,-0.1875 l -2.76757,0.93359 0.81054,-4.7832 3.2168,-7.16211 1.63086,-2.03125 a 0.50005,0.50005 0 0 0 0.0937,-0.43945 l -0.91406,-3.45703 2.45703,-1.4668 a 0.50005,0.50005 0 0 0 0.19336,-0.21289 l 1.93164,-4.03125 a 0.50005,0.50005 0 0 0 -0.0254,-0.47656 l -0.99024,-1.60742 0.51563,-2.85157 a 0.50005,0.50005 0 0 0 -0.12305,-0.42773 l -1.21484,-1.32813 -1.14844,-4.45703 3.20312,-3.1289 a 0.50005,0.50005 0 0 0 0.0547,-0.0625 l 2.2168,-3.04102 2.16601,0.27734 1.84375,3.83594 a 0.50005,0.50005 0 0 0 0.6211,0.25196 l 3.20117,-1.16993 a 0.50005,0.50005 0 0 0 0.31445,-0.35156 l 1.63867,-6.75977 a 0.50005,0.50005 0 0 0 0.0117,-0.16601 l -0.58984,-6.03125 a 0.50005,0.50005 0 0 0 -0.37891,-0.4375 l -2.39062,-0.58008 0.2168,-3.14453 2.48828,-2.21484 a 0.50005,0.50005 0 0 0 0.16601,-0.41407 l -0.49023,-5.9707 a 0.50005,0.50005 0 0 0 -0.0352,-0.14648 l -1.16016,-2.87891 a 0.50005,0.50005 0 0 0 -0.23046,-0.25586 l -3.81446,-2 -1.15039,-2.62891 a 0.50005,0.50005 0 0 0 -0.29883,-0.27343 l -6.36523,-2.14844 1.62305,-2.64649 a 0.50005,0.50005 0 0 0 0.0644,-0.35742 l -1.00977,-5.15039 a 0.50005,0.50005 0 0 0 -0.0527,-0.14258 l -1.58984,-2.91015 a 0.50005,0.50005 0 0 0 -0.16602,-0.17969 l -6.01367,-3.91406 1.28906,-1.15235 0.94531,1.31836 a 0.50005,0.50005 0 0 0 0.61914,0.16016 l 2.86329,-1.34766 1.05468,1.39649 a 0.50005,0.50005 0 0 0 0.42383,0.19726 l 3.38867,-0.1582 a 0.50005,0.50005 0 0 0 0.125,-0.0234 l 3.54102,-1.09961 a 0.50005,0.50005 0 0 0 0.17969,-0.10156 l 1.84961,-1.61914 a 0.50005,0.50005 0 0 0 0.16406,-0.4668 l -0.47266,-2.55078 1.64649,0.13086 -0.22657,4.42383 a 0.50005,0.50005 0 0 0 0.24414,0.45508 l 4,2.39062 a 0.50005,0.50005 0 0 0 0.36719,0.0586 l 2.16016,-0.49024 a 0.50005,0.50005 0 0 0 0.19726,-0.0937 l 3.58985,-2.81054 a 0.50005,0.50005 0 0 0 0.17383,-0.26172 l 2.19921,-8.0293 a 0.50005,0.50005 0 0 0 -0.33398,-0.61133 l -2.41016,-0.73828 a 0.50005,0.50005 0 0 0 -0.33203,0.0117 l -5.16601,2.05273 -2.21485,-0.77539 -0.88672,-8.42383 a 0.50005,0.50005 0 0 0 -0.15625,-0.31445 l -4.26367,-3.96875 2.25586,-1.12695 a 0.50005,0.50005 0 0 0 0.26172,-0.33008 l 0.64063,-2.64258 5.33398,-2.18164 a 0.50005,0.50005 0 0 0 0.25391,-0.23437 l 0.85937,-1.66016 a 0.50005,0.50005 0 0 0 0.0371,-0.36523 l -1.11328,-3.90625 0.89062,-8.17383 a 0.50005,0.50005 0 0 0 -0.008,-0.15039 l -0.5625,-2.84766 z"
       id="Chittenden" />
  </g>
</svg>
