<?xml version="1.0" encoding="UTF-8" standalone="no"?>
<svg
   xmlns:dc="http://purl.org/dc/elements/1.1/"
   xmlns:cc="http://creativecommons.org/ns#"
   xmlns:rdf="http://www.w3.org/1999/02/22-rdf-syntax-ns#"
   xmlns:svg="http://www.w3.org/2000/svg"
   xmlns="http://www.w3.org/2000/svg"
   xmlns:sodipodi="http://sodipodi.sourceforge.net/DTD/sodipodi-0.dtd"
   xmlns:inkscape="http://www.inkscape.org/namespaces/inkscape"
   version="1.2"
   width="810"
   height="624"
   stroke-linecap="round"
   stroke-linejoin="round"
   id="svg26"
   sodipodi:docname="wy.svg"
   inkscape:version="0.92.1 r15371">
  <metadata
     id="metadata32">
    <rdf:RDF>
      <cc:Work
         rdf:about="">
        <dc:format>image/svg+xml</dc:format>
        <dc:type
           rdf:resource="http://purl.org/dc/dcmitype/StillImage" />
      </cc:Work>
    </rdf:RDF>
  </metadata>
  <defs
     id="defs30" />
  <sodipodi:namedview
     pagecolor="#ffffff"
     bordercolor="#666666"
     borderopacity="1"
     objecttolerance="10"
     gridtolerance="10"
     guidetolerance="10"
     inkscape:pageopacity="0"
     inkscape:pageshadow="2"
     inkscape:window-width="1440"
     inkscape:window-height="837"
     id="namedview28"
     showgrid="false"
     inkscape:zoom="0.40727392"
     inkscape:cx="37.587673"
     inkscape:cy="187.96784"
     inkscape:window-x="-8"
     inkscape:window-y="-8"
     inkscape:window-maximized="1"
     inkscape:current-layer="Wyoming" />
  <g
     id="Wyoming"
     transform="translate(5,5)">
    <path
       style="color:#000000;font-style:normal;font-variant:normal;font-weight:normal;font-stretch:normal;font-size:medium;line-height:normal;font-family:sans-serif;font-variant-ligatures:normal;font-variant-position:normal;font-variant-caps:normal;font-variant-numeric:normal;font-variant-alternates:normal;font-feature-settings:normal;text-indent:0;text-align:start;text-decoration:none;text-decoration-line:none;text-decoration-style:solid;text-decoration-color:#000000;letter-spacing:normal;word-spacing:normal;text-transform:none;writing-mode:lr-tb;direction:ltr;text-orientation:mixed;dominant-baseline:auto;baseline-shift:baseline;text-anchor:start;white-space:normal;shape-padding:0;clip-rule:nonzero;display:inline;overflow:visible;visibility:visible;opacity:1;isolation:auto;mix-blend-mode:normal;color-interpolation:sRGB;color-interpolation-filters:linearRGB;solid-color:#000000;solid-opacity:1;vector-effect:none;fill:#cccccc;fill-opacity:1;fill-rule:nonzero;stroke:none;stroke-width:1;stroke-linecap:butt;stroke-linejoin:miter;stroke-miterlimit:4;stroke-dasharray:none;stroke-dashoffset:0;stroke-opacity:1;color-rendering:auto;image-rendering:auto;shape-rendering:auto;text-rendering:auto;enable-background:accumulate"
       d="m 364.45703,10.478516 29.00977,0.162109 a 0.50005,0.50005 0 0 0 0.006,0 l 15.17773,-0.08008 38.07227,0.228515 4.52539,0.478516 a 0.50005,0.50005 0 0 0 0.0527,0.002 l 54.95899,-0.08008 a 0.50005,0.50005 0 0 0 0.004,0 l 32.86914,-0.208984 a 0.50005,0.50005 0 0 0 0.004,0 l 25.03711,-0.324219 0.47656,18.306641 a 0.50005,0.50005 0 0 0 0.0684,0.242187 l 0.90234,1.525391 0.29883,22.595703 a 0.50005,0.50005 0 0 0 0.0137,0.107422 l 0.47852,2.039062 0.41797,18.94336 -17.76172,0.544922 -26.89648,0.388671 a 0.50005,0.50005 0 0 0 -0.49219,0.5 v 0.25586 l -24.81055,0.224609 -35.83789,-0.109375 a 0.50005,0.50005 0 0 0 -0.006,0 l -13.90625,0.148438 -25.96875,-0.1875 -2.37695,-5.160157 a 0.50005,0.50005 0 0 0 -0.31055,-0.269531 l -8.05469,-2.416015 -2.62109,-4.324219 a 0.50005,0.50005 0 0 0 -0.57031,-0.220703 l -3.12696,0.941406 -2.08593,-6.181641 a 0.50005,0.50005 0 0 0 -0.28711,-0.304687 l -7.57032,-3.041016 a 0.50005,0.50005 0 0 0 -0.41015,0.01758 l -5.17969,2.585938 -2.59961,-3.41211 a 0.50005,0.50005 0 0 0 -0.25195,-0.173828 l -4.38867,-1.339844 -1.28321,-8.179687 a 0.50005,0.50005 0 0 0 -0.4414,-0.419922 l -2.51758,-0.265625 -3.31445,-2.36914 -0.33204,-4.029297 a 0.50005,0.50005 0 0 0 -0.22265,-0.376953 l -1.51367,-0.994141 0.10742,-2.71875 a 0.50005,0.50005 0 0 0 -0.11133,-0.335938 l -3.38867,-4.154297 1.23047,-5.90625 A 0.50005,0.50005 0 0 0 369.385,22.668014 l -2.86329,-2.740235 0.0684,-7.632812 a 0.50005,0.50005 0 0 0 -0.20507,-0.408203 z"
       id="Sheridan" />
    <path
       style="color:#000000;font-style:normal;font-variant:normal;font-weight:normal;font-stretch:normal;font-size:medium;line-height:normal;font-family:sans-serif;font-variant-ligatures:normal;font-variant-position:normal;font-variant-caps:normal;font-variant-numeric:normal;font-variant-alternates:normal;font-feature-settings:normal;text-indent:0;text-align:start;text-decoration:none;text-decoration-line:none;text-decoration-style:solid;text-decoration-color:#000000;letter-spacing:normal;word-spacing:normal;text-transform:none;writing-mode:lr-tb;direction:ltr;text-orientation:mixed;dominant-baseline:auto;baseline-shift:baseline;text-anchor:start;white-space:normal;shape-padding:0;clip-rule:nonzero;display:inline;overflow:visible;visibility:visible;opacity:1;isolation:auto;mix-blend-mode:normal;color-interpolation:sRGB;color-interpolation-filters:linearRGB;solid-color:#000000;solid-opacity:1;vector-effect:none;fill:#cccccc;fill-opacity:1;fill-rule:nonzero;stroke:none;stroke-width:1;stroke-linecap:butt;stroke-linejoin:miter;stroke-miterlimit:4;stroke-dasharray:none;stroke-dashoffset:0;stroke-opacity:1;color-rendering:auto;image-rendering:auto;shape-rendering:auto;text-rendering:auto;enable-background:accumulate"
       d="m 27.328125,1.5214844 27.744141,1.2460937 9.066406,1.6933594 a 0.50005,0.50005 0 0 0 0.07617,0.00977 l 27.679687,0.8789063 a 0.50005,0.50005 0 0 0 0.101563,-0.00781 l 4.103515,-0.7089844 23.875003,1.2558594 a 0.50005,0.50005 0 0 0 0.0684,0 l 8.2793,-0.7070313 29.91406,1.0273438 6.89258,0.4199218 a 0.50005,0.50005 0 0 0 0.0215,0.00195 l 70.24609,1.2167968 2.06446,0.9472657 a 0.50005,0.50005 0 0 0 0.20117,0.044922 l 48.85156,0.8125 -0.21289,18.9218754 a 0.50005,0.50005 0 0 0 0.49024,0.505859 l 2.52148,0.05078 -0.83203,52.361329 A 0.50005,0.50005 0 0 0 288.96875,82 l 1.5625,0.03711 -0.83203,52.63477 a 0.50005,0.50005 0 0 0 0.49219,0.50781 l 2.02148,0.0332 -0.20508,12.42969 -25.73828,-0.45313 a 0.50005,0.50005 0 0 0 -0.50976,0.49414 l -0.17383,12.85938 -13.00782,-0.21289 a 0.50005,0.50005 0 0 0 -0.50781,0.5039 l 0.0957,12.47657 -19.10743,-0.33985 a 0.50005,0.50005 0 0 0 -0.50781,0.48633 l -0.34766,12.59766 -19.0371,-0.20508 a 0.50005,0.50005 0 0 0 -0.043,0.002 l -4.09961,0.29688 -2.25586,-4.11914 a 0.50005,0.50005 0 0 0 -0.4043,-0.25782 l -2.97461,-0.19531 -1.23047,-5.67187 a 0.50005,0.50005 0 0 0 -0.41797,-0.38868 l -1.70507,-0.24023 -1.43164,-3.5332 a 0.50005,0.50005 0 0 0 -0.0996,-0.1543 l -3.07032,-3.26953 a 0.50005,0.50005 0 0 0 -0.31054,-0.15625 l -3.1836,-0.3418 -6.35156,-2.74023 a 0.50005,0.50005 0 0 0 -0.0801,-0.0254 l -3.77929,-0.91992 a 0.50005,0.50005 0 0 0 -0.47852,0.13867 l -2.25977,2.34765 -5.84179,2.13868 a 0.50005,0.50005 0 0 0 -0.3125,0.34765 l -1.34375,5.29492 -2.13281,2.66602 a 0.50005,0.50005 0 0 0 -0.10157,0.40039 l 0.53516,2.93164 -6.77539,1.57227 a 0.50005,0.50005 0 0 0 -0.16602,0.0723 l -6.21484,4.1582 -6.60352,-3.70312 0.17969,-2.33008 2.91016,-0.87109 a 0.50005,0.50005 0 0 0 0.35547,-0.51953 l -0.24024,-3.00977 a 0.50005,0.50005 0 0 0 -0.0527,-0.1875 l -1.90821,-3.72851 -0.0879,-3.03711 a 0.50005,0.50005 0 0 0 -0.29297,-0.44141 l -2.25976,-1.02539 -0.86719,-2.98828 a 0.50005,0.50005 0 0 0 -0.51562,-0.35938 l -4.19532,0.29688 -3.77148,-2.80078 a 0.50005,0.50005 0 0 0 -0.53906,-0.0352 l -3.42383,1.88867 -3.82617,-7.65429 a 0.50005,0.50005 0 0 0 -0.25,-0.23633 l -1.79688,-0.77539 0.58789,-18.44922 a 0.50005,0.50005 0 0 0 -0.48242,-0.51563 l -6.7793,-0.21679 -0.52734,-3.20899 1.3125,-4.88476 a 0.50005,0.50005 0 0 0 0,-0.26368 l -2.66992,-9.64843 -0.55469,-5.41993 a 0.50005,0.50005 0 0 0 -0.22656,-0.36914 l -5.85742,-3.76757 0.59179,-1.51953 a 0.50005,0.50005 0 0 0 -0.12695,-0.55079 l -2.29297,-2.10547 -0.0957,-4.585931 a 0.50005,0.50005 0 0 0 -0.15235,-0.34961 l -2.52148,-2.435547 -0.0254,-1.970703 a 0.50005,0.50005 0 0 0 -0.16602,-0.365234 l -3.93359,-3.533203 0.54297,-5.94336 0.92969,-1.111328 a 0.50005,0.50005 0 0 0 0.11132,-0.251953 l 0.7793,-5.681641 a 0.50005,0.50005 0 0 0 -0.1543,-0.433593 l -2.17968,-2.027344 -0.82422,-3.453125 a 0.50005,0.50005 0 0 0 -0.47266,-0.382813 l -5.306639,-0.15039 -1.361328,-4.173828 A 0.50005,0.50005 0 0 0 97.138672,66.570312 L 66.130859,65.390625 66.628906,53.300781 A 0.50005,0.50005 0 0 0 66.152344,52.78125 L 25.160156,51.001953 Z"
       id="Park" />
    <path
       style="color:#000000;font-style:normal;font-variant:normal;font-weight:normal;font-stretch:normal;font-size:medium;line-height:normal;font-family:sans-serif;font-variant-ligatures:normal;font-variant-position:normal;font-variant-caps:normal;font-variant-numeric:normal;font-variant-alternates:normal;font-feature-settings:normal;text-indent:0;text-align:start;text-decoration:none;text-decoration-line:none;text-decoration-style:solid;text-decoration-color:#000000;letter-spacing:normal;word-spacing:normal;text-transform:none;writing-mode:lr-tb;direction:ltr;text-orientation:mixed;dominant-baseline:auto;baseline-shift:baseline;text-anchor:start;white-space:normal;shape-padding:0;clip-rule:nonzero;display:inline;overflow:visible;visibility:visible;opacity:1;isolation:auto;mix-blend-mode:normal;color-interpolation:sRGB;color-interpolation-filters:linearRGB;solid-color:#000000;solid-opacity:1;vector-effect:none;fill:#cccccc;fill-opacity:1;fill-rule:nonzero;stroke:none;stroke-width:1;stroke-linecap:butt;stroke-linejoin:miter;stroke-miterlimit:4;stroke-dasharray:none;stroke-dashoffset:0;stroke-opacity:1;color-rendering:auto;image-rendering:auto;shape-rendering:auto;text-rendering:auto;enable-background:accumulate"
       d="m 129.41406,155.75781 1.26953,0.54883 3.97852,7.95703 a 0.50005,0.50005 0 0 0 0.68945,0.21485 l 3.59766,-1.98633 3.66211,2.71875 a 0.50005,0.50005 0 0 0 0.33398,0.0977 l 3.97657,-0.28125 0.81835,2.82227 a 0.50005,0.50005 0 0 0 0.27344,0.31641 l 2.18555,0.99023 0.0801,2.83789 a 0.50005,0.50005 0 0 0 0.0547,0.21289 l 1.91602,3.74219 0.19922,2.50781 -2.85352,0.85352 a 0.50005,0.50005 0 0 0 -0.35351,0.4414 l -0.23047,2.99024 a 0.50005,0.50005 0 0 0 0.2539,0.47461 l 7.1504,4.00976 a 0.50005,0.50005 0 0 0 0.52148,-0.0215 l 6.39453,-4.2793 7.15039,-1.6582 a 0.50005,0.50005 0 0 0 0.37891,-0.57813 l -0.57813,-3.17578 2.05664,-2.57226 a 0.50005,0.50005 0 0 0 0.0957,-0.1875 l 1.30468,-5.14453 5.70118,-2.08985 a 0.50005,0.50005 0 0 0 0.18945,-0.12305 l 2.14062,-2.22265 3.45899,0.84179 6.38086,2.75391 a 0.50005,0.50005 0 0 0 0.14453,0.0371 l 3.07617,0.33008 2.87891,3.06836 1.50586,3.71289 a 0.50005,0.50005 0 0 0 0.39258,0.30664 l 1.64648,0.23242 1.23633,5.69922 a 0.50005,0.50005 0 0 0 0.45508,0.39258 l 3.07617,0.20117 2.27734,4.16016 a 0.50005,0.50005 0 0 0 0.20313,0.20117 l 2.97461,1.58789 2.22851,4.24414 a 0.50005,0.50005 0 0 0 0.20313,0.20508 l 2.80664,1.53711 4.18945,8.06445 a 0.50005,0.50005 0 0 0 0.1582,0.17969 l 2.22852,1.55664 -0.2832,11.71094 a 0.50005,0.50005 0 0 0 0.48828,0.51171 l 25.50976,0.61914 -0.008,1.68946 a 0.50005,0.50005 0 0 0 0.49414,0.50195 l 12.58594,0.1543 -0.0703,3.97656 a 0.50005,0.50005 0 0 0 0.49218,0.50977 l 12.60743,0.18164 -0.14844,6.05664 a 0.50005,0.50005 0 0 0 0.49218,0.51172 l 12.53907,0.15429 -0.0625,3.91797 a 0.50005,0.50005 0 0 0 0.49219,0.50781 l 12.58203,0.19141 -0.0547,3.86133 a 0.50005,0.50005 0 0 0 0.49219,0.50781 l 12.57812,0.19141 -0.0293,1.64843 a 0.50005,0.50005 0 0 0 0.49415,0.50977 l 19.91992,0.24023 A 0.50005,0.50005 0 0 0 334.91,242.1465 l 0.0137,-1.16601 61.08398,0.15039 a 0.50005,0.50005 0 0 0 0.50196,-0.49805 l 0.0176,-3.89062 5.59961,0.0254 -0.0273,3.80859 a 0.50005,0.50005 0 0 0 0.49609,0.50391 l 1.48438,0.0156 0.0605,38.64258 L 404,292.56445 a 0.50005,0.50005 0 0 0 0.50391,0.50586 l 1.08593,-0.006 -0.01,51.25586 h -4.16992 a 0.50005,0.50005 0 0 0 -0.5,0.5 l 0.0391,52.32031 a 0.50005,0.50005 0 0 0 0.5,0.5 h 1.63086 l -0.0293,25.01954 -12.07812,0.0195 -54.81641,-0.51953 -23.82813,-0.41016 a 0.50005,0.50005 0 0 0 -0.002,0 l -40.33789,-0.5 -38.13867,-0.76953 0.51953,-25.12109 a 0.50005,0.50005 0 0 0 -0.49414,-0.50977 l -2.36914,-0.0234 0.42383,-38.7207 a 0.50005,0.50005 0 0 0 -0.48047,-0.50586 l -6.35742,-0.24023 0.0781,-3.04688 a 0.50005,0.50005 0 0 0 -0.0371,-0.19922 l -1.55859,-3.87109 a 0.50005,0.50005 0 0 0 -0.28906,-0.28125 l -3.18164,-1.18946 -1.59961,-2.53906 a 0.50005,0.50005 0 0 0 -0.64453,-0.18164 l -2.14844,1.05664 -1.63867,-1.95898 2.40234,-3.10156 a 0.50005,0.50005 0 0 0 -0.25977,-0.78907 l -3.53711,-0.98633 -3.61718,-6.0957 a 0.50005,0.50005 0 0 0 -0.24414,-0.20898 l -3.36524,-1.35352 -3.17773,-9.52148 a 0.50005,0.50005 0 0 0 -0.0547,-0.11524 l -2.55078,-3.91015 a 0.50005,0.50005 0 0 0 -0.53516,-0.21289 l -2.90429,0.69726 -3.33204,-4.07812 a 0.50005,0.50005 0 0 0 -0.30859,-0.17578 l -2.07227,-0.32813 -0.51757,-2.36523 a 0.50005,0.50005 0 0 0 -0.32617,-0.36719 l -3.29883,-1.1211 -1,-2.12695 a 0.50005,0.50005 0 0 0 -0.41211,-0.28711 l -5.13477,-0.41601 -0.5957,-4.81641 0.93555,-2.90625 a 0.50005,0.50005 0 0 0 -0.043,-0.40234 l -4.19922,-7.2793 a 0.50005,0.50005 0 0 0 -0.20508,-0.19531 l -2.97852,-1.53125 -0.98046,-3.38282 a 0.50005,0.50005 0 0 0 -0.0566,-0.1289 l -2.54687,-4.01758 -0.35742,-3.95117 a 0.50005,0.50005 0 0 0 -0.12891,-0.29102 l -1.57812,-1.73437 0.0488,-4.85352 a 0.50005,0.50005 0 0 0 -0.084,-0.28125 l -1.54102,-2.32031 2.34376,-6.48242 a 0.50005,0.50005 0 0 0 -0.0938,-0.50196 l -2.66601,-3.02539 0.54687,-5.13086 a 0.50005,0.50005 0 0 0 -0.16406,-0.42773 l -1.41015,-1.25 a 0.50005,0.50005 0 0 0 -0.4375,-0.11328 l -4.51758,0.9668 0.38281,-14.03516 a 0.50005,0.50005 0 0 0 -0.48047,-0.51367 l -32.07422,-1.22071 1.72461,-52.23242 a 0.50005,0.50005 0 0 0 -0.44726,-0.51367 l 0.22265,0.0176 z"
       id="Fremont" />
    <path
       style="color:#000000;font-style:normal;font-variant:normal;font-weight:normal;font-stretch:normal;font-size:medium;line-height:normal;font-family:sans-serif;font-variant-ligatures:normal;font-variant-position:normal;font-variant-caps:normal;font-variant-numeric:normal;font-variant-alternates:normal;font-feature-settings:normal;text-indent:0;text-align:start;text-decoration:none;text-decoration-line:none;text-decoration-style:solid;text-decoration-color:#000000;letter-spacing:normal;word-spacing:normal;text-transform:none;writing-mode:lr-tb;direction:ltr;text-orientation:mixed;dominant-baseline:auto;baseline-shift:baseline;text-anchor:start;white-space:normal;shape-padding:0;clip-rule:nonzero;display:inline;overflow:visible;visibility:visible;opacity:1;isolation:auto;mix-blend-mode:normal;color-interpolation:sRGB;color-interpolation-filters:linearRGB;solid-color:#000000;solid-opacity:1;vector-effect:none;fill:#cccccc;fill-opacity:1;fill-rule:nonzero;stroke:none;stroke-width:1;stroke-linecap:butt;stroke-linejoin:miter;stroke-miterlimit:4;stroke-dasharray:none;stroke-dashoffset:0;stroke-opacity:1;color-rendering:auto;image-rendering:auto;shape-rendering:auto;text-rendering:auto;enable-background:accumulate"
       d="m 126.26367,237.43555 0.14844,0.004 32.07422,1.22071 -0.38672,14.17578 a 0.50005,0.50005 0 0 0 0.60547,0.5039 l 4.89258,-1.04882 1.02734,0.9121 -0.54297,5.09376 a 0.50005,0.50005 0 0 0 0.12305,0.38281 l 2.61328,2.96875 -2.32813,6.4414 a 0.50005,0.50005 0 0 0 0.0527,0.44727 l 1.5957,2.40234 -0.0488,4.89649 a 0.50005,0.50005 0 0 0 0.13086,0.33984 l 1.59571,1.75586 0.35547,3.9043 a 0.50005,0.50005 0 0 0 0.0762,0.2207 l 2.57226,4.06055 1.01953,3.52148 a 0.50005,0.50005 0 0 0 0.25196,0.30664 l 3.03906,1.5625 4.01562,6.95899 -0.90234,2.80078 a 0.50005,0.50005 0 0 0 -0.0195,0.21289 l 0.66016,5.33008 a 0.50005,0.50005 0 0 0 0.45507,0.4375 l 5.25,0.42773 0.9668,2.05664 a 0.50005,0.50005 0 0 0 0.29297,0.26172 l 3.23242,1.09766 0.5293,2.42578 a 0.50005,0.50005 0 0 0 0.41015,0.38672 l 2.22266,0.34961 3.4082,4.17187 a 0.50005,0.50005 0 0 0 0.50391,0.16992 l 2.86719,-0.6875 2.32226,3.56055 3.23047,9.67969 a 0.50005,0.50005 0 0 0 0.28711,0.30468 l 3.42383,1.37696 3.63281,6.125 a 0.50005,0.50005 0 0 0 0.29492,0.22656 l 3.01563,0.83984 -2.19531,2.83204 a 0.50005,0.50005 0 0 0 0.0117,0.62695 l 2.15039,2.57031 a 0.50005,0.50005 0 0 0 0.60351,0.12695 l 2.0957,-1.03125 1.45118,2.30079 a 0.50005,0.50005 0 0 0 0.24804,0.20117 l 3.13282,1.17187 1.43945,3.57031 -0.0879,3.4375 a 0.50005,0.50005 0 0 0 0.48047,0.51172 l 6.36328,0.24219 -0.42383,38.73242 a 0.50005,0.50005 0 0 0 0.49414,0.50586 l 2.36524,0.0234 -0.50977,24.61523 -50.1543,-1.08789 -28.38281,-1.13086 -33.90625,-1.77929 a 0.50005,0.50005 0 0 0 -0.01,0 l -16.61718,-0.52539 0.0293,-0.36719 a 0.50005,0.50005 0 0 0 -0.48242,-0.53906 l -23.921873,-0.78125 0.0039,-0.0527 a 0.50005,0.50005 0 0 0 -0.494141,-0.53515 l -12.578124,-0.11719 0.773437,-25.27735 A 0.50005,0.50005 0 0 0 66.628906,387.75 l -4.720703,-0.17188 1.501953,-38.94921 a 0.50005,0.50005 0 0 0 -0.478515,-0.51758 l -3.212891,-0.13867 0.371094,-9.4043 3.470703,0.13086 a 0.50005,0.50005 0 0 0 0.519531,-0.48242 l 1.369141,-39.35547 0.599609,-12.36328 0.642578,-0.10547 a 0.50005,0.50005 0 0 0 0.417969,-0.47266 l 0.630859,-16.41797 0.337891,-8.01172 25.300781,1.01954 a 0.50005,0.50005 0 0 0 0.521485,-0.48243 l 0.421875,-12.58007 31.029294,1.09179 a 0.50005,0.50005 0 0 0 0.51758,-0.48437 z"
       id="Sublette" />
    <path
       style="color:#000000;font-style:normal;font-variant:normal;font-weight:normal;font-stretch:normal;font-size:medium;line-height:normal;font-family:sans-serif;font-variant-ligatures:normal;font-variant-position:normal;font-variant-caps:normal;font-variant-numeric:normal;font-variant-alternates:normal;font-feature-settings:normal;text-indent:0;text-align:start;text-decoration:none;text-decoration-line:none;text-decoration-style:solid;text-decoration-color:#000000;letter-spacing:normal;word-spacing:normal;text-transform:none;writing-mode:lr-tb;direction:ltr;text-orientation:mixed;dominant-baseline:auto;baseline-shift:baseline;text-anchor:start;white-space:normal;shape-padding:0;clip-rule:nonzero;display:inline;overflow:visible;visibility:visible;opacity:1;isolation:auto;mix-blend-mode:normal;color-interpolation:sRGB;color-interpolation-filters:linearRGB;solid-color:#000000;solid-opacity:1;vector-effect:none;fill:#cccccc;fill-opacity:1;fill-rule:nonzero;stroke:none;stroke-width:1;stroke-linecap:butt;stroke-linejoin:miter;stroke-miterlimit:4;stroke-dasharray:none;stroke-dashoffset:0;stroke-opacity:1;color-rendering:auto;image-rendering:auto;shape-rendering:auto;text-rendering:auto;enable-background:accumulate"
       d="m 783.82227,229.42969 3.14843,75.30078 2.28907,58.11914 -33.68946,1.33008 a 0.50005,0.50005 0 0 0 -0.01,0.002 l -10.38477,0.62891 -22.48242,0.74023 -25.84961,0.85352 -0.86328,-25.71094 a 0.50005,0.50005 0 0 0 -0.49219,-0.48242 l -0.0723,-0.002 -1.46485,-49.9746 0.0977,-2.08985 a 0.50005,0.50005 0 0 0 0,-0.041 l -1.12891,-35.71875 a 0.50005,0.50005 0 0 0 0,-0.004 l -0.77148,-19.25391 16.09179,-0.74804 36.32813,-1.31836 a 0.50005,0.50005 0 0 0 0.002,-0.002 z"
       id="Niobrara" />
    <path
       style="color:#000000;font-style:normal;font-variant:normal;font-weight:normal;font-stretch:normal;font-size:medium;line-height:normal;font-family:sans-serif;font-variant-ligatures:normal;font-variant-position:normal;font-variant-caps:normal;font-variant-numeric:normal;font-variant-alternates:normal;font-feature-settings:normal;text-indent:0;text-align:start;text-decoration:none;text-decoration-line:none;text-decoration-style:solid;text-decoration-color:#000000;letter-spacing:normal;word-spacing:normal;text-transform:none;writing-mode:lr-tb;direction:ltr;text-orientation:mixed;dominant-baseline:auto;baseline-shift:baseline;text-anchor:start;white-space:normal;shape-padding:0;clip-rule:nonzero;display:inline;overflow:visible;visibility:visible;opacity:1;isolation:auto;mix-blend-mode:normal;color-interpolation:sRGB;color-interpolation-filters:linearRGB;solid-color:#000000;solid-opacity:1;vector-effect:none;fill:#cccccc;fill-opacity:1;fill-rule:nonzero;stroke:none;stroke-width:1;stroke-linecap:butt;stroke-linejoin:miter;stroke-miterlimit:4;stroke-dasharray:none;stroke-dashoffset:0;stroke-opacity:1;color-rendering:auto;image-rendering:auto;shape-rendering:auto;text-rendering:auto;enable-background:accumulate"
       d="m 403.12695,236.76953 h 32.8711 l 12.64453,0.14453 -0.0117,0.69727 a 0.50005,0.50005 0 0 0 0.50195,0.50781 l 45.69922,-0.17969 a 0.50005,0.50005 0 0 0 0.004,0 l 27.15039,-0.35937 a 0.50005,0.50005 0 0 0 0.004,0 l 40.00196,-0.78125 0.4375,2.83398 1.12109,74.30469 a 0.50005,0.50005 0 0 0 0,0.002 l 0.58984,30.34961 -0.20117,8.99024 a 0.50005,0.50005 0 0 0 0,0.0176 l 0.61328,42.51171 -60.77539,1.11133 -35.2539,-0.19922 a 0.50005,0.50005 0 0 0 -0.002,0 l -64.9414,-0.0801 h -1.63086 l -0.0391,-51.32031 h 4.16992 a 0.50005,0.50005 0 0 0 0.5,-0.5 l 0.01,-52.25976 a 0.50005,0.50005 0 0 0 -0.5039,-0.5 l -1.08008,0.006 0.13476,-12.32032 a 0.50005,0.50005 0 0 0 0,-0.008 l -0.0605,-39.13867 a 0.50005,0.50005 0 0 0 -0.49414,-0.5 l -1.48242,-0.0137 z"
       id="Natrona" />
    <path
       style="color:#000000;font-style:normal;font-variant:normal;font-weight:normal;font-stretch:normal;font-size:medium;line-height:normal;font-family:sans-serif;font-variant-ligatures:normal;font-variant-position:normal;font-variant-caps:normal;font-variant-numeric:normal;font-variant-alternates:normal;font-feature-settings:normal;text-indent:0;text-align:start;text-decoration:none;text-decoration-line:none;text-decoration-style:solid;text-decoration-color:#000000;letter-spacing:normal;word-spacing:normal;text-transform:none;writing-mode:lr-tb;direction:ltr;text-orientation:mixed;dominant-baseline:auto;baseline-shift:baseline;text-anchor:start;white-space:normal;shape-padding:0;clip-rule:nonzero;display:inline;overflow:visible;visibility:visible;opacity:1;isolation:auto;mix-blend-mode:normal;color-interpolation:sRGB;color-interpolation-filters:linearRGB;solid-color:#000000;solid-opacity:1;vector-effect:none;fill:#cccccc;fill-opacity:1;fill-rule:nonzero;stroke:none;stroke-width:1;stroke-linecap:butt;stroke-linejoin:miter;stroke-miterlimit:4;stroke-dasharray:none;stroke-dashoffset:0;stroke-opacity:1;color-rendering:auto;image-rendering:auto;shape-rendering:auto;text-rendering:auto;enable-background:accumulate"
       d="m 722.22656,366.56641 3.08399,91.38086 1.66406,51.80664 -20.96484,0.55664 -30.61524,0.3789 a 0.50005,0.50005 0 0 0 -0.006,0 l -18.02344,0.42969 -0.36132,-11.86719 0.31445,-0.0117 a 0.50005,0.50005 0 0 0 0.48242,-0.51171 l -0.88086,-36.79102 a 0.50005,0.50005 0 0 0 0,-0.008 L 656.32017,446.451 a 0.50005,0.50005 0 0 0 -0.50586,-0.48047 l -0.33789,0.004 -1.05664,-40.4668 a 0.50005,0.50005 0 0 0 0,-0.01 l -0.48047,-10.66797 -0.91211,-25.79102 18.23243,-0.78906 25.11718,-0.83008 z"
       id="Platte" />
    <path
       style="color:#000000;font-style:normal;font-variant:normal;font-weight:normal;font-stretch:normal;font-size:medium;line-height:normal;font-family:sans-serif;font-variant-ligatures:normal;font-variant-position:normal;font-variant-caps:normal;font-variant-numeric:normal;font-variant-alternates:normal;font-feature-settings:normal;text-indent:0;text-align:start;text-decoration:none;text-decoration-line:none;text-decoration-style:solid;text-decoration-color:#000000;letter-spacing:normal;word-spacing:normal;text-transform:none;writing-mode:lr-tb;direction:ltr;text-orientation:mixed;dominant-baseline:auto;baseline-shift:baseline;text-anchor:start;white-space:normal;shape-padding:0;clip-rule:nonzero;display:inline;overflow:visible;visibility:visible;opacity:1;isolation:auto;mix-blend-mode:normal;color-interpolation:sRGB;color-interpolation-filters:linearRGB;solid-color:#000000;solid-opacity:1;vector-effect:none;fill:#cccccc;fill-opacity:1;fill-rule:nonzero;stroke:none;stroke-width:1;stroke-linecap:butt;stroke-linejoin:miter;stroke-miterlimit:4;stroke-dasharray:none;stroke-dashoffset:0;stroke-opacity:1;color-rendering:auto;image-rendering:auto;shape-rendering:auto;text-rendering:auto;enable-background:accumulate"
       d="m 25.117188,52.001953 40.492187,1.755859 -0.498047,12.091797 a 0.50005,0.50005 0 0 0 0.480469,0.519532 l 31.160156,1.1875 1.363281,4.177734 a 0.50005,0.50005 0 0 0 0.460938,0.345703 l 5.277348,0.148438 0.76953,3.228515 a 0.50005,0.50005 0 0 0 0.14648,0.25 l 2.09961,1.953125 -0.72461,5.279297 -0.9375,1.119141 a 0.50005,0.50005 0 0 0 -0.11523,0.27539 l -0.58008,6.34961 a 0.50005,0.50005 0 0 0 0.16406,0.417968 l 3.95703,3.554688 0.0273,1.960938 a 0.50005,0.50005 0 0 0 0.15234,0.351562 l 2.52148,2.4375 0.0957,4.59375 a 0.50005,0.50005 0 0 0 0.16211,0.35742 l 2.19726,2.01953 -0.61523,1.58203 a 0.50005,0.50005 0 0 0 0.19531,0.60157 l 5.99805,3.85937 0.53515,5.2207 a 0.50005,0.50005 0 0 0 0.0156,0.082 l 2.64453,9.55859 -1.30469,4.85937 a 0.50005,0.50005 0 0 0 -0.0117,0.21094 l 0.61133,3.71875 a 0.50005,0.50005 0 0 0 0.47656,0.41992 l 6.68946,0.21289 -0.58399,18.29102 -1.00976,29.17774 a 0.50005,0.50005 0 0 0 0.43359,0.51367 l -0.20898,-0.0176 -1.70703,51.75781 -0.15235,-0.006 a 0.50005,0.50005 0 0 0 -0.51562,0.48438 l -0.39258,12.61914 -31.029298,-1.09375 a 0.50005,0.50005 0 0 0 -0.517578,0.48437 l -0.421875,12.57617 -25.296875,-1.01953 a 0.50005,0.50005 0 0 0 -0.521485,0.47852 l -0.33789,8.01172 -24.929688,-1.00196 0.466797,-11.3789 a 0.50005,0.50005 0 0 0 -0.472656,-0.51953 l -24.865234,-1.33399 4.298828,-102.69531 a 0.50005,0.50005 0 0 0 0,-0.0293 L 21.210866,148.9666 23.41985,98.673628 24.32024,80.515425 A 0.50005,0.50005 0 0 0 24.26555,80.263472 L 23.9843,79.710738 Z"
       id="Teton" />
    <path
       style="color:#000000;font-style:normal;font-variant:normal;font-weight:normal;font-stretch:normal;font-size:medium;line-height:normal;font-family:sans-serif;font-variant-ligatures:normal;font-variant-position:normal;font-variant-caps:normal;font-variant-numeric:normal;font-variant-alternates:normal;font-feature-settings:normal;text-indent:0;text-align:start;text-decoration:none;text-decoration-line:none;text-decoration-style:solid;text-decoration-color:#000000;letter-spacing:normal;word-spacing:normal;text-transform:none;writing-mode:lr-tb;direction:ltr;text-orientation:mixed;dominant-baseline:auto;baseline-shift:baseline;text-anchor:start;white-space:normal;shape-padding:0;clip-rule:nonzero;display:inline;overflow:visible;visibility:visible;opacity:1;isolation:auto;mix-blend-mode:normal;color-interpolation:sRGB;color-interpolation-filters:linearRGB;solid-color:#000000;solid-opacity:1;vector-effect:none;fill:#cccccc;fill-opacity:1;fill-rule:nonzero;stroke:none;stroke-width:1;stroke-linecap:butt;stroke-linejoin:miter;stroke-miterlimit:4;stroke-dasharray:none;stroke-dashoffset:0;stroke-opacity:1;color-rendering:auto;image-rendering:auto;shape-rendering:auto;text-rendering:auto;enable-background:accumulate"
       d="m 727.00781,510.75391 0.43164,12.76367 A 0.50005,0.50005 0 0 0 727.95312,524 l 21.28126,-0.58984 a 0.50005,0.50005 0 0 0 0.004,0 l 46.15039,-1.62305 3.09375,83.86133 -70.56054,2.46094 a 0.50005,0.50005 0 0 0 -0.008,0.002 l -20.44336,1.03906 -47.61718,1.2168 -0.35352,-6.64844 -1.23047,-42.99219 0.12109,-10.24023 a 0.50005,0.50005 0 0 0 0,-0.0195 l -0.99804,-38.34961 18.01562,-0.42774 30.61719,-0.3789 a 0.50005,0.50005 0 0 0 0.008,0 z"
       id="Laramie" />
    <path
       style="color:#000000;font-style:normal;font-variant:normal;font-weight:normal;font-stretch:normal;font-size:medium;line-height:normal;font-family:sans-serif;font-variant-ligatures:normal;font-variant-position:normal;font-variant-caps:normal;font-variant-numeric:normal;font-variant-alternates:normal;font-feature-settings:normal;text-indent:0;text-align:start;text-decoration:none;text-decoration-line:none;text-decoration-style:solid;text-decoration-color:#000000;letter-spacing:normal;word-spacing:normal;text-transform:none;writing-mode:lr-tb;direction:ltr;text-orientation:mixed;dominant-baseline:auto;baseline-shift:baseline;text-anchor:start;white-space:normal;shape-padding:0;clip-rule:nonzero;display:inline;overflow:visible;visibility:visible;opacity:1;isolation:auto;mix-blend-mode:normal;color-interpolation:sRGB;color-interpolation-filters:linearRGB;solid-color:#000000;solid-opacity:1;vector-effect:none;fill:#cccccc;fill-opacity:1;fill-rule:nonzero;stroke:none;stroke-width:1;stroke-linecap:butt;stroke-linejoin:miter;stroke-miterlimit:4;stroke-dasharray:none;stroke-dashoffset:0;stroke-opacity:1;color-rendering:auto;image-rendering:auto;shape-rendering:auto;text-rendering:auto;enable-background:accumulate"
       d="m 691.15039,233.16797 0.76953,19.25 1.12891,35.69726 -0.0977,2.0918 a 0.50005,0.50005 0 0 0 0,0.0371 l 1.47852,50.4707 a 0.50005,0.50005 0 0 0 0.49219,0.48438 l 0.0742,0.002 0.84571,25.23438 -24.61914,0.81445 a 0.50005,0.50005 0 0 0 -0.004,0 l -18.73047,0.81055 a 0.50005,0.50005 0 0 0 -0.47851,0.51757 l 0.91211,25.78711 -4.9375,0.1543 a 0.50005,0.50005 0 0 0 -0.42969,0.27344 l -2.07031,4.04883 a 0.50005,0.50005 0 0 0 -0.041,0.11718 l -0.98047,4.28907 a 0.50005,0.50005 0 0 0 -0.0117,0.14453 l 0.51758,8.07812 -1.73828,0.0703 a 0.50005,0.50005 0 0 0 -0.47852,0.55078 l 0.39649,3.8125 -15.26953,0.40429 -10.39063,-1.92578 -0.28516,-10.08984 3.85547,-0.0625 a 0.50005,0.50005 0 0 0 0.49219,-0.50977 l -0.0723,-3.85937 1.66015,-0.0312 a 0.50005,0.50005 0 0 0 0.49219,-0.50781 l -0.0606,-3.66993 a 0.50005,0.50005 0 0 0 -0.50781,-0.49218 l -43.62695,0.57031 -13.88282,0.0586 -0.61328,-42.49804 0.20117,-8.99024 a 0.50005,0.50005 0 0 0 0,-0.0195 l -0.58984,-30.35937 -1.12109,-74.33985 a 0.50005,0.50005 0 0 0 -0.006,-0.0684 L 563,236.77539 l 6.0918,-0.15625 36.44922,-0.7793 a 0.50005,0.50005 0 0 0 0.002,0 l 26.12109,-0.68945 a 0.50005,0.50005 0 0 0 0.002,0 l 40.25976,-1.27148 a 0.50005,0.50005 0 0 0 0.002,0 z"
       id="Converse" />
    <path
       style="color:#000000;font-style:normal;font-variant:normal;font-weight:normal;font-stretch:normal;font-size:medium;line-height:normal;font-family:sans-serif;font-variant-ligatures:normal;font-variant-position:normal;font-variant-caps:normal;font-variant-numeric:normal;font-variant-alternates:normal;font-feature-settings:normal;text-indent:0;text-align:start;text-decoration:none;text-decoration-line:none;text-decoration-style:solid;text-decoration-color:#000000;letter-spacing:normal;word-spacing:normal;text-transform:none;writing-mode:lr-tb;direction:ltr;text-orientation:mixed;dominant-baseline:auto;baseline-shift:baseline;text-anchor:start;white-space:normal;shape-padding:0;clip-rule:nonzero;display:inline;overflow:visible;visibility:visible;opacity:1;isolation:auto;mix-blend-mode:normal;color-interpolation:sRGB;color-interpolation-filters:linearRGB;solid-color:#000000;solid-opacity:1;vector-effect:none;fill:#cccccc;fill-opacity:1;fill-rule:nonzero;stroke:none;stroke-width:1;stroke-linecap:butt;stroke-linejoin:miter;stroke-miterlimit:4;stroke-dasharray:none;stroke-dashoffset:0;stroke-opacity:1;color-rendering:auto;image-rendering:auto;shape-rendering:auto;text-rendering:auto;enable-background:accumulate"
       d="m 266.75391,148.19922 25.73828,0.45117 a 0.50005,0.50005 0 0 0 0.004,0 l 6.07032,0.0352 -0.0957,12.75976 a 0.50005,0.50005 0 0 0 0.49414,0.50391 l 6.27735,0.0566 -0.43164,12.86719 a 0.50005,0.50005 0 0 0 0.49218,0.51757 l 12.58985,0.16407 -0.12305,8.03711 a 0.50005,0.50005 0 0 0 0.50391,0.50781 l 12.65429,-0.084 -1.12304,1.81055 a 0.50005,0.50005 0 0 0 0.14258,0.67578 l 2.68945,1.84961 a 0.50005,0.50005 0 0 0 0.27734,0.0879 l 23.3418,0.2461 -0.11524,12.34961 a 0.50005,0.50005 0 0 0 0.4961,0.5039 l 25.79883,0.17774 -0.0957,12.69922 a 0.50005,0.50005 0 0 0 0.50196,0.5039 l 12.74609,-0.0371 -0.0586,21.35547 -0.0176,3.89063 -61.08008,-0.14844 a 0.50005,0.50005 0 0 0 -0.50195,0.49414 l -0.0137,1.16016 L 315,241.40625 l 0.0293,-1.64648 A 0.50005,0.50005 0 0 0 314.53711,239.25 l -12.58008,-0.19141 0.0527,-3.86132 a 0.50005,0.50005 0 0 0 -0.49219,-0.50782 L 288.9375,234.49805 289,230.57812 a 0.50005,0.50005 0 0 0 -0.49414,-0.50781 l -12.53516,-0.15429 0.14844,-6.05469 a 0.50005,0.50005 0 0 0 -0.49219,-0.51172 l -12.60742,-0.18164 0.0703,-3.97852 a 0.50005,0.50005 0 0 0 -0.49414,-0.50976 l -12.59375,-0.1543 0.008,-1.68359 a 0.50005,0.50005 0 0 0 -0.48829,-0.50196 l -25.5,-0.61718 0.2793,-11.48047 a 0.50005,0.50005 0 0 0 -0.21484,-0.42188 l -2.34961,-1.64062 -4.20313,-8.08985 a 0.50005,0.50005 0 0 0 -0.20312,-0.20898 l -2.80664,-1.53711 -2.23047,-4.24609 a 0.50005,0.50005 0 0 0 -0.20703,-0.20899 l -1.58399,-0.8457 2.67383,-0.19336 19.50977,0.21094 a 0.50005,0.50005 0 0 0 0.5039,-0.48633 l 0.34766,-12.5957 19.12305,0.34179 a 0.50005,0.50005 0 0 0 0.50976,-0.5039 l -0.0957,-12.47852 12.99805,0.21289 a 0.50005,0.50005 0 0 0 0.50781,-0.49414 z"
       id="Hot_Springs"
       inkscape:label="#Hot Springs" />
    <path
       style="color:#000000;font-style:normal;font-variant:normal;font-weight:normal;font-stretch:normal;font-size:medium;line-height:normal;font-family:sans-serif;font-variant-ligatures:normal;font-variant-position:normal;font-variant-caps:normal;font-variant-numeric:normal;font-variant-alternates:normal;font-feature-settings:normal;text-indent:0;text-align:start;text-decoration:none;text-decoration-line:none;text-decoration-style:solid;text-decoration-color:#000000;letter-spacing:normal;word-spacing:normal;text-transform:none;writing-mode:lr-tb;direction:ltr;text-orientation:mixed;dominant-baseline:auto;baseline-shift:baseline;text-anchor:start;white-space:normal;shape-padding:0;clip-rule:nonzero;display:inline;overflow:visible;visibility:visible;opacity:1;isolation:auto;mix-blend-mode:normal;color-interpolation:sRGB;color-interpolation-filters:linearRGB;solid-color:#000000;solid-opacity:1;vector-effect:none;fill:#cccccc;fill-opacity:1;fill-rule:nonzero;stroke:none;stroke-width:1;stroke-linecap:butt;stroke-linejoin:miter;stroke-miterlimit:4;stroke-dasharray:none;stroke-dashoffset:0;stroke-opacity:1;color-rendering:auto;image-rendering:auto;shape-rendering:auto;text-rendering:auto;enable-background:accumulate"
       d="m 789.30078,363.84961 6.05078,156.9375 -46.14648,1.62305 -20.78125,0.57617 -0.4336,-12.76367 -1.67968,-52.3086 -3.08399,-91.38086 21.99024,-0.72265 a 0.50005,0.50005 0 0 0 0.0137,-0.002 l 10.38476,-0.6289 z"
       id="Goshen" />
    <path
       style="color:#000000;font-style:normal;font-variant:normal;font-weight:normal;font-stretch:normal;font-size:medium;line-height:normal;font-family:sans-serif;font-variant-ligatures:normal;font-variant-position:normal;font-variant-caps:normal;font-variant-numeric:normal;font-variant-alternates:normal;font-feature-settings:normal;text-indent:0;text-align:start;text-decoration:none;text-decoration-line:none;text-decoration-style:solid;text-decoration-color:#000000;letter-spacing:normal;word-spacing:normal;text-transform:none;writing-mode:lr-tb;direction:ltr;text-orientation:mixed;dominant-baseline:auto;baseline-shift:baseline;text-anchor:start;white-space:normal;shape-padding:0;clip-rule:nonzero;display:inline;overflow:visible;visibility:visible;opacity:1;isolation:auto;mix-blend-mode:normal;color-interpolation:sRGB;color-interpolation-filters:linearRGB;solid-color:#000000;solid-opacity:1;vector-effect:none;fill:#cccccc;fill-opacity:1;fill-rule:nonzero;stroke:none;stroke-width:1;stroke-linecap:butt;stroke-linejoin:miter;stroke-miterlimit:4;stroke-dasharray:none;stroke-dashoffset:0;stroke-opacity:1;color-rendering:auto;image-rendering:auto;shape-rendering:auto;text-rendering:auto;enable-background:accumulate"
       d="m 16.917969,255.72656 24.361328,1.30664 -0.46875,11.38672 a 0.50005,0.50005 0 0 0 0.478515,0.51953 l 25.431641,1.01953 -0.59375,15.51368 -0.636719,0.10351 a 0.50005,0.50005 0 0 0 -0.419922,0.46875 l -0.61914,12.77149 a 0.50005,0.50005 0 0 0 0,0.006 l -1.353516,38.85937 -3.46875,-0.13086 a 0.50005,0.50005 0 0 0 -0.517578,0.48047 l -0.410156,10.39844 a 0.50005,0.50005 0 0 0 0.476562,0.51953 l 3.212891,0.13867 -1.5,38.95313 a 0.50005,0.50005 0 0 0 0.480469,0.51953 l 4.724609,0.17187 -0.775391,25.29297 a 0.50005,0.50005 0 0 0 0.494141,0.51367 l 12.558594,0.11524 -0.002,0.041 a 0.50005,0.50005 0 0 0 0.482422,0.53516 l 23.917961,0.78125 -0.0293,0.36914 a 0.50005,0.50005 0 0 0 0.48242,0.53906 l 16.63867,0.52344 -1.33203,39.25976 a 0.50005,0.50005 0 0 0 0.47656,0.51563 l 0.40625,0.0195 -2.1875,63.6875 -1.17968,0.0137 -59.037111,-2.28906 -51.6289066,-2.18945 3.4980468,-84.33985 2.4199218,-54.64648 1.800781,-32.80664 a 0.50005,0.50005 0 0 0 0,-0.006 z"
       id="Lincoln" />
    <path
       style="color:#000000;font-style:normal;font-variant:normal;font-weight:normal;font-stretch:normal;font-size:medium;line-height:normal;font-family:sans-serif;font-variant-ligatures:normal;font-variant-position:normal;font-variant-caps:normal;font-variant-numeric:normal;font-variant-alternates:normal;font-feature-settings:normal;text-indent:0;text-align:start;text-decoration:none;text-decoration-line:none;text-decoration-style:solid;text-decoration-color:#000000;letter-spacing:normal;word-spacing:normal;text-transform:none;writing-mode:lr-tb;direction:ltr;text-orientation:mixed;dominant-baseline:auto;baseline-shift:baseline;text-anchor:start;white-space:normal;shape-padding:0;clip-rule:nonzero;display:inline;overflow:visible;visibility:visible;opacity:1;isolation:auto;mix-blend-mode:normal;color-interpolation:sRGB;color-interpolation-filters:linearRGB;solid-color:#000000;solid-opacity:1;vector-effect:none;fill:#cccccc;fill-opacity:1;fill-rule:nonzero;stroke:none;stroke-width:1;stroke-linecap:butt;stroke-linejoin:miter;stroke-miterlimit:4;stroke-dasharray:none;stroke-dashoffset:0;stroke-opacity:1;color-rendering:auto;image-rendering:auto;shape-rendering:auto;text-rendering:auto;enable-background:accumulate"
       d="m 5.3359375,517.46094 51.6328125,2.18945 a 0.50005,0.50005 0 0 0 0.002,0 l 59.05078,2.28906 a 0.50005,0.50005 0 0 0 0.0254,0 l 1.14453,-0.0137 -0.61133,16.52539 a 0.50005,0.50005 0 0 0 0,0.004 l -2.14453,69.95703 -21.123053,-0.36133 -29.982422,-0.94922 -4.445312,-0.40039 a 0.50005,0.50005 0 0 0 -0.02539,0 l -19.988281,-0.75976 -37.3496096,-1.75782 2.328125,-54.1914 z"
       id="Uinta" />
    <path
       style="color:#000000;font-style:normal;font-variant:normal;font-weight:normal;font-stretch:normal;font-size:medium;line-height:normal;font-family:sans-serif;font-variant-ligatures:normal;font-variant-position:normal;font-variant-caps:normal;font-variant-numeric:normal;font-variant-alternates:normal;font-feature-settings:normal;text-indent:0;text-align:start;text-decoration:none;text-decoration-line:none;text-decoration-style:solid;text-decoration-color:#000000;letter-spacing:normal;word-spacing:normal;text-transform:none;writing-mode:lr-tb;direction:ltr;text-orientation:mixed;dominant-baseline:auto;baseline-shift:baseline;text-anchor:start;white-space:normal;shape-padding:0;clip-rule:nonzero;display:inline;overflow:visible;visibility:visible;opacity:1;isolation:auto;mix-blend-mode:normal;color-interpolation:sRGB;color-interpolation-filters:linearRGB;solid-color:#000000;solid-opacity:1;vector-effect:none;fill:#cccccc;fill-opacity:1;fill-rule:nonzero;stroke:none;stroke-width:1;stroke-linecap:butt;stroke-linejoin:miter;stroke-miterlimit:4;stroke-dasharray:none;stroke-dashoffset:0;stroke-opacity:1;color-rendering:auto;image-rendering:auto;shape-rendering:auto;text-rendering:auto;enable-background:accumulate"
       d="m 120.86133,417.48633 33.40234,1.7539 a 0.50005,0.50005 0 0 0 0.006,0 l 28.39063,1.12891 a 0.50005,0.50005 0 0 0 0.01,0 l 50.66016,1.10156 38.64062,0.7793 a 0.50005,0.50005 0 0 0 0.004,0 l 40.33789,0.5 23.82812,0.41016 a 0.50005,0.50005 0 0 0 0.004,0 l 54.82031,0.51953 a 0.50005,0.50005 0 0 0 0.006,0 l 12.08008,-0.0195 -0.0215,25.69922 a 0.50005,0.50005 0 0 0 0.49804,0.5 l 1.58008,0.008 -0.28711,51.86133 -0.49023,12.02539 -46.95508,-0.53321 a 0.50005,0.50005 0 0 0 -0.50586,0.4961 l -0.28906,39.34961 a 0.50005,0.50005 0 0 0 0.49219,0.5039 l 0.95312,0.0137 -0.54101,58.75586 -37.41211,-0.0293 -28.51563,-0.33985 -43.75781,-0.67968 -41.81641,-0.97071 a 0.50005,0.50005 0 0 0 -0.008,0 l -32.43555,-0.33984 -58.10351,-1.54688 2.14453,-69.94726 0.6289,-17.04883 2.22071,-64.66016 a 0.50005,0.50005 0 0 0 -0.47657,-0.51757 l -0.40624,-0.0176 z"
       id="Sweetwater" />
    <path
       style="color:#000000;font-style:normal;font-variant:normal;font-weight:normal;font-stretch:normal;font-size:medium;line-height:normal;font-family:sans-serif;font-variant-ligatures:normal;font-variant-position:normal;font-variant-caps:normal;font-variant-numeric:normal;font-variant-alternates:normal;font-feature-settings:normal;text-indent:0;text-align:start;text-decoration:none;text-decoration-line:none;text-decoration-style:solid;text-decoration-color:#000000;letter-spacing:normal;word-spacing:normal;text-transform:none;writing-mode:lr-tb;direction:ltr;text-orientation:mixed;dominant-baseline:auto;baseline-shift:baseline;text-anchor:start;white-space:normal;shape-padding:0;clip-rule:nonzero;display:inline;overflow:visible;visibility:visible;opacity:1;isolation:auto;mix-blend-mode:normal;color-interpolation:sRGB;color-interpolation-filters:linearRGB;solid-color:#000000;solid-opacity:1;vector-effect:none;fill:#cccccc;fill-opacity:1;fill-rule:nonzero;stroke:none;stroke-width:1;stroke-linecap:butt;stroke-linejoin:miter;stroke-miterlimit:4;stroke-dasharray:none;stroke-dashoffset:0;stroke-opacity:1;color-rendering:auto;image-rendering:auto;shape-rendering:auto;text-rendering:auto;enable-background:accumulate"
       d="m 652.96289,395.36523 0.45703,10.17188 1.07031,40.95508 a 0.50005,0.50005 0 0 0 0.50586,0.48828 l 0.34375,-0.004 0.58008,14.98828 0.86914,36.29297 -0.31836,0.0117 a 0.50005,0.50005 0 0 0 -0.48047,0.51563 l 0.39063,12.85937 1.00976,38.83985 -0.12109,10.24023 a 0.50005,0.50005 0 0 0 0,0.0195 L 658.5,603.75391 a 0.50005,0.50005 0 0 0 0,0.0117 l 0.35352,6.62891 -51.23438,1.26563 -37.73437,0.60937 -29.17383,0.0684 -0.61133,-35.75586 -0.26367,-22.92969 12.52148,0.0469 a 0.50005,0.50005 0 0 0 0.0156,0 l 15.83984,-0.41016 a 0.50005,0.50005 0 0 0 0.48633,-0.51758 l -0.5586,-15.65429 -0.91992,-47.60547 -0.87109,-50.82813 -0.51367,-41.89648 13.60547,-0.0566 a 0.50005,0.50005 0 0 0 0.006,0 l 43.13085,-0.56445 0.043,2.67382 -1.66015,0.0293 a 0.50005,0.50005 0 0 0 -0.49024,0.50977 l 0.0703,3.85937 -3.85938,0.0625 a 0.50005,0.50005 0 0 0 -0.49219,0.51367 l 0.31055,11 a 0.50005,0.50005 0 0 0 0.4082,0.47657 l 10.83985,2.00976 a 0.50005,0.50005 0 0 0 0.10547,0.01 l 15.85937,-0.41993 a 0.50005,0.50005 0 0 0 0.48438,-0.55273 l -0.39454,-3.82031 1.7168,-0.0684 a 0.50005,0.50005 0 0 0 0.47852,-0.53125 l -0.54493,-8.51758 0.95118,-4.1582 1.90625,-3.73242 z"
       id="Albany" />
    <path
       style="color:#000000;font-style:normal;font-variant:normal;font-weight:normal;font-stretch:normal;font-size:medium;line-height:normal;font-family:sans-serif;font-variant-ligatures:normal;font-variant-position:normal;font-variant-caps:normal;font-variant-numeric:normal;font-variant-alternates:normal;font-feature-settings:normal;text-indent:0;text-align:start;text-decoration:none;text-decoration-line:none;text-decoration-style:solid;text-decoration-color:#000000;letter-spacing:normal;word-spacing:normal;text-transform:none;writing-mode:lr-tb;direction:ltr;text-orientation:mixed;dominant-baseline:auto;baseline-shift:baseline;text-anchor:start;white-space:normal;shape-padding:0;clip-rule:nonzero;display:inline;overflow:visible;visibility:visible;opacity:1;isolation:auto;mix-blend-mode:normal;color-interpolation:sRGB;color-interpolation-filters:linearRGB;solid-color:#000000;solid-opacity:1;vector-effect:none;fill:#cccccc;fill-opacity:1;fill-rule:nonzero;stroke:none;stroke-width:1;stroke-linecap:butt;stroke-linejoin:miter;stroke-miterlimit:4;stroke-dasharray:none;stroke-dashoffset:0;stroke-opacity:1;color-rendering:auto;image-rendering:auto;shape-rendering:auto;text-rendering:auto;enable-background:accumulate"
       d="m 774.50586,4.0859375 0.92383,17.9863285 2.2207,54.988281 2.07813,49.267573 -43.55664,1.57227 a 0.50005,0.50005 0 0 0 -0.002,0 l -66.54883,2.76172 -0.67187,-5.59766 -1.09961,-46.886716 a 0.50005,0.50005 0 0 0 -0.008,-0.07227 L 667.47852,76 l -0.98243,-36.349609 0.36524,0.02734 a 0.50005,0.50005 0 0 0 0.53906,-0.511718 l -0.85742,-31.7695316 60.44141,-1.65625 a 0.50005,0.50005 0 0 0 0.004,0 z"
       id="Crook" />
    <path
       style="color:#000000;font-style:normal;font-variant:normal;font-weight:normal;font-stretch:normal;font-size:medium;line-height:normal;font-family:sans-serif;font-variant-ligatures:normal;font-variant-position:normal;font-variant-caps:normal;font-variant-numeric:normal;font-variant-alternates:normal;font-feature-settings:normal;text-indent:0;text-align:start;text-decoration:none;text-decoration-line:none;text-decoration-style:solid;text-decoration-color:#000000;letter-spacing:normal;word-spacing:normal;text-transform:none;writing-mode:lr-tb;direction:ltr;text-orientation:mixed;dominant-baseline:auto;baseline-shift:baseline;text-anchor:start;white-space:normal;shape-padding:0;clip-rule:nonzero;display:inline;overflow:visible;visibility:visible;opacity:1;isolation:auto;mix-blend-mode:normal;color-interpolation:sRGB;color-interpolation-filters:linearRGB;solid-color:#000000;solid-opacity:1;vector-effect:none;fill:#cccccc;fill-opacity:1;fill-rule:nonzero;stroke:none;stroke-width:1;stroke-linecap:butt;stroke-linejoin:miter;stroke-miterlimit:4;stroke-dasharray:none;stroke-dashoffset:0;stroke-opacity:1;color-rendering:auto;image-rendering:auto;shape-rendering:auto;text-rendering:auto;enable-background:accumulate"
       d="m 564.83594,396.80469 0.51367,41.89062 a 0.50005,0.50005 0 0 0 0,0.004 l 0.87109,50.83008 0.91992,47.61132 a 0.50005,0.50005 0 0 0 0,0.008 l 0.54297,15.15625 -15.33007,0.39453 -13.02149,-0.0488 a 0.50005,0.50005 0 0 0 -0.50195,0.50586 l 0.26953,23.43945 a 0.50005,0.50005 0 0 0 0,0.002 l 0.61133,35.73242 -14.6211,-0.26953 a 0.50005,0.50005 0 0 0 -0.0137,0 l -46.08789,0.26953 -87.59766,0.16992 -32.90624,-0.1582 0.54492,-59.24805 a 0.50005,0.50005 0 0 0 -0.49219,-0.50391 l -0.95313,-0.0137 0.28125,-38.34961 46.93946,0.53321 a 0.50005,0.50005 0 0 0 0.50586,-0.47852 l 0.50976,-12.52148 a 0.50005,0.50005 0 0 0 0,-0.0176 l 0.28907,-52.36914 a 0.50005,0.50005 0 0 0 -0.4961,-0.50391 l -1.58203,-0.006 0.0195,-25.70312 0.0293,-25.51954 64.4375,0.0801 35.25976,0.19922 a 0.50005,0.50005 0 0 0 0.0117,0 z"
       id="Carbon" />
    <path
       style="color:#000000;font-style:normal;font-variant:normal;font-weight:normal;font-stretch:normal;font-size:medium;line-height:normal;font-family:sans-serif;font-variant-ligatures:normal;font-variant-position:normal;font-variant-caps:normal;font-variant-numeric:normal;font-variant-alternates:normal;font-feature-settings:normal;text-indent:0;text-align:start;text-decoration:none;text-decoration-line:none;text-decoration-style:solid;text-decoration-color:#000000;letter-spacing:normal;word-spacing:normal;text-transform:none;writing-mode:lr-tb;direction:ltr;text-orientation:mixed;dominant-baseline:auto;baseline-shift:baseline;text-anchor:start;white-space:normal;shape-padding:0;clip-rule:nonzero;display:inline;overflow:visible;visibility:visible;opacity:1;isolation:auto;mix-blend-mode:normal;color-interpolation:sRGB;color-interpolation-filters:linearRGB;solid-color:#000000;solid-opacity:1;vector-effect:none;fill:#cccccc;fill-opacity:1;fill-rule:nonzero;stroke:none;stroke-width:1;stroke-linecap:butt;stroke-linejoin:miter;stroke-miterlimit:4;stroke-dasharray:none;stroke-dashoffset:0;stroke-opacity:1;color-rendering:auto;image-rendering:auto;shape-rendering:auto;text-rendering:auto;enable-background:accumulate"
       d="m 293.21289,135.22656 45.71094,0.60352 a 0.50005,0.50005 0 0 0 0.002,0 l 43.63672,0.35937 4.10938,0.24024 a 0.50005,0.50005 0 0 0 0.0293,0 l 33.44727,-0.14063 24.81445,0.31055 a 0.50005,0.50005 0 0 0 0.01,0 l 1.46875,-0.008 0.23828,52.24023 a 0.50005,0.50005 0 0 0 0.50976,0.49805 l 1.01172,-0.0195 0.10938,38.75 a 0.50005,0.50005 0 0 0 0,0.0195 l 0.31836,7.83398 -12.62305,-0.14453 a 0.50005,0.50005 0 0 0 -0.006,0 h -33.36914 l -6.09961,-0.0273 0.0586,-21.36133 a 0.50005,0.50005 0 0 0 -0.50195,-0.5 l -12.74414,0.0371 0.0957,-12.69336 a 0.50005,0.50005 0 0 0 -0.49609,-0.50391 l -25.79883,-0.17773 0.11524,-12.34766 a 0.50005,0.50005 0 0 0 -0.49415,-0.50586 l -23.6875,-0.24804 -2.17187,-1.49219 1.34961,-2.17578 a 0.50005,0.50005 0 0 0 -0.42969,-0.76367 l -13.04883,0.0859 0.12305,-8.02734 a 0.50005,0.50005 0 0 0 -0.49414,-0.50781 l -12.57813,-0.16407 0.43165,-12.86914 a 0.50005,0.50005 0 0 0 -0.4961,-0.51757 l -6.28906,-0.0547 0.0957,-12.76172 a 0.50005,0.50005 0 0 0 -0.49804,-0.50391 l -6.06446,-0.0351 z"
       id="Washakie" />
    <path
       style="color:#000000;font-style:normal;font-variant:normal;font-weight:normal;font-stretch:normal;font-size:medium;line-height:normal;font-family:sans-serif;font-variant-ligatures:normal;font-variant-position:normal;font-variant-caps:normal;font-variant-numeric:normal;font-variant-alternates:normal;font-feature-settings:normal;text-indent:0;text-align:start;text-decoration:none;text-decoration-line:none;text-decoration-style:solid;text-decoration-color:#000000;letter-spacing:normal;word-spacing:normal;text-transform:none;writing-mode:lr-tb;direction:ltr;text-orientation:mixed;dominant-baseline:auto;baseline-shift:baseline;text-anchor:start;white-space:normal;shape-padding:0;clip-rule:nonzero;display:inline;overflow:visible;visibility:visible;opacity:1;isolation:auto;mix-blend-mode:normal;color-interpolation:sRGB;color-interpolation-filters:linearRGB;solid-color:#000000;solid-opacity:1;vector-effect:none;fill:#cccccc;fill-opacity:1;fill-rule:nonzero;stroke:none;stroke-width:1;stroke-linecap:butt;stroke-linejoin:miter;stroke-miterlimit:4;stroke-dasharray:none;stroke-dashoffset:0;stroke-opacity:1;color-rendering:auto;image-rendering:auto;shape-rendering:auto;text-rendering:auto;enable-background:accumulate"
       d="m 287.51367,9.671875 10.86524,0.2480469 a 0.50005,0.50005 0 0 0 0.006,0 l 64.35937,0.5488281 2.84375,2.074219 -0.0684,7.591797 a 0.50005,0.50005 0 0 0 0.1543,0.367187 l 2.82031,2.697266 -1.22266,5.86914 a 0.50005,0.50005 0 0 0 0.10157,0.417969 l 3.41992,4.19336 -0.11328,2.810546 a 0.50005,0.50005 0 0 0 0.22656,0.4375 l 1.54492,1.015625 0.33008,4.017579 a 0.50005,0.50005 0 0 0 0.20898,0.365234 l 3.60938,2.580078 a 0.50005,0.50005 0 0 0 0.23828,0.0918 l 2.26758,0.238281 1.27148,8.111328 a 0.50005,0.50005 0 0 0 0.34766,0.400391 l 4.53516,1.382812 2.75195,3.611329 a 0.50005,0.50005 0 0 0 0.62109,0.144531 l 5.34961,-2.669922 7.14649,2.871094 2.16797,6.421875 a 0.50005,0.50005 0 0 0 0.61718,0.318359 l 3.21875,-0.966797 2.51953,4.158203 a 0.50005,0.50005 0 0 0 0.28321,0.21875 l 8.02539,2.40625 2.41406,5.244141 a 0.50005,0.50005 0 0 0 0.0645,0.103516 l 7.54297,9.443359 -0.21289,5.414062 a 0.50005,0.50005 0 0 0 0.27735,0.46875 l 6.26953,3.119141 a 0.50005,0.50005 0 0 0 0.35742,0.03516 l 3.74414,-1.042968 0.2832,6.472655 a 0.50005,0.50005 0 0 0 0.3711,0.46094 l 2.75976,0.73438 -1.52734,4.72851 a 0.50005,0.50005 0 0 0 0.008,0.33008 l 1.33984,3.56055 a 0.50005,0.50005 0 0 0 0.22266,0.25976 l 2.73242,1.53516 -0.13476,23.08203 -24.31641,-0.30469 a 0.50005,0.50005 0 0 0 -0.008,0 l -33.43555,0.14063 -4.10351,-0.23828 a 0.50005,0.50005 0 0 0 -0.0254,-0.002 l -43.64843,-0.35937 -46.20899,-0.60938 -2.01953,-0.0332 0.83203,-52.628909 a 0.50005,0.50005 0 0 0 -0.48633,-0.507813 l -1.56445,-0.03906 0.83203,-52.363281 a 0.50005,0.50005 0 0 0 -0.49023,-0.507813 l -2.52539,-0.05078 z"
       id="Big_Horn"
       inkscape:label="#Big Horn" />
    <path
       style="color:#000000;font-style:normal;font-variant:normal;font-weight:normal;font-stretch:normal;font-size:medium;line-height:normal;font-family:sans-serif;font-variant-ligatures:normal;font-variant-position:normal;font-variant-caps:normal;font-variant-numeric:normal;font-variant-alternates:normal;font-feature-settings:normal;text-indent:0;text-align:start;text-decoration:none;text-decoration-line:none;text-decoration-style:solid;text-decoration-color:#000000;letter-spacing:normal;word-spacing:normal;text-transform:none;writing-mode:lr-tb;direction:ltr;text-orientation:mixed;dominant-baseline:auto;baseline-shift:baseline;text-anchor:start;white-space:normal;shape-padding:0;clip-rule:nonzero;display:inline;overflow:visible;visibility:visible;opacity:1;isolation:auto;mix-blend-mode:normal;color-interpolation:sRGB;color-interpolation-filters:linearRGB;solid-color:#000000;solid-opacity:1;vector-effect:none;fill:#cccccc;fill-opacity:1;fill-rule:nonzero;stroke:none;stroke-width:1;stroke-linecap:butt;stroke-linejoin:miter;stroke-miterlimit:4;stroke-dasharray:none;stroke-dashoffset:0;stroke-opacity:1;color-rendering:auto;image-rendering:auto;shape-rendering:auto;text-rendering:auto;enable-background:accumulate"
       d="m 566.80664,75.417969 -0.38476,5.939453 a 0.50005,0.50005 0 0 0 -0.002,0.03711 l 0.29102,32.660158 a 0.50005,0.50005 0 0 0 0,0.004 l 0.33984,20.31055 a 0.50005,0.50005 0 0 0 0.50781,0.49024 h 0.0625 l 1.0586,51.50781 -0.42578,0.0137 a 0.50005,0.50005 0 0 0 -0.48438,0.50391 l 0.33985,29.64062 a 0.50005,0.50005 0 0 0 0,0.006 l 0.45898,19.10156 -6.16016,0.15821 -40.43554,0.78906 -27.14649,0.35937 -45.1875,0.17774 0.0117,-0.68946 a 0.50005,0.50005 0 0 0 0,-0.0273 l -0.33984,-8.35156 -0.11133,-39.25 a 0.50005,0.50005 0 0 0 -0.50977,-0.49805 l -1.01172,0.0195 -0.23828,-52.23242 a 0.50005,0.50005 0 0 0 -0.50195,-0.49805 l -1.46289,0.008 0.13477,-23.375 a 0.50005,0.50005 0 0 0 -0.25391,-0.43946 l -2.83203,-1.58984 -1.21485,-3.22656 1.63672,-5.0625 a 0.50005,0.50005 0 0 0 -0.34765,-0.63672 l -2.91407,-0.77539 -0.29492,-6.734377 a 0.50005,0.50005 0 0 0 -0.63281,-0.458984 l -4.16406,1.158203 -5.8086,-2.890625 0.20703,-5.277344 a 0.50005,0.50005 0 0 0 -0.10937,-0.332031 l -7.0058,-8.769992 25.24219,0.181641 a 0.50005,0.50005 0 0 0 0.008,0 l 13.90625,-0.148438 35.83789,0.109375 a 0.50005,0.50005 0 0 0 0.006,0 l 25.30859,-0.230469 a 0.50005,0.50005 0 0 0 0.4961,-0.5 V 76.34375 l 26.4082,-0.384766 a 0.50005,0.50005 0 0 0 0.008,0 z"
       id="Johnson" />
    <path
       style="color:#000000;font-style:normal;font-variant:normal;font-weight:normal;font-stretch:normal;font-size:medium;line-height:normal;font-family:sans-serif;font-variant-ligatures:normal;font-variant-position:normal;font-variant-caps:normal;font-variant-numeric:normal;font-variant-alternates:normal;font-feature-settings:normal;text-indent:0;text-align:start;text-decoration:none;text-decoration-line:none;text-decoration-style:solid;text-decoration-color:#000000;letter-spacing:normal;word-spacing:normal;text-transform:none;writing-mode:lr-tb;direction:ltr;text-orientation:mixed;dominant-baseline:auto;baseline-shift:baseline;text-anchor:start;white-space:normal;shape-padding:0;clip-rule:nonzero;display:inline;overflow:visible;visibility:visible;opacity:1;isolation:auto;mix-blend-mode:normal;color-interpolation:sRGB;color-interpolation-filters:linearRGB;solid-color:#000000;solid-opacity:1;vector-effect:none;fill:#cccccc;fill-opacity:1;fill-rule:nonzero;stroke:none;stroke-width:1;stroke-linecap:butt;stroke-linejoin:miter;stroke-miterlimit:4;stroke-dasharray:none;stroke-dashoffset:0;stroke-opacity:1;color-rendering:auto;image-rendering:auto;shape-rendering:auto;text-rendering:auto;enable-background:accumulate"
       d="m 779.76953,127.32812 1.91992,49.94141 2.08985,51.16211 -39.24805,1.62891 -36.33008,1.32031 a 0.50005,0.50005 0 0 0 -0.004,0 l -16.58789,0.76953 -19.21485,0.71094 -1.50391,-49.01563 -1.19921,-52.18554 66.51757,-2.75977 z"
       id="Weston" />
    <path
       style="color:#000000;font-style:normal;font-variant:normal;font-weight:normal;font-stretch:normal;font-size:medium;line-height:normal;font-family:sans-serif;font-variant-ligatures:normal;font-variant-position:normal;font-variant-caps:normal;font-variant-numeric:normal;font-variant-alternates:normal;font-feature-settings:normal;text-indent:0;text-align:start;text-decoration:none;text-decoration-line:none;text-decoration-style:solid;text-decoration-color:#000000;letter-spacing:normal;word-spacing:normal;text-transform:none;writing-mode:lr-tb;direction:ltr;text-orientation:mixed;dominant-baseline:auto;baseline-shift:baseline;text-anchor:start;white-space:normal;shape-padding:0;clip-rule:nonzero;display:inline;overflow:visible;visibility:visible;opacity:1;isolation:auto;mix-blend-mode:normal;color-interpolation:sRGB;color-interpolation-filters:linearRGB;solid-color:#000000;solid-opacity:1;vector-effect:none;fill:#cccccc;fill-opacity:1;fill-rule:nonzero;stroke:none;stroke-width:1;stroke-linecap:butt;stroke-linejoin:miter;stroke-miterlimit:4;stroke-dasharray:none;stroke-dashoffset:0;stroke-opacity:1;color-rendering:auto;image-rendering:auto;shape-rendering:auto;text-rendering:auto;enable-background:accumulate"
       d="m 665.54297,7.421875 0.8418,31.216797 -0.36719,-0.02734 a 0.50005,0.50005 0 0 0 -0.53711,0.511719 l 1,36.941406 a 0.50005,0.50005 0 0 0 0.008,0.07031 l 0.36328,2.103515 1.09766,46.873048 a 0.50005,0.50005 0 0 0 0.004,0.0488 l 0.72852,6.05468 1.20898,52.65625 a 0.50005,0.50005 0 0 0 0,0.004 l 1.50391,49.02148 -39.75976,1.25391 -26.11719,0.68945 -35.94922,0.76954 -0.45898,-19.09766 -0.33399,-29.14844 0.43164,-0.0137 a 0.50005,0.50005 0 0 0 0.48242,-0.50977 l -1.08007,-52.5 a 0.50005,0.50005 0 0 0 -0.50782,-0.49023 l -0.0586,0.002 -0.33203,-19.80859 -0.29102,-32.638672 0.41992,-6.472656 a 0.50005,0.50005 0 0 0 0,-0.04297 l -0.42968,-19.490234 a 0.50005,0.50005 0 0 0 -0.0137,-0.103516 l -0.47656,-2.035156 -0.30078,-22.675782 a 0.50005,0.50005 0 0 0 -0.0684,-0.248046 l -0.9043,-1.529297 -0.47265,-18.164063 9.83398,-0.171875 a 0.50005,0.50005 0 0 0 0.26563,-0.08203 l 1.4707,-0.9609376 57.78711,-1.2070313 a 0.50005,0.50005 0 0 0 0.002,0 z"
       id="Campbell" />
  </g>
</svg>
